<svg width="240" height="69" viewBox="0 0 240 69" fill="none" xmlns="http://www.w3.org/2000/svg">
<path d="M65.1561 37.9712C65.7873 37.481 67.0928 36.4429 69.7612 34.8858C79.3157 25.2404 77.2642 14.4127 71.2962 8.42937C65.2565 2.37394 54.4538 0.182437 44.9566 9.71253C44.1102 10.5632 42.8764 10.8804 41.7287 10.5488C38.2857 9.55394 28.7742 14.4271 28.2147 14.8885C27.3826 15.5949 26.5649 18.5938 26.2062 19.8626C26.0771 20.3384 26.0197 20.5546 25.9623 20.67C25.8763 20.9439 25.4602 21.6792 23.3083 24.3753C23.4374 24.5916 23.8248 25.0241 24.5564 25.3702C25.0585 25.6153 26.364 26.091 27.5404 25.2981C29.1185 24.2312 29.8932 22.8759 30.4957 21.7946C30.84 21.1746 31.1413 20.6411 31.543 20.2374C32.4038 19.257 32.6189 17.4548 32.4898 16.1284C32.4755 16.0131 32.5186 15.8977 32.5903 15.8112C32.662 15.7247 32.7768 15.6959 32.8915 15.6815C33.1641 15.6526 33.5515 15.7824 34.0392 16.114C34.6561 16.5321 35.0865 17.4404 35.4308 17.5413C35.4595 17.5558 35.5313 17.5702 35.6891 17.4693C38.6157 15.5084 45.8175 19.4733 57.7104 29.5945C58.7433 30.3298 62.4734 30.6903 65.3139 30.0126C65.3426 29.9982 65.3712 29.9982 65.4143 29.9982C65.5577 29.9982 65.7012 30.0703 65.7729 30.2145C65.859 30.3731 65.8303 30.5749 65.7012 30.7047C64.74 31.6851 63.6067 32.3195 62.789 32.7953C62.3012 33.0692 61.6986 33.4152 61.6413 33.5882C64.2379 35.7941 64.783 37.3512 64.9839 38.101C65.0556 38.0577 65.113 38.0144 65.1561 37.9712Z" fill="#3E4447"/>
<path d="M39.7632 65.0331C46.4772 58.2857 63.2192 41.4746 64.2378 40.4221C63.5635 40.177 63.3196 39.5138 63.0757 38.8795C62.961 38.5767 62.8461 38.2595 62.674 37.9423C61.885 37.1493 61.139 36.3852 60.393 35.6211C55.3431 30.474 50.9963 26.0333 42.862 21.1313C38.3429 18.3199 37.4821 18.8389 36.7935 19.257C36.3488 19.5309 35.8611 19.8337 34.8999 19.5598C34.6273 19.4877 34.3834 19.3579 34.1395 19.1993C33.9386 20.2807 33.6087 21.1169 33.1352 21.6503C32.9631 21.8522 32.6905 22.2703 32.4036 22.7605C31.0407 24.9952 28.2145 29.6521 23.4659 27.1435C22.1461 26.4514 21.4575 25.7305 21.2853 24.9087C21.0558 23.7697 21.9166 22.7028 22.8204 21.5927C23.2077 21.1025 23.6237 20.6123 23.9537 20.0788C24.1832 19.1128 25.5031 14.4847 26.8803 13.3025C27.7985 12.5095 31.7724 10.7506 34.5412 9.68365C27.6263 2.99385 19.9511 1.39348 12.7924 5.14208C13.9114 5.5602 15.0017 6.19457 16.0346 7.04521C16.3646 7.31915 16.5224 7.70843 16.465 8.11212C16.3933 8.51582 16.1064 8.87626 15.719 9.03486C15.346 9.17903 14.9443 9.10694 14.6287 8.83301C13.1797 7.63634 11.6447 6.97312 10.0953 6.88662C2.69269 12.6104 1.64542 22.4577 4.9307 28.3401C7.42693 32.7808 11.7738 34.1793 16.8523 32.1464C17.0245 32.0743 17.211 32.132 17.3258 32.2762C17.4405 32.4203 17.4405 32.6222 17.3258 32.7664C17.2397 32.8961 15.1165 35.7364 10.3392 35.5057C10.6405 35.8085 13.4954 38.6344 15.0734 40.2059C17.1536 36.8898 20.3098 36.2843 22.4473 36.8033C24.7571 37.3656 26.3782 39.1102 26.7656 41.3737C29.1757 39.6004 31.7006 39.9608 33.3361 40.97C35.0863 42.0369 36.0476 43.8536 35.9041 45.6558C38.4003 44.8051 40.7818 45.353 42.1303 47.1408C43.4789 48.9286 43.3784 51.4229 41.9151 53.499C42.6468 53.8883 43.1776 54.5227 43.4932 55.3445C44.0527 56.8151 43.8375 58.8335 42.948 60.4627C42.3024 61.645 41.3126 62.2073 40.1649 62.8561C39.9066 63.0003 39.6341 63.1588 39.3472 63.3319C38.9742 63.5481 38.6442 63.6635 38.429 63.75C38.5437 63.8653 38.6872 63.9951 38.8307 64.1393C39.0602 64.3411 39.3759 64.6439 39.7632 65.0331Z" fill="#73B6DA"/>
<path d="M23.2075 39.3841C21.3425 38.1154 18.8749 38.9804 17.4977 40.4222C16.8521 41.0998 14.9297 43.5797 17.3255 46.7948C18.4015 48.1933 19.3627 48.1501 20.3956 47.6022C20.9982 47.2706 21.5433 46.8236 22.0167 46.319L23.5805 44.6754C24.7425 43.4499 24.9864 41.5179 23.9822 40.1483C23.767 39.8455 23.4944 39.586 23.2075 39.3841Z" fill="#3E4447"/>
<path d="M41.2267 55.6039C40.5668 54.9263 39.7778 55.1137 38.6444 55.4742C38.501 55.5174 38.3432 55.5751 38.2141 55.6039C37.9128 55.7193 37.6833 55.676 37.5542 55.4597C37.339 55.1137 37.5541 54.9119 38.2858 54.2487C38.917 53.672 39.8639 52.7925 40.3517 51.9995C41.2842 50.5145 41.1263 48.9285 39.95 47.977C38.7736 47.011 36.593 46.838 34.5989 48.7555C33.609 49.5773 33.0351 49.116 32.8773 48.9574C32.4469 48.5104 32.5043 47.703 32.9921 47.1407C33.6376 46.4343 33.9102 45.6269 33.7668 44.8339C33.609 43.9256 32.9203 43.1038 31.8157 42.5271C29.922 41.6765 28.6165 42.2676 27.0241 43.8968C26.4072 44.5311 25.7616 45.1511 25.0587 45.699L25.0299 45.7278C24.2696 46.3189 23.5667 46.9821 22.9067 47.6886C22.835 47.7607 22.7633 47.8328 22.6915 47.9049C21.716 48.8853 20.3818 50.2405 22.462 52.5762C24.4274 54.811 26.5937 53.5854 27.5118 53.052C27.8274 52.8646 28.1717 52.6771 28.4013 52.9511C28.7169 53.2394 28.4587 53.6431 28.2435 53.9747C27.7844 54.6812 27.0241 55.8634 28.1718 57.262C29.6207 58.9632 30.9262 58.3577 31.7726 57.9684C32.0022 57.8675 32.2461 57.7522 32.4756 57.7522C32.6334 57.7522 32.7769 57.8098 32.8916 57.9828C33.0925 58.4298 32.8629 58.7758 32.6334 59.1507C32.203 59.8139 31.7296 60.5636 32.7051 61.7314C33.2359 62.3514 34.0824 62.6109 35.2157 62.4956C37.6546 62.2361 40.5956 60.3329 41.069 59.4679C41.5568 58.5307 42.0445 56.4402 41.2267 55.6039Z" fill="#3E4447"/>
<path d="M73.4623 6.209C66.1171 -1.17286 53.1481 -3.10482 42.6037 7.49218C41.0974 7.05965 39.1463 7.24707 37.1092 7.73727C28.8458 -0.466393 19.1047 -2.23978 10.3679 2.86409C9.99488 3.08035 9.67926 3.38312 9.43538 3.72915C9.01934 3.81565 8.61765 3.98868 8.28769 4.2482C-0.606935 11.0101 -1.81201 22.847 2.16188 29.9405C3.29523 31.959 4.7729 33.5305 6.48009 34.5974C6.27925 35.9959 7.39825 37.1061 9.27759 38.966C10.1384 39.8166 11.3578 41.0133 13.0076 42.6857C12.7781 44.7042 13.3663 46.838 14.8009 48.77C15.6186 49.8225 16.7376 50.8029 18.2009 51.0913C18.4304 52.4898 19.2051 53.7009 20.0515 54.6524C20.9123 55.6328 22.39 56.8583 24.4989 57.0313C24.7427 57.9252 25.2018 58.675 25.704 59.2805C26.4786 60.1888 27.569 61.0827 29.0036 61.4143C29.2188 62.337 29.7065 63.1012 30.2086 63.7211C31.2846 64.9899 32.8483 65.6531 34.699 65.6531C34.9716 65.6531 35.2442 65.6387 35.5311 65.6099C35.6028 65.5954 35.6745 65.5954 35.7463 65.581C36.0045 65.8838 36.2627 66.1433 36.5209 66.374C36.8079 66.6479 37.1952 67.0228 37.6974 67.5274C38.2569 68.0897 38.9885 68.3636 39.7201 68.3636C40.4518 68.3636 41.1834 68.0897 41.7429 67.5274C48.5717 60.6646 63.9939 45.18 65.3711 43.7959C66.8488 42.2965 67.9534 41.1719 67.896 39.8887C68.599 39.3697 69.6462 38.6632 71.2817 37.7116C71.4969 37.5819 71.6977 37.4377 71.8699 37.2503C83.0455 26.0477 80.5206 13.3025 73.4623 6.209ZM71.1382 36.6447C71.0091 36.7745 70.88 36.8754 70.7222 36.9619C68.7137 38.1297 67.5661 38.9516 66.8774 39.485C67.2074 40.5663 66.3609 41.4458 64.6824 43.1471C63.3196 44.5312 47.9979 59.9005 41.2122 66.7344C40.8248 67.1237 40.3227 67.3256 39.7776 67.3256C39.2324 67.3256 38.7303 67.1093 38.3429 66.7344C37.8408 66.2298 37.4391 65.855 37.1522 65.581C36.7935 65.2494 36.4492 64.9034 36.191 64.5141C35.9758 64.5574 35.7606 64.5862 35.5311 64.615C35.2585 64.6439 35.0002 64.6583 34.7707 64.6583C32.7909 64.6583 31.6146 63.7932 30.9546 63.0147C30.223 62.1352 29.9074 61.299 29.8213 60.5348C28.5732 60.4051 27.4542 59.7563 26.4643 58.6029C25.8043 57.8099 25.4313 56.9737 25.3166 56.1086C23.2794 56.1663 21.8161 55.1282 20.8406 54.0036C19.7359 52.7493 19.1621 51.5094 19.1477 50.255C17.8566 50.1974 16.6802 49.5053 15.6616 48.1789C14.2844 46.319 13.7679 44.2717 14.1122 42.3397C14.0692 42.2965 14.0118 42.2676 13.9831 42.2244C12.2472 40.4798 10.9848 39.2255 10.0953 38.3604C7.92905 36.2122 7.15434 35.4625 7.71384 34.2081C5.89188 33.2277 4.3425 31.6706 3.16611 29.5801C-0.621274 22.8326 0.555112 11.5579 9.04804 5.09883C9.378 4.83931 9.79406 4.69515 10.2101 4.68073C10.3822 4.30587 10.6691 3.97426 11.0421 3.75799C19.5638 -1.23053 28.7166 0.499585 36.7935 8.63116C36.8509 8.68883 36.8939 8.76093 36.937 8.8186C39.0028 8.27072 40.997 8.01121 42.4316 8.42933C42.7185 8.51583 43.0197 8.44374 43.2349 8.22748C53.3346 -1.92258 65.7297 -0.105951 72.745 6.9443C79.4447 13.735 81.8261 25.918 71.1382 36.6447Z" fill="#3E4447"/>
<path d="M94.7593 46.9523V55.2111H89.6733V32.2476H98.267C102.902 32.2476 106.084 35.3195 106.084 39.6C106.084 43.9308 102.902 46.9523 98.267 46.9523H94.7593ZM97.7659 42.5459C99.6951 42.5459 101.023 41.4129 101.023 39.6251C101.023 37.7871 99.6951 36.6792 97.7659 36.6792H94.8094V42.5459H97.7659Z" fill="#3E4447"/>
<path d="M120.54 31.7189C126.954 31.7189 132.391 36.4274 132.391 43.7043C132.391 50.9559 126.954 55.6644 120.54 55.6644C114.101 55.6644 108.639 50.9559 108.639 43.7043C108.665 36.4274 114.101 31.7189 120.54 31.7189ZM120.54 50.6034C123.697 50.6034 127.105 48.4632 127.105 43.6791C127.105 38.895 123.697 36.7296 120.54 36.7296C117.358 36.7296 113.926 38.895 113.926 43.6791C113.951 48.4632 117.358 50.6034 120.54 50.6034Z" fill="#3E4447"/>
<path d="M145.219 37.1324V55.2111H140.108V37.1324H133.092V32.2476H152.259V37.1324H145.219Z" fill="#3E4447"/>
<path d="M155.341 55.2111V32.2476H169.822V37.082H160.452V41.438H169.847V45.9451H160.452V50.3515H169.847V55.2111H155.341Z" fill="#3E4447"/>
<path d="M187.411 55.2112L177.99 40.1288V55.2112H172.929V32.2476H179.118L187.686 46.197V32.2476H192.797V55.2112H187.411Z" fill="#3E4447"/>
<path d="M195.879 43.7799C195.879 36.6289 201.291 31.7693 207.68 31.7693C214.544 31.7693 217.576 36.2009 218.303 39.4994L213.492 41.0101C213.141 39.4238 211.688 36.7297 207.654 36.7297C204.598 36.7297 201.14 38.9203 201.14 43.7547C201.14 48.0603 204.297 50.5531 207.705 50.5531C211.663 50.5531 213.242 47.9093 213.693 46.2474L218.553 47.6323C217.802 50.8049 214.795 55.6645 207.705 55.6645C201.165 55.6897 195.879 50.9308 195.879 43.7799Z" fill="#3E4447"/>
<path d="M218.954 32.2476H224.917L229.602 40.7582L234.337 32.2476H240L231.982 45.6178V55.2111H226.896V45.6178L218.954 32.2476Z" fill="#3E4447"/>
<path d="M109.679 17.8373C108.79 17.8373 107.845 18.4454 107.845 19.7756C107.845 21.1058 108.79 21.7139 109.679 21.7139C110.567 21.7139 111.513 21.1248 111.513 19.7756C111.513 18.4454 110.549 17.8373 109.679 17.8373Z" fill="#73B6DA"/>
<path d="M116.263 17.8184H115.427V19.4527H116.263C116.814 19.4527 117.175 19.1296 117.175 18.6355C117.175 18.1224 116.795 17.8184 116.263 17.8184Z" fill="#73B6DA"/>
<path d="M121.308 12.6876H91.3184C90.4108 12.6876 89.6733 13.4287 89.6733 14.3408V25.2296C89.6733 26.1418 90.4108 26.8829 91.3184 26.8829H121.308C122.215 26.8829 122.953 26.1418 122.953 25.2296V14.3408C122.953 13.4287 122.215 12.6876 121.308 12.6876ZM96.6317 23.1203C94.8732 23.1203 94.1168 21.9801 94.0223 21.0679L95.327 20.7449C95.3837 21.334 95.7808 21.8471 96.6506 21.8471C97.199 21.8471 97.5583 21.581 97.5583 21.182C97.5583 20.8589 97.2935 20.6309 96.8776 20.5358L96.0077 20.3648C94.9299 20.1558 94.2681 19.4337 94.2681 18.4835C94.2681 17.2673 95.327 16.4312 96.5561 16.4312C98.1444 16.4312 98.7495 17.3813 98.8819 18.1415L97.596 18.5025C97.5582 18.1985 97.3124 17.7044 96.5371 17.7044C96.0077 17.7044 95.6674 18.0464 95.6674 18.3885C95.6674 18.6925 95.8565 18.9206 96.2914 18.9966L97.1423 19.1676C98.3524 19.3957 98.9953 20.1748 98.9953 21.0869C98.9764 22.1131 98.1444 23.1203 96.6317 23.1203ZM105.349 22.9872H103.912V20.4408H101.359V22.9872H99.9407V16.5832H101.359V19.0916H103.912V16.5832H105.349V22.9872ZM109.679 23.1203C107.882 23.1203 106.351 21.809 106.351 19.7757C106.351 17.7424 107.864 16.4312 109.679 16.4312C111.475 16.4312 112.988 17.7424 112.988 19.7757C112.988 21.809 111.456 23.1203 109.679 23.1203ZM116.391 20.6879H115.408V22.9872H113.99V16.5832H116.391C117.677 16.5832 118.585 17.4383 118.585 18.6355C118.585 19.8517 117.696 20.6879 116.391 20.6879Z" fill="#73B6DA"/>
</svg>
