<svg width="161" height="45" viewBox="0 0 161 45" fill="none" xmlns="http://www.w3.org/2000/svg">
<path d="M34.4932 23.0024C34.15 22.1873 33.7961 21.3615 33.41 20.5679C33.1312 19.9781 32.788 19.4097 32.4555 18.8305C32.3161 18.5946 32.3483 18.3801 32.4555 18.1656C32.7022 17.6723 32.8523 17.1789 32.67 16.6213C32.5735 16.3317 32.4877 16.0314 32.4126 15.7311C32.3161 15.4201 32.2303 15.0984 32.1445 14.7874C33.8712 14.4013 34.9865 13.2001 33.9677 9.81114C33.292 7.54825 31.7477 6.29348 31.2436 5.98246C29.7529 5.08159 27.2112 0.781029 21.6344 0.941898C18.4492 1.03842 15.2103 1.43523 12.186 2.35755C9.75152 3.09754 7.91761 4.09493 6.36254 6.3042C6.18023 6.45434 4.23907 9.29636 3.75646 12.1169C3.67067 12.6424 3.56342 13.1572 3.47762 13.6827C3.40255 14.1224 3.3382 14.53 3.15589 14.8732C1.4185 14.841 0.667778 15.699 0.506909 16.6963C0.32459 17.8224 0.74285 18.5731 1.31125 18.97C1.86893 19.3668 2.27647 19.474 3.11299 19.5062C3.15589 19.5062 3.19878 19.5062 3.24168 19.5062C3.24168 19.5276 3.23096 19.5491 3.23096 19.5598C1.74024 19.71 0.581981 20.6001 0.539082 21.7155C0.506909 22.7021 1.00024 23.5386 2.52313 23.9569C2.64111 23.9891 2.59821 24.1714 2.59821 24.2679C1.3327 24.5468 0.860821 25.3833 0.74285 26.3699C0.581981 27.6462 1.71879 29.0189 3.09154 29.3085C3.13444 29.3192 3.17734 29.3299 3.22023 29.3407C3.29531 29.8125 3.60632 30.2201 4.05675 30.456C4.01385 31.0673 3.94951 31.6893 3.88516 32.3221C3.24168 32.129 2.49096 32.3972 2.06198 33.0406C1.65444 33.6519 1.61154 34.6708 2.00835 35.1748C1.85821 35.2606 1.72951 35.3679 1.63299 35.4966C1.17183 36.0971 1.25763 37.3412 1.97618 37.6093C2.75908 37.9096 3.04864 37.7166 3.4669 37.2018C4.34632 36.3224 6.33037 33.9201 7.20979 29.3299C7.94978 29.212 8.73268 29.0082 9.50485 28.7079C9.50485 28.7079 9.45123 31.3998 7.57442 34.2954C6.44834 35.9041 3.11299 38.1134 0.442561 42.7893C-0.404683 44.28 0.0564748 45.7707 2.93067 43.9583C4.0782 43.229 5.3866 42.5855 6.79153 42.1887C11.1564 40.9661 14.8779 40.6444 20.5405 42.6928C26.6535 44.9235 31.7155 41.0519 31.7155 41.0519L30.879 39.6148C30.879 39.6148 31.619 38.9821 31.5332 38.4458C31.4474 37.8989 30.9433 37.2769 30.5894 37.0302C30.2462 36.7728 30.1712 35.9363 30.1068 35.829C30.0425 35.7218 29.1416 34.8853 29.1416 34.8853C29.1416 34.8853 28.8306 34.6064 28.2836 34.8424C27.7367 35.089 27.2326 35.1641 27.0503 35.0569C26.8787 34.9496 26.4283 34.4992 26.4283 34.4992L25.9564 34.038C25.9349 33.8879 25.9457 33.7056 25.9778 33.5018C26.0315 33.2015 26.1173 32.9763 26.1923 32.8047C26.3639 32.7618 26.5355 32.7189 26.6964 32.676C27.0718 32.558 27.4578 32.4508 27.8439 32.3543C28.1764 32.2685 28.4981 32.1612 28.8306 32.1183C29.3561 32.0325 29.8923 32.0325 30.4071 31.9253C31.1471 31.7751 31.5439 31.0995 31.4045 30.3273C31.308 29.8233 31.1793 29.3406 31.4152 28.8259C31.5546 28.5149 31.383 28.1931 31.0828 28.0108C30.9112 27.9143 30.7181 27.8285 30.45 27.7105C30.7503 27.5818 30.9862 27.496 31.2115 27.4102C31.5654 27.2708 31.7048 27.067 31.6941 26.6702C31.6833 26.445 31.6512 26.2198 31.6297 25.9946C31.5975 25.4798 31.7799 25.201 32.2625 25.0723C32.7665 24.9543 33.2813 24.8363 33.7854 24.7827C34.1285 24.7398 34.343 24.5575 34.5146 24.2894C34.8042 23.8604 34.6541 23.4207 34.4932 23.0024Z" fill="white"/>
<path d="M69.5754 28.9031C69.1464 29.5788 68.4064 30.1364 67.3662 30.5869C66.6262 31.0588 64.8137 31.4556 61.9288 31.7666L60.9207 31.6593L60.7062 31.7666C60.5882 31.7022 60.3308 31.6272 59.934 31.5414C59.9018 31.5414 59.7839 31.5628 59.5908 31.6057C58.4111 31.4341 57.7998 31.3269 57.7569 31.284C56.8024 31.1124 56.2555 30.9837 56.1482 30.8872C54.8613 30.5011 53.6065 29.9863 52.3732 29.3535C53.5958 27.0049 54.6789 25.0423 55.6227 23.4657C55.6227 23.3799 56.0302 23.262 56.8453 23.1226H56.8882L56.9955 23.1869V23.1226C58.1859 23.0368 58.7865 22.9081 58.7757 22.7257C58.8615 22.7257 58.9366 22.7472 59.001 22.7901C59.194 22.7901 60.1699 22.597 61.9395 22.2217C62.465 22.2217 63.1192 22.286 63.8914 22.4255C63.9557 22.3933 64.0094 22.3826 64.0523 22.3826C64.685 22.6399 65.1462 22.7686 65.4465 22.7579C66.7549 23.3799 67.5377 23.6802 67.7737 23.6802C67.9024 23.9054 68.1062 24.0878 68.3957 24.2379C68.5459 24.2379 68.7175 24.3559 68.9427 24.5811C69.3502 25.1066 69.629 25.4176 69.7792 25.5249C69.9508 25.8144 70.1546 26.297 70.4012 26.962C70.1438 28.0666 69.865 28.7101 69.5754 28.9031ZM52.2016 27.6376V27.4231H52.3088V27.6376H52.2016ZM53.3491 25.3533V25.246C53.3491 25.1817 53.3813 25.1495 53.4563 25.1388L53.5636 25.1924C53.5314 25.2675 53.5207 25.3211 53.5207 25.3533H53.3491ZM59.9662 14.2855C60.7169 14.0603 61.7465 13.8136 63.0656 13.5455L63.1943 13.6098C64.7065 13.449 65.5751 13.331 65.8004 13.2559C65.9291 13.2559 66.0899 13.2774 66.2937 13.3203C66.3259 13.3203 66.476 13.2988 66.7441 13.2559C67.9238 13.3203 68.6209 13.4382 68.8462 13.5884C68.8462 13.5455 68.8676 13.524 68.8998 13.524H69.0177C70.2725 13.9423 70.8946 14.3498 70.9053 14.7466C70.9053 14.7895 70.8838 14.8432 70.8517 14.9182L70.9053 15.0255L70.8517 15.3472C70.5728 16.1837 69.747 17.1597 68.3743 18.2536C66.8299 19.1973 64.8137 20.0875 62.3256 20.9347H61.8215L61.4998 20.8918C61.4247 20.924 61.3497 20.9347 61.2639 20.9347C60.0091 20.8704 59.3763 20.7953 59.3763 20.7202L58.9473 20.8382C58.9044 20.8382 58.8401 20.8168 58.7757 20.7846C58.7114 20.8168 58.6363 20.8382 58.5613 20.8382H58.1644L57.7784 20.7953C57.7784 20.8811 57.521 20.924 56.9955 20.9562L56.9847 20.7953C57.5746 19.8515 58.572 17.6852 59.9662 14.2855ZM49.2737 32.4208C49.2094 32.4208 49.1772 32.3886 49.1665 32.3135C49.1665 32.2492 49.1987 32.217 49.2737 32.2063H49.3274V32.3135L49.2737 32.4208ZM71.463 26.5652C71.0876 25.4605 70.7337 24.7741 70.4012 24.506C68.7711 23.0475 66.8621 22.0394 64.6636 21.4817L64.7065 21.3744C66.1543 20.7739 67.1195 20.3234 67.5914 20.0231C68.578 19.5191 69.3931 18.9936 70.0366 18.4681C71.2914 17.3205 72.0206 16.2481 72.2351 15.2292C72.2351 14.6608 72.0314 14.1139 71.6238 13.5777C71.0554 12.9771 70.058 12.5588 68.6317 12.3014L68.503 12.3658C68.1919 12.2585 67.6235 12.162 66.787 12.0977C66.787 12.1406 66.6798 12.1727 66.4546 12.2049C66.4546 12.1298 66.3688 12.0977 66.1757 12.0977L65.6824 12.162L65.4465 12.0977C63.4838 12.3014 62.2505 12.5052 61.7357 12.7197L61.4676 12.6768C61.0601 12.7626 60.8456 12.8484 60.8456 12.9556H60.4595C60.0841 12.9556 59.4514 13.1487 58.572 13.524C56.9847 14.0174 56.1911 14.3498 56.1911 14.5214C55.7514 14.5643 55.5262 14.6394 55.5262 14.7466C55.0114 14.811 54.2929 15.1649 53.3705 15.8084V15.862L53.4885 15.8084C53.5529 15.8084 53.5958 15.8405 53.5958 15.9263L53.5314 16.0336L53.1453 15.98H53.0381C52.2445 16.3339 51.8155 16.6127 51.7619 16.8165C51.2256 17.0524 50.55 17.46 49.7135 18.0498C49.5526 18.3394 49.1129 18.7469 48.3836 19.2617C47.6436 19.9159 47.2146 20.5165 47.1181 21.0527C47.2039 21.4281 47.4291 21.6104 47.783 21.6104L48.0619 21.546L48.448 20.6559C49.1129 19.991 50.1424 19.1652 51.5581 18.2C53.9497 16.6771 56.1268 15.5832 58.0786 14.9075C58.0786 14.9397 58.1215 14.9611 58.1966 14.9611C57.4352 16.8058 56.974 17.7817 56.8239 17.8997C56.5879 18.8113 56.352 19.3797 56.1053 19.6263L55.7836 20.2913L56.0624 20.2376H56.1053V20.2913L55.5476 20.6988L55.6763 20.8489C55.5047 20.8489 55.3224 21.0205 55.1187 21.3423C53.6708 21.8142 52.9523 22.3075 52.9523 22.8115H53.1239C53.1239 22.6936 53.1561 22.6399 53.2311 22.6399H53.3384V22.6828L53.2311 22.8544V22.9188H53.3384V22.9617L53.2955 23.2405C53.3277 23.2405 53.3384 23.262 53.3384 23.3049C53.8961 23.3799 54.1749 23.5086 54.1856 23.691H54.2285C54.2285 23.5515 54.2714 23.4765 54.3465 23.4765H54.5717V23.6266H54.4001C54.1963 24.1199 53.9711 24.3559 53.7352 24.3559V24.4631L53.8424 24.6347V24.742C53.8103 24.742 53.7566 24.7634 53.6923 24.8063L53.4563 24.7527C53.274 25.1173 53.1775 25.3425 53.1775 25.4176C53.1775 25.4498 53.2419 25.482 53.3491 25.5249C53.3491 25.6107 53.2955 25.7179 53.1775 25.8681C53.1561 25.8681 53.1024 25.8466 53.0274 25.8037C52.8772 25.8037 52.7807 25.9538 52.7485 26.2541L52.7914 26.3614C52.6413 26.3614 52.5126 26.4686 52.4053 26.6938L51.8155 27.7449C51.8369 27.7449 51.8584 27.777 51.8584 27.8521C51.9013 27.8521 51.9227 27.8414 51.9227 27.8092L52.03 27.8521L51.9763 27.9808C51.9227 27.9808 51.8798 27.9379 51.8584 27.8521C51.6439 27.9701 51.5366 28.088 51.5366 28.1953V28.3025L51.7511 28.1309C51.719 28.5814 51.6868 28.8173 51.6439 28.8602C51.5581 28.8602 51.4937 28.8388 51.4294 28.8066V28.5814H51.365C51.2685 28.6565 51.2149 28.6886 51.1935 28.6886L51.1506 28.6993C50.743 28.5599 50.1853 28.2811 49.4668 27.8628C48.7911 27.3266 48.2549 26.962 47.8688 26.7689C47.7294 26.5115 47.5471 26.3828 47.3111 26.3828C47.3111 26.415 47.2897 26.4257 47.2468 26.4257L47.0752 26.4365C47.0109 26.4365 46.9787 26.3936 46.968 26.3185L47.0752 26.1576V26.104C46.5604 26.104 46.303 25.8895 46.303 25.4391C45.9491 25.0852 45.6917 24.7312 45.5201 24.3881C45.4665 24.3881 45.4129 24.4631 45.3485 24.6133C45.4987 24.935 45.6488 25.1066 45.799 25.1066C45.799 25.1817 45.7346 25.2246 45.5845 25.2246V25.3854C45.6488 25.3854 45.7454 25.4176 45.8633 25.4927L45.799 25.7715C45.9277 25.7715 46.0242 25.8573 46.0885 26.0504H46.3674C46.3674 26.1254 46.3459 26.2112 46.303 26.2756C46.4425 26.6402 46.6248 26.8225 46.8607 26.8225C47.2361 27.3052 47.4613 27.5411 47.5364 27.5411C47.5364 27.5089 47.5471 27.4875 47.59 27.4875H47.6436C48.4158 28.0773 48.9735 28.4312 49.3166 28.5278C49.5848 28.946 49.8636 29.1498 50.1424 29.1498C50.4856 29.1498 50.7108 29.3643 50.8074 29.8147V29.922H50.5285L50.5929 30.308C50.4749 30.3509 50.3998 30.3724 50.3784 30.3724V30.4796L50.4213 30.5869C50.3677 30.5869 50.3248 30.6298 50.314 30.6941C49.8207 31.0588 49.5633 31.3376 49.5419 31.5414L49.6062 31.7559C49.6062 31.906 49.4561 32.024 49.1665 32.0991C48.8769 32.6782 48.5445 33.193 48.1584 33.6541V33.7077C48.2764 33.7077 48.3514 33.7828 48.3943 33.933C48.3943 34.0617 48.2656 34.244 48.0082 34.4906H47.9439C47.9439 34.4477 47.9332 34.3941 47.901 34.319C47.9868 34.3083 48.0619 34.2118 48.1155 34.0402C48.0726 34.0402 48.0511 34.0188 48.0511 33.9759C48.0082 33.9759 47.8796 34.126 47.6651 34.4263C47.6114 34.7266 47.5364 34.8767 47.4506 34.8767C47.3862 35.0912 47.3004 35.1985 47.1717 35.2092V35.3701H47.3433C47.3433 35.5738 47.1825 35.7669 46.85 35.9814V36.0457L46.9036 36.153C46.8285 36.228 46.6462 36.3138 46.3459 36.4318C46.2065 36.8179 46.0242 37.0967 45.7883 37.2683L45.8526 37.5472C45.4772 37.7616 45.2949 37.9011 45.2949 37.9869V38.0941H45.7883C45.992 37.7616 46.1851 37.59 46.3459 37.59C47.1503 36.7428 47.59 36.3138 47.6758 36.3138C48.2871 35.4237 48.641 34.984 48.7268 34.984C48.9735 34.2547 49.2201 33.8364 49.4882 33.7077C49.7885 33.2251 49.9708 32.9785 50.0459 32.9785C50.3784 32.2706 50.979 31.3269 51.8691 30.1364H51.9871C52.1372 30.2008 52.2123 30.2651 52.2123 30.2973C52.8021 30.4153 53.1453 30.5976 53.2633 30.855C53.7781 30.8872 54.0355 30.9515 54.0355 31.0695C54.6897 31.2733 55.0436 31.4234 55.0972 31.5199C55.183 31.5092 55.2474 31.4985 55.3117 31.4556C55.4404 31.5199 55.5476 31.5628 55.6549 31.5628L55.9766 31.5521V31.6164C56.2769 31.6164 56.4271 31.7451 56.4271 32.0025H56.8131C56.8131 32.1205 56.9097 32.1741 57.1027 32.1741H57.1563L57.3172 32.0669H57.3708C57.4888 32.1098 57.8213 32.217 58.3682 32.3886C58.5613 32.3564 58.6792 32.335 58.7114 32.335C58.8186 32.4422 59.2047 32.5495 59.8697 32.6567C59.9447 32.6138 59.9984 32.5924 60.0413 32.5924C60.245 32.5924 60.4059 32.6353 60.5453 32.7211C60.6311 32.7211 60.7812 32.6996 60.985 32.6567L61.4891 32.7104C61.7465 32.6675 61.8966 32.646 61.9395 32.646L62.154 32.7533C63.0656 32.7533 63.7305 32.6567 64.1488 32.4744L64.4276 32.5817L66.476 32.1848C68.3528 31.4448 69.629 30.7156 70.294 30.0078C71.1519 28.8709 71.5702 28.0022 71.5702 27.3909C71.5702 27.273 71.5166 27.037 71.3986 26.6724L71.463 26.5652Z" fill="white"/>
<path d="M46.9569 35.6484H46.8926V35.7664H46.9569V35.6484Z" fill="white"/>
<path d="M45.0791 38.2188V38.3689H45.2507V38.2188H45.0791Z" fill="white"/>
<path d="M53.1766 25.457H53.0693V25.5857H53.1766V25.457Z" fill="white"/>
<path d="M99.3574 18.2718C99.6577 18.2718 100.108 18.0787 100.719 17.7034C101.931 16.8883 102.618 16.2448 102.757 15.7729V15.5906C102.736 15.5906 102.51 15.5477 102.071 15.4727C101.492 15.7193 101.041 15.966 100.709 16.2234C99.3896 16.8669 98.7354 17.3387 98.7354 17.6498C98.7354 18.0144 98.9391 18.2182 99.3574 18.2718Z" fill="white"/>
<path d="M160.091 13.4258V13.458L160.123 13.5223C160.22 13.458 160.262 13.4258 160.262 13.4258C160.262 13.4258 160.209 13.4258 160.091 13.4258Z" fill="white"/>
<path d="M153.334 13.3921V13.0703H153.055V13.3921H153.334Z" fill="white"/>
<path d="M159.94 13.3945V13.4267C160.005 13.4267 160.048 13.4267 160.091 13.4267V13.3945H159.94Z" fill="white"/>
<path d="M151.008 13.3272C150.987 13.3164 150.965 13.3164 150.943 13.3164C150.943 13.3164 150.943 13.3164 150.943 13.3272H151.008Z" fill="white"/>
<path d="M156.37 13.2733V13.1875L156.091 13.1982L156.102 13.52H156.37V13.402C156.413 13.4878 156.498 13.5414 156.627 13.5629V13.2733H156.37Z" fill="white"/>
<path d="M122.693 20.5033C122.661 20.5033 122.65 20.5248 122.661 20.5677V20.632C122.243 21.49 121.47 22.1228 120.344 22.541C121.17 21.3399 121.942 20.6642 122.693 20.5033ZM135.959 25.383C136.045 25.6512 136.088 25.8335 136.088 25.9407V26.4341C135.841 26.9167 135.723 27.1848 135.723 27.2384C134.715 28.1929 133.868 28.6755 133.182 28.6755C132.914 28.6755 132.774 28.6111 132.753 28.4932V28.4288C132.753 28.0213 133.739 27.0025 135.713 25.383H135.959ZM106.134 27.3564C105.126 28.3109 104.279 28.7935 103.593 28.7935C103.324 28.7935 103.185 28.7291 103.164 28.6111V28.5468C103.164 28.1393 104.15 27.1204 106.124 25.501H106.37C106.456 25.7691 106.499 25.9514 106.499 26.0587V26.552C106.252 27.0346 106.134 27.3027 106.134 27.3564ZM75.8802 23.5277C74.6147 24.7288 73.6066 25.3294 72.8451 25.3401H72.7271C72.6521 25.3401 72.6092 25.2972 72.5985 25.2114V24.7825C72.6628 24.2891 72.888 23.7743 73.2741 23.2274C74.4109 21.9833 75.4834 21.1897 76.4915 20.8573C76.8561 20.8573 77.0492 21.1039 77.0492 21.5973V21.6616C77.0492 22.0906 76.6631 22.7126 75.8802 23.5277ZM155.564 13.661V13.1999H155.038V13.4466H154.867C154.727 13.5002 154.642 13.5216 154.609 13.5216C154.459 13.4358 154.395 13.4144 154.395 13.468C154.213 13.468 154.17 13.4358 154.266 13.3715C154.148 13.3715 154.063 13.35 153.998 13.3071C153.741 13.3929 153.612 13.5109 153.612 13.6718H153.365C153.012 13.4358 152.84 13.3393 152.84 13.3929C152.818 13.3929 152.808 13.3822 152.808 13.35V13.3929L152.883 13.5753L152.701 13.6932C152.54 13.5324 152.4 13.4573 152.282 13.4573C152.143 13.6074 151.993 13.6718 151.832 13.6718L151.65 13.6825L151.735 13.3179L151.006 13.3286C151.21 13.35 151.317 13.468 151.317 13.6825C151.124 13.6825 150.995 13.5538 150.942 13.3286H150.716C150.802 13.3179 150.877 13.3179 150.942 13.3179C150.931 13.275 150.92 13.2321 150.92 13.1892L150.727 13.2213L150.577 13.3715H150.759C150.759 13.5216 150.706 13.6074 150.577 13.6074C150.234 13.3179 149.955 13.1677 149.719 13.1784L149.826 13.2857C149.816 13.35 149.794 13.4573 149.751 13.6074H149.451L149.43 13.586V13.3608H149.301L149.194 13.1784H147.735C147.681 13.1784 147.639 13.3286 147.606 13.6181H147.381V13.4144H147.37C147.285 13.3179 147.199 13.2857 147.124 13.3393L146.813 13.1999C146.566 13.2964 146.384 13.3393 146.266 13.3393C146.266 13.275 146.223 13.2321 146.126 13.1892L145.751 13.2642L144.518 13.275C144.314 13.275 143.981 13.2964 143.542 13.35C143.542 13.2964 143.499 13.275 143.413 13.275C143.338 13.3286 143.263 13.35 143.199 13.35L142.909 13.1999L141.954 13.3608L141.836 13.2857C141.633 13.3393 141.45 13.3608 141.3 13.3608C141.107 13.3608 140.839 13.3393 140.485 13.2857L139.82 13.3715V13.3822C139.81 13.3715 139.777 13.3715 139.745 13.3715H138.941L138.158 13.4466L138.104 13.2964L137.321 13.4358L136.957 13.3822L134.908 13.5216L134.458 13.4037V13.4466C134.361 13.4466 134.018 13.4358 133.418 13.3929C133.31 13.3929 133.192 13.4358 133.064 13.5324C132.967 13.5324 132.924 13.5431 132.935 13.5538C131.691 13.5538 131.348 13.5216 131.927 13.4573C131.755 13.4573 131.594 13.4466 131.434 13.4037C131.283 13.4466 131.112 13.468 130.94 13.468H130.501C130.404 13.468 130.318 13.4466 130.254 13.4037C130.19 13.4466 130.114 13.468 130.007 13.468H129.267C129.096 13.468 128.935 13.5216 128.774 13.6289C128.495 13.5216 128.248 13.4787 128.023 13.4787C127.862 13.4787 127.541 13.5324 127.079 13.6396L126.972 13.5753C126.908 13.6181 126.833 13.6396 126.726 13.6396H126.479C126.275 13.6396 126.071 13.6181 125.857 13.5645C125.128 13.6289 124.709 13.7039 124.634 13.7897C124.366 13.7897 124.044 13.7576 123.69 13.7147L123.379 13.7897L122.404 13.9292C119.079 14.208 117.309 14.3903 117.106 14.4761L116.097 14.4868C116.001 14.4868 115.947 14.4225 115.926 14.2831C116.741 12.8782 117.159 12.0309 117.148 11.7521C117.148 11.6341 117.063 11.4625 116.87 11.2266L116.516 11.3016L116.205 11.2266L116.108 11.2909C115.701 12.2347 115.422 12.8031 115.272 13.0176C115.272 13.2857 114.961 13.8755 114.328 14.7871C113.009 14.9373 110.649 15.3877 107.25 16.1492L107.1 16.4923L107.035 16.857C107.142 17.0929 107.378 17.2967 107.732 17.479L113.084 16.4387C113.159 16.4816 113.234 16.5138 113.298 16.5138C113.298 16.6747 113.159 17.0393 112.869 17.597C112.623 17.9187 112.44 18.4013 112.312 19.0448C112.044 19.3665 111.883 19.8277 111.829 20.4175C111.679 20.7929 111.572 21.1361 111.464 21.4686C111.422 21.5007 111.389 21.5115 111.346 21.5436C110.274 21.6294 109.105 22.0799 107.85 22.8842C107.25 23.2381 106.842 23.5062 106.617 23.6993L106.488 23.6349C105.737 22.6804 105.362 21.726 105.362 20.7929C105.362 20.439 105.737 20.2138 106.477 20.1065C106.563 20.1065 106.595 20.1387 106.606 20.2245C106.606 20.5141 106.52 20.9109 106.36 21.4042C106.477 21.6509 106.638 21.7796 106.853 21.7796C106.939 21.7367 107.003 21.7152 107.035 21.7152C107.368 21.7152 107.636 21.2112 107.839 20.2245C107.839 19.6239 107.464 19.2486 106.724 19.1091C106.209 19.1628 105.673 19.2915 105.105 19.4845C104.568 19.4952 104.268 19.9671 104.182 20.9216C104.182 21.061 104.204 21.2219 104.236 21.3828C104.182 21.5651 104.129 21.6616 104.075 21.6616C103.035 22.8199 102.477 23.4097 102.413 23.4097C102.295 23.6564 102.166 23.7743 102.037 23.7743C100.654 25.0184 99.6781 25.6512 99.1311 25.6512H98.6378C98.3911 25.5225 98.2624 25.2865 98.2624 24.9755V24.2891C98.2624 23.4633 98.6056 22.3909 99.3027 21.061V20.8787C99.1955 20.6642 99.0346 20.5677 98.8094 20.5677H98.6807L98.1874 21.1254C97.8763 21.4149 97.6082 21.8654 97.3723 22.4445C95.8387 24.0532 94.659 24.9862 93.8439 25.2543H93.5865C93.3827 25.2543 93.2755 25.1685 93.2755 24.9862C93.2755 24.5036 93.4578 23.8494 93.8439 23.0344C94.9592 21.3291 95.5169 20.2567 95.5169 19.817C95.3132 19.2915 95.0987 19.0341 94.8735 19.0341C94.7448 19.0662 94.6053 19.077 94.4552 19.077C93.9082 19.3344 93.179 19.5703 92.2459 19.7848L91.8706 19.5274L91.0877 19.7312H90.7123C90.4764 19.892 90.3584 20.0636 90.3584 20.2567V20.321L90.7123 20.7393C90.6587 20.8573 90.6265 20.9431 90.6265 21.0074C90.3262 21.2004 90.1654 21.3935 90.1439 21.5758C90.1761 21.6509 90.219 21.7045 90.2512 21.7581C88.3743 23.8065 86.9801 24.9862 86.0578 25.2865H85.7897C85.5859 25.2865 85.4787 25.2007 85.4787 25.0184C85.4787 24.5358 85.661 23.8816 86.0471 23.0665C87.1625 21.3613 87.7201 20.2889 87.7201 19.8491C87.5164 19.3236 87.3019 19.0662 87.0874 19.0662C86.948 19.0984 86.8086 19.1091 86.6584 19.1091C86.1222 19.3665 85.3822 19.6025 84.4491 19.817L84.0738 19.5596L83.2909 19.7633H82.9155C82.6796 19.9135 82.5616 20.0958 82.5616 20.2889V20.3532L82.9155 20.7715C82.8619 20.8787 82.8297 20.9752 82.8297 21.0289C82.5294 21.2326 82.3686 21.4257 82.3471 21.608C82.3686 21.6509 82.39 21.6723 82.4007 21.7045C81.8967 22.0477 81.6393 22.2836 81.6393 22.3909C80.2773 23.9674 79.3121 24.7503 78.7329 24.7503H78.3683C78.2396 24.761 78.1323 24.568 78.0466 24.2033V24.0103C78.0466 23.281 78.3361 22.3909 78.9045 21.3399C78.9045 21.297 78.8831 21.2862 78.8402 21.2862C78.8402 20.9109 78.5721 20.7286 78.0358 20.7286C77.4996 20.2352 77.017 19.9886 76.6095 19.9886C75.8587 20.0529 75.4941 20.1602 75.4941 20.2996L73.7567 21.4257C72.0729 22.659 71.2257 23.8387 71.2364 24.9648V25.0935C71.4616 25.9622 71.9872 26.3912 72.7915 26.3912H72.9738C73.8211 26.3804 75.0008 25.737 76.5022 24.45H76.6845V24.5787C77.1135 25.5654 77.757 26.0587 78.615 26.0587C79.5694 26.048 80.7277 25.1471 82.0897 23.3454C82.4222 22.9271 82.6796 22.4874 82.9048 22.0262C82.9906 22.0155 83.0871 21.9833 83.1836 21.9297C83.7091 21.2219 83.9987 20.8787 84.0309 20.8787L84.0845 20.868C84.7494 20.868 85.5109 20.632 86.3474 20.1709H86.5619V20.2245C86.5619 20.3532 86.4546 20.6106 86.2401 21.0181C85.897 21.4257 85.7254 21.6723 85.7254 21.7474C84.8567 22.9164 84.3633 23.8387 84.2561 24.5036V24.8683L84.3204 24.9755C84.2775 24.9755 84.2346 25.0506 84.2132 25.1793C84.2346 25.1793 84.2561 25.2329 84.2561 25.3401C84.5242 26.0051 85.0712 26.3375 85.897 26.3375H86.1007C86.9265 26.0372 87.7416 25.5225 88.5352 24.7932C89.7256 23.6135 90.4013 22.777 90.5514 22.2836C90.648 22.1764 90.723 22.0691 90.7981 21.9726C90.8517 21.9619 90.9161 21.9404 90.9804 21.8975C91.5059 21.2004 91.7955 20.8465 91.8277 20.8465H91.8813C92.5462 20.8358 93.3077 20.5999 94.1335 20.1387H94.3587V20.1923C94.3587 20.321 94.2514 20.5891 94.0369 20.986C93.6937 21.3935 93.5222 21.6402 93.5222 21.7152C92.6535 22.8949 92.1601 23.8065 92.0529 24.4714V24.8361L92.1065 24.9433C92.0743 24.9541 92.0314 25.0184 91.9993 25.1471C92.0314 25.1471 92.0529 25.2007 92.0529 25.308C92.321 25.9729 92.868 26.3054 93.6937 26.3054H93.8975C94.7233 26.0051 95.5384 25.4903 96.3213 24.761C96.525 24.5572 96.7074 24.3749 96.879 24.1926C96.8682 24.2677 96.8468 24.3428 96.8361 24.4178C96.8682 24.6645 96.9111 24.7932 96.9648 24.7932C96.9648 26.0265 97.694 26.7343 99.1418 26.8845L99.7639 26.7665C100.633 26.5306 101.684 25.8227 102.917 24.643C103.603 23.8387 104.14 23.0665 104.526 22.3158C104.772 22.9057 105.158 23.5706 105.684 24.3213V24.45L105.63 24.568C104.225 25.6512 103.303 26.4769 102.842 27.0561C102.231 27.5923 101.92 28.0213 101.92 28.3645V28.6755C101.92 29.2546 102.488 29.63 103.603 29.7909C104.526 29.6514 105.33 29.2975 106.016 28.7184C106.885 28.1607 107.443 27.4529 107.679 26.6056C107.679 25.93 107.507 25.308 107.175 24.7503L107.421 24.4393C109.126 23.4741 110.392 22.7662 111.228 22.2944C111.175 22.5196 111.121 22.7448 111.089 22.9486C111.089 22.9915 111.111 23.0558 111.153 23.1523C111.111 23.4204 111.089 23.6457 111.1 23.8172V24.257L110.971 24.4714V24.6001C111.1 24.7717 111.164 24.9433 111.164 25.1256V25.2758L111.1 25.4045C111.304 25.6941 111.411 25.93 111.411 26.1123C111.808 26.5949 112.43 26.8952 113.288 27.0239C114.038 27.0132 114.928 26.6485 115.979 25.9193C116.516 25.6083 116.902 25.3187 117.159 25.0506C117.502 24.9004 118.017 24.4714 118.671 23.7636L118.693 23.9781C119.133 25.2543 119.99 25.8978 121.267 25.8871C121.503 25.812 121.728 25.7799 121.932 25.7799C123.948 25.3723 125.481 24.0532 126.543 21.8117C126.575 21.801 126.618 21.7796 126.661 21.7581C127.187 21.0503 127.466 20.6964 127.508 20.6964H127.562C128.227 20.6964 128.978 20.4604 129.814 19.9993L130.039 19.9886V20.0529C130.039 20.1816 129.932 20.439 129.718 20.8465C129.375 21.2541 129.203 21.5007 129.203 21.5758C128.334 22.7448 127.841 23.6671 127.723 24.332L127.734 24.6967L127.787 24.8039C127.744 24.8039 127.712 24.879 127.68 25.0077C127.712 25.0077 127.734 25.0613 127.734 25.1685C128.002 25.8335 128.549 26.1659 129.375 26.1659H129.578C130.404 25.8656 131.208 25.3509 132.002 24.6216C133.203 23.4419 133.879 22.6054 134.029 22.112C134.04 22.1013 134.05 22.0906 134.061 22.0691C134.308 22.6912 134.715 23.399 135.273 24.2033V24.332L135.219 24.45C133.814 25.5332 132.881 26.359 132.431 26.9381C131.82 27.4743 131.509 27.9033 131.509 28.2465V28.5575C131.509 29.1367 132.077 29.512 133.192 29.6729C134.115 29.5335 134.919 29.1796 135.605 28.6004C136.474 28.0427 137.032 27.3349 137.268 26.4877C137.268 25.812 137.096 25.19 136.764 24.6323L137.01 24.3213C138.791 23.3132 140.099 22.5732 140.936 22.1013C141.59 21.5222 141.997 21.2326 142.18 21.2326V21.0503L142.115 20.9216C141.836 20.9216 141.44 21.0932 140.936 21.4257C139.863 21.5115 138.694 21.9619 137.439 22.7662C136.839 23.1201 136.431 23.399 136.206 23.5813L136.077 23.517C135.327 22.5625 134.951 21.608 134.951 20.6749C134.951 20.321 135.327 20.0958 136.067 19.9886C136.142 19.9886 136.185 20.0207 136.185 20.1065C136.195 20.3961 136.11 20.7929 135.949 21.2862C136.056 21.5329 136.228 21.6616 136.442 21.6616C136.528 21.6187 136.592 21.5973 136.624 21.5973C136.957 21.5973 137.225 21.0932 137.429 20.1065C137.429 19.506 137.053 19.1306 136.313 18.9912C135.799 19.0448 135.262 19.1735 134.694 19.3665C134.158 19.3773 133.857 19.8491 133.772 20.8036C133.772 21.0074 133.804 21.2326 133.868 21.4793C133.847 21.4793 133.825 21.49 133.804 21.5007C131.895 23.6028 130.468 24.8039 129.525 25.1149H129.267C129.053 25.1149 128.956 25.0291 128.956 24.8468C128.956 24.3642 129.139 23.71 129.525 22.8949C130.64 21.1897 131.198 20.1173 131.198 19.6776C130.983 19.152 130.779 18.8947 130.554 18.8947C130.426 18.9268 130.286 18.9376 130.136 18.9376C129.589 19.1842 128.86 19.4202 127.927 19.6454L127.551 19.388L126.758 19.5918H126.393C126.157 19.7419 126.039 19.9242 126.039 20.1173V20.1816L126.393 20.5999C126.329 20.7071 126.307 20.8036 126.307 20.8573C126.007 21.061 125.846 21.2541 125.825 21.4364C125.835 21.4578 125.846 21.4793 125.857 21.5007C125.642 21.7474 125.471 22.0155 125.353 22.2729C124.345 23.4633 123.551 24.1712 122.993 24.3642C122.425 24.568 121.867 24.6967 121.299 24.761C120.462 24.761 120.044 24.5251 120.033 24.0425V23.828L120.73 23.5062C121.385 23.3883 122.21 22.7341 123.219 21.5544C123.497 21.1575 123.637 20.6857 123.637 20.1173C123.326 19.7633 123.036 19.5918 122.779 19.5918C122.296 19.5918 121.664 19.8599 120.881 20.4068C120.72 20.5355 120.57 20.6642 120.419 20.7929C120.43 20.7178 120.452 20.6535 120.462 20.5891L120.366 20.4497C119.669 21.5007 119.047 22.3158 118.51 22.8949C118.103 23.2381 117.631 23.5706 117.095 23.903C115.272 25.1256 114.017 25.7262 113.352 25.737C112.762 25.737 112.408 25.4367 112.312 24.8254L112.301 24.1712C112.301 23.6564 112.365 23.1523 112.483 22.6483C112.44 22.5625 112.419 22.4874 112.419 22.4338C112.419 22.3158 112.805 21.0932 113.588 18.7874C114.242 17.5005 114.575 16.8034 114.564 16.6961C114.864 16.2028 115.004 15.9561 114.971 15.9454C119.143 15.4735 122.564 15.1518 125.246 14.9909L125.857 15.066C125.964 15.066 126.168 15.0123 126.479 14.9051L126.854 14.9802L128.978 14.8408C129.053 14.8837 129.149 14.9158 129.267 14.9158C129.653 14.8086 129.964 14.755 130.2 14.755H131.069L131.637 14.8086C131.637 14.7764 131.723 14.7335 131.873 14.6692L132.184 14.7442L133.997 14.6048L134.297 14.7335C134.512 14.6906 134.694 14.6584 134.855 14.6584H135.101C135.992 14.6584 137.064 14.6048 138.34 14.5083C138.415 14.5619 138.48 14.5834 138.512 14.5834L139.37 14.3581C139.649 14.4547 139.842 14.4976 139.928 14.4976H140.185C140.474 14.401 140.635 14.3581 140.678 14.3581H141.043C141.236 14.3581 141.386 14.3903 141.493 14.4654C141.493 14.3903 141.611 14.3474 141.858 14.3474C141.954 14.3474 142.04 14.3689 142.115 14.4118C142.319 14.3689 142.501 14.3474 142.662 14.3474H144.035L144.153 14.401C144.646 14.1651 144.936 14.0471 145.011 14.0471H145.075C145.204 14.0471 145.333 14.09 145.461 14.1866C145.515 14.1866 145.612 14.1115 145.74 13.9613H145.847C145.912 14.0686 146.234 14.1651 146.813 14.2509C147.242 14.1651 147.51 14.1115 147.617 14.1115L147.928 14.1758L148.164 14.0364L148.614 14.1115C148.732 14.1115 148.915 14.0793 149.161 14.0257C149.194 14.0471 149.226 14.0579 149.258 14.0793L149.301 13.9935C149.354 13.9828 149.408 13.9721 149.483 13.9506C149.558 13.9506 149.601 13.9506 149.59 13.9506C149.773 13.9506 149.869 13.9721 149.869 14.0257C150.384 13.9828 150.684 13.9077 150.759 13.8005H150.888V13.9399H151.296C151.296 13.8863 151.296 13.8434 151.296 13.7897L151.65 13.8755C151.714 13.8755 151.81 13.8219 151.939 13.7254C152.057 13.7254 152.175 13.7576 152.314 13.8326C152.314 13.9292 152.465 13.897 152.743 13.7147H152.829C153.001 13.7147 153.226 13.7468 153.494 13.7897L153.741 13.6503C153.977 13.6932 154.17 13.7147 154.309 13.7147H154.62C154.642 13.7147 154.792 13.6718 155.038 13.5967V13.7361H155.564V13.7039C155.585 13.7039 155.596 13.7039 155.618 13.7039L155.564 13.661Z" fill="white"/>
<path d="M156.937 13.5644C156.959 13.5644 156.959 13.6073 156.969 13.6824L157.506 13.543L156.776 13.5537L156.937 13.5644Z" fill="white"/>
<path d="M157.957 13.3945C157.753 13.4267 157.7 13.5018 157.807 13.6412H157.828C157.936 13.534 157.979 13.4803 157.957 13.4803V13.3945Z" fill="white"/>
<path d="M158.268 13.4805V13.8129L158.546 13.8022V13.4805H158.268Z" fill="white"/>
<path d="M73.1348 32.7412H74.2501V32.9557L73.982 32.9771L73.9391 33.0522L74.0893 34.8647L75.0545 32.7412H75.4727L75.7087 34.9076L76.513 33.02L76.4808 32.9664L76.2235 32.945V32.7305H77.1565V32.945L76.8777 32.9771L75.6979 35.669H75.3011L75.0652 33.4168L74.0356 35.6797H73.6281L73.4136 33.0415L73.3707 32.9879L73.1348 32.9557V32.7412Z" fill="white"/>
<path d="M77.8541 32.4922C77.9399 32.4922 78.015 32.5136 78.0686 32.5673C78.1222 32.6102 78.1437 32.6852 78.1437 32.771C78.1437 32.8568 78.1115 32.9426 78.0471 32.9962C77.9828 33.0606 77.9077 33.0928 77.8112 33.0928C77.7254 33.0928 77.6611 33.0713 77.5967 33.0177C77.5431 32.9748 77.5216 32.8997 77.5216 32.8247C77.5216 32.7281 77.5538 32.6531 77.6182 32.5887C77.6718 32.5244 77.7576 32.4922 77.8541 32.4922ZM77.7683 33.5003H77.9613L77.6932 34.9803C77.6825 35.0232 77.6718 35.0661 77.6718 35.0983C77.6718 35.1197 77.6611 35.1519 77.6611 35.1626C77.6718 35.2484 77.6825 35.3128 77.7254 35.3449C77.7576 35.3878 77.8112 35.4093 77.8863 35.4093C77.9184 35.4093 77.9506 35.4093 78.0042 35.3878C78.0579 35.3771 78.1115 35.3664 78.1866 35.3342V35.5273C78.0364 35.5916 77.897 35.6345 77.779 35.6559C77.6611 35.6881 77.5431 35.6988 77.4358 35.6988C77.3286 35.6988 77.2535 35.6774 77.1999 35.613C77.1355 35.5594 77.1141 35.4736 77.1141 35.3557C77.1141 35.3235 77.1141 35.2913 77.1248 35.2484C77.1248 35.2055 77.1355 35.1412 77.1463 35.0554L77.3822 33.8757L77.0283 33.822L77.0176 33.6719L77.7683 33.5003Z" fill="white"/>
<path d="M79.12 33.0312H79.3988L79.3023 33.5889H79.9029V33.8356H79.2594L79.0664 34.9081C79.0557 34.9617 79.0449 34.9939 79.0449 35.0368C79.0449 35.0689 79.0342 35.1011 79.0342 35.1333C79.0342 35.2298 79.0557 35.2941 79.1093 35.3478C79.1522 35.3907 79.2165 35.4121 79.3023 35.4121C79.3452 35.4121 79.3988 35.4014 79.4632 35.3907C79.5275 35.3799 79.6026 35.3585 79.6777 35.3263V35.5086C79.4954 35.573 79.3452 35.6266 79.2165 35.6481C79.0986 35.6802 79.002 35.7017 78.927 35.7017C78.7875 35.7017 78.6803 35.6588 78.6052 35.5944C78.5409 35.5194 78.498 35.4228 78.498 35.2834C78.498 35.2405 78.498 35.1869 78.5087 35.144C78.5087 35.1011 78.5194 35.0475 78.5302 34.9939L78.7446 33.8463L78.4551 33.857V33.6962L78.8304 33.5139L79.12 33.0312Z" fill="white"/>
<path d="M80.933 32.4297H81.1368C81.1046 32.5369 81.0832 32.6549 81.051 32.7729C81.0295 32.9016 80.9974 33.0303 80.9759 33.1804L80.8258 33.9204C80.9974 33.7703 81.1582 33.663 81.2976 33.5987C81.4371 33.5236 81.5658 33.4807 81.673 33.4807C81.791 33.4807 81.8982 33.5236 81.9733 33.5987C82.0484 33.6737 82.0913 33.7703 82.0913 33.899C82.0913 33.9419 82.0805 33.9955 82.0805 34.0491C82.0698 34.1135 82.0591 34.1778 82.0484 34.2529L81.9089 34.8642C81.8982 34.9392 81.8875 35.0143 81.8768 35.0572C81.8768 35.1108 81.866 35.1537 81.866 35.1859C81.866 35.261 81.8875 35.3146 81.9197 35.3575C81.9518 35.4004 81.9947 35.4219 82.0484 35.4219C82.0913 35.4219 82.1342 35.4111 82.1878 35.4004C82.2307 35.3897 82.2843 35.379 82.3379 35.3575V35.5291C82.1985 35.5827 82.0805 35.6149 81.9626 35.6471C81.8553 35.6685 81.7588 35.69 81.6837 35.69C81.5658 35.69 81.48 35.6578 81.4156 35.6042C81.362 35.5505 81.3298 35.4755 81.3298 35.3682C81.3298 35.3361 81.3298 35.3039 81.3298 35.261C81.3405 35.2288 81.3513 35.1752 81.362 35.1323L81.5121 34.403C81.5229 34.3387 81.5336 34.285 81.5443 34.2314C81.5443 34.1885 81.555 34.1456 81.555 34.1135C81.555 34.0277 81.5336 33.974 81.5014 33.9204C81.4585 33.8775 81.4049 33.8561 81.3405 33.8561C81.2762 33.8561 81.1904 33.8882 81.0939 33.9419C80.9974 33.9848 80.9008 34.0598 80.7936 34.1563L80.5255 35.6471H79.9785L80.5469 32.805L80.1608 32.7514V32.6013L80.933 32.4297Z" fill="white"/>
<path d="M85.4366 33.0195L85.072 32.6335C85.0076 32.7085 84.9433 32.8265 84.8897 32.9874C84.836 33.1482 84.7931 33.352 84.7502 33.5879H85.3401V33.8453H84.7073L84.5572 34.9929C84.525 35.2074 84.4821 35.3897 84.4392 35.5398C84.3856 35.7007 84.3213 35.8401 84.2462 35.9581C84.1282 36.1511 83.9888 36.3013 83.8386 36.4085C83.6885 36.5158 83.5491 36.5694 83.4097 36.5694C83.3239 36.5694 83.2488 36.5479 83.1952 36.4943C83.1308 36.4407 83.1094 36.3763 83.1094 36.3013C83.1094 36.2369 83.1201 36.1833 83.1523 36.1297C83.1737 36.0868 83.2273 36.0546 83.281 36.0224L83.7421 36.2691C83.8065 36.194 83.8494 36.0868 83.8923 35.9259C83.9352 35.7758 83.9781 35.5291 84.0317 35.1859L84.214 33.8453L83.9137 33.8882L83.9244 33.6952L84.2569 33.545C84.3213 33.2126 84.4392 32.9445 84.6323 32.7407C84.836 32.5369 85.0505 32.4297 85.2865 32.4297C85.4152 32.4297 85.5117 32.4511 85.5975 32.5155C85.6726 32.5691 85.7155 32.6442 85.7155 32.73C85.7155 32.7943 85.694 32.8587 85.6404 32.9123C85.5868 32.9552 85.5224 32.9981 85.4366 33.0195Z" fill="white"/>
<path d="M86.6277 33.6832C86.6277 33.6832 86.6169 33.6832 86.6062 33.6725C86.5955 33.6725 86.5848 33.6725 86.574 33.6725C86.3596 33.6725 86.188 33.7798 86.0485 34.005C85.8984 34.2195 85.834 34.4876 85.834 34.8093C85.834 34.9702 85.8555 35.0989 85.9198 35.1847C85.9735 35.2705 86.0593 35.3134 86.1665 35.3134C86.2309 35.3134 86.2952 35.2919 86.3703 35.2598C86.4453 35.2276 86.5204 35.174 86.6062 35.1096L86.81 33.9406L86.6277 33.6832ZM87.1639 33.4688H87.4213C87.4106 33.5224 87.3891 33.6082 87.3569 33.7261C87.3355 33.8441 87.3033 33.9835 87.2819 34.1337L87.1532 34.8415C87.1424 34.9166 87.1317 34.9809 87.121 35.0345C87.1103 35.0774 87.1103 35.1203 87.1103 35.1525C87.1103 35.2276 87.1317 35.2812 87.1639 35.3241C87.1961 35.367 87.2497 35.3885 87.2926 35.3885C87.3355 35.3885 87.3891 35.3777 87.432 35.3777C87.4856 35.367 87.5285 35.3456 87.5822 35.3348V35.5064C87.432 35.56 87.3033 35.6029 87.1961 35.6244C87.0888 35.6458 87.003 35.6673 86.928 35.6673C86.8207 35.6673 86.7349 35.6351 86.6813 35.5815C86.6277 35.5171 86.5955 35.4421 86.5955 35.3348V35.3134C86.4775 35.4314 86.3596 35.5171 86.2416 35.5815C86.1236 35.6351 86.0164 35.6673 85.9091 35.6673C85.7054 35.6673 85.5552 35.6029 85.4372 35.4635C85.33 35.3134 85.2764 35.1203 85.2764 34.8737C85.2764 34.7128 85.2978 34.5627 85.3407 34.4232C85.3836 34.2731 85.448 34.1337 85.5338 33.9943C85.641 33.8334 85.7804 33.7047 85.952 33.6082C86.1236 33.5116 86.3059 33.4688 86.499 33.4688C86.574 33.4688 86.6598 33.4795 86.7456 33.4902C86.8314 33.5116 86.9172 33.5331 87.003 33.576L87.1639 33.4688Z" fill="white"/>
<path d="M88.6432 32.4492C88.729 32.4492 88.804 32.4707 88.8577 32.5243C88.9113 32.5672 88.9327 32.6423 88.9327 32.7281C88.9327 32.8139 88.9113 32.8997 88.8469 32.9533C88.7826 33.0176 88.6968 33.0498 88.611 33.0498C88.5145 33.0498 88.4501 33.0283 88.3858 32.9747C88.3322 32.9318 88.3107 32.8568 88.3107 32.7817C88.3107 32.6852 88.3429 32.6101 88.4072 32.5457C88.4716 32.4814 88.5467 32.4492 88.6432 32.4492ZM88.5574 33.4573H88.7504L88.4823 34.9373C88.4716 34.9802 88.4609 35.0231 88.4609 35.0553C88.4609 35.0767 88.4609 35.1089 88.4609 35.1196C88.4609 35.2054 88.4716 35.2698 88.5145 35.302C88.5467 35.3449 88.6003 35.3663 88.6754 35.3663C88.7075 35.3663 88.7504 35.3663 88.7933 35.3449C88.8469 35.3341 88.9113 35.3234 88.9756 35.2912V35.4843C88.8255 35.5486 88.6968 35.5915 88.5681 35.613C88.4501 35.6452 88.3322 35.6559 88.2249 35.6559C88.1177 35.6559 88.0426 35.6344 87.989 35.5701C87.9354 35.5165 87.9032 35.4307 87.9032 35.3127C87.9032 35.2805 87.9032 35.2483 87.9139 35.2054C87.9139 35.1625 87.9246 35.0982 87.9461 35.0124L88.1713 33.8327L87.8174 33.7791V33.6289L88.5574 33.4573Z" fill="white"/>
<path d="M89.9091 32.9883H90.1879L90.0914 33.546H90.692V33.7926H90.0485L89.8554 34.8651C89.8447 34.9187 89.834 34.9509 89.834 34.9938C89.834 35.026 89.8233 35.0581 89.8233 35.0903C89.834 35.1868 89.8554 35.2512 89.8983 35.3048C89.9412 35.3477 90.0056 35.3691 90.0914 35.3691C90.1343 35.3691 90.1879 35.3584 90.2523 35.3477C90.3166 35.337 90.3917 35.3155 90.4667 35.2833V35.4657C90.2844 35.53 90.1343 35.5836 90.0056 35.6051C89.8876 35.6373 89.7911 35.6587 89.716 35.6587C89.5766 35.6587 89.4694 35.6158 89.3943 35.5515C89.3299 35.4764 89.287 35.3799 89.287 35.2404C89.287 35.1975 89.2978 35.1439 89.2978 35.101C89.2978 35.0581 89.3085 35.0045 89.3192 34.9509L89.5337 33.8034L89.2441 33.8141V33.6532L89.6195 33.4709L89.9091 32.9883Z" fill="white"/>
<path d="M91.7211 32.3867H91.9249C91.8927 32.494 91.8712 32.6119 91.8391 32.7299C91.8176 32.8586 91.7962 32.9873 91.764 33.1374L91.6138 33.8774C91.7962 33.7273 91.9463 33.62 92.0857 33.5557C92.2251 33.4806 92.3538 33.4377 92.4611 33.4377C92.5898 33.4377 92.6863 33.4806 92.7614 33.5557C92.8365 33.6308 92.8793 33.7273 92.8793 33.856C92.8793 33.8989 92.8793 33.9525 92.8686 34.0061C92.8579 34.0705 92.8472 34.1348 92.8365 34.2099L92.7078 34.8212C92.6863 34.8963 92.6756 34.9713 92.6649 35.0142C92.6649 35.0679 92.6541 35.1108 92.6541 35.1429C92.6541 35.218 92.6756 35.2716 92.7078 35.3145C92.7507 35.3574 92.7936 35.3789 92.8472 35.3789C92.8793 35.3789 92.933 35.3682 92.9759 35.3574C93.0188 35.3467 93.0724 35.336 93.126 35.3145V35.4861C92.9866 35.5398 92.8686 35.5719 92.7614 35.6041C92.6434 35.6255 92.5576 35.647 92.4718 35.647C92.3538 35.647 92.268 35.6148 92.2037 35.5612C92.1501 35.5076 92.1179 35.4325 92.1179 35.3253C92.1179 35.2931 92.1179 35.2609 92.1286 35.218C92.1286 35.1858 92.1394 35.1322 92.1501 35.0893L92.3002 34.36C92.3217 34.2957 92.3217 34.2421 92.3324 34.1885C92.3431 34.1456 92.3431 34.1027 92.3431 34.0705C92.3431 33.9847 92.3217 33.9311 92.2895 33.8774C92.2466 33.8345 92.2037 33.8131 92.1286 33.8131C92.0643 33.8238 91.9785 33.8453 91.8927 33.8989C91.7962 33.9418 91.6889 34.0169 91.5817 34.1134L91.3136 35.6041H90.7666L91.335 32.7621L90.9489 32.7085V32.5583L91.7211 32.3867Z" fill="white"/>
<path d="M95.5172 32.418C95.603 32.418 95.6781 32.4394 95.7317 32.493C95.7853 32.5467 95.8067 32.611 95.8067 32.6968C95.8067 32.7933 95.7746 32.8684 95.7102 32.9327C95.6459 32.9971 95.5708 33.0293 95.4743 33.0293C95.3885 33.0293 95.3134 32.9971 95.2598 32.9542C95.2062 32.9006 95.174 32.8362 95.174 32.7504C95.174 32.6539 95.2062 32.5788 95.2705 32.5145C95.3349 32.4501 95.4207 32.418 95.5172 32.418ZM95.4314 33.4368H95.6244L95.3456 34.9061C95.3456 34.9597 95.3349 34.9919 95.3349 35.024C95.3241 35.0562 95.3241 35.0777 95.3241 35.0991C95.3241 35.1742 95.3456 35.2385 95.3778 35.2814C95.4207 35.3243 95.4743 35.3458 95.5386 35.3458C95.5708 35.3458 95.6137 35.3351 95.6673 35.3243C95.721 35.3136 95.7746 35.2922 95.8389 35.2707V35.4638C95.6995 35.5174 95.5601 35.5603 95.4421 35.5925C95.3241 35.6139 95.2062 35.6353 95.0989 35.6353C94.9917 35.6353 94.9059 35.6032 94.8523 35.5496C94.7986 35.4852 94.7772 35.3994 94.7772 35.2922C94.7772 35.26 94.7772 35.2171 94.7772 35.1849C94.7879 35.1313 94.7986 35.0777 94.8094 34.9919L95.0453 33.8122L94.6807 33.7585V33.5977L95.4314 33.4368Z" fill="white"/>
<path d="M96.8269 33.4258H96.9985L96.9127 33.8655C97.095 33.7046 97.2558 33.5974 97.3953 33.533C97.5347 33.458 97.6634 33.4258 97.7813 33.4258C97.8993 33.4258 97.9958 33.458 98.0709 33.5438C98.146 33.6188 98.1889 33.7261 98.1889 33.8548C98.1889 33.8869 98.1782 33.9406 98.1782 33.9942C98.1674 34.0585 98.1567 34.1229 98.1353 34.198L98.0066 34.7985C97.9958 34.8843 97.9851 34.9487 97.9744 35.0023C97.9637 35.0559 97.9637 35.0988 97.9637 35.131C97.9637 35.1953 97.9851 35.249 98.0173 35.2919C98.0495 35.3348 98.0924 35.3562 98.146 35.3562C98.1889 35.3562 98.2318 35.3455 98.2854 35.3348C98.3283 35.324 98.3819 35.3133 98.4355 35.2919V35.4635C98.3069 35.5171 98.1889 35.5493 98.0709 35.5814C97.9637 35.6029 97.8564 35.6243 97.7813 35.6243C97.6634 35.6243 97.5776 35.5922 97.5132 35.5385C97.4596 35.4849 97.4274 35.4098 97.4274 35.3026C97.4274 35.2811 97.4274 35.249 97.4274 35.2168C97.4382 35.1846 97.4489 35.131 97.4596 35.0666L97.6098 34.3374C97.6205 34.273 97.6312 34.2194 97.6419 34.1658C97.6419 34.1229 97.6527 34.08 97.6527 34.0478C97.6527 33.9727 97.6312 33.9084 97.5883 33.8655C97.5561 33.8226 97.5025 33.8011 97.4274 33.8011C97.3631 33.8011 97.288 33.8226 97.1915 33.8762C97.095 33.9191 96.9985 33.9942 96.8912 34.0907L96.6338 35.5814H96.0761L96.4193 33.8119L96.0654 33.7582L96.0547 33.6081L96.8269 33.4258Z" fill="white"/>
<path d="M102.713 32.7097L102.585 33.4605H102.274V32.9778L102.22 32.8921C102.166 32.8706 102.113 32.8599 102.07 32.8599C102.016 32.8492 101.973 32.8384 101.93 32.8384C101.77 32.8384 101.619 32.8706 101.491 32.9135C101.351 32.9671 101.233 33.0422 101.126 33.1387C100.965 33.2781 100.847 33.4605 100.751 33.6857C100.665 33.9002 100.622 34.1361 100.622 34.3935C100.622 34.6831 100.708 34.919 100.858 35.0799C101.019 35.2515 101.233 35.3373 101.501 35.3373C101.523 35.3373 101.555 35.3373 101.598 35.3265C101.63 35.3265 101.673 35.3265 101.727 35.3158L101.888 34.4257L101.845 34.3613L101.544 34.3399V34.1254L102.778 34.1147V34.3291L102.51 34.3613L102.445 34.4149L102.252 35.4231C102.081 35.4874 101.909 35.5303 101.748 35.5625C101.587 35.5947 101.426 35.6054 101.276 35.6054C100.901 35.6161 100.59 35.4981 100.365 35.2836C100.129 35.0584 100.021 34.7581 100.021 34.3828C100.021 34.0932 100.075 33.8144 100.204 33.5677C100.322 33.3103 100.504 33.1065 100.729 32.9349C100.89 32.817 101.072 32.7312 101.266 32.6668C101.459 32.6025 101.652 32.5703 101.866 32.5703C102.016 32.5703 102.166 32.581 102.306 32.6025C102.456 32.6347 102.585 32.6668 102.713 32.7097Z" fill="white"/>
<path d="M104.118 33.6305C103.957 33.6305 103.818 33.7377 103.7 33.9522C103.582 34.1667 103.528 34.4348 103.528 34.7566C103.528 34.9603 103.561 35.1105 103.625 35.2177C103.689 35.3142 103.775 35.3679 103.904 35.3679C104.065 35.3679 104.215 35.2606 104.333 35.0461C104.451 34.8316 104.504 34.5635 104.504 34.2525C104.504 34.038 104.472 33.8879 104.408 33.7806C104.343 33.6734 104.247 33.6305 104.118 33.6305ZM104.172 33.3945C104.451 33.3945 104.665 33.4803 104.826 33.6412C104.987 33.8021 105.062 34.0166 105.073 34.2954C105.073 34.467 105.041 34.6493 104.965 34.8102C104.901 34.971 104.815 35.1212 104.687 35.2499C104.579 35.3571 104.461 35.4429 104.311 35.5073C104.172 35.5716 104.022 35.5931 103.85 35.5931C103.582 35.6038 103.367 35.518 103.207 35.3571C103.046 35.1963 102.96 34.971 102.96 34.6922C102.96 34.5206 102.992 34.3597 103.056 34.1882C103.132 34.0273 103.217 33.8771 103.335 33.7592C103.453 33.6412 103.571 33.5554 103.721 33.4911C103.861 33.4267 104.022 33.3945 104.172 33.3945Z" fill="white"/>
<path d="M106.735 33.5751C106.703 33.5751 106.692 33.5751 106.681 33.5751C106.66 33.5751 106.649 33.5751 106.649 33.5751C106.456 33.5751 106.295 33.6823 106.145 33.9183C105.995 34.1435 105.92 34.4116 105.92 34.7226C105.931 34.8835 105.952 35.0122 106.017 35.098C106.07 35.1945 106.156 35.2374 106.263 35.2374C106.328 35.2374 106.403 35.216 106.488 35.1731C106.563 35.1302 106.649 35.0658 106.735 34.9907L106.917 33.8432L106.735 33.5751ZM107.497 32.3203H107.679L107.282 34.7655C107.271 34.8513 107.261 34.9157 107.261 34.9693C107.25 35.0229 107.25 35.0551 107.25 35.0873C107.25 35.1516 107.261 35.2052 107.303 35.2481C107.336 35.291 107.379 35.3125 107.432 35.3125C107.475 35.3018 107.518 35.3018 107.572 35.291C107.614 35.2803 107.668 35.2696 107.722 35.2481V35.4197C107.572 35.4733 107.443 35.5162 107.336 35.5484C107.228 35.5699 107.132 35.5806 107.057 35.5806C106.939 35.5806 106.853 35.5591 106.789 35.4948C106.735 35.4412 106.703 35.3447 106.703 35.2267V35.216C106.585 35.3339 106.467 35.4304 106.349 35.4948C106.231 35.5591 106.113 35.5913 105.995 35.5913C105.813 35.5913 105.663 35.5162 105.545 35.3661C105.437 35.216 105.373 35.0229 105.373 34.7762C105.373 34.6261 105.394 34.4867 105.437 34.3365C105.47 34.1971 105.534 34.0684 105.609 33.9397C105.727 33.7574 105.877 33.618 106.049 33.5215C106.22 33.4249 106.413 33.3713 106.628 33.3713C106.681 33.3713 106.735 33.382 106.799 33.3928C106.853 33.4035 106.917 33.4249 106.982 33.4464L107.11 32.6957L106.735 32.6421V32.4919L107.497 32.3203Z" fill="white"/>
<path d="M110.532 33.5895C110.521 33.5895 110.521 33.5895 110.51 33.5895C110.489 33.5788 110.478 33.5788 110.478 33.5788C110.264 33.5788 110.092 33.6967 109.942 33.9112C109.803 34.1257 109.728 34.3938 109.728 34.7156C109.728 34.8872 109.76 35.0051 109.813 35.0909C109.878 35.1767 109.953 35.2196 110.071 35.2196C110.135 35.2196 110.199 35.2089 110.275 35.166C110.339 35.1338 110.425 35.0802 110.51 35.0159L110.704 33.8469L110.532 33.5895ZM111.068 33.375H111.326C111.304 33.4286 111.283 33.5144 111.261 33.6324C111.229 33.7611 111.208 33.8898 111.175 34.0399L111.047 34.7585C111.036 34.8228 111.036 34.8872 111.025 34.9408C111.015 34.9944 111.015 35.0373 111.015 35.0588C111.015 35.1338 111.036 35.1875 111.068 35.2304C111.1 35.2733 111.143 35.2947 111.197 35.2947C111.24 35.2947 111.283 35.2947 111.336 35.284C111.379 35.2733 111.433 35.2625 111.486 35.2411V35.4127C111.336 35.4663 111.197 35.5092 111.1 35.5306C110.993 35.5628 110.907 35.5735 110.832 35.5735C110.725 35.5735 110.639 35.5414 110.586 35.4877C110.532 35.4341 110.5 35.3483 110.5 35.2411V35.2196C110.382 35.3376 110.264 35.4234 110.146 35.4877C110.028 35.5414 109.91 35.5735 109.803 35.5735C109.61 35.5735 109.449 35.5092 109.342 35.3698C109.234 35.2304 109.17 35.0373 109.17 34.7799C109.17 34.6191 109.191 34.4689 109.234 34.3295C109.277 34.1793 109.342 34.0399 109.427 33.9112C109.535 33.7396 109.674 33.6109 109.846 33.5144C110.017 33.4286 110.199 33.375 110.403 33.375C110.478 33.375 110.564 33.3857 110.65 33.4072C110.725 33.4179 110.811 33.4501 110.907 33.4822L111.068 33.375Z" fill="white"/>
<path d="M112.473 33.3633H112.645L112.559 33.803C112.741 33.6528 112.902 33.5349 113.042 33.4705C113.181 33.3955 113.31 33.3633 113.428 33.3633C113.546 33.3633 113.642 33.4062 113.717 33.4813C113.792 33.5563 113.825 33.6636 113.825 33.7923C113.825 33.8352 113.825 33.8781 113.814 33.9424C113.803 33.996 113.792 34.0604 113.782 34.1355L113.653 34.736C113.632 34.8218 113.621 34.8862 113.61 34.9398C113.61 34.9934 113.599 35.0363 113.599 35.0685C113.599 35.1328 113.621 35.1865 113.653 35.2294C113.696 35.2723 113.739 35.2937 113.792 35.2937C113.835 35.2937 113.878 35.283 113.921 35.2723C113.975 35.2615 114.018 35.2508 114.071 35.2294L114.082 35.401C113.943 35.4546 113.825 35.4975 113.717 35.5189C113.599 35.5511 113.503 35.5618 113.417 35.5618C113.299 35.5618 113.213 35.5404 113.16 35.4868C113.095 35.4331 113.063 35.3473 113.063 35.2508C113.063 35.2186 113.074 35.1865 113.074 35.1543C113.074 35.1221 113.085 35.0685 113.095 35.0041L113.256 34.2749C113.267 34.2105 113.278 34.1569 113.278 34.114C113.288 34.0604 113.288 34.0175 113.288 33.9853C113.288 33.9102 113.267 33.8459 113.235 33.803C113.192 33.7601 113.138 33.7386 113.074 33.7386C113.01 33.7386 112.924 33.7601 112.838 33.8137C112.741 33.8673 112.634 33.9317 112.527 34.0282L112.28 35.5189L111.723 35.5297L112.066 33.7494L111.701 33.7065V33.5456L112.473 33.3633Z" fill="white"/>
<path d="M115.658 33.5438C115.636 33.5438 115.626 33.5438 115.604 33.5331C115.594 33.5331 115.583 33.5331 115.572 33.5331C115.39 33.5331 115.218 33.6511 115.079 33.8763C114.929 34.1122 114.854 34.3804 114.854 34.6914C114.854 34.8522 114.886 34.9809 114.95 35.0667C115.004 35.1633 115.09 35.2062 115.197 35.2062C115.261 35.2062 115.336 35.1847 115.411 35.1418C115.497 35.0989 115.583 35.0346 115.669 34.9595L115.851 33.812L115.658 33.5438ZM116.43 32.2891H116.612L116.216 34.7343C116.205 34.8093 116.194 34.8844 116.183 34.9273C116.183 34.9809 116.183 35.0238 116.183 35.0453C116.183 35.1204 116.194 35.174 116.237 35.2062C116.269 35.2491 116.312 35.2705 116.366 35.2705C116.409 35.2705 116.452 35.2705 116.494 35.2598C116.548 35.2491 116.602 35.2383 116.655 35.2169V35.3885C116.505 35.4421 116.376 35.485 116.269 35.5064C116.162 35.5386 116.065 35.5493 115.99 35.5493C115.872 35.5493 115.787 35.5172 115.722 35.4635C115.669 35.4099 115.636 35.3134 115.636 35.1954V35.174C115.519 35.3027 115.39 35.3992 115.272 35.4635C115.154 35.5172 115.047 35.5493 114.929 35.5493C114.746 35.5493 114.596 35.485 114.478 35.3349C114.36 35.1847 114.307 34.9917 114.307 34.745C114.307 34.5949 114.328 34.4447 114.36 34.3053C114.403 34.1659 114.468 34.0264 114.543 33.9085C114.661 33.7262 114.8 33.5867 114.982 33.4902C115.154 33.3937 115.347 33.3401 115.561 33.3401C115.615 33.3401 115.669 33.3508 115.733 33.3615C115.787 33.3722 115.851 33.3937 115.915 33.4151L116.033 32.6644L115.669 32.6108V32.4607L116.43 32.2891Z" fill="white"/>
<path d="M119.069 32.2773H119.251L118.833 34.3686L119.401 33.7681C119.562 33.5965 119.68 33.4892 119.777 33.4249C119.873 33.3605 119.959 33.3284 120.034 33.3284C120.109 33.3284 120.173 33.3605 120.227 33.4142C120.281 33.4678 120.302 33.5428 120.302 33.6286C120.302 33.7144 120.27 33.7895 120.216 33.8539C120.152 33.9182 120.066 33.9718 119.948 34.004L119.787 33.7466C119.702 33.8217 119.626 33.886 119.551 33.9397C119.476 34.004 119.423 34.0469 119.391 34.0898C119.412 34.1327 119.433 34.1863 119.466 34.2507C119.755 34.9263 119.991 35.2695 120.184 35.2695C120.206 35.2695 120.227 35.2695 120.27 35.2588C120.302 35.2481 120.345 35.2373 120.399 35.2159V35.3982C120.259 35.4411 120.131 35.4733 120.034 35.4947C119.927 35.5269 119.841 35.5376 119.777 35.5376C119.669 35.5376 119.573 35.5054 119.508 35.4411C119.433 35.3768 119.358 35.2481 119.273 35.055L119.004 34.4115L118.801 34.6368L118.651 35.4947H118.125L118.672 32.6313L118.275 32.5991V32.4489L119.069 32.2773Z" fill="white"/>
<path d="M121.343 33.332H121.514L121.428 33.761C121.621 33.6109 121.782 33.5036 121.922 33.4393C122.061 33.3642 122.19 33.332 122.308 33.332C122.415 33.332 122.511 33.3642 122.587 33.45C122.662 33.5251 122.705 33.6323 122.705 33.761C122.705 33.7932 122.705 33.8468 122.694 33.9004C122.683 33.9648 122.672 34.0291 122.651 34.1042L122.533 34.7048C122.511 34.7906 122.501 34.8549 122.49 34.9085C122.479 34.9622 122.479 35.0051 122.479 35.0372C122.479 35.1016 122.501 35.1552 122.533 35.1981C122.565 35.241 122.608 35.2625 122.662 35.2625C122.705 35.2625 122.747 35.2517 122.801 35.241C122.844 35.2303 122.898 35.2196 122.951 35.1981V35.3697C122.822 35.4233 122.705 35.4555 122.587 35.4877C122.479 35.5091 122.383 35.5306 122.297 35.5306C122.179 35.5306 122.093 35.4984 122.029 35.4448C121.975 35.3912 121.943 35.3161 121.943 35.2088C121.943 35.1874 121.943 35.1552 121.954 35.123C121.954 35.0909 121.965 35.0372 121.975 34.9729L122.125 34.2436C122.136 34.1793 122.147 34.1257 122.158 34.072C122.168 34.0291 122.168 33.9862 122.168 33.9541C122.168 33.879 122.147 33.8146 122.104 33.7717C122.072 33.7288 122.018 33.6967 121.954 33.6967C121.879 33.7074 121.804 33.7288 121.707 33.7825C121.621 33.8254 121.514 33.9004 121.407 33.997L121.149 35.4877H120.603L120.946 33.7181L120.581 33.6645V33.5143L121.343 33.332Z" fill="white"/>
<path d="M124.334 33.5455C124.162 33.5455 124.023 33.6528 123.905 33.8673C123.798 34.0925 123.733 34.3606 123.733 34.6823C123.733 34.8861 123.766 35.0362 123.83 35.1328C123.894 35.24 123.991 35.2936 124.109 35.2936C124.28 35.2936 124.42 35.1864 124.538 34.9719C124.656 34.7574 124.72 34.4893 124.709 34.1676C124.709 33.9638 124.677 33.8029 124.613 33.7064C124.559 33.5992 124.463 33.5455 124.334 33.5455ZM124.388 33.3203C124.656 33.3203 124.881 33.3954 125.031 33.5563C125.192 33.7171 125.278 33.9423 125.278 34.2105C125.278 34.3928 125.246 34.5644 125.181 34.7252C125.117 34.8968 125.02 35.0362 124.902 35.1649C124.795 35.2829 124.667 35.3687 124.527 35.4223C124.377 35.4867 124.227 35.5189 124.066 35.5189C123.787 35.5189 123.573 35.4438 123.412 35.2722C123.251 35.1113 123.176 34.8968 123.176 34.618C123.176 34.4464 123.208 34.2748 123.272 34.1139C123.337 33.9423 123.433 33.8029 123.551 33.6742C123.658 33.567 123.787 33.4705 123.927 33.4168C124.077 33.3525 124.227 33.3203 124.388 33.3203Z" fill="white"/>
<path d="M126.104 33.3076H126.308L126.405 34.9056C126.566 34.5838 126.716 34.3157 126.834 34.069C126.952 33.8331 127.059 33.6079 127.145 33.4041L127.563 33.3719C127.574 33.5864 127.584 33.8438 127.606 34.1227C127.617 34.4122 127.638 34.7125 127.66 35.045C127.82 34.8412 127.949 34.6589 128.046 34.498C128.153 34.3264 128.228 34.187 128.271 34.069L128.164 33.4148C128.206 33.3827 128.249 33.3505 128.292 33.329C128.335 33.3076 128.389 33.2969 128.432 33.2969C128.517 33.2969 128.593 33.329 128.646 33.3827C128.7 33.4363 128.721 33.5114 128.721 33.6079C128.721 33.758 128.646 33.9725 128.485 34.2406C128.324 34.5195 128.024 34.9163 127.595 35.4632H127.22L127.134 33.9511C126.995 34.2299 126.855 34.4873 126.716 34.7447C126.587 34.9914 126.448 35.238 126.319 35.4632H125.911L125.944 35.3345L125.847 33.6722L125.482 33.6186V33.4792L126.104 33.3076Z" fill="white"/>
<path d="M129.45 32.6136L129.097 32.56V32.4099L129.837 32.2383H130.03L129.59 34.6728C129.558 34.8336 129.547 34.9409 129.547 34.9945C129.547 35.0589 129.558 35.1125 129.59 35.1554C129.622 35.1983 129.665 35.2197 129.719 35.2197C129.772 35.2197 129.826 35.209 129.89 35.1983C129.944 35.1875 130.008 35.1661 130.072 35.1446V35.327C129.912 35.3806 129.772 35.4235 129.665 35.4557C129.547 35.4878 129.461 35.4986 129.386 35.4986C129.268 35.4986 129.172 35.4771 129.107 35.4128C129.032 35.3591 129 35.2841 129 35.1768C129 35.1339 129.011 35.0589 129.032 34.9516V34.9409L129.45 32.6136Z" fill="white"/>
<path d="M130.844 34.2728C131.069 34.2621 131.262 34.2085 131.401 34.1012C131.552 33.994 131.627 33.876 131.627 33.7366C131.627 33.6722 131.605 33.6186 131.573 33.5757C131.53 33.5328 131.477 33.5221 131.412 33.5221C131.294 33.5221 131.187 33.5864 131.08 33.7151C130.983 33.8546 130.897 34.0369 130.844 34.2728ZM130.812 34.4551L130.801 34.4659C130.801 34.5195 130.801 34.5624 130.801 34.5838C130.801 34.7769 130.844 34.9163 130.919 35.0128C131.005 35.1093 131.123 35.163 131.273 35.163C131.369 35.163 131.477 35.1308 131.584 35.0772C131.702 35.0235 131.82 34.9485 131.948 34.8519V35.1201C131.798 35.238 131.637 35.3345 131.487 35.3989C131.337 35.4525 131.187 35.4847 131.048 35.4847C130.812 35.4954 130.619 35.4203 130.479 35.2702C130.34 35.1201 130.275 34.9163 130.275 34.6589C130.275 34.4551 130.318 34.2621 130.404 34.0798C130.479 33.8867 130.608 33.7366 130.769 33.5972C130.876 33.5006 130.994 33.4256 131.133 33.3719C131.262 33.329 131.391 33.2969 131.53 33.2969C131.691 33.2969 131.83 33.3398 131.927 33.4256C132.024 33.5114 132.066 33.6293 132.077 33.7688C132.077 33.9832 131.97 34.1548 131.777 34.2728C131.573 34.4015 131.294 34.4551 130.94 34.4551C130.93 34.4551 130.908 34.4551 130.876 34.4551C130.844 34.4551 130.822 34.4551 130.812 34.4551Z" fill="white"/>
<path d="M133.665 33.4696C133.643 33.4696 133.622 33.4696 133.611 33.4696C133.6 33.4696 133.59 33.4696 133.579 33.4696C133.397 33.4696 133.225 33.5769 133.075 33.8128C132.936 34.038 132.86 34.3061 132.86 34.6172C132.86 34.778 132.893 34.9067 132.946 34.9925C133.011 35.089 133.096 35.1319 133.193 35.1319C133.268 35.1319 133.343 35.1105 133.418 35.0676C133.504 35.0247 133.579 34.9711 133.676 34.8853L133.858 33.7377L133.665 33.4696ZM134.437 32.2148H134.619L134.222 34.6601C134.212 34.7459 134.201 34.8102 134.19 34.8638C134.19 34.9174 134.18 34.9496 134.18 34.9818C134.18 35.0461 134.201 35.0998 134.233 35.1427C134.276 35.1856 134.319 35.207 134.373 35.207C134.405 35.207 134.458 35.1963 134.501 35.1856C134.555 35.1748 134.609 35.1641 134.662 35.1427V35.3143C134.512 35.3679 134.373 35.4108 134.265 35.4429C134.169 35.4644 134.072 35.4751 133.997 35.4751C133.879 35.4751 133.783 35.4537 133.729 35.3893C133.676 35.3357 133.643 35.2392 133.643 35.1212V35.1105C133.515 35.2285 133.397 35.325 133.279 35.3893C133.161 35.4537 133.043 35.4858 132.936 35.4858C132.753 35.4858 132.603 35.4108 132.485 35.2606C132.367 35.1212 132.313 34.9174 132.313 34.6708C132.313 34.5206 132.335 34.3812 132.367 34.2311C132.41 34.0916 132.464 33.963 132.549 33.8343C132.667 33.6519 132.807 33.5125 132.989 33.416C133.161 33.3195 133.354 33.2659 133.568 33.2659C133.622 33.2659 133.676 33.2766 133.74 33.2873C133.793 33.298 133.858 33.3195 133.922 33.3409L134.04 32.6009L133.676 32.5366V32.3864L134.437 32.2148Z" fill="white"/>
<path d="M136.142 33.8028C136.142 33.6956 136.121 33.6098 136.078 33.5562C136.035 33.5026 135.981 33.4811 135.895 33.4811C135.788 33.4811 135.681 33.5455 135.595 33.6956C135.509 33.835 135.456 34.0066 135.456 34.1889C135.456 34.2962 135.477 34.382 135.52 34.4463C135.563 34.4999 135.627 34.5321 135.702 34.5321C135.82 34.5321 135.917 34.4571 136.003 34.3069C136.099 34.1675 136.142 33.9959 136.142 33.8028ZM135.37 35.3043C135.273 35.3579 135.198 35.4115 135.155 35.4759C135.112 35.5402 135.091 35.6153 135.091 35.6904C135.091 35.8298 135.145 35.9478 135.252 36.0336C135.359 36.1194 135.488 36.1623 135.659 36.1623C135.799 36.1623 135.917 36.1301 136.013 36.0657C136.11 36.0014 136.153 35.9156 136.153 35.8191C136.153 35.7655 136.131 35.7226 136.088 35.6689C136.046 35.626 135.981 35.5831 135.895 35.5402L135.37 35.3043ZM136.453 33.406H137.043V33.6313H136.603C136.625 33.6956 136.635 33.7492 136.646 33.7814C136.646 33.8136 136.657 33.8457 136.657 33.8779C136.657 34.1246 136.56 34.3284 136.378 34.4785C136.196 34.6394 135.949 34.7252 135.67 34.7252C135.649 34.7573 135.627 34.7895 135.627 34.811C135.617 34.8431 135.606 34.8646 135.606 34.8968V34.9075L136.271 35.2185C136.41 35.2936 136.517 35.3579 136.582 35.433C136.635 35.5081 136.668 35.5939 136.668 35.6904C136.668 35.8834 136.56 36.0443 136.335 36.173C136.11 36.3124 135.831 36.3768 135.499 36.3875C135.23 36.3875 135.016 36.3339 134.866 36.2266C134.705 36.1194 134.619 35.9799 134.619 35.8084C134.619 35.6689 134.673 35.551 134.78 35.4544C134.877 35.3472 135.037 35.2507 135.263 35.1649V35.1434C135.263 35.0684 135.273 34.9933 135.306 34.9289C135.327 34.8539 135.381 34.7788 135.445 34.693C135.284 34.6501 135.155 34.5857 135.07 34.4892C134.984 34.3927 134.941 34.2747 134.941 34.1353C134.941 33.8886 135.027 33.6849 135.209 33.524C135.391 33.3631 135.627 33.2773 135.906 33.2773C135.992 33.2773 136.088 33.2881 136.174 33.3095C136.271 33.331 136.357 33.3631 136.453 33.406Z" fill="white"/>
<path d="M137.665 34.2426C137.89 34.2318 138.073 34.1782 138.223 34.071C138.373 33.9744 138.448 33.8565 138.448 33.7171C138.448 33.642 138.427 33.5884 138.384 33.5562C138.351 33.5133 138.298 33.4918 138.233 33.4918C138.116 33.4918 137.998 33.5562 137.901 33.6956C137.794 33.8243 137.719 34.0066 137.665 34.2426ZM137.622 34.4249C137.622 34.4356 137.622 34.4356 137.622 34.4463C137.622 34.4999 137.611 34.5428 137.611 34.5643C137.622 34.7466 137.654 34.886 137.74 34.9826C137.826 35.0898 137.933 35.1327 138.083 35.1327C138.18 35.1327 138.287 35.1113 138.405 35.0576C138.523 35.004 138.641 34.9289 138.77 34.8217V35.0898C138.62 35.2185 138.459 35.3043 138.309 35.3686C138.148 35.433 138.008 35.4652 137.869 35.4652C137.622 35.4652 137.44 35.3901 137.3 35.2507C137.161 35.1005 137.097 34.8968 137.097 34.6394C137.097 34.4249 137.129 34.2318 137.215 34.0495C137.3 33.8672 137.418 33.7063 137.579 33.5669C137.687 33.4811 137.815 33.406 137.944 33.3524C138.083 33.2988 138.212 33.2773 138.341 33.2773C138.512 33.2773 138.641 33.3095 138.748 33.3953C138.845 33.4811 138.888 33.5991 138.888 33.7492C138.888 33.9637 138.791 34.1246 138.587 34.2533C138.394 34.3713 138.116 34.4356 137.762 34.4356C137.74 34.4356 137.719 34.4356 137.697 34.4356C137.665 34.4356 137.644 34.4249 137.622 34.4249Z" fill="white"/>
<path d="M141.558 33.4791C141.386 33.4791 141.247 33.5864 141.129 33.8009C141.021 34.0154 140.957 34.2835 140.968 34.6159C140.968 34.809 141 34.9591 141.054 35.0664C141.118 35.1736 141.214 35.2165 141.332 35.2165C141.504 35.2165 141.643 35.1093 141.761 34.8948C141.879 34.6803 141.944 34.4229 141.944 34.1011C141.944 33.8867 141.912 33.7365 141.847 33.6293C141.783 33.5327 141.686 33.4791 141.558 33.4791ZM141.611 33.2539C141.89 33.2539 142.105 33.329 142.265 33.4898C142.426 33.6507 142.501 33.8652 142.501 34.144C142.501 34.3264 142.469 34.498 142.405 34.6588C142.341 34.8197 142.244 34.9698 142.126 35.0985C142.019 35.2058 141.89 35.2916 141.751 35.3559C141.601 35.4203 141.45 35.4524 141.29 35.4524C141.021 35.4524 140.796 35.3667 140.635 35.2058C140.485 35.0449 140.399 34.8197 140.399 34.5409C140.399 34.3693 140.432 34.2084 140.496 34.0368C140.56 33.8759 140.657 33.7258 140.775 33.6078C140.882 33.4898 141.011 33.4041 141.15 33.3397C141.3 33.2861 141.45 33.2539 141.611 33.2539Z" fill="white"/>
<path d="M144.39 32.7852L144.014 32.3991C143.95 32.4742 143.896 32.5921 143.843 32.753C143.789 32.9139 143.736 33.1176 143.693 33.3643L144.293 33.3536V33.611H143.66L143.5 34.7585C143.467 34.973 143.435 35.1553 143.382 35.3162C143.328 35.4663 143.264 35.6057 143.189 35.7344C143.071 35.9168 142.942 36.0669 142.792 36.1741C142.642 36.2814 142.491 36.335 142.352 36.335C142.266 36.335 142.191 36.3136 142.138 36.2599C142.084 36.217 142.052 36.1527 142.052 36.0669C142.052 36.0025 142.062 35.9489 142.095 35.906C142.127 35.8524 142.17 35.8202 142.223 35.7988L142.695 36.0454C142.749 35.9704 142.802 35.8524 142.835 35.6915C142.878 35.5414 142.931 35.2947 142.974 34.9515L143.156 33.6217L142.867 33.6539V33.4608L143.21 33.3107C143.264 32.9889 143.392 32.7208 143.585 32.5063C143.778 32.3026 143.993 32.1953 144.24 32.1953C144.358 32.1953 144.465 32.2275 144.54 32.2811C144.626 32.3347 144.658 32.4098 144.658 32.4956C144.658 32.5599 144.636 32.6243 144.583 32.6779C144.54 32.7315 144.465 32.7637 144.39 32.7852Z" fill="white"/>
<path d="M146.02 32.5472L145.666 32.4936V32.3435L146.406 32.1719H146.599L146.159 34.6064C146.127 34.7672 146.116 34.8638 146.116 34.9281C146.116 34.9924 146.127 35.0461 146.159 35.089C146.202 35.1319 146.245 35.1533 146.288 35.1533C146.342 35.1533 146.395 35.1426 146.459 35.1319C146.513 35.1211 146.577 35.0997 146.642 35.0782V35.2606C146.481 35.3142 146.342 35.3571 146.234 35.3893C146.116 35.4214 146.03 35.4322 145.966 35.4322C145.837 35.4322 145.741 35.4 145.677 35.3464C145.602 35.2927 145.569 35.2177 145.569 35.1104C145.569 35.0675 145.58 34.9924 145.602 34.8852V34.8745L146.02 32.5472Z" fill="white"/>
<path d="M148.197 33.4371C148.197 33.4371 148.186 33.4371 148.176 33.4371C148.165 33.4371 148.154 33.4371 148.143 33.4371C147.929 33.4371 147.757 33.5444 147.618 33.7589C147.468 33.9734 147.403 34.2415 147.403 34.5632C147.403 34.7348 147.425 34.8528 147.489 34.9386C147.543 35.0244 147.629 35.0673 147.736 35.0673C147.8 35.0673 147.865 35.0566 147.94 35.0244C148.015 34.9815 148.09 34.9386 148.176 34.8635L148.379 33.6945L148.197 33.4371ZM148.733 33.2227H148.991C148.98 33.2763 148.958 33.3621 148.926 33.48C148.905 33.6087 148.873 33.7374 148.851 33.8876L148.723 34.6061C148.712 34.6705 148.701 34.7348 148.69 34.7884C148.69 34.8421 148.68 34.885 148.68 34.9064C148.68 34.9815 148.701 35.0351 148.733 35.078C148.765 35.1209 148.808 35.1424 148.862 35.1424C148.905 35.1424 148.958 35.1424 149.001 35.1316C149.044 35.1209 149.098 35.1102 149.151 35.0887V35.2603C149.001 35.314 148.873 35.3569 148.765 35.3783C148.658 35.4105 148.572 35.4212 148.497 35.4212C148.39 35.4212 148.304 35.389 148.251 35.3354C148.197 35.2818 148.165 35.196 148.165 35.0887V35.078C148.047 35.1853 147.929 35.2818 147.811 35.3354C147.693 35.3998 147.586 35.4212 147.478 35.4212C147.275 35.4212 147.125 35.3569 147.007 35.2174C146.899 35.078 146.846 34.885 146.846 34.6276C146.846 34.4774 146.867 34.3166 146.899 34.1771C146.942 34.027 147.017 33.8876 147.103 33.7589C147.21 33.5873 147.35 33.4586 147.521 33.3621C147.693 33.2763 147.875 33.2227 148.068 33.2227C148.143 33.2227 148.229 33.2334 148.315 33.2548C148.401 33.2656 148.487 33.2977 148.572 33.3299L148.733 33.2227Z" fill="white"/>
<path d="M149.87 33.2138H150.074L150.17 34.8118C150.331 34.5008 150.481 34.222 150.599 33.986C150.717 33.7394 150.825 33.5249 150.921 33.3104L151.329 33.2782C151.339 33.5034 151.35 33.7501 151.372 34.0396C151.382 34.3185 151.404 34.6295 151.425 34.9512C151.586 34.7475 151.715 34.5651 151.811 34.4043C151.918 34.2434 151.994 34.104 152.047 33.986L151.929 33.3318C151.972 33.2889 152.015 33.2567 152.058 33.2353C152.101 33.2138 152.154 33.2031 152.208 33.2031C152.294 33.2031 152.358 33.2353 152.412 33.2889C152.465 33.3533 152.487 33.4283 152.487 33.5141C152.487 33.675 152.412 33.8895 152.251 34.1576C152.09 34.4257 151.79 34.8333 151.361 35.3695H150.985L150.9 33.8573C150.76 34.1362 150.621 34.3936 150.481 34.6509C150.353 34.8976 150.213 35.1443 150.085 35.3695L149.677 35.3802L149.709 35.2408L149.613 33.5785L149.248 33.5249V33.3854L149.87 33.2138Z" fill="white"/>
</svg>
