<?xml version="1.0" standalone="no"?>
<!DOCTYPE svg PUBLIC "-//W3C//DTD SVG 20010904//EN"
 "http://www.w3.org/TR/2001/REC-SVG-20010904/DTD/svg10.dtd">
<svg version="1.0" xmlns="http://www.w3.org/2000/svg"
 width="160.000000pt" height="160.000000pt" viewBox="0 0 160.000000 160.000000"
 preserveAspectRatio="xMidYMid meet">
<metadata>
Created by potrace 1.14, written by Peter Selinger 2001-2017
</metadata>
<g transform="translate(0.000000,160.000000) scale(0.100000,-0.100000)"
fill="#000000" stroke="none">
<path d="M285 1457 c-105 -40 -176 -98 -228 -188 -85 -147 -68 -354 37 -451
20 -18 36 -39 36 -46 0 -8 29 -44 65 -81 43 -44 65 -76 65 -91 0 -37 37 -103
71 -127 18 -12 41 -38 53 -59 13 -23 38 -47 65 -61 24 -13 52 -36 62 -52 10
-16 26 -32 37 -35 11 -4 30 -22 43 -41 26 -37 56 -55 96 -55 14 0 41 -13 60
-30 18 -16 41 -30 51 -30 21 0 551 528 558 557 3 12 25 33 48 47 52 31 122
120 155 201 21 49 25 77 26 156 0 90 -2 99 -37 171 -95 191 -300 278 -501 212
-51 -17 -133 -65 -173 -102 -13 -12 -32 -19 -55 -17 -19 1 -43 -2 -54 -5 -15
-6 -32 3 -65 32 -117 104 -290 143 -415 95z m287 -34 c35 -17 88 -50 118 -75
47 -38 59 -44 82 -37 16 4 41 5 56 3 23 -4 38 3 68 30 119 107 292 141 424 85
30 -13 57 -27 58 -31 2 -4 8 -8 13 -8 18 0 82 -65 115 -116 81 -125 83 -288 5
-414 -34 -55 -85 -111 -127 -137 -24 -15 -45 -35 -46 -45 -2 -10 -122 -137
-266 -283 -284 -287 -278 -282 -327 -229 -15 17 -33 24 -57 24 -36 0 -88 36
-88 62 0 7 -15 20 -33 29 -17 8 -39 29 -47 47 -10 21 -22 32 -37 32 -25 0 -93
63 -93 85 0 8 -17 26 -39 39 -39 25 -71 83 -71 128 0 13 -26 48 -65 89 -36 37
-65 73 -65 79 0 7 -18 30 -39 51 -55 55 -80 115 -85 201 -11 187 97 346 277
409 78 28 187 20 269 -18z"/>
<path d="M340 1408 c-19 -5 -45 -14 -57 -20 l-23 -11 29 -18 c36 -22 46 -38
32 -52 -8 -8 -21 -5 -50 11 -52 30 -72 28 -107 -10 -113 -121 -132 -318 -42
-429 41 -51 130 -73 192 -49 14 5 28 5 31 0 7 -12 -55 -48 -99 -57 l-37 -8 45
-45 46 -44 21 23 c30 32 77 50 118 45 37 -5 91 -47 91 -72 0 -10 6 -12 23 -7
70 23 138 -4 158 -62 9 -27 15 -34 30 -30 34 9 84 -11 102 -42 18 -31 22 -77
8 -99 -5 -8 -1 -27 10 -48 30 -60 9 -120 -56 -160 -28 -17 -33 -23 -22 -32 10
-9 66 42 255 231 l243 243 -16 31 c-22 45 -233 245 -318 302 -141 94 -160 103
-214 95 -45 -6 -51 -10 -76 -53 -65 -114 -128 -144 -202 -95 -35 23 -37 49 -6
92 16 21 36 62 46 92 22 68 54 98 135 130 l63 24 -39 34 c-86 76 -218 114
-314 90z"/>
<path d="M1105 1405 c-64 -15 -117 -43 -179 -94 -43 -36 -54 -41 -100 -41 -58
0 -146 -27 -221 -68 -45 -24 -52 -33 -72 -90 -13 -35 -32 -75 -43 -89 -25 -32
-25 -37 3 -50 44 -20 93 17 136 102 11 23 21 54 21 68 0 20 4 24 19 20 11 -3
22 -11 25 -19 4 -11 15 -13 41 -8 22 4 49 1 74 -9 38 -16 171 -93 181 -106 3
-3 30 -25 60 -48 30 -23 65 -51 78 -63 30 -29 68 -39 131 -35 28 2 51 -1 51
-5 0 -5 -15 -19 -32 -31 -18 -12 -34 -23 -36 -25 -2 -1 11 -22 29 -47 l32 -45
51 34 c153 101 213 303 137 459 -73 148 -232 226 -386 190z"/>
<path d="M405 701 c-68 -20 -97 -78 -69 -137 28 -58 65 -55 123 11 19 22 31
47 31 64 0 42 -44 74 -85 62z"/>
<path d="M549 609 c-130 -115 -141 -138 -94 -185 24 -24 42 -26 97 -8 18 5 20
3 13 -12 -17 -42 -16 -53 5 -74 12 -12 29 -20 38 -17 42 12 47 11 46 -3 -1 -8
-5 -22 -8 -31 -9 -22 19 -49 50 -49 35 0 111 37 124 59 14 28 13 78 -3 84 -7
3 -25 3 -40 0 -35 -7 -34 2 5 37 24 23 32 38 32 64 0 42 -2 44 -42 56 -26 7
-38 4 -66 -15 -46 -31 -65 -19 -43 28 19 39 14 62 -15 78 -41 22 -64 19 -99
-12z"/>
</g>
</svg>
