<svg width="49" height="48" viewBox="0 0 49 48" fill="none" xmlns="http://www.w3.org/2000/svg">
<path d="M34.25 30.4899V44.234C34.25 44.4109 34.2031 44.5847 34.1141 44.7375C34.025 44.8904 33.897 45.0169 33.743 45.1042C33.5891 45.1914 33.4148 45.2362 33.2379 45.2341C33.061 45.2319 32.8878 45.1829 32.736 45.0919L24.25 40L15.764 45.0919C15.6121 45.183 15.4387 45.232 15.2616 45.2341C15.0845 45.2362 14.9101 45.1911 14.7561 45.1037C14.6021 45.0162 14.4741 44.8894 14.3852 44.7362C14.2963 44.5831 14.2496 44.4091 14.25 44.2319V30.4919C11.6623 28.4201 9.78198 25.5957 8.86892 22.409C7.95585 19.2223 8.05511 15.8307 9.15298 12.7029C10.2509 9.57506 12.2931 6.86545 14.9976 4.94851C17.702 3.03157 20.9351 2.00195 24.25 2.00195C27.5649 2.00195 30.798 3.03157 33.5024 4.94851C36.2069 6.86545 38.2491 9.57506 39.347 12.7029C40.4449 15.8307 40.5442 19.2223 39.6311 22.409C38.718 25.5957 36.8377 28.4201 34.25 30.4919V30.4899ZM18.25 32.8359V38.936L24.25 35.3359L30.25 38.936V32.8359C28.3437 33.6069 26.3063 34.0022 24.25 33.9999C22.1937 34.0022 20.1563 33.6069 18.25 32.8359V32.8359ZM24.25 29.9999C27.4326 29.9999 30.4848 28.7357 32.7353 26.4852C34.9857 24.2348 36.25 21.1825 36.25 17.9999C36.25 14.8174 34.9857 11.7651 32.7353 9.51467C30.4848 7.26423 27.4326 5.99995 24.25 5.99995C21.0674 5.99995 18.0152 7.26423 15.7647 9.51467C13.5143 11.7651 12.25 14.8174 12.25 17.9999C12.25 21.1825 13.5143 24.2348 15.7647 26.4852C18.0152 28.7357 21.0674 29.9999 24.25 29.9999V29.9999Z" fill="#F9FAFB"/>
</svg>
