<svg width="20" height="19" viewBox="0 0 20 19" fill="none" xmlns="http://www.w3.org/2000/svg">
<path d="M17 16.5H3V17.5C3 17.7652 2.89464 18.0196 2.70711 18.2071C2.51957 18.3946 2.26522 18.5 2 18.5H1C0.734784 18.5 0.48043 18.3946 0.292893 18.2071C0.105357 18.0196 0 17.7652 0 17.5V7.5L2.48 1.712C2.63432 1.352 2.89096 1.04524 3.21805 0.82978C3.54515 0.614322 3.92832 0.499652 4.32 0.500001H15.68C16.0713 0.500044 16.4541 0.614897 16.7808 0.830331C17.1075 1.04577 17.3638 1.35231 17.518 1.712L20 7.5V17.5C20 17.7652 19.8946 18.0196 19.7071 18.2071C19.5196 18.3946 19.2652 18.5 19 18.5H18C17.7348 18.5 17.4804 18.3946 17.2929 18.2071C17.1054 18.0196 17 17.7652 17 17.5V16.5ZM18 9.5H2V14.5H18V9.5ZM2.176 7.5H17.824L15.681 2.5H4.32L2.177 7.5H2.176ZM4.5 13.5C4.10218 13.5 3.72064 13.342 3.43934 13.0607C3.15804 12.7794 3 12.3978 3 12C3 11.6022 3.15804 11.2206 3.43934 10.9393C3.72064 10.658 4.10218 10.5 4.5 10.5C4.89782 10.5 5.27936 10.658 5.56066 10.9393C5.84196 11.2206 6 11.6022 6 12C6 12.3978 5.84196 12.7794 5.56066 13.0607C5.27936 13.342 4.89782 13.5 4.5 13.5ZM15.5 13.5C15.1022 13.5 14.7206 13.342 14.4393 13.0607C14.158 12.7794 14 12.3978 14 12C14 11.6022 14.158 11.2206 14.4393 10.9393C14.7206 10.658 15.1022 10.5 15.5 10.5C15.8978 10.5 16.2794 10.658 16.5607 10.9393C16.842 11.2206 17 11.6022 17 12C17 12.3978 16.842 12.7794 16.5607 13.0607C16.2794 13.342 15.8978 13.5 15.5 13.5Z" fill="#73B6DA"/>
</svg>
