<svg width="30" height="30" viewBox="0 0 30 30" fill="none" xmlns="http://www.w3.org/2000/svg">
<path d="M15.0001 0.599976C7.08009 0.599976 0.600098 7.09153 0.600098 15.0867C0.600098 22.3156 5.87049 28.3156 12.7537 29.3999V19.2795H9.09609V15.0867H12.7537V11.8915C12.7537 8.26262 14.8993 6.26744 18.1969 6.26744C19.7665 6.26744 21.4081 6.54214 21.4081 6.54214V10.1132H19.5937C17.8081 10.1132 17.2465 11.2265 17.2465 12.3686V15.0867H21.2497L20.6017 19.2795H17.2465V29.3999C20.6398 28.8619 23.7296 27.1236 25.9584 24.4988C28.1871 21.8741 29.4078 18.5358 29.4001 15.0867C29.4001 7.09153 22.9201 0.599976 15.0001 0.599976Z" fill="#191E28"/>
</svg>
