<svg width="19" height="19" viewBox="0 0 19 19" fill="none" xmlns="http://www.w3.org/2000/svg">
<path d="M5.10501 13.21C5.75866 13.4691 6.30058 13.9495 6.63619 14.5674C6.97181 15.1852 7.07981 15.9013 6.94136 16.5907C6.80291 17.2801 6.42679 17.8989 5.87864 18.3393C5.33049 18.7797 4.64511 19.0136 3.9421 19.0002C3.23909 18.9869 2.56309 18.7271 2.03207 18.2662C1.50104 17.8053 1.1487 17.1726 1.03654 16.4785C0.924379 15.7844 1.05951 15.0729 1.41836 14.4682C1.77721 13.8635 2.33698 13.4041 3.00001 13.17V6.82998C2.33251 6.59408 1.76991 6.12978 1.41165 5.51918C1.05338 4.90857 0.922521 4.19096 1.0422 3.49319C1.16187 2.79543 1.52438 2.16244 2.06563 1.70611C2.60689 1.24978 3.29205 0.999494 4.00001 0.999494C4.70796 0.999494 5.39312 1.24978 5.93438 1.70611C6.47564 2.16244 6.83814 2.79543 6.95782 3.49319C7.07749 4.19096 6.94663 4.90857 6.58837 5.51918C6.2301 6.12978 5.6675 6.59408 5.00001 6.82998V9.99998C5.83601 9.37198 6.87401 8.99998 8.00001 8.99998H12C12.6581 9.00001 13.298 8.7837 13.8211 8.38437C14.3442 7.98504 14.7215 7.42482 14.895 6.78998C14.2382 6.52989 13.6942 6.04641 13.3587 5.42467C13.0233 4.80294 12.918 4.0828 13.0613 3.39104C13.2046 2.69928 13.5873 2.08024 14.1421 1.64292C14.697 1.2056 15.3883 0.978028 16.0944 1.00027C16.8005 1.02251 17.4761 1.29313 18.0023 1.7645C18.5285 2.23587 18.8715 2.87776 18.971 3.57717C19.0705 4.27658 18.92 4.98866 18.5461 5.58806C18.1723 6.18745 17.5989 6.63574 16.927 6.85398C16.7256 8.01466 16.1209 9.06699 15.2196 9.82547C14.3182 10.584 13.178 10.9999 12 11H8.00001C7.3419 11 6.70202 11.2163 6.17892 11.6156C5.65581 12.0149 5.27847 12.5751 5.10501 13.21ZM4.00001 15C3.73479 15 3.48044 15.1053 3.2929 15.2929C3.10536 15.4804 3.00001 15.7348 3.00001 16C3.00001 16.2652 3.10536 16.5196 3.2929 16.7071C3.48044 16.8946 3.73479 17 4.00001 17C4.26522 17 4.51958 16.8946 4.70711 16.7071C4.89465 16.5196 5.00001 16.2652 5.00001 16C5.00001 15.7348 4.89465 15.4804 4.70711 15.2929C4.51958 15.1053 4.26522 15 4.00001 15ZM4.00001 2.99998C3.73479 2.99998 3.48044 3.10534 3.2929 3.29288C3.10536 3.48041 3.00001 3.73477 3.00001 3.99998C3.00001 4.2652 3.10536 4.51955 3.2929 4.70709C3.48044 4.89462 3.73479 4.99998 4.00001 4.99998C4.26522 4.99998 4.51958 4.89462 4.70711 4.70709C4.89465 4.51955 5.00001 4.2652 5.00001 3.99998C5.00001 3.73477 4.89465 3.48041 4.70711 3.29288C4.51958 3.10534 4.26522 2.99998 4.00001 2.99998ZM16 2.99998C15.7348 2.99998 15.4804 3.10534 15.2929 3.29288C15.1054 3.48041 15 3.73477 15 3.99998C15 4.2652 15.1054 4.51955 15.2929 4.70709C15.4804 4.89462 15.7348 4.99998 16 4.99998C16.2652 4.99998 16.5196 4.89462 16.7071 4.70709C16.8947 4.51955 17 4.2652 17 3.99998C17 3.73477 16.8947 3.48041 16.7071 3.29288C16.5196 3.10534 16.2652 2.99998 16 2.99998Z" fill="#9CA3AF"/>
</svg>
