<svg width="21" height="22" viewBox="0 0 21 22" fill="none" xmlns="http://www.w3.org/2000/svg">
<path d="M9 0.867821C13.968 0.867821 18 4.89982 18 9.86782C18 14.8358 13.968 18.8678 9 18.8678C4.032 18.8678 0 14.8358 0 9.86782C0 4.89982 4.032 0.867821 9 0.867821ZM9 16.8678C12.867 16.8678 16 13.7348 16 9.86782C16 5.99982 12.867 2.86782 9 2.86782C5.132 2.86782 2 5.99982 2 9.86782C2 13.7348 5.132 16.8678 9 16.8678ZM17.485 16.9388L20.314 19.7668L18.899 21.1818L16.071 18.3528L17.485 16.9388Z" fill="#D1D5DB"/>
</svg>
