<svg width="48" height="16" viewBox="0 0 48 16" fill="none" xmlns="http://www.w3.org/2000/svg">
<path d="M5.43 15.27C4.71667 15.27 4.04667 15.1367 3.42 14.87C2.79333 14.5967 2.25 14.21 1.79 13.71C1.33667 13.21 1.00667 12.62 0.8 11.94L2.82 11.38C3.01333 12 3.35 12.4767 3.83 12.81C4.31 13.1367 4.84333 13.2967 5.43 13.29C5.95667 13.2833 6.42 13.16 6.82 12.92C7.22 12.68 7.53333 12.3567 7.76 11.95C7.98667 11.5367 8.1 11.0633 8.1 10.53C8.1 9.73 7.85 9.07 7.35 8.55C6.85667 8.03 6.21 7.77 5.41 7.77C5.18333 7.77 4.95 7.80333 4.71 7.87C4.47667 7.93667 4.25667 8.02333 4.05 8.13L3.07 6.48L8.15 1.99L8.37 2.59H1.37V0.599999H10.03V2.59L5.81 6.65L5.79 5.97C6.69667 5.97 7.48333 6.17333 8.15 6.58C8.81667 6.98 9.33 7.52667 9.69 8.22C10.0567 8.90667 10.24 9.67667 10.24 10.53C10.24 11.45 10.0233 12.2667 9.59 12.98C9.16333 13.6933 8.58667 14.2533 7.86 14.66C7.14 15.0667 6.33 15.27 5.43 15.27ZM12.4453 14.99L12.4553 13.13L18.7253 7.51C19.232 7.06333 19.5753 6.63667 19.7553 6.23C19.942 5.82333 20.0353 5.41667 20.0353 5.01C20.0353 4.49667 19.922 4.03667 19.6953 3.63C19.4686 3.21667 19.1553 2.89 18.7553 2.65C18.3553 2.41 17.8953 2.29 17.3753 2.29C16.842 2.29 16.3653 2.41667 15.9453 2.67C15.532 2.91667 15.2086 3.24667 14.9753 3.66C14.742 4.07333 14.6286 4.52 14.6353 5H12.4953C12.4953 4.06667 12.7053 3.25 13.1253 2.55C13.552 1.84333 14.1353 1.29333 14.8753 0.899999C15.6153 0.5 16.462 0.3 17.4153 0.3C18.322 0.3 19.1353 0.506666 19.8553 0.919999C20.5753 1.32667 21.142 1.88667 21.5553 2.6C21.9753 3.31333 22.1853 4.12667 22.1853 5.04C22.1853 5.7 22.0986 6.26 21.9253 6.72C21.752 7.18 21.492 7.60667 21.1453 8C20.7986 8.39333 20.3653 8.82 19.8453 9.28L15.0053 13.6L14.7753 13H22.1853V14.99H12.4453ZM29.6036 15.3C28.6236 15.3 27.7569 15.0867 27.0036 14.66C26.2503 14.2267 25.6569 13.6333 25.2236 12.88C24.7969 12.1267 24.5836 11.26 24.5836 10.28V5.32C24.5836 4.34 24.7969 3.47333 25.2236 2.72C25.6569 1.96667 26.2503 1.37667 27.0036 0.949999C27.7569 0.516666 28.6236 0.3 29.6036 0.3C30.5836 0.3 31.4503 0.516666 32.2036 0.949999C32.9569 1.37667 33.5469 1.96667 33.9736 2.72C34.4069 3.47333 34.6236 4.34 34.6236 5.32V10.28C34.6236 11.26 34.4069 12.1267 33.9736 12.88C33.5469 13.6333 32.9569 14.2267 32.2036 14.66C31.4503 15.0867 30.5836 15.3 29.6036 15.3ZM29.6036 13.3C30.1369 13.3 30.6203 13.1733 31.0536 12.92C31.4936 12.66 31.8436 12.3133 32.1036 11.88C32.3636 11.44 32.4936 10.95 32.4936 10.41V5.17C32.4936 4.63667 32.3636 4.15333 32.1036 3.72C31.8436 3.28 31.4936 2.93333 31.0536 2.68C30.6203 2.42 30.1369 2.29 29.6036 2.29C29.0703 2.29 28.5836 2.42 28.1436 2.68C27.7103 2.93333 27.3636 3.28 27.1036 3.72C26.8436 4.15333 26.7136 4.63667 26.7136 5.17V10.41C26.7136 10.95 26.8436 11.44 27.1036 11.88C27.3636 12.3133 27.7103 12.66 28.1436 12.92C28.5836 13.1733 29.0703 13.3 29.6036 13.3ZM42.1156 15.3C41.5956 15.3 41.079 15.23 40.5656 15.09C40.059 14.9567 39.6256 14.7733 39.2656 14.54C38.6856 14.1933 38.2356 13.7233 37.9156 13.13C37.6023 12.5367 37.4456 11.9067 37.4456 11.24C37.4456 10.74 37.5423 10.2733 37.7356 9.84C37.929 9.40667 38.2123 9.00667 38.5856 8.64C38.6056 8.62667 38.629 8.60333 38.6556 8.57C38.689 8.53667 38.7523 8.47667 38.8456 8.39H43.3556C42.949 8.64333 42.579 8.83667 42.2456 8.97C41.9123 9.10333 41.599 9.23 41.3056 9.35C41.019 9.47 40.729 9.63667 40.4356 9.85C40.1623 10.05 39.9623 10.2567 39.8356 10.47C39.709 10.6833 39.6456 10.9533 39.6456 11.28C39.6456 11.5933 39.7023 11.8667 39.8156 12.1C39.929 12.3333 40.099 12.54 40.3256 12.72C40.6056 12.94 40.909 13.0933 41.2356 13.18C41.5623 13.26 41.859 13.3 42.1256 13.3C42.579 13.3 42.9756 13.2067 43.3156 13.02C43.6556 12.8333 43.959 12.5633 44.2256 12.21C44.339 12.0767 44.4323 11.9267 44.5056 11.76C44.5856 11.5933 44.6456 11.4233 44.6856 11.25H46.8256C46.7923 11.6033 46.7023 11.9633 46.5556 12.33C46.4156 12.6967 46.239 13.03 46.0256 13.33C45.5856 13.9767 45.0223 14.4667 44.3356 14.8C43.649 15.1333 42.909 15.3 42.1156 15.3ZM36.7456 10.07V8.39H47.5456V10.07H36.7456ZM36.7656 7.21L36.7456 5.53H47.5456V7.21H36.7656ZM41.0056 7.21C41.2456 7.08333 41.5156 6.95333 41.8156 6.82C42.1223 6.68667 42.429 6.54667 42.7356 6.4C43.0423 6.25333 43.3156 6.10333 43.5556 5.95C43.7956 5.79 43.9723 5.62333 44.0856 5.45C44.219 5.28333 44.309 5.10667 44.3556 4.92C44.409 4.72667 44.4356 4.54 44.4356 4.36C44.4356 4.06 44.3856 3.79667 44.2856 3.57C44.1856 3.34333 44.0456 3.14333 43.8656 2.97C43.6723 2.76333 43.4323 2.6 43.1456 2.48C42.8656 2.36 42.559 2.3 42.2256 2.3C41.8256 2.3 41.479 2.38667 41.1856 2.56C40.8923 2.73333 40.6523 2.93667 40.4656 3.17C40.3123 3.33667 40.1923 3.52 40.1056 3.72C40.0256 3.92 39.9723 4.13 39.9456 4.35H37.7456C37.779 3.89 37.8856 3.45 38.0656 3.03C38.2456 2.61 38.469 2.24333 38.7356 1.93C39.1423 1.41 39.649 1.01 40.2556 0.73C40.869 0.443333 41.5256 0.3 42.2256 0.3C42.8323 0.3 43.409 0.4 43.9556 0.599999C44.5023 0.793333 44.969 1.07 45.3556 1.43C45.749 1.79 46.059 2.23333 46.2856 2.76C46.519 3.28 46.6356 3.82333 46.6356 4.39C46.6356 4.79 46.569 5.18333 46.4356 5.57C46.309 5.95 46.119 6.31 45.8656 6.65C45.7256 6.85 45.5656 7.03667 45.3856 7.21H41.0056Z" fill="#111827"/>
</svg>
