<svg width="48" height="48" viewBox="0 0 48 48" fill="none" xmlns="http://www.w3.org/2000/svg">
<circle cx="24" cy="24" r="24" fill="#8C78F2"/>
<path d="M34.2252 25.7356C34.8816 20.2109 33.9099 16.723 32.1572 15.1454L32.1582 15.1445C29.3293 12.4504 19.7758 12.0516 16.3915 15.2655C14.8717 16.8376 14.3363 19.1448 14.2777 22.0011C14.219 24.8584 14.1493 30.2108 19.1369 31.6628H19.1415L19.1369 33.8802C19.1369 33.8802 19.103 34.7786 19.6768 34.9591C20.3332 35.1718 20.6302 34.7547 22.6716 32.3164C26.0852 32.6125 28.7069 31.9341 29.0048 31.8351C29.6942 31.6041 33.5946 31.0881 34.2252 25.7356ZM23.008 30.7562C23.008 30.7562 20.8474 33.4503 20.1755 34.1497C19.9555 34.3771 19.7144 34.356 19.7181 33.905C19.7181 33.6089 19.7346 30.2236 19.7346 30.2236C15.506 29.0118 15.7553 24.4541 15.8012 22.0699C15.847 19.6847 16.2833 17.7313 17.5703 16.4159C20.5394 13.632 28.915 14.2544 31.049 16.2601C33.6578 18.5728 32.7292 25.1068 32.7347 25.3296C32.1985 29.7974 29.0378 30.0806 28.4567 30.2741C28.2082 30.3566 25.9028 30.9496 23.008 30.7562Z" fill="white"/>
<path d="M24.2032 16.9393C23.8502 16.9393 23.8502 17.4893 24.2032 17.4939C26.9412 17.5149 29.1962 19.4234 29.221 22.9242C29.221 23.2936 29.7618 23.289 29.7572 22.9196H29.7563C29.727 19.1475 27.2648 16.9604 24.2032 16.9393Z" fill="white"/>
<path d="M27.8052 22.344C27.7969 22.7088 28.3369 22.7262 28.3414 22.3568C28.3864 20.2769 27.1039 18.5636 24.694 18.3831C24.3411 18.3574 24.3044 18.912 24.6564 18.9376C26.7464 19.0962 27.8474 20.5226 27.8052 22.344Z" fill="white"/>
<path d="M27.2274 24.7099C26.7745 24.4477 26.3135 24.6109 26.1228 24.8684L25.724 25.3845C25.5215 25.6467 25.1429 25.6119 25.1429 25.6119C22.38 24.8813 21.6412 21.9901 21.6412 21.9901C21.6412 21.9901 21.6073 21.5987 21.8603 21.3888L22.359 20.9763C22.6083 20.7783 22.766 20.3016 22.512 19.8332C21.8337 18.6076 21.3781 18.185 21.1462 17.8605C20.9024 17.5553 20.5357 17.4865 20.1544 17.6928H20.1461C19.3532 18.1566 18.4851 19.0247 18.7629 19.9184C19.2368 20.8608 20.1076 23.8647 22.8833 26.1344C24.1877 27.2078 26.252 28.3078 27.1284 28.5617L27.1366 28.5745C28.0001 28.8624 28.8398 27.9604 29.288 27.1436V27.1372C29.487 26.7421 29.421 26.3681 29.1304 26.1234C28.6152 25.621 27.8379 25.0664 27.2274 24.7099Z" fill="white"/>
<path d="M25.0712 20.4291C25.9522 20.4804 26.3793 20.9406 26.4252 21.8857C26.4417 22.2551 26.9779 22.2294 26.9614 21.86C26.9027 20.6262 26.2592 19.9387 25.1006 19.8745C24.7477 19.8534 24.7147 20.408 25.0712 20.4291Z" fill="white"/>
</svg>
