<svg width="53" height="44" viewBox="0 0 53 44" fill="none" xmlns="http://www.w3.org/2000/svg">
<g filter="url(#filter0_d_18_19168)">
<path d="M38.9271 6.42829C38.9271 6.42829 38.9271 6.42829 38.867 6.42829C36.58 5.34498 34.1726 4.62277 31.705 4.20148C31.6449 4.14129 31.5847 4.20148 31.5847 4.20148C31.2236 4.80332 30.9226 5.46535 30.6819 6.06719C27.9736 5.6459 25.2653 5.6459 22.557 6.06719C22.3163 5.46535 22.0154 4.80332 21.6543 4.20148C21.6543 4.20148 21.5941 4.14129 21.5339 4.20148C19.0664 4.62277 16.659 5.34498 14.372 6.42829C14.3118 6.42829 14.3118 6.42829 14.3118 6.42829C9.73781 13.2893 8.47394 19.9697 9.07578 26.59C9.07578 26.59 9.07578 26.6502 9.13597 26.6502C11.7841 28.6363 14.7933 30.1409 17.983 31.1038C17.983 31.164 18.0432 31.1038 18.1034 31.1038C18.7654 30.1409 19.3673 29.1779 19.9089 28.1548C19.9089 28.0946 19.9089 28.0344 19.8488 27.9742C18.8858 27.6131 17.9229 27.1918 17.0803 26.6502C17.0201 26.6502 16.9599 26.5298 17.0803 26.4696C17.2608 26.3493 17.4414 26.2289 17.6219 26.0483C17.6219 26.0483 17.6821 26.0483 17.7423 26.0483C23.52 28.6964 29.7791 28.6964 35.4966 26.0483C35.5568 26.0483 35.5568 26.0483 35.617 26.0483C35.7976 26.2289 35.9781 26.3493 36.1587 26.4696C36.2189 26.5298 36.2189 26.6502 36.1587 26.6502C35.2559 27.1918 34.3531 27.6131 33.3902 27.9742C33.33 28.0344 33.33 28.0946 33.33 28.1548C33.8717 29.1779 34.4735 30.1409 35.1355 31.1038C35.1957 31.1038 35.1957 31.164 35.2559 31.1038C38.4457 30.1409 41.4549 28.6363 44.103 26.6502C44.1632 26.6502 44.1632 26.59 44.1632 26.59C44.8854 18.9466 42.8993 12.3263 38.9271 6.42829ZM20.7515 22.5577C19.0062 22.5577 17.5618 20.9327 17.5618 19.0068C17.5618 17.0207 19.0062 15.4559 20.7515 15.4559C22.557 15.4559 23.9413 17.0207 23.9413 19.0068C23.9413 20.9327 22.4969 22.5577 20.7515 22.5577ZM32.4874 22.5577C30.7421 22.5577 29.3579 20.9327 29.3579 19.0068C29.3579 17.0207 30.7421 15.4559 32.4874 15.4559C34.293 15.4559 35.7374 17.0207 35.6772 19.0068C35.6772 20.9327 34.293 22.5577 32.4874 22.5577Z" fill="url(#paint0_linear_18_19168)"/>
</g>
<defs>
<filter id="filter0_d_18_19168" x="0.473999" y="0.141296" width="52.4114" height="43.0227" filterUnits="userSpaceOnUse" color-interpolation-filters="sRGB">
<feFlood flood-opacity="0" result="BackgroundImageFix"/>
<feColorMatrix in="SourceAlpha" type="matrix" values="0 0 0 0 0 0 0 0 0 0 0 0 0 0 0 0 0 0 127 0" result="hardAlpha"/>
<feOffset dy="4"/>
<feGaussianBlur stdDeviation="4"/>
<feComposite in2="hardAlpha" operator="out"/>
<feColorMatrix type="matrix" values="0 0 0 0 1 0 0 0 0 1 0 0 0 0 1 0 0 0 0.25 0"/>
<feBlend mode="normal" in2="BackgroundImageFix" result="effect1_dropShadow_18_19168"/>
<feBlend mode="normal" in="SourceGraphic" in2="effect1_dropShadow_18_19168" result="shape"/>
</filter>
<linearGradient id="paint0_linear_18_19168" x1="26.8906" y1="2.17792" x2="26.8906" y2="33.1779" gradientUnits="userSpaceOnUse">
<stop stop-color="white"/>
<stop offset="0.458333" stop-color="white"/>
<stop offset="0.713542" stop-color="#D2F3FA"/>
<stop offset="0.9375" stop-color="#D2F3FA"/>
<stop offset="1" stop-color="#CFF2FA"/>
</linearGradient>
</defs>
</svg>
