<svg width="44" height="44" viewBox="0 0 44 44" fill="none" xmlns="http://www.w3.org/2000/svg">
<g filter="url(#filter0_d_18_19166)">
<path d="M22.4719 10.7014C18.6201 10.7014 15.5507 13.8309 15.5507 17.6226C15.5507 21.4743 18.6201 24.5437 22.4719 24.5437C26.2635 24.5437 29.393 21.4743 29.393 17.6226C29.393 13.8309 26.2635 10.7014 22.4719 10.7014ZM22.4719 22.1364C20.0043 22.1364 17.958 20.1503 17.958 17.6226C17.958 15.155 19.9441 13.1689 22.4719 13.1689C24.9394 13.1689 26.9255 15.155 26.9255 17.6226C26.9255 20.1503 24.9394 22.1364 22.4719 22.1364ZM31.2588 10.4606C31.2588 11.3634 30.5365 12.0856 29.6338 12.0856C28.731 12.0856 28.0088 11.3634 28.0088 10.4606C28.0088 9.55787 28.731 8.83566 29.6338 8.83566C30.5365 8.83566 31.2588 9.55787 31.2588 10.4606ZM35.8328 12.0856C35.7124 9.91898 35.2309 7.99308 33.6661 6.42829C32.1013 4.8635 30.1754 4.38203 28.0088 4.26166C25.782 4.14129 19.1015 4.14129 16.8747 4.26166C14.7081 4.38203 12.8424 4.8635 11.2174 6.42829C9.65263 7.99308 9.17115 9.91898 9.05078 12.0856C8.93042 14.3124 8.93042 20.9929 9.05078 23.2197C9.17115 25.3863 9.65263 27.252 11.2174 28.877C12.8424 30.4418 14.7081 30.9233 16.8747 31.0436C19.1015 31.164 25.782 31.164 28.0088 31.0436C30.1754 30.9233 32.1013 30.4418 33.6661 28.877C35.2309 27.252 35.7124 25.3863 35.8328 23.2197C35.9531 20.9929 35.9531 14.3124 35.8328 12.0856ZM32.9439 25.5669C32.5226 26.7705 31.5597 27.6733 30.4162 28.1548C28.6106 28.877 24.3978 28.6964 22.4719 28.6964C20.4858 28.6964 16.2729 28.877 14.5275 28.1548C13.3239 27.6733 12.4211 26.7705 11.9396 25.5669C11.2174 23.8215 11.398 19.6086 11.398 17.6226C11.398 15.6967 11.2174 11.4838 11.9396 9.67824C12.4211 8.53474 13.3239 7.63198 14.5275 7.1505C16.2729 6.42829 20.4858 6.60885 22.4719 6.60885C24.3978 6.60885 28.6106 6.42829 30.4162 7.1505C31.5597 7.57179 32.4624 8.53474 32.9439 9.67824C33.6661 11.4838 33.4856 15.6967 33.4856 17.6226C33.4856 19.6086 33.6661 23.8215 32.9439 25.5669Z" fill="url(#paint0_linear_18_19166)"/>
</g>
<defs>
<filter id="filter0_d_18_19166" x="0.93042" y="0.141296" width="43.0227" height="43.0227" filterUnits="userSpaceOnUse" color-interpolation-filters="sRGB">
<feFlood flood-opacity="0" result="BackgroundImageFix"/>
<feColorMatrix in="SourceAlpha" type="matrix" values="0 0 0 0 0 0 0 0 0 0 0 0 0 0 0 0 0 0 127 0" result="hardAlpha"/>
<feOffset dy="4"/>
<feGaussianBlur stdDeviation="4"/>
<feComposite in2="hardAlpha" operator="out"/>
<feColorMatrix type="matrix" values="0 0 0 0 1 0 0 0 0 1 0 0 0 0 1 0 0 0 0.25 0"/>
<feBlend mode="normal" in2="BackgroundImageFix" result="effect1_dropShadow_18_19166"/>
<feBlend mode="normal" in="SourceGraphic" in2="effect1_dropShadow_18_19166" result="shape"/>
</filter>
<linearGradient id="paint0_linear_18_19166" x1="22.4906" y1="2.17792" x2="22.4906" y2="33.1779" gradientUnits="userSpaceOnUse">
<stop stop-color="white"/>
<stop offset="0.458333" stop-color="white"/>
<stop offset="0.713542" stop-color="#D2F3FA"/>
<stop offset="0.9375" stop-color="#D2F3FA"/>
<stop offset="1" stop-color="#CFF2FA"/>
</linearGradient>
</defs>
</svg>
