<svg width="620" height="136" viewBox="0 0 620 136" fill="none" xmlns="http://www.w3.org/2000/svg">
<path d="M510.061 83.985C509.917 83.8647 509.773 83.7412 509.609 83.6241C509.649 83.286 509.649 82.9219 509.665 82.587C510.533 82.6033 511.43 82.5383 512.186 82.6488C512.198 82.6293 512.254 82.6228 512.274 82.6065C512.302 82.7658 512.33 82.9251 512.366 83.0844C511.542 83.3771 510.745 83.6762 510.061 83.985ZM150.962 103.345C150.87 103.375 150.586 103.079 150.498 102.89C150.454 102.802 150.666 102.62 150.762 102.477C150.942 102.49 151.166 102.441 151.29 102.523C151.735 102.806 151.619 103.127 150.962 103.345ZM146.12 103.127C145.891 103.267 145.683 103.482 145.431 103.531C143.302 103.934 141.577 103.42 140.436 101.69C140.332 101.538 140.26 101.255 140.352 101.144C140.504 100.956 140.865 100.692 141.017 100.744C142.161 101.138 143.286 101.573 144.415 101.999C144.551 102.279 144.675 102.575 144.707 102.913C145.139 102.776 145.539 102.685 145.959 102.568C146.056 102.604 146.156 102.637 146.252 102.676C146.276 102.685 146.168 102.971 146.12 103.127ZM126.989 103.319C126.817 103.16 126.645 103.001 126.477 102.838C126.673 102.698 126.881 102.428 127.057 102.448C127.261 102.467 127.429 102.741 127.613 102.903C127.405 103.043 127.197 103.183 126.989 103.319ZM113.59 132.169C113.337 132.01 113.085 131.857 112.833 131.698C113.009 131.548 113.185 131.402 113.357 131.253C113.521 131.412 113.682 131.575 113.842 131.734C113.758 131.88 113.674 132.023 113.59 132.169ZM110.868 97.3112C110.364 97.3307 109.939 97.1552 109.627 96.9016C110.284 97.0349 110.956 97.1162 111.644 97.1552C111.424 97.243 111.172 97.2982 110.868 97.3112ZM103.448 130.554C103.116 130.921 102.732 130.83 102.431 130.29C102.407 130.245 102.756 129.968 102.972 129.907C103.104 129.868 103.308 130.033 103.46 130.099C103.46 130.258 103.528 130.459 103.448 130.554ZM99.6018 124.822C99.5338 124.848 99.2336 124.549 99.1415 124.357C99.0935 124.263 99.2816 124.081 99.3536 123.947C99.5457 123.947 99.7819 123.882 99.9059 123.957C100.334 124.224 100.23 124.562 99.6018 124.822ZM55.0291 103.427C54.917 103.31 54.777 103.189 54.6729 103.072L55.6054 102.916C55.6054 102.919 55.6134 102.923 55.6134 102.926C55.5974 103.101 55.2372 103.261 55.0291 103.427ZM50.8228 105.007C50.3665 104.795 49.9143 104.584 49.458 104.373C49.9383 104.171 50.4226 103.81 50.8988 103.817C51.3711 103.826 51.8313 104.21 52.2996 104.431C51.8073 104.623 51.315 104.815 50.8228 105.007ZM41.4056 83.5006C41.1974 83.4843 41.0093 83.2047 40.8132 83.0422C41.0333 82.8894 41.2535 82.6098 41.4696 82.613C41.6817 82.6195 41.8858 82.9089 42.1019 83.0812C41.8338 83.2535 41.6097 83.5103 41.4056 83.5006ZM23.7077 61.8223C24.0479 61.4419 24.3321 61.003 24.7443 60.7007C25.3447 60.2585 25.981 59.7806 26.7014 59.566C27.3217 59.3807 27.8981 59.5888 28.1942 59.9952C27.71 60.5284 27.2177 61.0615 27.0056 61.6012C26.8815 61.9166 26.4813 62.1864 26.1051 62.4628C25.7769 62.466 25.4527 62.466 25.1285 62.466C24.6483 62.2482 24.18 62.0369 23.7077 61.8223ZM28.4304 50.0566C28.4504 49.7835 28.6585 49.5884 29.0107 49.4714C29.3629 49.3576 29.8552 49.3186 30.4395 49.3609C30.5636 49.4324 30.7516 49.5299 30.9077 49.6144C31.0598 49.699 31.1759 49.7673 31.1559 49.777C30.4515 50.0859 29.683 50.3655 28.9266 50.6516C28.7505 50.4565 28.4143 50.2549 28.4304 50.0566ZM30.3634 36.8799C30.1753 36.8702 30.0192 36.7271 29.8472 36.6393C30.0593 36.5678 30.2674 36.493 30.4795 36.415C30.6476 36.5093 30.8157 36.6036 30.9838 36.6946C30.7757 36.7629 30.5555 36.8864 30.3634 36.8799ZM189.704 3.08806C189.708 3.11406 189.728 3.12707 189.732 3.14983C191.301 3.10756 193.182 3.25061 194.25 2.90924C195.811 2.40858 196.864 3.48469 198.408 2.86048C199.441 2.44109 201.51 2.56463 202.907 2.25903C204.516 1.90466 206.057 2.01519 207.662 2.06396C208.558 2.09322 209.142 2.27203 209.287 2.68167C209.443 3.12382 208.81 3.38391 208.01 3.42617C206.665 3.49119 205.292 3.42292 203.936 3.46193C203.711 3.46843 203.471 3.72852 203.359 3.88783C203.331 3.93009 203.719 4.08939 203.944 4.1024C204.752 4.14791 205.58 4.14141 206.393 4.18692C206.617 4.19993 206.841 4.31047 207.021 4.39499C207.333 4.54454 207.125 4.77212 206.401 4.79813C204.268 4.87616 202.195 4.78187 200.105 5.2988C198.889 5.6044 196.491 5.63366 195.459 5.2988C193.474 4.65183 190.1 4.60957 189.732 3.14983C189.672 3.15308 189.608 3.14982 189.552 3.15308L189.704 3.08806ZM210.583 6.45619C210.615 6.43018 210.643 6.40417 210.675 6.37816C210.739 6.37816 210.807 6.38141 210.875 6.38141C211.007 5.86449 211.808 5.72469 212.897 5.77996C213.105 5.78971 213.325 5.88399 213.481 5.95877C213.813 6.12132 213.657 6.33264 212.989 6.38791C212.308 6.43993 211.584 6.39767 210.875 6.38141C210.867 6.41067 210.839 6.42368 210.835 6.45294C210.751 6.45294 210.671 6.45619 210.583 6.45619C210.419 6.61549 210.263 6.7748 210.063 6.92109C210.027 6.9471 209.559 6.90809 209.555 6.88208C209.451 6.4952 209.999 6.46269 210.583 6.45619ZM223.322 5.32156C223.398 5.3118 223.614 5.49061 223.787 5.5979C223.59 5.67267 223.282 5.82548 223.206 5.80922C222.482 5.62391 222.53 5.43535 223.322 5.32156ZM230.25 2.59714C230.41 2.67192 230.574 2.74994 230.738 2.82797C230.55 2.89299 230.366 2.95801 230.178 3.02628C230.018 2.98727 229.858 2.94826 229.698 2.9125C229.882 2.80521 230.066 2.70118 230.25 2.59714ZM240.592 10.1267C240.676 10.0942 240.768 10.0714 240.868 10.0584C240.992 10.0454 241.168 10.1234 241.324 10.1592C241.308 10.2275 241.292 10.2957 241.28 10.3607C240.964 10.3152 240.648 10.2697 240.328 10.2242C240.416 10.1949 240.5 10.1592 240.592 10.1267ZM247.576 5.97828C248.168 5.79622 248.968 5.7377 249.757 5.61741C250.485 5.79296 251.138 5.95227 251.79 6.11157C251.342 6.22211 250.91 6.34565 250.445 6.43993C249.973 6.53747 249.469 6.59924 248.988 6.68376C248.74 6.72603 248.5 6.78455 248.276 6.84307C247.76 6.97961 247.276 6.91134 247.172 6.60249C247.103 6.40092 247.252 6.07581 247.576 5.97828ZM280.746 8.63767C280.898 8.71245 281.046 8.78722 281.198 8.86525C281.018 8.92702 280.846 8.98879 280.67 9.05381C280.518 9.01805 280.366 8.98229 280.218 8.94327C280.394 8.84249 280.57 8.73845 280.746 8.63767ZM289.235 6.59598C289.387 6.67726 289.675 6.76504 289.659 6.83982C289.647 6.91134 289.335 6.97636 289.155 7.04464C288.999 7.00562 288.847 6.96661 288.69 6.92434C288.871 6.81706 289.051 6.70652 289.235 6.59598ZM290.584 8.02321C290.752 8.11424 291.076 8.21178 291.048 8.2898C291.024 8.38083 290.572 8.53689 290.508 8.52063C289.787 8.32882 289.827 8.15001 290.584 8.02321ZM295.738 5.94902C295.91 6.0368 296.243 6.13758 296.215 6.21235C296.187 6.30013 295.734 6.45619 295.662 6.43668C294.918 6.24812 294.966 6.07256 295.738 5.94902ZM300.181 8.32231C300.361 8.32557 300.581 8.29956 300.693 8.33532C301.101 8.46861 300.985 8.61816 300.365 8.71245C300.289 8.7222 300.033 8.5824 299.953 8.49462C299.917 8.45561 300.101 8.37758 300.181 8.32231ZM308.63 6.29688C309.49 5.98803 310.046 5.19476 311.603 5.85474C312.536 6.24812 312.956 5.68568 313.62 5.70844C313.988 5.72469 314.649 5.93926 314.617 5.99128C314.417 6.29688 314.217 6.70652 313.7 6.84307C313.108 6.99587 312.179 6.89834 311.543 6.90809C310.607 6.85282 309.814 6.83982 309.05 6.75529C308.317 6.67726 308.153 6.46594 308.63 6.29688ZM336.561 12.4772C337.562 12.63 338.486 12.8803 339.475 13.0494C340.759 13.2672 342.068 13.3648 343.369 13.0364C343.801 12.9259 344.505 12.7178 344.702 12.7796C348.372 13.9662 352.666 13.1762 356.592 13.5306C359.194 13.7614 361.851 13.5403 364.448 14.2165C366.125 14.6522 368.703 14.4311 370.876 14.4929C375.142 14.6164 379.525 14.3856 383.463 15.4422C384.668 15.7673 386.621 15.1854 387.565 16.0014C386.076 16.4923 384.419 16.1607 382.843 16.177C381.478 16.19 380.113 16.1314 378.748 16.1087V16.1249C376.567 16.0827 374.382 16.0437 372.197 16.0014C370.564 15.9689 369.019 15.9819 367.522 16.4175C366.378 16.7491 364.637 16.8044 363.748 16.3525C362.471 15.7023 361.395 16.4338 360.378 16.2582C359.154 16.0502 357.953 15.7576 356.932 15.3967C355.748 14.9773 354.367 15.0878 353.102 14.9285C351.409 14.7107 350.085 15.6243 348.692 15.2114C346.919 14.6912 345.022 14.857 343.181 14.7465C341.56 14.6489 339.911 14.6099 338.274 14.6067C336.797 14.6067 335.576 14.4019 334.752 13.8817C334.328 13.6151 334.048 13.2672 333.96 12.9421C333.868 12.5943 335.424 12.3049 336.561 12.4772ZM389.582 16.19C389.967 15.8421 390.451 15.6275 391.403 15.6535C392.496 15.686 393.885 15.504 394.633 15.7316C397.271 16.5411 400.26 16.4696 403.182 16.6451C403.566 16.6679 404.062 16.9312 404.162 17.123C404.355 17.4806 404.05 17.8643 403.162 17.9488C402.081 18.0561 401.081 18.1211 400.985 18.7161C402.742 19.0997 404.186 19.8767 406.628 19.0412C407.64 18.6966 409.766 18.9501 411.374 19.0022C411.679 19.0119 412.039 19.3435 412.171 19.5516C412.439 19.9742 411.791 20.3123 411.014 20.3026C404.995 20.2213 398.984 20.0848 392.968 19.9677C391.736 19.9417 391.079 19.7109 390.883 19.1257C390.771 18.8071 390.099 18.521 389.622 18.2381C389.138 17.9488 388.094 17.653 388.166 17.4124C388.294 16.9865 389.13 16.6061 389.582 16.19ZM392.408 12.1944C392.52 12.1781 392.7 12.2561 392.836 12.2886C392.832 12.3602 392.888 12.4545 392.804 12.4967C392.48 12.6625 392.136 12.6138 391.904 12.3602C391.88 12.3342 392.208 12.2204 392.408 12.1944ZM404.979 11.3328C404.995 11.2418 405.315 11.1443 405.543 11.0922C405.671 11.063 406.003 11.0987 406.076 11.1508C406.748 11.6384 407.208 12.2074 408.077 12.6138C409.357 13.2087 409.565 12.6528 409.862 12.1976C409.958 12.0448 410.478 11.944 410.806 11.8172C410.986 12.0221 411.334 12.2301 411.322 12.4317C411.238 13.8004 411.002 13.8687 407.284 13.7484C405.295 13.6866 404.887 13.5306 404.847 12.7471C404.823 12.2756 404.887 11.801 404.979 11.3328ZM416.593 11.8075C418.763 11.5214 419.883 12.5617 421.8 12.6235C422.016 12.6333 422.184 12.9194 422.372 13.0754C421.876 13.1469 421.384 13.225 420.884 13.29C420.111 13.3908 419.687 13.6183 419.499 13.9402C419.535 13.9435 419.555 13.9532 419.591 13.9565C419.591 13.9825 419.587 14.0117 419.583 14.0377C420.267 14.0605 420.964 14.0702 421.648 14.1125C421.86 14.1223 422.228 14.2686 422.208 14.2881C422.052 14.4246 421.856 14.6424 421.604 14.6619C420.916 14.7107 420.199 14.6912 419.491 14.6912C419.487 14.7075 419.487 14.727 419.483 14.7432H419.427C419.767 15.0391 420.135 15.3284 420.427 15.634C420.632 15.8421 420.98 16.1314 420.804 16.2842C419.699 17.2368 418.034 17.9521 415.597 18.2186C415.309 18.2479 414.864 18.0008 414.492 17.8805C415.553 17.3343 416.617 16.8174 415.125 16.0567C413.964 15.465 412.591 15.2374 410.882 15.2309C410.654 15.2309 410.43 15.0846 410.206 14.9513C410.13 14.909 410.058 14.8668 409.982 14.831C410.09 14.7952 410.198 14.7432 410.302 14.6977C410.41 14.6554 410.514 14.6197 410.618 14.6229C413.56 14.6522 416.493 14.6977 419.427 14.7432C419.411 14.7237 419.391 14.7075 419.371 14.6912H419.491C419.519 14.4734 419.551 14.2556 419.583 14.0377C419.523 14.0377 419.463 14.0345 419.407 14.0312C419.423 13.9955 419.475 13.976 419.499 13.9402C417.434 13.7614 416.789 12.8836 415.473 12.3407C415.293 12.2659 415.221 12.1456 415.096 12.0448C415.597 11.9668 416.093 11.8758 416.593 11.8075ZM437.461 31.7074C436.861 31.6457 436.268 31.5936 435.66 31.5319C435.748 31.4213 435.792 31.3205 435.816 31.2263C436.256 31.275 436.676 31.3791 437.053 31.6359C437.129 31.6912 437.289 31.7042 437.461 31.7074ZM342.64 17.4026C342.624 17.4156 342.216 17.3604 342.044 17.3018C341.632 17.1653 341.18 17.0352 340.883 16.8564C340.651 16.7134 340.627 16.5053 340.511 16.3233C340.979 16.2712 341.452 16.2192 341.908 16.1705C342.812 16.2095 343.337 16.4208 343.221 16.8174C343.169 17.0222 342.872 17.2141 342.64 17.4026ZM350.905 24.3047C350.873 24.2982 350.833 24.2917 350.797 24.2852C350.793 24.6656 350.297 24.9809 349.528 24.9712C347.963 24.9582 346.398 24.8379 344.866 24.6948C344.625 24.6721 344.521 24.3632 344.365 24.1616C344.313 24.1714 344.257 24.1779 344.209 24.1844C344.189 24.1584 344.177 24.1259 344.161 24.0999C343.785 24.0381 343.345 23.9893 343.197 23.8723C342.937 23.6707 343.357 23.5114 343.753 23.6512C344.001 23.739 344.057 23.9308 344.161 24.0999C344.217 24.1096 344.285 24.1161 344.341 24.1291C344.353 24.1389 344.357 24.1519 344.365 24.1616C344.794 24.0999 345.266 24.0576 345.578 23.9373C346.991 23.3911 348.263 23.4431 349.58 24.0023C349.896 24.1356 350.377 24.1974 350.797 24.2852C350.797 24.2754 350.805 24.2657 350.805 24.2592C350.857 24.2494 350.909 24.2462 350.965 24.2397C351.037 24.1649 351.097 24.0836 351.165 24.0088C351.253 23.9113 351.361 23.83 351.521 23.791C351.998 23.6772 352.382 23.8658 352.062 24.0381C351.841 24.1551 351.373 24.1844 350.965 24.2397C350.945 24.2592 350.929 24.2852 350.905 24.3047ZM511.734 46.2951C511.574 46.5487 511.374 46.7827 511.058 46.9713C511.078 46.7632 510.994 46.5584 510.962 46.3504C511.002 46.3276 511.05 46.3016 511.122 46.2853C511.314 46.2853 511.53 46.2918 511.734 46.2951ZM540.558 40.973C540.838 40.7227 541.823 40.9665 541.759 41.2039C540.882 41.3502 541.15 40.96 540.558 40.973ZM554.402 44.2957C553.609 44.2176 554.001 44.1299 553.009 44.2534C552.821 43.9023 554.566 44.0323 554.402 44.2957ZM553.501 45.5473C553.501 45.4888 553.501 45.4303 553.493 45.3685C553.729 45.323 554.021 45.297 554.39 45.2937C554.454 45.4791 553.917 45.5441 553.501 45.5473ZM551.152 49.4031C551.62 49.5754 552.032 49.6209 551.588 49.2958C552.525 49.4844 554.286 49.2828 554.882 49.634C554.938 49.8453 554.546 49.9136 554.774 50.1834C553.617 50.4662 551.5 50.3622 549.999 50.4435C550.063 50.6093 550.211 50.7361 550.531 50.7848C550.447 50.5898 550.66 50.4922 551.16 50.4922C551.404 50.6938 551.412 50.7263 551.26 50.9409C551.82 50.9084 552.361 50.8856 552.441 51.0807C552.136 51.0904 551.832 51.1035 551.524 51.1132C551.556 51.5651 553.365 51.6984 553.929 51.5749C553.585 51.5358 553.337 51.4513 553.181 51.3278C553.501 51.292 553.533 51.1652 553.829 51.123C554.73 51.1652 554.182 51.4286 554.614 51.5489C555.03 51.2888 554.858 51.7472 555.11 51.7114C555.278 51.5749 555.386 51.4123 555.966 51.4091C555.995 51.4708 555.999 51.5456 556.019 51.6106L554.482 51.9065C554.434 51.7959 554.446 51.6594 553.969 51.7537C553.949 51.8089 554.001 51.8284 554.013 51.8675C551.54 51.5163 549.839 51.1847 548.734 50.8661C549.131 50.7718 549.555 50.6873 550.035 50.6223C549.107 50.5475 548.074 50.2647 547.138 50.1314C546.961 49.9493 546.938 49.7673 547.038 49.5852C547.122 49.5689 547.17 49.5624 547.27 49.5397C547.282 49.6535 547.002 49.6762 547.102 49.8193C548.935 49.7575 548.01 50.4272 549.979 50.3524C550.335 50.1931 550.479 49.9591 551.02 49.8615C550.451 49.8225 550.892 49.4421 551.152 49.4031ZM560.677 50.7198L559.609 50.9246C559.384 50.8824 559.168 50.8369 559.036 50.7556C559.456 50.7263 560.181 50.58 560.677 50.7198ZM561.033 50.411C561.434 50.4305 561.87 50.4142 562.298 50.4077L560.869 50.6841C560.841 50.5638 560.801 50.4435 561.033 50.411ZM557.952 57.3293C558.14 57.2513 558.444 57.2155 558.84 57.2058C558.94 57.3521 558.664 57.3716 558.672 57.4853C558.696 57.5731 558.968 57.5471 559.152 57.5601C558.896 57.8007 557.671 57.6707 557.952 57.3293C556.231 57.4984 554.93 57.3358 553.177 57.1277C554.574 56.9749 556.083 56.9099 557.571 56.8676C557.471 56.9749 556.967 56.9489 556.979 57.092C557.423 57.1147 557.972 57.092 557.952 57.3293ZM550.912 57.7617C550.908 57.1895 552.092 57.5276 553.365 57.4008C553.093 57.7032 551.536 57.5764 550.912 57.7617ZM533.674 68.3603C533.618 68.5196 534.066 68.5781 533.734 68.6301C533.218 68.3277 532.574 68.6041 531.657 68.6106C531.525 68.4448 531.493 68.227 530.897 68.2757C531.301 68.7049 529.88 68.5846 529.776 68.4058C529.736 68.4773 529.808 68.5846 529.584 68.5943C529.268 68.3407 530.608 68.2205 529.944 68.1294C529.928 68.2497 529.54 68.2432 529.292 68.2855C529.584 68.1164 529.732 67.9571 529.772 67.8076C530.22 67.8986 529.744 68.0807 530.628 68.1034C530.452 67.8173 531.709 67.5767 532.165 67.7783C532.033 67.9539 531.501 67.8661 531.997 68.0546C532.578 67.6515 533.61 67.9441 533.494 67.5475C534.535 67.8108 534.815 67.4142 536.047 67.6385C536.292 67.4044 535.867 67.3622 536.196 67.2711C536.532 67.4272 536.84 67.3004 537.164 67.2029C537.724 67.5735 538.117 67.9344 538.221 68.24C536.992 68.5391 534.823 68.6724 533.674 68.3603ZM535.191 70.0313C536.568 70.1549 534.939 70.3239 534.323 70.2426C534.491 70.0768 534.767 69.9468 535.155 69.8493C535.683 69.898 536.336 69.8883 536.792 69.9728C536.504 70.4019 536.007 69.924 535.191 70.0313ZM533.534 69.8167C533.886 69.4949 534.491 69.8395 534.367 69.4234C535.371 69.3453 535.531 69.5079 536.196 69.3583C536.091 69.8785 534.647 69.8232 533.534 69.8167ZM533.634 70.2654C533.038 70.1711 532.742 70.5645 532.49 70.3077C532.482 70.1353 533.23 70.2199 533.122 70.0118C532.409 70.0476 532.401 69.7517 531.481 69.8883C531.177 70.3857 527.831 70.6035 528.283 70.0021C527.319 70.2166 526.734 70.1939 527.695 70.4767C526.806 70.3239 525.37 70.4865 525.682 70.7303C525.622 70.5612 524.913 70.6945 524.937 70.4865C525.053 70.3012 526.314 70.493 526.018 70.1744C525.934 69.9175 524.473 70.3077 524.381 70.0508C524.985 70.0541 524.485 69.6932 525.237 69.7485C524.773 70.0281 525.634 70.0346 526.19 69.8948C525.802 70.0703 526.23 70.2101 526.934 70.1419C526.246 69.8623 526.486 69.7615 527.271 69.5859C525.918 69.6314 524.545 69.5274 523.348 69.5436C523.813 69.5664 522.644 69.7452 522.744 69.9273C521.031 70.1028 520.535 69.7062 518.822 69.885C519.17 69.794 518.974 69.6932 518.846 69.5989C518.986 69.6054 519.138 69.6249 519.254 69.5729C519.774 69.6574 520.787 69.5989 520.819 69.5436C520.535 69.5339 520.655 69.4461 520.779 69.3616C520.235 69.4526 519.794 69.4461 519.47 69.3908C519.642 69.2478 519.798 69.0365 519.931 68.7504C520.019 68.7504 520.083 68.7439 520.183 68.7471C520.199 68.9064 520.299 69.0267 520.487 69.1015C520.951 69.0267 522.112 69.1893 521.82 68.8739C520.239 69.056 520.951 68.5521 520.131 68.292C520.151 68.227 520.179 68.1977 520.199 68.1294C520.227 68.0384 520.315 67.9506 520.395 67.8661C520.979 67.8758 521.535 67.8921 522.08 67.9181C521.852 67.8693 521.712 67.7881 522.04 67.7751C522.664 67.7783 523.144 67.8531 523.473 67.9961C523.324 67.632 523.508 67.7881 524.117 67.7913C524.129 67.619 523.817 67.5995 523.809 67.4402C524.661 67.4142 525.374 67.3167 525.978 67.2971C526.31 67.4532 526.634 67.6483 526.93 67.9539C527.014 68.0449 527.123 68.1002 527.219 68.1684C525.75 68.3895 523.773 68.0384 522.824 68.201C523.292 68.4123 524.365 68.3375 524.753 68.5846C523.064 68.6236 522.472 68.1619 521.435 68.1587C521.615 68.6366 522.656 68.7081 523.44 68.9032C523.893 69.4201 521.535 69.0983 521.067 69.6249C522.252 69.5306 523.505 69.3583 524.373 68.9617C525.27 69.3908 526.102 69.2803 527.459 69.3974C526.838 69.0495 526.87 69.3518 527.115 68.8642C526.566 68.7601 526.31 69.1275 526.198 68.8967C526.358 68.6724 527.327 68.7114 527.487 68.487C528.007 68.6301 528.211 68.6691 528.88 68.5293C528.875 68.5066 528.847 68.487 528.819 68.4675C528.927 68.4383 529.028 68.4123 529.124 68.3668C529.112 68.3863 529.072 68.3993 529.092 68.4318C529.408 68.4773 529.556 68.6106 529.628 68.7764C529.016 68.7959 528.403 68.8187 527.799 68.8414C528.223 69.1503 527.667 69.3421 528.623 69.4461C528.667 69.225 528.159 69.2673 528.295 69.004C528.996 69.0137 530.308 68.9097 530.2 69.2998C530.076 69.0235 532.818 69.4429 531.737 68.9715C532.165 68.9682 532.513 69.004 532.69 69.121C532.886 69.4071 532.63 69.5469 532.602 69.7582C533.178 69.7842 533.578 69.898 534.03 69.9793C533.654 69.9956 533.958 70.2361 533.634 70.2654ZM525.906 74.8982C526.078 75.181 525.562 75.2331 525.814 75.5354C525.077 75.4866 523.901 75.6427 523.701 75.3403C525.63 75.4216 525.009 75.0347 525.906 74.8982ZM522.62 75.6525C522.028 75.6622 522.216 75.3111 521.628 75.3208C522 75.025 523.264 75.4444 522.62 75.6525ZM517.449 68.9715C517.457 68.9747 517.457 68.978 517.465 68.9812C517.457 68.978 517.449 68.9747 517.441 68.9747C517.445 68.9747 517.449 68.9715 517.449 68.9715ZM506.595 68.6854C507.252 68.6496 507.52 68.6073 507.864 68.5976C507.876 68.6756 507.856 68.7374 507.848 68.8089C507.288 68.9324 506.667 69.0105 506.595 68.6854ZM504.014 65.327C504.19 65.3205 504.358 65.314 504.53 65.3107C504.334 65.353 504.138 65.3887 503.938 65.418C503.97 65.3887 503.998 65.3595 504.014 65.327ZM535.355 66.5754C534.495 66.104 532.834 66.7185 532.197 66.868C531.845 66.6372 531.253 66.5201 530.708 66.3771C530.656 66.5331 531.101 66.5949 530.769 66.6469C530.048 66.6534 529.784 66.4454 529.32 66.3348C529.34 66.5884 529.144 66.6339 528.807 66.6469C528.127 65.8179 527.331 65.2132 526.446 64.7775C527.483 64.6117 529.016 64.7645 529.688 64.8686C530.32 64.8718 529.36 64.6865 529.652 64.615C532.113 65.0279 534.318 65.7431 535.891 66.4941C535.791 66.5461 535.615 66.5754 535.355 66.5754ZM535.931 67.0988C535.767 67.3849 535.155 67.0858 534.995 67.0436C535.159 66.9005 535.703 66.8843 536.099 66.8192C536.112 66.907 535.831 66.9005 535.659 66.9265C535.651 67.0338 535.747 67.0858 535.931 67.0988ZM521.139 76.2474C521.383 76.2409 521.391 76.3449 521.459 76.423C521.215 76.4132 521.007 76.3807 520.743 76.3839C514.768 77.0049 512.791 78.4744 512.282 80.1552C511.174 80.0804 509.661 80.191 508.584 79.8724C507.688 80.0349 506.559 80.4803 506.075 79.9602C505.346 79.9439 505.523 80.2235 504.986 80.269C504.526 80.2235 504.938 79.7651 504.418 79.7456C504.39 79.9959 503.758 79.8756 503.353 80.1487C502.893 79.8366 501.7 79.8659 501.368 79.492C502.005 79.3652 503.682 79.1474 502.825 78.806C502.173 79.4205 500.668 79.6025 499.375 79.4855C498.811 79.3359 498.231 79.1896 497.638 79.0466C497.506 78.9751 497.386 78.9035 497.31 78.819C497.03 78.832 497.018 78.871 497.082 78.9133C496.702 78.8255 496.325 78.7345 495.941 78.65C495.889 78.5817 495.845 78.5069 495.837 78.4159C496.145 78.4061 496.454 78.3964 496.754 78.3834C496.754 77.6421 495.665 77.6844 494.488 77.6811C494.701 77.5381 494.937 77.4145 495.105 77.239C496.017 77.1642 497.23 77.2975 498.591 77.3203C498.899 77.0017 498.503 77.0504 498.034 76.8879C498.615 76.683 499.335 76.7058 500.072 76.7513C499.987 76.9334 499.907 77.1154 499.827 77.2943C499.503 77.3365 499.183 77.382 498.839 77.4048C498.859 77.5283 498.991 77.5966 499.131 77.6649C499.283 77.6584 499.435 77.6551 499.583 77.6486C499.455 77.4731 499.575 77.4113 499.795 77.3885C499.699 77.6161 499.623 77.8437 499.551 78.0745C499.391 78.0387 499.255 77.9965 499.187 77.9347C498.283 77.9152 497.83 78.2988 497.15 78.0973C496.862 78.2891 497.462 78.4061 496.794 78.5654C497.71 78.6597 498.447 78.5557 497.646 78.2631C498.179 78.2436 498.819 78.2631 499.479 78.2793C499.475 78.2793 499.475 78.2826 499.475 78.2858C499.451 78.3899 500.148 78.6435 500.516 78.8288C500.596 78.6435 500.672 78.4614 500.756 78.2761C501.56 78.2598 502.329 78.2013 502.881 77.9867C502.453 78.0225 502.353 77.9022 501.949 77.9282C501.913 78.016 501.396 78.0973 500.816 78.1298C500.904 77.9282 500.992 77.7267 501.08 77.5251C501.056 77.4926 501.036 77.4633 501.016 77.4308C501.164 77.4341 501.3 77.4308 501.372 77.4048C501.232 77.4048 501.1 77.4015 501.128 77.3235C501.388 77.2975 501.776 77.3138 501.793 77.2097C501.496 77.1675 501.184 77.2065 500.872 77.226C500.772 77.0764 500.668 76.9269 500.564 76.7773C501.572 76.8489 502.565 76.9139 503.249 76.5205C502.653 76.5042 501.993 76.4457 501.136 76.3222C505.226 76.2637 507.175 76.4327 511.238 76.2377C511.214 76.3677 510.898 76.4002 510.842 76.5237C511.806 76.449 512.014 76.1304 513.047 76.0816C513.107 76.1856 513.063 76.3384 513.335 76.3417C513.363 76.2019 513.819 76.2637 514.015 76.3189C514.155 76.0231 513.239 76.2214 513.259 75.9841C514.608 75.5517 516.393 75.919 518.222 75.5354C518.666 75.789 519.758 75.737 520.375 75.9125C520.591 75.5062 520.023 75.3566 520.899 75.1648C521.423 75.5549 522.544 75.9255 521.139 76.2474ZM27.734 117.172C27.6739 117.198 27.3498 116.876 27.2817 116.678C27.2577 116.616 27.2977 116.538 27.3618 116.454C27.4178 116.369 27.4938 116.281 27.5419 116.2C27.6299 116.207 27.73 116.2 27.826 116.2C27.9181 116.203 28.0061 116.21 28.0622 116.252C28.4864 116.554 28.3743 116.906 27.734 117.172ZM423.597 10.7086C423.793 10.5916 424.27 10.5656 424.678 10.5201C424.698 10.4973 424.718 10.468 424.742 10.4453L424.858 10.5005L424.742 10.4453C424.794 10.4388 424.858 10.4323 424.918 10.4258C425.07 10.2437 425.174 10.0259 425.466 9.95436C425.947 9.84383 426.375 10.0486 426.063 10.2242C425.842 10.3477 425.342 10.3738 424.918 10.4258C424.898 10.4518 424.878 10.4778 424.858 10.5005C424.802 10.507 424.738 10.5136 424.678 10.5201C424.61 10.5948 424.55 10.6761 424.482 10.7509C424.398 10.8484 424.29 10.9362 424.125 10.9785C423.673 11.0955 423.277 10.8972 423.597 10.7086ZM430.533 13.2347C429.52 13.329 428.512 13.42 428.288 13.4428C426.407 13.3908 425.306 13.3908 424.686 12.9161C424.57 12.8283 424.57 12.6593 424.682 12.5715C424.894 12.4057 425.39 12.1261 425.486 12.1456C426.199 12.2984 426.815 12.5357 427.515 12.7048C428.468 12.9324 430.121 12.3959 430.533 13.2347ZM448.775 12.4382C449.464 12.4024 450.18 12.4349 450.892 12.4512C450.9 12.4252 450.924 12.4122 450.932 12.3862L451.072 12.4545C451.012 12.4545 450.948 12.4545 450.892 12.4512C450.852 12.5585 450.808 12.6625 450.72 12.7373C450.396 13.0234 449.736 13.1079 448.859 13.0462C448.643 13.0331 448.275 12.9064 448.295 12.8673C448.383 12.708 448.567 12.4512 448.775 12.4382ZM559.14 43.8535C558.58 44.2762 559.949 44.0486 559.753 44.559C558.308 44.1884 556.355 44.0681 554.802 44.0096C556.043 43.6454 557.996 44.1494 559.14 43.8535ZM561.189 43.782C561.442 44.0876 561.021 44.1689 560.853 44.3379C560.149 44.3054 559.645 44.1786 559.593 43.8373C560.129 43.8177 560.661 43.8015 561.189 43.782ZM566.752 43.9478C567.065 43.5902 567.173 44.1266 567.477 44.1006C567.317 44.3574 566.368 44.3509 565.708 44.4355C565.224 44.0486 567.585 44.1721 566.752 43.9478ZM568.101 43.808C569.17 43.769 570.234 43.7332 571.299 43.6942C571.291 44.1786 571.943 43.9771 572.728 43.9153C573.316 44.0583 571.403 43.9478 572.348 44.2924C571.523 44.2631 571.219 43.9901 570.487 44.1754C570.466 44.0876 570.446 43.9966 570.427 43.9055C569.682 43.951 569.278 44.1266 568.369 43.9803C568.149 43.9901 568.217 44.0941 568.177 44.1689C567.485 44.1331 568.357 43.9673 568.101 43.808ZM574.821 46.1098C574.765 46.3146 573.704 46.1878 573.24 46.2593C573.192 45.8789 574.449 45.931 574.821 46.1098ZM575.529 49.3544C575.669 49.5657 574.477 49.3414 574.905 49.647C574.625 49.5787 574.269 49.5527 573.744 49.5982C573.368 49.052 575.053 49.2146 575.529 49.3544ZM576.87 50.2127C576.366 50.4402 576.586 50.5183 576.782 50.8531C575.569 50.8954 575.309 50.5833 574.745 51.0157C573.764 50.8726 572.62 50.0078 574.281 49.9428C574.053 50.4077 576.234 49.9363 576.87 50.2127ZM578.759 46.2431C578.295 46.3894 577.062 46.2333 576.854 45.9472C577.554 46.1976 578.459 45.7717 578.759 46.2431ZM578.399 41.4445C578.135 41.7305 576.81 41.5973 576.326 41.4282C576.258 40.9048 578.043 41.2721 578.399 41.4445ZM582.229 42.1272C582.505 42.3905 580.776 42.4133 580.9 42.3548C580.612 42.0362 581.773 42.1955 582.229 42.1272ZM584.222 43.873C583.93 43.7755 583.394 43.7982 582.837 43.8275C582.841 43.5219 584.39 43.3496 584.222 43.873ZM596.633 41.7045C595.969 41.9289 595.508 41.737 594.808 41.7696C594.784 41.6493 594.756 41.529 594.728 41.4087C595.648 41.3762 596.229 41.4997 596.633 41.7045ZM605.41 41.8476C605.33 42.0687 604.593 42.0784 604.097 42.1662C603.909 41.7631 604.878 41.8053 605.41 41.8476ZM587.132 43.4926C587.704 43.6747 587.132 43.847 587.272 44.1266C586.227 44.0941 586.631 43.9608 585.423 44.1006C585.003 43.7917 586.187 44.0193 586.047 43.808C586.031 43.5479 584.578 43.9673 584.85 43.5739C585.815 43.5382 586.359 43.6975 587.132 43.4926ZM571.395 46.2333C571.371 46.0025 571.651 45.8692 572.228 45.8399C572.444 45.9375 572.584 46.0708 572.556 46.2821C572.031 46.3276 571.679 46.2983 571.395 46.2333ZM566.18 46.5974C565.128 46.4609 565.124 46.4414 564.259 46.2138C564.295 45.9115 565.22 46.087 565.42 46.2626C566.436 45.7554 568.009 46.1358 569.262 45.944C569.518 46.3341 570.102 45.9895 570.711 46.2561C569.822 46.5714 567.245 46.1163 566.18 46.5974ZM565.556 46.8933C565.716 46.5227 566.488 46.8738 567.365 46.7372C567.589 47.0721 565.804 46.9648 565.556 46.8933ZM564.675 48.1027C564.387 48.1352 564.431 48.3855 564.731 48.3758C563.679 48.5383 564.387 48.2392 563.719 47.9564C564.039 48.0734 564.811 47.9726 565.132 48.0897C565.1 48.2035 564.691 48.197 564.675 48.1027ZM562.518 47.7288C562.506 47.8329 562.606 47.8849 562.786 47.8979C561.55 48.1905 562.674 47.3062 563.643 47.5988C563.723 47.7906 562.842 47.667 562.518 47.7288ZM561.406 46.8608C560.485 46.721 562.478 46.929 561.618 46.76C561.942 46.6495 562.73 46.8575 563.234 46.7957C563.219 46.903 562.838 46.8868 562.57 46.9095C562.326 46.9388 562.454 47.0916 562.154 47.1046C562.006 47.3029 562.198 46.8348 561.406 46.8608ZM538.281 70.4637C538.897 70.8473 539.762 70.3792 540.434 70.8441C539.161 70.8864 538.589 71.0587 537.921 70.9319C537.985 70.7563 538.537 70.7466 538.281 70.4637ZM534.21 73.9684C534.683 73.9131 534.831 74.0074 535.151 74.0269C535.135 74.1309 534.747 74.1147 534.483 74.1407C534.05 74.1927 534.555 74.5536 533.63 74.443C533.61 74.352 533.59 74.261 533.566 74.17C534.034 74.1862 534.279 74.1277 534.21 73.9684ZM537.696 74.1179C537.384 74.4105 538.369 74.1992 539.085 74.157C539.621 74.2707 538.845 74.3878 539.377 74.4203C539.533 74.6674 538.117 74.3943 538.273 74.6414C537.664 74.7291 537.776 74.4788 537.32 74.4951C536.816 74.5601 537.632 74.6251 537.152 74.7714C536.96 74.7291 536.76 74.6901 536.448 74.7064C536.608 74.6186 536.648 74.4951 536.596 74.339C535.719 74.5666 536.316 74.6804 535.015 74.4853C534.991 74.2512 535.743 74.2772 536.344 74.2545C536.16 74.1765 535.903 74.1342 535.627 74.0984C536.156 73.7928 536.668 74.3293 537.696 74.1179ZM540.23 74.1179C540.682 74.1017 541.146 74.0854 541.599 74.0692C541.302 74.3033 540.914 74.5113 540.346 74.6576C539.549 74.6349 540.138 74.313 540.23 74.1179ZM545.865 74.6414C545.853 74.417 546.637 74.5893 546.785 74.6121C546.669 74.6999 546.173 74.7714 546.593 74.8007C546.393 74.9567 545.645 74.9307 545.265 75.0282C544.752 74.7096 546.585 74.7551 545.865 74.6414ZM563.835 110.898C566.712 106.96 582.945 109.506 581.361 105.754C580.808 104.451 580.216 103.173 578.991 102.198C579.924 100.501 574.709 99.0766 568.129 98.0525C569.03 97.1259 568.602 96.1246 564.691 95.055C561.718 95.1818 560.233 95.2468 558.976 95.8482C557.888 96.1603 557.047 96.4432 556.383 96.7163C553.741 96.505 551.332 96.3749 549.479 96.3294C552.232 92.3273 568.405 94.5413 566.74 90.8286C566.02 89.2355 565.308 87.649 563.343 86.6867L555.226 88.8584C534.847 87.4637 563.639 83.933 549.923 80.4738C546.97 80.6656 545.497 80.7599 544.26 81.3874C537.6 83.4616 539.553 84.4272 543.464 86.355C524.693 87.0573 530.817 76.9691 521.692 76.436C521.728 76.0556 523.02 76.0913 524.085 76.0523C523.821 75.6622 525.482 75.5809 525.646 75.815C525.798 75.6167 526.142 75.4769 526.954 75.4964C527.939 75.932 526.442 75.9808 526.41 76.1499C527.015 76.0751 528.243 76.2019 528.443 75.9873C527.05 75.919 529.54 75.8085 528.323 75.4476C527.851 75.4411 528.175 75.659 527.475 75.75C527.283 75.4086 527.679 75.2623 528.267 75.1778C529.096 75.2623 529.196 75.841 529.356 75.9548C529.888 75.7988 530.973 76.1174 531.601 75.6947C530.54 75.9711 528.876 75.6525 529.428 75.2266C530.368 75.1713 529.808 75.5679 530.192 75.5647C530.628 75.4411 532.253 75.2038 531.849 75.776C532.798 75.6134 532.638 75.4119 532.169 75.129C533.234 75.0543 533.158 75.4021 532.722 75.5647C533.334 75.4769 533.222 75.7272 533.674 75.711C534.134 75.4346 533.19 75.2233 533.514 74.9892C533.99 74.999 534.022 75.2168 534.283 75.3273C535.091 75.2331 535.363 74.96 536.504 74.9762C537.088 75.5712 537.932 74.9275 538.909 75.4346C538.825 75.2103 538.413 75.168 539.057 75.0673C539.529 75.0738 539.341 75.3924 539.826 75.4021C539.737 75.181 539.681 74.9665 540.178 74.9372C540.202 74.9892 540.238 75.0413 540.426 75.0185C540.438 75.1615 539.858 75.1095 540.03 75.3046C542.831 74.9372 543.411 74.8787 545.361 75.4769C545.629 75.0803 546.966 75.181 547.626 75.3078C547.366 75.025 547.922 75.0152 547.982 74.8397C546.893 74.9665 547.394 74.5991 547.426 74.4073C546.569 74.3 546.245 74.4561 545.333 74.3C545.445 74.5861 544.564 74.5471 544.268 74.6999C544.068 74.4983 543.62 74.4105 543.259 74.2837C543.219 74.4983 541.655 74.6349 541.47 74.5276C541.635 74.3032 543.143 74.5211 542.759 74.1179C541.755 74.3325 541.767 74.0237 542.475 73.8578C539.561 73.8741 539.709 73.8513 537.22 74.0399C537.06 73.8318 537.7 73.64 537.332 73.4937C537.036 74.0009 535.403 73.432 534.323 73.419C534.663 73.3897 535.175 73.4222 535.219 73.2954C534.839 73.0353 534.579 73.3442 534.246 73.0581C534.591 73.0256 534.246 72.9085 533.978 72.8858C533.666 73.1784 533.854 73.2434 533.642 73.4417C531.657 73.4352 528.563 73.3052 527.671 72.4761C528.675 72.7167 529.48 72.203 530.68 72.5477C530.54 72.3363 531.057 72.3396 530.813 72.0925C529.38 71.9885 528.431 72.0307 526.85 71.8682C527.078 71.7316 527.047 71.6406 526.562 71.6081C526.562 71.7186 526.542 71.8227 526.146 71.8032C526.374 71.6634 526.342 71.5756 525.858 71.5398C526.006 71.7154 524.873 71.8682 524.737 71.6731C526.074 71.5658 524.829 71.1107 525.722 70.9124C526.786 70.8701 526.422 71.4195 526.942 71.231C526.618 71.1822 527.078 70.9481 526.402 70.8864C526.754 70.8278 527.551 70.4962 527.983 70.7401C527.535 70.9481 528.007 71.2342 528.559 71.2635C527.967 70.9709 528.235 70.727 528.399 70.5417C529.448 70.5157 530.741 70.3694 530.977 70.7238C530.677 70.7953 530.592 70.9319 530.596 71.1009C531.437 71.2115 530.664 70.7888 531.221 70.8051C531.557 70.7791 532.069 70.8083 532.113 70.6848C531.613 70.48 531.169 70.8701 530.933 70.545C531.741 70.5872 531.781 70.3792 532.509 70.3954C532.509 70.662 533.086 70.6555 533.086 70.9221C532.393 70.8799 532.898 71.2732 532.938 71.2895C532.862 71.1399 534.543 71.1692 533.562 70.9969C533.578 71.0847 533.186 71.1237 533.106 71.0099C533.486 70.9969 533.178 70.7563 533.502 70.7238C533.866 70.8181 534.463 70.8051 534.703 70.9546C534.735 71.1042 534.082 71.0294 534.058 71.1594C534.671 71.4618 535.987 70.4214 536.36 71.1692C536.039 71.2277 535.159 71.1042 535.239 71.2992C536.051 71.5658 536.824 71.2635 537.812 71.4813C537.7 71.2765 537.792 71.1399 538.189 71.1042C538.241 71.3708 539.173 71.4358 539.597 71.2342C540.138 71.4033 539.465 71.5333 539.926 71.6764C539.994 71.4325 541.234 71.439 541.234 71.3578C540.958 71.3578 540.69 71.3513 540.742 71.1952C541.11 71.0131 541.334 71.2472 542.111 71.1464C542.195 70.8051 541.098 71.0261 540.89 70.8246C542.227 70.8733 541.058 70.5482 541.058 70.5482C541.526 70.1841 542.355 70.6523 542.507 70.8603C542.171 70.5125 543.055 70.2101 542.119 70.1484C541.875 70.532 541.238 70.0183 540.562 70.3857C540.582 70.1744 540.434 70.0476 540.026 70.0378C539.509 70.2394 540.494 70.4117 539.669 70.506C537.748 70.4149 538.933 69.6022 540.406 69.6639C539.806 69.4916 539.89 69.5534 539.009 69.6217C539.714 69.3031 538.533 69.4266 538.249 69.2868C538.785 69.0722 540.578 69.2771 540.702 68.9259C539.249 68.9552 537.94 69.0657 537.256 68.9585C537.484 68.8219 537.788 68.7439 538.141 68.6886C538.125 68.7049 538.141 68.7309 538.125 68.7471C540.27 68.7536 542.695 68.8121 545.225 68.8967C545.169 68.9129 545.112 68.9292 545.081 68.952C545.357 68.952 545.629 68.9585 545.577 69.1145C546.121 69.0365 546.709 68.8902 546.757 69.2543C545.629 69.1405 547.118 69.3583 546.853 69.7062C547.194 69.6802 547.706 69.7095 547.75 69.5827C546.349 69.5957 548.987 69.3518 547.898 69.2153C547.854 69.4429 547.014 69.2511 547.174 69.0592C548.358 69.0332 548.73 69.3876 549.787 69.4201C549.735 69.2413 549.955 69.1535 550.235 69.095C551.62 69.16 553.001 69.2315 554.374 69.3096C554.47 69.3226 554.562 69.3356 554.63 69.3258C556.783 69.4494 558.892 69.5859 560.869 69.7322C560.605 69.8135 560.193 69.846 560.277 70.0443C560.777 69.9923 561.165 69.9013 561.454 69.7745C562.186 69.8297 562.926 69.8883 563.619 69.9435C564.883 69.833 566.016 69.716 567.085 69.5957C567.097 69.7647 567.205 69.8883 567.393 69.976C567.661 69.9533 568.045 69.9663 568.057 69.859C567.593 69.8525 567.477 69.6769 567.189 69.5827C568.834 69.3941 570.25 69.1925 571.447 68.978C571.483 68.991 571.531 68.9942 571.555 69.0105C571.559 68.9747 571.619 68.9585 571.663 68.9389C571.879 68.8967 572.087 68.8577 572.292 68.8154C572.352 68.8089 572.408 68.7959 572.46 68.7829C575.085 68.24 576.462 67.6353 576.878 66.9915C577.09 66.9948 577.274 67.011 577.55 66.9818C577.583 66.8485 577.895 66.816 577.951 66.6957C577.558 66.751 577.266 66.7802 576.998 66.8095C577.242 66.13 576.47 65.418 575.013 64.7125C576.986 64.7645 579.055 64.576 580.732 64.6898C580.808 64.9141 581.22 64.9531 580.832 65.1417C581.641 64.8848 582.889 64.7353 583.782 64.9466C583.69 64.693 584.282 64.667 584.863 64.6345C584.875 64.7483 584.598 64.771 584.694 64.9141C585.011 64.9043 585.187 64.8523 585.355 64.7971C585.379 64.8881 585.195 64.9108 585.175 64.9856C585.799 64.8361 586.379 65.1904 586.539 64.9401C586.263 64.9011 586.003 64.8588 585.819 64.7808C586.251 64.7873 586.299 64.6638 586.708 64.6605C586.455 65.0116 587.376 64.8101 587.264 65.0929C588.032 64.8166 588.388 64.784 589.529 64.9206C589.417 64.719 589.509 64.5825 589.905 64.5467C589.365 64.9824 591.582 64.8621 592.002 64.654C592.034 64.7775 591.934 64.8556 591.83 64.9336C593.311 64.8133 594.788 64.8166 596.001 65.0571C595.765 64.6573 597.385 64.7483 598.018 64.8036C597.93 64.9108 597.818 65.0149 597.618 65.0897C597.93 64.8231 596.577 64.8751 596.685 65.0311C597.946 64.9336 597.582 65.301 597.926 65.4408C598.51 64.9303 598.722 65.1287 598.186 64.524C597.526 64.5695 595.532 64.7873 595.861 64.4232C596.045 64.6833 596.189 64.2769 596.525 64.3094C597.522 64.3451 597.457 64.2639 598.374 64.3354C598.266 64.1598 598.642 64.1436 598.77 64.0493C598.338 64.0558 598.546 63.7567 598.026 63.8022C598.09 64.3354 595.937 63.76 594.888 64.1858C594.944 64.6573 591.53 64.7483 590.57 64.4297C591.566 64.3452 592.171 64.3777 592.607 64.2704C592.231 64.2801 592.423 64.0233 592.086 64.0135C591.758 64.0461 590.534 64.1111 590.782 64.3354C590.282 64.0851 589.605 64.2996 589.141 64.2086C589.485 64.4719 588.485 64.7028 588.288 64.511C588.461 64.485 588.737 64.4915 588.721 64.4069C586.219 63.8965 583.502 64.8068 581.301 64.1241C580.74 64.2606 581.609 64.5597 581.172 64.5825C580.02 64.1143 577.927 64.8296 576.278 64.3029C576.262 64.4102 576.374 64.5565 576.106 64.5825C575.914 64.4394 575.113 64.4329 574.513 64.485C574.125 64.3126 573.696 64.1436 573.236 63.9745C574.036 63.981 574.809 64.2931 575.305 64.0688C575.173 63.8152 573.748 63.747 573.132 63.9355C566.768 61.6142 554.25 59.501 547.982 58.9743C548.094 58.8313 548.262 58.7175 548.414 58.594C548.779 58.6362 549.143 58.6785 549.511 58.7208C549.587 58.4477 548.815 58.581 548.566 58.4574C548.646 58.4022 548.719 58.3436 548.807 58.2916C549.163 58.2786 549.515 58.2656 549.867 58.2526C549.847 58.4607 549.999 58.5875 550.403 58.5972C550.023 57.7422 554.394 58.3794 555.502 57.6902C555.41 57.8267 555.21 57.9275 555.118 58.064C555.562 58.025 555.602 58.1713 555.842 58.2233C556.379 58.0835 555.374 57.9665 555.995 57.8527C556.947 57.8072 556.555 57.882 556.263 58.025C557.219 58.0608 556.595 57.5796 557.551 57.6186C557.499 58.1941 558.764 57.5309 559.004 57.9275C559.48 57.5439 560.125 57.9112 561.057 57.856C561.326 57.4626 559.873 57.882 559.853 57.6251C560.157 57.6121 560.029 57.4593 560.273 57.4301C559.965 57.209 559.781 56.9327 559.22 56.8319C559.34 57.4203 558.484 56.7701 557.892 57.0595C558.044 56.9652 558.012 56.9034 557.872 56.8579C562.346 56.7343 566.424 56.7116 565.732 54.7252C565.708 54.6601 565.684 54.5984 565.668 54.5366C565.892 54.5756 566.132 54.5886 566.344 54.6699C566.312 54.4261 565.92 54.5041 566.264 54.3123C566.056 54.3155 565.804 54.2733 565.552 54.2277C565.504 54.0912 565.452 53.9514 565.4 53.8116C565.784 53.7596 566.096 53.6718 566.088 53.5028C565.86 53.5483 565.588 53.5775 565.328 53.6133C565.032 52.872 564.655 52.1731 564.115 51.5358C564.267 51.6009 564.435 51.6561 564.547 51.7407C564.943 51.6756 565.488 51.6594 565.652 51.5196C564.871 51.5066 564.747 51.1912 563.863 51.227C563.575 50.9311 563.223 50.6613 562.822 50.4077C565 50.3427 567.381 50.0989 569.066 50.3102C568.589 50.3037 568.918 49.9168 568.509 49.8745C567.753 50.2582 566.584 50.1866 565.752 49.8843C564.335 50.2224 561.786 50.1379 560.313 50.2549C560.129 49.7542 558.02 49.712 558.268 49.3316C557.639 49.2991 556.483 49.5104 556.191 49.3121C556.823 49.2698 556.779 49.0065 557.255 48.9122C556.679 48.8504 556.219 48.7399 555.39 48.7984C555.366 48.5708 555.762 48.4993 555.086 48.4473C553.301 48.5253 551.236 48.6944 549.323 48.2555C549.643 48.1222 549.971 47.9856 550.299 47.8459C550.812 47.8263 551.356 47.8329 551.708 47.7483C550.808 47.602 552.801 47.7321 552.581 47.537C551.956 47.5403 551.924 46.9941 552.445 46.9063C552.953 46.9648 553.301 47.0981 553.249 47.42C553.829 47.3907 554.422 47.3614 554.334 47.1111C553.061 47.3159 553.985 46.643 553.545 46.6852C553.449 46.8185 553.237 46.916 552.921 46.9778C552.861 46.8055 552.693 46.7697 552.501 46.773C552.853 46.5487 553.141 46.3178 553.317 46.0773C553.849 45.9017 554.386 45.7554 554.946 45.7261C554.93 45.5701 554.834 45.4498 554.642 45.375C556.679 45.1637 558.816 44.6045 559.869 45.0987C560.629 45.0142 562.014 45.1409 562.366 44.9166C561.55 44.8679 561.434 44.429 560.893 44.5167C561.638 44.3737 562.166 44.1591 562.602 43.912C562.894 44.1721 564.247 43.9348 564.719 44.1071C564.931 44.3477 563.627 44.0843 563.843 44.3217C566.344 44.8516 570.43 44.2501 572.904 44.7248C572.452 45.0044 570.855 44.5362 570.663 44.9881C571.579 45.1735 572.712 45.0272 573.936 45.2352C574.173 45.5636 573.664 45.6449 572.876 45.6351C572.76 45.1019 569.754 45.4823 570.623 44.8061C569.578 45.0499 568.277 45.1409 567.405 44.8321C566.973 44.8841 567.305 45.1865 566.548 45.1344C566.444 44.9589 566.821 44.9426 566.949 44.8451C565.796 45.2807 561.498 45.0694 559.973 45.5473C559.905 45.3815 559.753 45.2515 559.432 45.206C559.328 45.4205 558.728 45.4726 558.62 45.6871C559.448 45.5636 559.396 45.8529 559.821 45.918C559.873 45.7847 560.917 45.5701 561.173 45.7782C561.289 45.9862 560.533 45.9017 560.545 46.074C560.729 46.087 560.997 46.0578 561.017 46.1455C560.849 46.1748 560.573 46.165 560.585 46.2528C561.618 46.2431 562.79 45.6351 563.531 46.0578C562.666 45.9927 563.154 46.3764 562.698 46.4511C561.602 46.2756 559.973 46.6397 559.541 46.7437C560.973 46.6007 560.817 47.2054 561.734 47.3029C560.901 47.4622 561.241 47.0688 560.553 47.1631C560.485 47.6931 561.209 47.8459 561.89 48.0214C561.265 47.9824 561.494 48.223 561.265 48.3173C561.894 48.4376 563.151 48.2652 562.506 48.7269C563.203 48.7302 564.259 48.5611 564.371 48.8407C563.975 49.0455 562.466 48.8797 562.626 49.2666C566.404 48.0702 568.449 50.4435 572.123 49.5657C571.915 49.9948 572.72 49.9461 573.156 50.0729C572.84 50.4142 572.292 50.6776 571.735 50.9409C571.263 50.7881 571.163 50.9506 570.595 50.9799C569.918 50.8499 570.603 50.6255 569.834 50.645C569.846 50.8011 569.942 50.9246 570.138 50.9994C569.11 51.0839 568.742 50.9669 567.133 50.9214C566.825 51.24 566.18 51.2563 566.584 51.5781C568.121 51.4025 568.794 51.7309 570.194 51.2693C569.678 51.4741 571.075 52.1893 571.439 51.6756C571.095 51.6756 570.603 51.7407 570.507 51.6171C570.515 51.4806 570.35 51.2888 570.655 51.253C571.603 51.3083 572.183 50.9214 572.292 51.3733C571.963 51.2693 571.419 51.2855 571.399 51.4968C572.208 51.4773 571.411 51.6626 572.143 51.7439C572.66 51.4838 574.481 51.396 575.113 51.6366C575.133 51.7277 575.153 51.8187 575.173 51.9065C574.113 51.7537 573.656 52.5567 574.069 52.1275C575.789 52.3129 576.418 51.5033 576.63 51.2205C577.25 51.1587 576.918 51.5456 577.394 51.5554C577.402 51.1392 578.539 51.1002 579.079 50.8596C578.723 50.9116 578.243 50.554 578.775 50.5085C580.228 50.645 582.949 50.3655 584.106 50.6808C583.942 50.8499 583.402 50.9897 584.186 51.0417C584.142 50.4207 586.167 51.149 586.68 50.8629C586.78 50.5508 585.723 50.7816 585.895 50.437C587.052 50.4857 586.607 50.0046 587.392 49.9298C588.396 50.2257 591.326 50.0566 592.207 49.8485C591.754 49.5527 590.962 49.9916 590.55 49.6372C590.898 49.4454 590.69 49.0683 591.078 48.8927C591.506 48.9902 592.671 48.7984 593.091 48.6391C592.207 48.5871 591.89 48.4538 592.787 48.288C590.854 48.1775 589.829 48.5351 587.764 48.4636C587.768 48.6326 587.68 48.7692 587.384 48.8407C587.212 48.6911 586.303 48.8862 586.203 48.7009C586.171 48.3855 587.576 48.5416 587.476 48.2035C586.804 48.1547 584.798 48.5839 584.923 48.1092C584.538 48.1255 584.166 48.1385 583.782 48.1547C584.018 48.7789 580.944 48.5481 581.685 48.0442C580.6 47.9954 578.947 48.2067 578.847 47.6931C580.284 47.8459 581.385 47.7646 582.481 47.472C582.037 47.4492 582.017 47.2281 581.301 47.3322C581.513 47.5695 580.864 47.524 580.676 47.628C580.552 47.42 579.66 47.576 579.476 47.3972C579.608 47.1046 579.051 47.1339 578.919 46.9648C579.936 46.6625 581.184 46.9908 582.157 47.0298C582.201 46.6755 580.816 47.0006 580.704 46.7177C580.68 46.5682 581.329 46.6462 581.349 46.5129C581.068 46.3146 579.732 46.6137 579.488 46.3991C580.012 46.2658 581.004 46.2853 581.008 45.983C581.817 46.061 582.481 46.2138 583.162 46.3601C582.625 46.048 584.214 45.9472 584.33 45.4108C583.294 45.7847 581.789 46.2561 580.696 45.6286C579.592 45.7814 577.771 45.8659 577.006 45.5798C577.57 45.4596 578.051 45.31 578.275 45.0792C577.723 44.7118 576.534 45.401 575.765 45.1702C576.038 45.1507 576.302 45.1247 576.182 44.9719C575.513 44.9719 575.429 45.1702 575.101 45.284C574.669 45.2482 573.86 44.8809 574.505 44.6695C577.402 44.9264 579.864 44.546 582.861 45.0077C581.108 45.232 579.043 44.6013 578.315 45.2612C579.339 44.9816 579.848 45.4888 580.348 45.0987C581.349 45.2157 581.577 45.6124 582.485 45.3848C581.701 45.4921 582.193 45.1605 582.425 45.1149C583.17 45.193 583.098 45.1995 584.062 45.2385C584.126 44.7573 586.207 44.9426 586.187 44.4355C584.07 45.0239 581.577 44.4582 579.68 44.1234C579.071 44.2794 580.156 44.4777 579.544 44.5818C579.207 44.5427 578.959 44.4615 578.803 44.3347C579.379 43.8665 578.603 44.0031 577.939 43.5479C579.191 43.3561 578.779 43.9478 579.636 43.9445C580.2 43.873 581.016 43.4569 581.405 43.6064C581.429 43.7267 581.02 43.704 580.988 43.8047C581.337 43.8373 581.589 43.9185 581.941 43.951C581.833 43.7495 581.921 43.6129 582.317 43.5739C582.569 44.0193 583.142 44.3152 584.322 44.3217C584.378 44.1624 583.934 44.1006 584.262 44.0486C585.083 44.2274 586.383 44.1786 587.104 44.4029C587.468 44.0941 588.148 44.3769 588.889 44.1591C588.929 44.572 590.922 44.0616 591.022 44.4452C591.058 44.3737 591.19 44.3347 591.458 44.3412C591.59 43.4504 588.352 44.1461 587.632 43.6584C588.925 43.678 588.44 43.4439 587.8 43.3789C589.513 42.8717 591.646 43.9836 591.718 43.4211C592.303 43.4309 593.875 43.8633 593.603 43.6292C592.519 43.5154 593.383 43.5642 593.275 43.1838C593.015 43.0017 591.882 43.4276 591.43 43.161C591.422 43.0342 593.063 43.0472 592.307 42.9465C591.31 43.044 591.362 42.966 590.746 43.1838C590.382 43.0895 590.318 42.8554 589.961 42.7579C589.613 42.8392 590.113 43.2 589.353 43.1415C588.841 42.189 585.959 42.8229 584.594 42.4035C587.736 42.0264 590.798 42.2247 593.039 42.1044C592.811 42.1109 592.719 41.9581 593.003 41.9224C593.227 41.9159 593.459 41.9094 593.691 41.8996C593.663 42.1109 593.799 42.2442 594.016 42.3418C594.864 42.1077 595.032 42.5206 595.897 42.5466C597.586 42.2767 602.028 42.3548 603.493 42.5498C604.621 42.5563 608.532 42.293 609.776 42.8717C609.788 42.7351 609.624 42.5401 609.924 42.5043C611.101 42.6116 614.583 42.7969 614.591 42.7904C614.707 42.6701 614.359 42.449 614.739 42.423C615.215 42.4978 615.339 42.7384 615.752 42.8424C616.808 42.241 618.437 43.122 619.866 42.6961C619.51 42.2572 618.829 42.5888 618.949 42.7254C618.533 42.6929 617.993 42.7156 617.765 42.5888C618.733 42.5693 617.733 42.449 617.705 42.319C618.025 42.1987 618.261 42.1955 618.621 42.2832C618.485 41.5745 616.192 42.2897 615.179 42.3157C614.067 42.3418 614.467 41.6558 613.21 41.7501C613.186 41.9289 613.558 41.9191 613.726 42.0036C612.726 42.1532 611.469 42.3775 610.741 42.0199C611.529 41.9354 610.865 41.6363 610.201 41.6753C609.816 41.9029 609.412 41.7891 608.668 42.0036C609.2 41.5582 607.275 41.9711 608.091 41.4802C606.899 41.5225 607.731 41.7501 607.031 41.8801C606.358 41.5257 607.035 41.9484 606.134 42.0036C605.966 41.8248 605.406 41.8508 605.83 41.6525C604.537 41.6233 603.853 41.9224 602.86 41.7566C602.656 41.8834 602.54 42.0427 602.252 42.1402C601.308 42.0557 600.359 41.9711 599.018 42.0719C598.998 41.3827 595.572 41.5355 594.42 41.0543C594.408 41.1649 594.52 41.3112 594.256 41.3372C593.647 41.3307 593.655 40.8202 593.047 41.1063C592.951 41.4184 594.008 41.1876 593.835 41.5322C592.631 41.6623 590.606 41.9679 589.289 41.7826C590.069 41.8671 590.522 41.4217 590.125 41.3892C589.589 41.5485 589.269 41.7793 588.376 41.8151C588.585 41.6915 588.525 41.477 588.733 41.3502C587.476 41.2689 586.215 41.5485 585.311 41.4705C585.335 41.3697 585.531 41.3209 585.723 41.2754C587.328 41.1356 589.949 41.49 590.726 41.0056C589.117 41.1941 587 40.7942 585.003 41.1193C584.975 40.6187 581.981 41.3794 581.249 40.7975C578.951 41.2754 574.725 41.0608 572.952 40.7292C573.124 40.7032 573.2 40.6447 573.14 40.5439C572.556 40.5699 572.063 40.6317 571.807 40.7715C572.087 40.7715 572.356 40.778 572.308 40.934C570.715 40.9893 570.262 40.8755 569.318 40.9503C569.406 40.8137 569.606 40.713 569.69 40.5732C568.345 40.7422 568.261 40.3196 566.917 40.4919C567.093 40.7357 567.709 40.7195 567.013 40.9405C566.997 40.6869 566.32 40.739 566.02 40.6154C565.608 40.765 566.508 40.9763 565.664 41.0803C564.175 41.0641 564.191 41.1681 562.714 41.2754C562.766 40.921 561.273 40.9893 561.89 40.6707C560.477 40.6642 560.101 40.4561 559.4 40.8495C559.693 40.5667 558.848 40.5081 559.492 40.2123C559.052 40.2058 559.008 40.3293 558.596 40.3326C558.74 40.5309 559.228 40.804 558.488 40.882C555.959 40.778 552.797 40.5244 551.164 41.0511C551.112 40.895 551.152 40.7715 551.312 40.6837C550.928 40.6967 550.547 40.7097 550.167 40.7227C550.355 40.9535 550.147 41.0511 549.543 41.0186C550.023 40.6284 549.011 40.8658 548.967 40.4951C549.955 40.2253 550.9 40.5732 552.224 40.6512C552.653 40.1083 555.67 40.2415 556.107 40.5114C555.07 39.9587 551.716 40.0595 550.756 40.2481C549.327 40.0595 548.066 39.7929 546.281 39.7701C546.489 40.0075 545.841 39.962 545.657 40.066C545.549 40.3488 546.105 40.3163 545.997 40.5992C546.889 40.7 546.381 40.3358 547.102 40.3781C546.87 40.8202 548.106 40.5699 547.926 40.9828C546.829 40.9438 545.241 40.5992 544.956 41.0901C544.572 41.1031 544.196 41.1161 543.816 41.1291C544.02 41.0056 543.968 40.791 544.168 40.6642C542.867 40.6609 544.48 41.1356 543.131 41.1551C542.663 41.0121 542.563 40.7942 542.195 41.0966C541.438 40.817 542.579 40.5959 542.059 40.4659C542.059 40.6154 540.522 40.6707 540.462 40.5211C540.35 40.3196 540.442 40.183 540.834 40.1473C540.562 40.6154 542.191 40.0595 542.891 40.0725C543.187 40.1993 543.259 40.4334 543.676 40.5016C543.672 40.0595 544.936 40.4171 545.277 40.4431C544.964 39.8677 543.664 40.027 543.103 39.975C543.039 39.6954 543.888 39.8904 544.164 39.5751C543.235 39.6824 542.315 39.962 541.863 39.5653C541.811 39.7994 540.242 39.5328 540.798 39.9652C541.486 40.0692 541.903 39.6824 542.167 39.9164C541.346 40.3488 540.69 39.9099 539.846 39.8189C539.629 40.1213 540.598 39.8612 540.378 40.1635C540.154 40.17 540.126 40.2448 539.946 40.2708C538.709 40.3391 538.501 40.1408 537.56 39.9002C536.912 39.975 537.945 40.027 537.848 40.1635C537.536 40.17 537.356 40.2253 537.184 40.2773C536.832 40.2123 536.436 40.1668 536.42 39.9424C536.3 39.7051 537.292 39.8384 537.028 39.5556C536.156 39.6596 535.863 39.6921 535.179 39.5328C534.715 39.6271 534.867 39.9294 534.118 39.9327C533.65 39.9197 533.618 39.7051 533.146 39.6954C532.826 39.8384 531.489 39.988 530.408 39.7929C530.2 39.975 529.68 40.053 529.34 40.1928C530.48 40.2415 530.941 40.0237 531.437 40.3001C531.173 40.3521 530.941 40.4139 530.793 40.5049C531.361 40.4984 531.469 40.3391 531.893 40.2838C531.749 40.8463 533.322 40.3033 533.55 40.4984C533.502 40.6219 533.266 40.6804 533.402 40.8658C534.663 40.5862 536.664 40.4074 537.548 40.9015C537.204 40.3748 539.95 40.7032 538.981 41.1193C540.17 41.0771 539.341 40.8495 540.042 40.7195C540.178 40.8885 540.586 40.9275 540.598 41.1551C538.581 41.6915 537.24 41.3567 535.271 40.9795C533.846 41.2819 533.242 41.1096 532.337 41.2656L532.281 40.9958C532.185 41.2461 529.764 41.1616 530.532 41.4217C530.985 41.1811 532.469 41.2982 532.63 41.5257C531.189 41.6428 530.392 41.4542 528.956 41.568C529.228 41.2591 528.844 41.3112 528.399 41.1323C528.495 41.4152 528.103 41.503 527.743 41.49C526.486 39.276 525.322 37.3416 520.887 37.1205C513.947 37.4098 512.21 39.1427 511.902 41.1128C510.769 41.1519 509.677 41.1519 509.041 41.0056C508.484 41.1389 506.831 41.2559 505.29 41.3079C496.47 37.049 479.064 33.5573 463.956 32.673C455.519 33.4468 446.698 32.6502 437.537 31.7172C438.157 31.6977 439.11 31.4116 439.342 30.9694C439.658 30.3712 440.771 30.3257 441.907 30.3712C442.44 30.394 442.964 30.459 443.48 30.524C445.998 30.8459 446.622 30.8979 447.174 30.1111C447.887 29.0968 449.295 29.6495 450.4 29.4642C452.069 29.1846 455.035 29.1521 454.55 27.7021C454.458 27.4355 455.287 27.0909 455.779 26.8145C456.367 26.4829 456.355 26.1025 455.855 25.836C454.478 25.0882 453.013 24.3697 451.457 23.6967C450.932 23.4659 450.06 23.3326 449.299 23.2773C447.683 23.1571 446.038 23.118 444.405 23.0498C443.2 22.0842 440.815 23.3196 439.514 22.5458C436.568 22.962 433.915 22.2565 431.201 22.0127C429.769 21.8859 428.416 21.3559 426.707 21.3429C425.062 21.3299 423.373 21.1349 421.788 21.2552C420.027 21.3852 419.075 20.4782 417.414 20.748C416.697 20.865 416.037 21.1154 415.681 20.6017C415.373 20.1595 416.289 19.7629 417.61 19.7727C419.531 19.7922 421.448 19.8442 423.365 19.8507C423.881 19.8539 424.598 19.8279 424.87 19.6881C425.526 19.3435 424.446 19.1322 424.298 18.8364C424.005 18.2707 424.045 17.6334 423.441 17.1425C422.725 16.5573 422.2 16.0502 423.441 15.556C424.438 15.1561 424.089 14.3011 425.69 14.197C426.667 14.1353 428.212 14.1775 428.636 14.4409C429.204 14.792 427.936 14.7952 427.299 14.896C426.943 14.9513 426.707 15.1561 426.419 15.2959C428.076 15.6568 429.657 16.1607 431.414 16.346C433.511 16.5703 435.76 16.5183 437.937 16.5996C438.165 16.6094 438.365 16.7459 438.577 16.8207C438.273 16.954 437.969 17.1913 437.653 17.1945C436.012 17.2206 434.363 17.201 432.722 17.162C431.774 17.1393 431.013 17.3343 430.817 17.666C430.557 18.1081 430.209 18.8396 431.201 18.9859C432.998 19.2557 434.007 20.2083 436.092 20.0848C438.457 19.945 440.134 20.6537 442.163 20.8943C444.469 21.1706 447.142 20.7675 449.195 21.5998C449.247 21.6193 449.684 21.5315 449.74 21.4632C449.92 21.2454 450.248 20.9658 450.072 20.7968C449.74 20.4782 449.195 20.1693 448.563 19.958C447.51 19.6036 441.763 19.22 439.766 19.2492C439.49 19.2525 439.146 18.9924 438.938 18.8266C438.822 18.7388 438.826 18.5698 438.938 18.4755C439.534 17.9618 440.174 17.4579 440.819 16.9572C441.227 16.6451 441.843 16.6224 441.963 16.928C442.296 17.7537 443.196 18.1796 445.205 18.0853C448.155 17.9488 450.532 18.2512 451.265 19.7174C454.334 20.6245 457.32 21.6095 461.026 21.9834C461.49 22.0289 462.155 21.9737 462.519 21.8501C462.875 21.7298 463.119 21.46 463.119 21.2519C463.123 21.0373 462.923 20.748 462.567 20.618C461.354 20.1726 460.033 19.7824 458.757 19.3728C458.921 18.3519 456.639 18.4332 455.503 18.0073C454.514 17.6367 453.17 17.4059 452.417 16.967C451.825 16.6256 451.905 15.9819 450.448 16.4598C448.827 16.9962 446.69 16.4793 445.021 17.1068C444.229 17.4026 444.069 16.8077 443.908 16.5053C443.852 16.398 443.768 16.2322 443.6 16.203C442.364 16.0014 441.047 15.8779 439.874 15.6243C438.722 15.3739 439.478 14.3986 437.533 14.3596C436.74 14.3433 435.952 14.2393 435.18 14.145C434.939 14.1158 434.763 13.9955 434.555 13.9142C434.771 13.8427 434.971 13.7126 435.2 13.7029C438.165 13.5793 441.215 13.4363 443.94 14.0442C445.221 14.3336 446.418 14.4734 447.783 14.5189C451.008 14.6294 454.202 14.6002 457.284 15.3154C458.793 15.6665 461.034 15.4422 462.939 15.4162C463.227 15.4129 463.663 15.0813 463.719 14.883C463.775 14.6847 463.463 14.2816 463.279 14.2783C461.118 14.223 459.345 13.7581 457.536 13.329C457.256 13.7809 456.595 13.9922 455.459 13.8524C454.646 13.7516 454.254 13.5046 454.282 13.1242C454.302 12.9194 454.254 12.7113 454.226 12.5065C453.166 12.4675 452.109 12.4284 451.048 12.3894C451.012 12.2789 451 12.1521 450.864 12.1163C448.063 11.3848 446.278 11.4824 444.357 12.5C443.916 12.734 443.62 12.8966 443.232 12.7308C441.471 11.9798 439.682 11.3166 437.005 11.2711C436.42 11.2613 435.552 10.8322 435.368 10.5298C434.683 9.40168 432.978 9.10258 430.561 9.11883C428.384 9.13184 426.203 9.00504 424.021 8.98229C422.929 8.96928 422.212 9.14809 421.556 9.66176C420.027 10.8614 419.919 10.6729 416.185 10.3998C413.624 10.2145 412.015 9.42118 409.826 9.0343C408.749 8.84249 407.925 8.62792 406.948 9.00179C406.228 9.27814 405.651 9.23912 404.991 8.94327C404.102 8.54664 403.514 7.9647 402.013 7.91268C401.785 8.46862 402.169 9.17735 400.172 9.28789C399.956 9.46345 399.792 9.74629 399.508 9.76905C398.679 9.84057 398.631 9.53172 398.499 9.27814C397.627 9.26838 397.054 9.44719 396.862 9.82432C396.658 10.2307 397.135 10.5786 397.919 10.6501C399.252 10.7671 400.648 10.7216 401.997 10.8061C402.341 10.8289 402.61 11.076 402.918 11.219C402.702 11.2938 402.486 11.4369 402.273 11.4336C399.28 11.4044 396.27 11.4336 393.304 11.2938C389.983 11.1345 386.929 11.3653 384.003 12.0481C383.391 12.1911 382.811 12.6203 381.93 12.2236C380.381 11.5181 378.992 11.9343 377.6 12.3439C376.139 11.6514 374.19 11.7035 372.285 11.6612C368.731 11.5864 365.181 11.5149 361.631 11.4109C360.302 11.3718 358.693 11.4206 357.725 11.115C355.984 10.5656 354.163 10.6013 352.282 10.5656C342.172 10.3608 332.059 10.1657 321.949 9.95436C319.896 9.9121 319.916 9.88934 319.427 8.57915C319.347 8.36133 319.055 8.16301 318.867 7.95494C318.503 8.05898 318.039 8.12725 317.791 8.2638C316.354 9.07332 313.332 9.36267 311.755 8.80673C311.667 8.77747 311.647 8.63767 311.723 8.59541C311.895 8.50763 312.167 8.38083 312.372 8.39059C314.921 8.48812 316.606 8.28655 316.402 6.86583C316.334 6.36516 317.514 5.83198 318.139 5.31831C318.711 4.84039 319.432 5.08423 319.976 5.30205C320.556 5.53613 320.988 5.54588 321.18 5.20127C321.357 4.87941 321.349 4.54129 321.401 4.20643C317.534 4.22919 313.584 3.55621 309.806 4.64533C308.938 4.89241 306.865 4.76237 305.944 4.46002C304.327 3.92359 302.478 3.87807 300.765 3.57572C300.461 3.52045 300.325 3.27987 300.145 3.08806C299.136 3.13682 298.032 2.81171 297.131 3.2181C295.814 3.8098 294.057 4.22919 293.365 5.07447C293.189 5.2858 292.825 5.47111 292.541 5.66942C292.216 5.36707 291.964 5.04521 291.556 4.76562C290.86 4.28446 289.927 4.22594 288.839 4.54455C288.414 4.66809 287.73 4.88591 287.502 4.82414C286.177 4.46977 284.3 4.14791 283.844 3.61148C283.099 2.74344 282.723 2.82472 281.298 3.29613C280.034 3.71552 280.678 4.75587 278.577 4.82739C278.517 4.92817 278.481 5.03546 278.349 5.11999C276.668 6.22861 274.639 4.21943 272.926 5.23052C272.622 5.09398 272.241 4.97694 272.029 4.81764C271.769 4.62257 271.737 4.22919 271.453 4.19668C268.063 3.83906 265.254 2.919 262.056 2.38582C261.864 2.35331 261.535 2.42483 261.319 2.4801C260.855 2.60039 260.999 2.76295 261.463 3.01653C261.692 3.14657 261.716 3.53996 261.664 3.54646C259.27 3.84556 256.889 3.78054 254.544 3.43267C253.503 3.27662 254.163 3.45868 254.52 3.2051C255.596 2.43784 255.232 2.21026 253.375 2.18425C252.29 2.168 251.15 2.06071 250.129 2.168C248.916 2.29804 247.728 3.16608 246.591 2.61665C244.85 1.77461 243.738 2.76945 242.373 2.66541C241.328 2.58739 240.316 2.41833 239.283 2.29154C238.839 2.23627 238.179 2.08022 237.986 2.15174C236.398 2.75644 235.109 2.56138 233.672 2.0217C233.132 1.81688 232.147 1.73885 231.391 1.76486C228.209 1.86889 224.847 1.1374 221.837 2.16149C221.525 2.26553 220.757 2.20376 220.297 2.11598C219.312 1.93067 218.316 1.7291 217.463 1.44951C214.838 0.587966 212.128 0.327879 209.126 1.05287C208.666 1.16341 208.07 1.28695 207.606 1.24794C203.467 0.903321 199.609 1.64782 195.615 1.84289C193.402 1.95017 190.968 2.08022 189.648 3.08806C188.299 3.04254 186.494 3.20184 185.737 2.88324C184.273 2.26553 182.716 3.02303 181.531 2.60689C180.086 2.09647 178.377 2.14199 176.817 2.22001C174.631 2.3273 173.455 1.51778 171.642 1.35197C171.117 1.3032 170.533 1.30971 170.001 1.35522C168.584 1.47876 167.203 2.10622 165.762 1.38123C164.278 2.07046 162.104 1.68358 160.375 2.0477C157.778 2.59389 154.532 2.51261 152.539 3.69601C152.239 3.87157 151.254 3.05229 149.954 3.47493C149.049 3.77078 148.425 4.68759 146.832 4.1284C145.255 3.56922 144.487 4.53479 143.246 4.33973C142.774 4.2682 142.129 4.18693 141.953 4.02437C141.753 3.84556 141.829 3.52695 142.085 3.35139C142.337 3.18234 142.954 3.11081 143.422 2.99703C143.89 2.88649 144.363 2.78245 144.839 2.67517C144.479 2.53862 144.15 2.30454 143.758 2.28178C142.401 2.20051 141.025 2.181 139.652 2.16474C138.011 2.14199 136.322 2.04445 134.729 2.168C133.461 2.26878 132.46 2.7792 130.947 2.74344C129.334 2.70768 127.697 2.76295 126.088 2.84422C125.616 2.86698 125.156 3.09131 124.78 3.26036C124.452 3.40991 124.231 3.60498 124.023 3.79029C124.007 3.80655 124.424 3.9496 124.676 3.98536C128.546 4.52829 132.1 3.59848 135.834 3.5042C136.702 3.48144 137.287 2.67842 138.435 3.32863C138.916 3.60173 137.715 3.95935 135.914 4.4145C134.397 4.79813 132.892 5.02571 131.251 4.90867C127.641 4.64208 124.396 5.31831 121.006 5.60115C120.669 5.62716 120.277 5.93926 120.237 6.13108C120.197 6.3294 120.509 6.55372 120.761 6.74228C120.87 6.82031 121.25 6.82356 121.478 6.87883C121.942 6.98937 122.386 7.11291 122.839 7.2332C122.458 7.35349 122.094 7.55506 121.69 7.57456C120.601 7.62983 119.489 7.56481 118.404 7.62333C116.271 7.73387 113.674 7.36649 112.561 6.73578C111.68 6.23836 110.592 6.03355 109.107 5.93276C105.445 5.68893 102.323 6.51471 98.9214 6.76504C95.2634 7.03488 91.9135 8.01346 87.9874 7.69811C83.9611 7.37625 80.5792 8.03622 77.4575 9.05381C76.577 9.33991 75.7926 9.70403 74.5839 9.60975C73.8195 9.54798 72.5108 9.44719 72.4588 9.29439C72.3147 8.90101 73.3232 8.92702 74.0196 8.84574C74.3198 8.80998 74.4959 8.5824 74.732 8.43935C74.732 8.43935 68.9328 7.66559 68.9248 7.66884C68.3805 7.93218 67.8362 8.19552 67.2919 8.46211C67.7562 8.57265 68.2244 8.68319 68.6847 8.80023C69.1369 8.91076 69.5852 9.0278 70.0334 9.14159C69.6812 9.3269 69.341 9.51221 68.9848 9.69428C67.9523 10.2177 66.5635 10.1624 65.1907 10.1494C61.4487 10.1104 58.7912 11.3003 55.5294 11.8042C54.7249 13.0624 52.0434 13.6118 50.1864 14.4539C48.7336 15.1106 47.8852 15.7706 48.0612 16.6679C48.2734 17.7505 47.9452 18.6283 44.7314 18.5145C41.5576 19.3955 37.9196 19.9612 35.2621 21.1901C35.006 21.3104 34.974 21.551 34.974 21.7363C34.978 21.8046 35.3702 21.9216 35.6023 21.9314C36.9671 21.9867 38.4159 21.9119 39.6886 22.0874C40.9573 22.263 42.0179 22.7052 42.4261 23.3164C42.6702 23.6837 41.3895 24.4477 40.2129 24.7371C39.0362 25.0264 38.1558 24.7566 37.2913 24.4607C36.3788 24.1486 35.4783 23.9406 34.4177 24.3502C33.5932 24.6688 32.8128 25.176 31.8843 25.241C29.1308 25.4328 29.603 25.979 30.3394 26.821C30.5916 27.1071 28.9186 27.8289 29.1988 27.9849C30.9437 28.983 30.0593 30.0786 30.1753 31.1287C30.2394 31.7237 30.2674 32.2666 30.9598 32.8421C32.1084 33.7946 32.2005 34.6984 29.0187 34.991C28.6545 35.0235 28.2503 35.3421 28.1862 35.547C28.0021 36.1419 27.9981 36.7466 27.8901 37.3448C27.766 38.0601 28.4944 38.4437 30.1033 38.5737C30.9238 38.642 30.8637 38.8111 30.3795 39.0744C29.8992 39.3345 29.2188 39.8352 29.4509 39.9782C30.7196 40.7747 29.543 41.4217 29.2148 42.1532C28.9467 42.7644 27.9541 43.2651 27.818 43.7527C27.6539 44.3347 28.7065 45.0239 29.4669 45.6059C30.5115 46.4024 30.2034 47.2314 30.0633 48.0604C30.0433 48.1872 29.1868 48.4148 29.1228 48.392C27.6139 47.8166 26.9976 47.9759 26.7775 48.8277C26.4733 49.9948 27.2417 51.24 25.4007 52.3161C24.9164 52.6022 26.4413 54.0424 27.75 54.2863C30.1473 54.7382 29.487 55.2746 28.4464 55.9216C28.2983 56.0126 27.9941 56.1654 28.0462 56.1979C29.1068 56.8124 29.4189 57.3976 29.3869 57.9698C28.7466 57.9795 28.1062 57.856 27.4538 57.5504C26.7254 57.2122 26.013 56.7148 25.2366 56.6206C23.6557 56.4222 23.7718 57.7877 23.1875 58.5745C22.411 59.6181 21.3464 60.4926 20.4019 61.4354C19.2853 62.5473 18.2327 62.3652 16.6799 61.8353C14.3826 61.0453 12.1614 63.1357 9.65998 62.5863C9.28377 62.505 8.69943 62.9927 8.29121 63.3048C8.14313 63.4186 8.14313 63.8022 8.22318 64.0168C8.39127 64.4524 8.60338 65.1807 8.89955 65.2229C11.6651 65.6163 14.4986 66.3251 17.036 64.5272C18.1487 63.7339 19.0412 64.2314 20.0577 64.7938C20.7181 65.1612 22.0909 65.5708 22.323 65.3335C23.1715 64.4557 24.2441 64.2379 25.3287 64.1826C25.3327 64.576 25.4127 64.9564 26.1811 65.2685C28.5985 66.247 28.8026 67.4499 28.1222 68.6203C26.0571 68.5553 23.9799 68.6203 21.9107 68.6301C20.63 68.6333 19.9136 69.4591 19.0892 70.1451C18.5329 70.6035 18.4368 71.0262 18.9771 71.4033C19.8536 72.0112 20.6821 72.8175 21.6866 73.0841C22.7192 73.3604 23.9359 73.0711 25.0725 73.0776C25.917 73.0841 26.9135 72.941 27.5659 73.2824C28.5144 73.7798 29.7071 74.5893 29.8472 75.3956C29.9472 75.9776 28.5865 77.239 27.718 77.3723C25.5088 77.7104 23.2075 77.5836 20.9422 77.6486C19.3493 77.6941 18.6369 78.3021 18.1327 79.8074C17.5203 81.6572 14.9829 82.5155 14.4907 84.7588C14.1465 86.3258 14.0544 87.3987 15.7513 88.0294C17.008 88.4975 18.3448 88.7836 19.6495 89.1477C19.8616 91.8526 22.1189 91.2577 24.0399 91.4105C25.6568 91.5373 26.5934 90.5847 27.842 90.0678C29.2748 89.4729 30.3074 91.0074 31.6441 91.2479C32.1364 91.3357 32.8208 91.1992 33.225 90.9326C34.4337 90.1361 35.7424 89.9117 37.2112 89.8922C43.1065 89.8272 49.0618 90.4807 54.809 88.5918C55.0531 88.5138 55.3373 88.5235 55.6374 88.5625C55.4413 88.7413 55.1371 88.9104 54.7609 89.06C54.5928 89.1282 54.4768 89.1998 54.3847 89.2713C52.0714 89.4533 49.8222 89.8077 47.633 90.3441C47.565 90.3344 47.5049 90.3084 47.4369 90.3084C46.9766 90.2954 46.4924 90.4644 46.0201 90.5522C46.1362 90.5847 46.2562 90.614 46.3763 90.6432C44.9595 91.0464 43.5627 91.5178 42.214 92.1225C42.5542 93.3514 43.1745 94.2942 43.9229 95.1167C40.473 95.5589 37.1672 96.3262 34.0655 97.5973C33.8294 97.6363 33.6052 97.6819 33.4091 97.7274C32.3485 97.9777 31.388 98.5629 30.3314 98.8588C29.0787 99.2099 28.1942 97.2235 26.6214 98.4361C25.4567 99.3334 24.7763 97.6884 23.7318 97.6298C22.8873 97.5843 22.0348 97.5843 21.1943 97.6363C20.9542 97.6526 20.7301 97.9192 20.51 98.0785C18.9851 99.1774 17.6764 100.527 15.6673 101.04C15.163 101.17 15.3511 101.752 16.0755 102.025C16.7399 102.272 17.9326 102.165 17.7244 103.046C17.5764 103.677 16.2636 104.707 16.0995 104.62C14.1665 103.589 12.1173 105.65 10.8887 104.903C8.29922 103.326 7.14656 104.603 6.53022 106.268C5.95791 107.812 5.08943 108.232 3.51656 108.186C2.66409 108.16 1.7876 108.118 0.963145 108.261C0.586937 108.326 0.254757 108.791 0.0106217 109.139C-0.0534137 109.233 0.222746 109.636 0.442868 109.75C1.62752 110.387 2.90023 110.911 4.04487 111.603C6.2701 112.946 9.44784 113.346 9.97213 116.444C10.0402 116.841 11.3009 117.117 12.0453 117.37C12.8057 117.627 14.0424 117.588 14.2945 118.034C14.7628 118.843 14.9029 119.952 14.7188 120.865C14.5347 121.772 13.8383 122.598 13.342 123.457C15.0109 123.814 15.7233 125.323 17.1081 126.022C18.813 126.886 20.9742 126.357 22.6392 127.654C23.5036 128.33 24.8684 127.995 25.1445 126.649C25.4007 125.404 26.2972 125.017 27.5379 125.024C30.1033 125.04 31.9363 122.797 34.6498 123.187C34.7979 123.206 35.2701 122.406 35.2661 121.99C35.2621 121.568 34.986 120.982 34.6098 120.752C33.7013 120.189 32.6047 119.871 31.7042 119.305C30.7356 118.7 30.3434 117.774 30.2634 116.691C30.1833 115.628 30.8237 114.373 31.7242 114.35C33.4331 114.311 35.1421 114.301 36.847 114.35C38.532 114.396 39.0763 115.368 38.3599 116.925C37.3553 119.1 37.3713 119.081 39.6646 120.508C40.361 120.943 40.9693 121.493 41.5616 122.036C42.3581 122.767 42.9144 123.18 44.2711 122.501C46.5524 121.363 49.6381 121.148 51.5832 122.257C54.5288 123.941 57.9067 122.621 60.5361 124.019C63.5618 125.622 66.6675 124.494 69.7012 124.874C70.5417 124.978 71.4222 124.832 72.2586 124.952C73.0711 125.066 74.1197 125.163 74.5959 125.638C76.6811 127.732 79.2465 128.362 82.2402 128.057C85.558 130.186 88.9479 130.313 92.5459 128.554C92.8781 128.392 93.8986 129.139 94.4629 129.598C95.3434 130.32 94.8312 130.801 93.9226 131.035C92.2657 131.464 90.6408 132.953 88.8758 131.191C88.7478 131.064 88.1955 131.064 88.0594 131.191C86.6506 132.508 85.3059 132.397 83.817 131.256C83.5729 131.067 82.7845 131.412 82.2722 131.568C82.1881 131.594 82.1441 131.939 82.2042 132.101C83.5289 135.729 84.3933 136.139 88.2315 134.985C91.8295 133.902 95.3875 133.691 100.554 134.988C101.919 135.333 102.96 133.697 104.212 135.037C104.961 135.837 105.617 134.731 106.33 134.513C107.146 134.263 107.942 134.104 108.691 134.696C109.903 135.648 111.172 135.811 112.489 134.845C113.702 133.948 115.25 133.902 116.547 134.188C119.693 134.887 122.703 136.867 125.944 134.286C126.233 134.055 127.521 134.601 128.182 135.001C129.762 135.97 131.892 136.025 133.052 135.408C136.282 133.691 139.632 134.283 142.958 134.224C148.657 134.117 154.36 134.049 160.059 134.065C161.796 134.071 163.377 133.821 164.846 133.008C166.727 134.504 168.456 133.915 170.141 132.696C173.707 133.571 176.488 130.814 179.95 131.045C181.931 131.178 183.973 130.817 185.926 131.061C188.387 131.366 190.04 129.474 192.361 129.549C193.758 129.595 195.099 129.439 196.459 128.834C199.061 127.673 201.97 127.455 204.592 128.59C206.549 129.435 208.046 129.543 210.123 128.814C212.728 127.901 215.438 126.145 218.536 127.901C218.816 128.06 219.604 127.712 220.024 127.439C221.833 126.265 223.703 126.041 225.492 127.303C226.76 128.197 228.457 128.525 229.43 127.885C231.735 126.37 234.22 126.532 236.746 126.49C238.979 126.451 241.048 126.337 243.285 125.511C245.747 124.598 248.752 124.503 251.466 125.846C253.555 126.88 255.832 126.779 257.901 125.739C258.942 125.215 259.971 125.121 261.091 124.962C262.536 124.757 263.228 126.864 264.809 125.758C266.294 124.718 268.067 125.03 269.736 125.014C274.867 124.962 280.002 124.991 285.129 124.981C303.371 124.952 321.613 124.926 339.855 124.864C341.524 124.861 343.533 125.082 344.77 124.36C346.523 123.346 348.564 125.69 349.868 123.645C351.861 123.603 353.851 123.538 355.844 123.518C360.398 123.476 364.957 123.473 369.511 123.411C370.912 123.392 372.601 123.645 373.654 123.057C375.791 121.857 377.956 122.042 380.225 122.046C381.922 122.049 383.951 122.325 385.252 121.623C387.953 120.166 390.735 120.514 393.533 120.498C396.51 120.485 399.488 120.475 402.465 120.466C405.223 121.171 407.981 122.143 410.758 123.557L408.089 122.195C407.728 121.418 409.818 121.152 411.47 120.865C411.218 120.722 410.99 120.576 410.738 120.433C416.978 120.417 423.217 120.397 429.456 120.361C431.97 120.348 434.355 120.215 436.893 119.367C439.37 118.534 442.46 119.155 445.281 119.136C450.088 121.636 455.279 120.01 460.298 120.264C463.323 118.222 466.813 119.116 470.151 119.006C472.708 118.925 475.562 119.376 477.735 118.508C478.239 118.31 478.732 118.16 479.224 118.017C482.47 118.739 487.08 119.5 495.041 120.332C509.497 118.661 526.694 116.33 543.764 117.234C549.947 117.51 555.554 119.984 554.514 121.125C561.962 120.784 572.608 120.882 580.3 121.067C613.186 116.229 576.182 111.483 563.835 110.898Z" fill="#0D3170" fill-opacity="0.4"/>
</svg>
