<svg width="1114" height="190" viewBox="0 0 1114 190" fill="none" xmlns="http://www.w3.org/2000/svg">
<path d="M69.8118 76.5419C46.8817 76.5419 30.154 93.7197 30.154 117.916C30.154 142.298 46.8817 159.476 70.5636 159.476C93.9636 159.476 110.127 142.575 110.127 118.101C110.127 94.1814 93.2118 76.5419 69.8118 76.5419ZM76.672 189.029C56.5612 189.029 43.4985 183.395 29.4961 168.711V185.889H-0.576172V7.0918H32.1274V64.1665C44.7202 51.8834 56.7491 46.9886 74.5106 46.9886C113.605 46.9886 143.113 77.4654 143.113 117.916C143.113 158.275 115.108 189.029 76.672 189.029Z" fill="#EFEFEF" fill-opacity="0.42"/>
<path d="M228.819 78.2031C205.419 78.2031 188.973 95.6579 188.973 120.039C188.973 143.497 205.419 159.474 229.289 159.474C254.192 159.474 268.946 142.112 268.946 119.855C268.946 95.3809 252.219 78.2031 228.819 78.2031ZM269.886 185.888V168.433C256.917 182.932 243.855 189.028 224.684 189.028C184.744 189.028 155.987 159.751 155.987 119.393C155.987 78.4801 185.026 48.7422 225.342 48.7422C245.076 48.7422 258.609 55.0222 269.886 69.7989V51.8822H299.958V185.888H269.886Z" fill="#EFEFEF" fill-opacity="0.42"/>
<path d="M357.097 111.358V185.888H324.3V51.8822H354.372V64.9041C362.924 52.621 369.878 48.7422 383.881 48.7422H386.324V79.6807C366.683 80.1425 357.097 90.5785 357.097 111.358Z" fill="#EFEFEF" fill-opacity="0.42"/>
<path d="M435.848 111.358V185.888H403.051V51.8822H433.123V64.9041C441.769 52.621 448.629 48.7422 462.632 48.7422H465.075V79.6807C445.434 80.1425 435.848 90.5785 435.848 111.358Z" fill="#EFEFEF" fill-opacity="0.42"/>
<path d="M544.296 0.349609V32.4887H511.593V0.349609H544.296Z" fill="#EFEFEF" fill-opacity="0.42"/>
<path d="M646.167 189.028C619.102 189.028 599.649 174.528 596.172 143.312H629.157C632.353 154.672 637.803 159.474 647.389 159.474C655.753 159.474 662.143 153.933 662.143 146.453C662.143 138.695 660.921 136.478 639.025 129.275C611.96 120.316 601.153 109.234 601.153 89.5626C601.153 66.6588 621.075 48.7422 646.355 48.7422C669.567 48.7422 689.96 63.7035 691.182 88.8237H659.23C657.726 81.8972 653.309 78.2031 646.355 78.2031C639.213 78.2031 633.856 83.0978 633.856 89.5626C633.856 96.5815 634.608 97.1356 656.974 104.154C685.543 112.836 694.847 123.456 694.847 143.312C694.847 168.895 673.42 189.028 646.167 189.028Z" fill="#EFEFEF" fill-opacity="0.42"/>
<path d="M753.206 81.1596V185.889H720.502V81.1596H704.526V51.8834H720.502V7.0918H753.206V51.8834H772.941V81.1596H753.206Z" fill="#EFEFEF" fill-opacity="0.42"/>
<path d="M853.383 78.2031C833.93 78.2031 820.679 87.6231 815.511 104.801H891.067C886.838 87.6231 873.588 78.2031 853.383 78.2031ZM922.079 133.154H816.45C820.397 149.315 834.682 159.474 854.135 159.474C867.667 159.474 875.749 155.873 884.113 146.175H919.824C910.708 173.789 882.421 189.028 854.887 189.028C813.255 189.028 781.021 158.551 781.021 119.393C781.021 79.9578 812.785 48.7422 852.913 48.7422C893.511 48.7422 923.301 79.2189 923.301 120.778C923.301 125.673 923.019 128.536 922.079 133.154Z" fill="#EFEFEF" fill-opacity="0.42"/>
<path d="M977.243 111.358V185.888H944.445V51.8822H974.518V64.9041C983.069 52.621 990.024 48.7422 1004.03 48.7422H1006.47V79.6807C986.828 80.1425 977.243 90.5785 977.243 111.358Z" fill="#EFEFEF" fill-opacity="0.42"/>
<path d="M1064.55 189.028C1037.48 189.028 1018.03 174.528 1014.64 143.312H1047.63C1050.83 154.672 1056.18 159.474 1065.77 159.474C1074.13 159.474 1080.62 153.933 1080.62 146.453C1080.62 138.695 1079.3 136.478 1057.4 129.275C1030.34 120.316 1019.53 109.234 1019.53 89.5626C1019.53 66.6588 1039.45 48.7422 1064.83 48.7422C1087.95 48.7422 1108.34 63.7035 1109.65 88.8237H1077.61C1076.1 81.8972 1071.69 78.2031 1064.83 78.2031C1057.69 78.2031 1052.23 83.0978 1052.23 89.5626C1052.23 96.5815 1052.99 97.1356 1075.45 104.154C1103.83 112.743 1113.23 123.364 1113.32 143.035V143.405C1113.23 168.987 1091.8 189.028 1064.55 189.028Z" fill="#EFEFEF" fill-opacity="0.42"/>
<path d="M579.067 175.636C576.06 175.175 572.864 175.175 569.763 174.62C565.44 173.697 562.997 169.726 563.843 165.293C564.407 162.337 565.158 159.567 563.843 156.519C562.997 154.672 563.937 152.825 565.722 151.809C566.85 151.163 567.978 150.793 569.481 149.962C567.696 149.315 566.38 148.854 565.064 148.3C562.903 147.468 562.057 146.268 562.151 144.051C562.245 142.666 562.433 141.373 562.527 140.08C562.715 137.032 561.681 135.462 558.768 134.724C555.761 133.985 552.754 133.338 549.746 132.969C547.679 132.784 546.457 131.676 545.423 130.198C543.732 127.612 544.672 125.026 545.611 122.625C547.585 117.915 549.652 113.113 552.002 108.495C553.693 105.078 555.667 101.753 557.64 98.4285C558.486 97.0432 558.298 95.7503 557.64 94.5497C556.137 91.6867 555.291 88.7314 556.419 85.5914C556.983 83.8366 557.452 82.0819 557.922 80.4195C558.486 78.5725 558.956 76.7254 559.426 74.8783C549.746 72.7542 543.356 66.2894 547.867 48.7422H507.551C512.156 66.2894 505.672 72.7542 495.992 74.8783C496.462 76.7254 497.026 78.5725 497.59 80.4195C498.06 82.0819 498.529 83.8366 499.093 85.5914C500.127 88.7314 499.281 91.6867 497.872 94.5497C497.214 95.7503 496.932 97.0432 497.778 98.4285C499.751 101.753 501.819 105.078 503.51 108.495C505.766 113.113 507.833 117.915 509.807 122.625C510.84 125.026 511.686 127.612 509.995 130.198C508.961 131.676 507.739 132.784 505.672 132.969C502.664 133.338 499.657 133.985 496.744 134.724C493.831 135.462 492.797 137.032 492.985 140.08C493.079 141.373 493.267 142.666 493.267 144.051C493.361 146.268 492.609 147.468 490.448 148.3C489.132 148.854 487.722 149.315 485.937 149.962C487.534 150.793 488.662 151.163 489.696 151.809C491.481 152.825 492.515 154.672 491.669 156.519C490.26 159.567 491.011 162.337 491.575 165.293C492.421 169.726 490.072 173.697 485.655 174.62C482.836 175.175 479.828 175.175 476.915 175.636V184.964H582.732V176.468C581.51 176.098 580.289 175.821 579.067 175.636Z" fill="#EFEFEF" fill-opacity="0.42"/>
</svg>
