<svg width="10" height="7" viewBox="0 0 10 7" fill="none" xmlns="http://www.w3.org/2000/svg">
<g clip-path="url(#clip0_187_43)">
<path d="M0.232422 0.867188V6.86719H9.23242V0.867188H0.232422Z" fill="#012169"/>
<path d="M0.232422 0.867188L9.23242 6.86719L0.232422 0.867188ZM9.23242 0.867188L0.232422 6.86719L9.23242 0.867188Z" fill="black"/>
<path fill-rule="evenodd" clip-rule="evenodd" d="M3.38479 3.86717L-0.0371094 1.58591L0.501943 0.148438L4.73242 2.96875L8.96289 0.148438L9.50194 1.58591L6.08005 3.86717L9.50194 6.14844L8.96289 7.58591L4.73242 4.76559L0.501943 7.58591L-0.0371094 6.14844L3.38479 3.86717Z" fill="white"/>
<path d="M0.232422 0.867188L9.23242 6.86719L0.232422 0.867188ZM9.23242 0.867188L0.232422 6.86719L9.23242 0.867188Z" fill="black"/>
<path fill-rule="evenodd" clip-rule="evenodd" d="M3.834 3.86588L0.0527344 1.34503L0.412102 0.386719L4.73242 3.26693L9.05273 0.386719L9.4121 1.34503L5.63084 3.86588L9.4121 6.38672L9.05273 7.34503L4.73242 4.46482L0.412102 7.34503L0.0527344 6.38672L3.834 3.86588Z" fill="#C8102E"/>
<path d="M4.73242 0.867188V6.86719V0.867188ZM0.232422 3.86719H9.23242H0.232422Z" fill="black"/>
<path fill-rule="evenodd" clip-rule="evenodd" d="M3.72796 2.5279V0.867188H5.73689V2.5279H9.23242V5.20647H5.73689V6.86719H3.72796V5.20647H0.232422V2.5279H3.72796Z" fill="white"/>
<path d="M4.73242 0.867188V6.86719V0.867188ZM0.232422 3.86719H9.23242H0.232422Z" fill="black"/>
<path fill-rule="evenodd" clip-rule="evenodd" d="M4.12974 3.06362V0.867188H5.3351V3.06362H9.23242V4.67076H5.3351V6.86719H4.12974V4.67076H0.232422V3.06362H4.12974Z" fill="#C8102E"/>
</g>
<defs>
<clipPath id="clip0_187_43">
<rect width="9" height="6" fill="white" transform="translate(0.232422 0.867188)"/>
</clipPath>
</defs>
</svg>
