<svg width="161" height="45" viewBox="0 0 161 45" fill="none" xmlns="http://www.w3.org/2000/svg">
<path d="M34.4937 22.5493C34.1505 21.7342 33.7966 20.9084 33.4105 20.1148C33.1316 19.5249 32.7885 18.9565 32.456 18.3774C32.3166 18.1415 32.3488 17.927 32.456 17.7125C32.7027 17.2192 32.8528 16.7258 32.6705 16.1681C32.574 15.8786 32.4882 15.5783 32.4131 15.278C32.3166 14.967 32.2308 14.6452 32.145 14.3342C33.8716 13.9482 34.987 12.747 33.9682 9.35802C33.2925 7.09513 31.7482 5.84035 31.2441 5.52934C29.7534 4.62847 27.2117 0.327904 21.6349 0.488773C18.4497 0.585294 15.2108 0.982104 12.1865 1.90442C9.75201 2.64442 7.9181 3.64181 6.36303 5.85108C6.18071 6.00122 4.23956 8.84324 3.75695 11.6638C3.67116 12.1893 3.56391 12.7041 3.47811 13.2296C3.40304 13.6693 3.33869 14.0768 3.15637 14.42C1.41899 14.3879 0.668266 15.2458 0.507397 16.2432C0.325079 17.3693 0.743338 18.12 1.31174 18.5168C1.86942 18.9136 2.27696 19.0209 3.11348 19.0531C3.15637 19.0531 3.19927 19.0531 3.24217 19.0531C3.24217 19.0745 3.23145 19.096 3.23145 19.1067C1.74073 19.2568 0.582469 20.147 0.539571 21.2623C0.507397 22.249 1.00073 23.0855 2.52362 23.5038C2.64159 23.5359 2.5987 23.7183 2.5987 23.8148C1.33319 24.0936 0.861309 24.9301 0.743338 25.9168C0.582469 27.193 1.71928 28.5658 3.09203 28.8554C3.13493 28.8661 3.17782 28.8768 3.22072 28.8875C3.29579 29.3594 3.60681 29.7669 4.05724 30.0029C4.01434 30.6142 3.95 31.2362 3.88565 31.869C3.24217 31.6759 2.49145 31.944 2.06246 32.5875C1.65493 33.1988 1.61203 34.2177 2.00884 34.7217C1.8587 34.8075 1.73 34.9148 1.63348 35.0434C1.17232 35.644 1.25812 36.8881 1.97667 37.1562C2.75956 37.4565 3.04913 37.2634 3.46739 36.7487C4.34681 35.8692 6.33086 33.4669 7.21028 28.8768C7.95027 28.7588 8.73317 28.5551 9.50534 28.2548C9.50534 28.2548 9.45172 30.9466 7.57491 33.8423C6.44883 35.451 3.11348 37.6603 0.443049 42.3362C-0.404195 43.8269 0.0569631 45.3176 2.93116 43.5052C4.07869 42.7759 5.38709 42.1324 6.79202 41.7356C11.1569 40.513 14.8784 40.1913 20.541 42.2397C26.654 44.4704 31.716 40.5988 31.716 40.5988L30.8795 39.1617C30.8795 39.1617 31.6195 38.5289 31.5337 37.9927C31.4479 37.4458 30.9438 36.8237 30.5899 36.5771C30.2467 36.3197 30.1717 35.4832 30.1073 35.3759C30.043 35.2687 29.1421 34.4321 29.1421 34.4321C29.1421 34.4321 28.8311 34.1533 28.2841 34.3892C27.7372 34.6359 27.2331 34.711 27.0508 34.6037C26.8792 34.4965 26.4288 34.0461 26.4288 34.0461L25.9569 33.5849C25.9354 33.4348 25.9462 33.2524 25.9783 33.0487C26.032 32.7484 26.1178 32.5232 26.1928 32.3516C26.3644 32.3087 26.536 32.2658 26.6969 32.2229C27.0722 32.1049 27.4583 31.9977 27.8444 31.9011C28.1769 31.8153 28.4986 31.7081 28.8311 31.6652C29.3566 31.5794 29.8928 31.5794 30.4076 31.4722C31.1476 31.322 31.5444 30.6464 31.405 29.8742C31.3085 29.3701 31.1798 28.8875 31.4157 28.3727C31.5551 28.0617 31.3835 27.74 31.0832 27.5577C30.9117 27.4612 30.7186 27.3754 30.4505 27.2574C30.7508 27.1287 30.9867 27.0429 31.2119 26.9571C31.5659 26.8177 31.7053 26.6139 31.6946 26.2171C31.6838 25.9919 31.6517 25.7667 31.6302 25.5414C31.598 25.0267 31.7803 24.7478 32.263 24.6191C32.767 24.5012 33.2818 24.3832 33.7859 24.3296C34.129 24.2867 34.3435 24.1044 34.5151 23.8362C34.8047 23.4073 34.6545 22.9675 34.4937 22.5493Z" fill="white"/>
<path d="M69.5759 28.45C69.1469 29.1256 68.4069 29.6833 67.3666 30.1338C66.6266 30.6056 64.8142 31.0024 61.9293 31.3135L60.9212 31.2062L60.7067 31.3135C60.5887 31.2491 60.3313 31.174 59.9345 31.0882C59.9023 31.0882 59.7843 31.1097 59.5913 31.1526C58.4116 30.981 57.8003 30.8738 57.7574 30.8309C56.8029 30.6593 56.256 30.5306 56.1487 30.434C54.8618 30.048 53.607 29.5332 52.3736 28.9004C53.5963 26.5517 54.6794 24.5891 55.6232 23.0126C55.6232 22.9268 56.0307 22.8088 56.8458 22.6694H56.8887L56.996 22.7338V22.6694C58.1864 22.5836 58.787 22.4549 58.7762 22.2726C58.862 22.2726 58.9371 22.2941 59.0015 22.337C59.1945 22.337 60.1704 22.1439 61.94 21.7686C62.4655 21.7686 63.1197 21.8329 63.8919 21.9723C63.9562 21.9402 64.0098 21.9294 64.0527 21.9294C64.6855 22.1868 65.1467 22.3155 65.4469 22.3048C66.7553 22.9268 67.5382 23.2271 67.7742 23.2271C67.9029 23.4523 68.1066 23.6346 68.3962 23.7848C68.5464 23.7848 68.7179 23.9028 68.9432 24.128C69.3507 24.6535 69.6295 24.9645 69.7797 25.0717C69.9513 25.3613 70.155 25.8439 70.4017 26.5088C70.1443 27.6135 69.8655 28.2569 69.5759 28.45ZM52.2021 27.1845V26.97H52.3093V27.1845H52.2021ZM53.3496 24.9001V24.7929C53.3496 24.7286 53.3818 24.6964 53.4568 24.6857L53.5641 24.7393C53.5319 24.8144 53.5212 24.868 53.5212 24.9001H53.3496ZM59.9667 13.8324C60.7174 13.6071 61.747 13.3605 63.0661 13.0924L63.1948 13.1567C64.7069 12.9958 65.5756 12.8779 65.8009 12.8028C65.9295 12.8028 66.0904 12.8242 66.2942 12.8671C66.3264 12.8671 66.4765 12.8457 66.7446 12.8028C67.9243 12.8671 68.6214 12.9851 68.8466 13.1353C68.8466 13.0924 68.8681 13.0709 68.9003 13.0709H69.0182C70.273 13.4892 70.895 13.8967 70.9058 14.2935C70.9058 14.3364 70.8843 14.39 70.8521 14.4651L70.9058 14.5723L70.8521 14.8941C70.5733 15.7306 69.7475 16.7065 68.3748 17.8005C66.8304 18.7442 64.8142 19.6344 62.3261 20.4816H61.822L61.5003 20.4387C61.4252 20.4709 61.3501 20.4816 61.2643 20.4816C60.0096 20.4173 59.3768 20.3422 59.3768 20.2671L58.9478 20.3851C58.9049 20.3851 58.8406 20.3636 58.7762 20.3315C58.7119 20.3636 58.6368 20.3851 58.5617 20.3851H58.1649L57.7788 20.3422C57.7788 20.428 57.5215 20.4709 56.996 20.5031L56.9852 20.3422C57.5751 19.3984 58.5725 17.2321 59.9667 13.8324ZM49.2742 31.9677C49.2099 31.9677 49.1777 31.9355 49.167 31.8604C49.167 31.7961 49.1992 31.7639 49.2742 31.7532H49.3279V31.8604L49.2742 31.9677ZM71.4634 26.112C71.0881 25.0074 70.7342 24.321 70.4017 24.0529C68.7716 22.5944 66.8626 21.5862 64.664 21.0286L64.7069 20.9213C66.1548 20.3207 67.12 19.8703 67.5919 19.57C68.5785 19.066 69.3936 18.5405 70.0371 18.0149C71.2918 16.8674 72.0211 15.795 72.2356 14.7761C72.2356 14.2077 72.0318 13.6608 71.6243 13.1245C71.0559 12.5239 70.0585 12.1057 68.6321 11.8483L68.5035 11.9126C68.1924 11.8054 67.624 11.7089 66.7875 11.6445C66.7875 11.6874 66.6803 11.7196 66.4551 11.7518C66.4551 11.6767 66.3693 11.6445 66.1762 11.6445L65.6829 11.7089L65.4469 11.6445C63.4843 11.8483 62.251 12.0521 61.7362 12.2666L61.4681 12.2237C61.0606 12.3095 60.8461 12.3953 60.8461 12.5025H60.46C60.0846 12.5025 59.4519 12.6955 58.5725 13.0709C56.9852 13.5642 56.1916 13.8967 56.1916 14.0683C55.7519 14.1112 55.5267 14.1863 55.5267 14.2935C55.0119 14.3579 54.2934 14.7118 53.371 15.3552V15.4089L53.489 15.3552C53.5534 15.3552 53.5963 15.3874 53.5963 15.4732L53.5319 15.5805L53.1458 15.5268H53.0386C52.245 15.8808 51.816 16.1596 51.7623 16.3634C51.2261 16.5993 50.5505 17.0068 49.7139 17.5967C49.5531 17.8863 49.1134 18.2938 48.3841 18.8086C47.6441 19.4628 47.2151 20.0633 47.1186 20.5996C47.2044 20.9749 47.4296 21.1573 47.7835 21.1573L48.0624 21.0929L48.4484 20.2028C49.1134 19.5378 50.1429 18.712 51.5586 17.7468C53.9502 16.2239 56.1273 15.13 58.0791 14.4544C58.0791 14.4866 58.122 14.508 58.1971 14.508C57.4357 16.3526 56.9745 17.3286 56.8244 17.4465C56.5884 18.3581 56.3525 18.9265 56.1058 19.1732L55.7841 19.8381L56.0629 19.7845H56.1058V19.8381L55.5481 20.2457L55.6768 20.3958C55.5052 20.3958 55.3229 20.5674 55.1191 20.8891C53.6713 21.361 52.9528 21.8544 52.9528 22.3584H53.1244C53.1244 22.2404 53.1565 22.1868 53.2316 22.1868H53.3389V22.2297L53.2316 22.4013V22.4657H53.3389V22.5086L53.296 22.7874C53.3281 22.7874 53.3389 22.8088 53.3389 22.8517C53.8965 22.9268 54.1754 23.0555 54.1861 23.2378H54.229C54.229 23.0984 54.2719 23.0233 54.347 23.0233H54.5722V23.1735H54.4006C54.1968 23.6668 53.9716 23.9028 53.7357 23.9028V24.01L53.8429 24.1816V24.2888C53.8107 24.2888 53.7571 24.3103 53.6928 24.3532L53.4568 24.2996C53.2745 24.6642 53.178 24.8894 53.178 24.9645C53.178 24.9967 53.2423 25.0288 53.3496 25.0717C53.3496 25.1575 53.296 25.2648 53.178 25.4149C53.1565 25.4149 53.1029 25.3935 53.0278 25.3506C52.8777 25.3506 52.7812 25.5007 52.749 25.801L52.7919 25.9083C52.6418 25.9083 52.5131 26.0155 52.4058 26.2407L51.816 27.2917C51.8374 27.2917 51.8589 27.3239 51.8589 27.399C51.9018 27.399 51.9232 27.3883 51.9232 27.3561L52.0305 27.399L51.9768 27.5277C51.9232 27.5277 51.8803 27.4848 51.8589 27.399C51.6444 27.517 51.5371 27.6349 51.5371 27.7422V27.8494L51.7516 27.6778C51.7194 28.1283 51.6873 28.3642 51.6444 28.4071C51.5586 28.4071 51.4942 28.3856 51.4299 28.3535V28.1283H51.3655C51.269 28.2033 51.2154 28.2355 51.1939 28.2355L51.151 28.2462C50.7435 28.1068 50.1858 27.828 49.4673 27.4097C48.7916 26.8735 48.2554 26.5088 47.8693 26.3158C47.7299 26.0584 47.5476 25.9297 47.3116 25.9297C47.3116 25.9619 47.2902 25.9726 47.2473 25.9726L47.0757 25.9833C47.0113 25.9833 46.9792 25.9404 46.9684 25.8654L47.0757 25.7045V25.6509C46.5609 25.6509 46.3035 25.4364 46.3035 24.9859C45.9496 24.632 45.6922 24.2781 45.5206 23.9349C45.467 23.9349 45.4134 24.01 45.349 24.1601C45.4992 24.4819 45.6493 24.6535 45.7995 24.6535C45.7995 24.7286 45.7351 24.7715 45.585 24.7715V24.9323C45.6493 24.9323 45.7458 24.9645 45.8638 25.0396L45.7995 25.3184C45.9282 25.3184 46.0247 25.4042 46.089 25.5972H46.3679C46.3679 25.6723 46.3464 25.7581 46.3035 25.8225C46.4429 26.1871 46.6253 26.3694 46.8612 26.3694C47.2366 26.852 47.4618 27.088 47.5369 27.088C47.5369 27.0558 47.5476 27.0343 47.5905 27.0343H47.6441C48.4163 27.6242 48.9739 27.9781 49.3171 28.0746C49.5853 28.4929 49.8641 28.6967 50.1429 28.6967C50.4861 28.6967 50.7113 28.9111 50.8079 29.3616V29.4688H50.529L50.5934 29.8549C50.4754 29.8978 50.4003 29.9193 50.3789 29.9193V30.0265L50.4218 30.1338C50.3681 30.1338 50.3252 30.1767 50.3145 30.241C49.8212 30.6056 49.5638 30.8845 49.5424 31.0882L49.6067 31.3027C49.6067 31.4529 49.4566 31.5709 49.167 31.6459C48.8774 32.2251 48.545 32.7398 48.1589 33.201V33.2546C48.2768 33.2546 48.3519 33.3297 48.3948 33.4798C48.3948 33.6085 48.2661 33.7908 48.0087 34.0375H47.9444C47.9444 33.9946 47.9337 33.941 47.9015 33.8659C47.9873 33.8552 48.0624 33.7587 48.116 33.5871C48.0731 33.5871 48.0516 33.5656 48.0516 33.5227C48.0087 33.5227 47.88 33.6729 47.6655 33.9732C47.6119 34.2735 47.5369 34.4236 47.4511 34.4236C47.3867 34.6381 47.3009 34.7453 47.1722 34.7561V34.9169H47.3438C47.3438 35.1207 47.1829 35.3137 46.8505 35.5282V35.5926L46.9041 35.6998C46.829 35.7749 46.6467 35.8607 46.3464 35.9787C46.207 36.3648 46.0247 36.6436 45.7887 36.8152L45.8531 37.094C45.4777 37.3085 45.2954 37.4479 45.2954 37.5337V37.641H45.7887C45.9925 37.3085 46.1856 37.1369 46.3464 37.1369C47.1508 36.2897 47.5905 35.8607 47.6763 35.8607C48.2876 34.9706 48.6415 34.5308 48.7273 34.5308C48.9739 33.8016 49.2206 33.3833 49.4887 33.2546C49.789 32.772 49.9713 32.5253 50.0464 32.5253C50.3789 31.8175 50.9794 30.8738 51.8696 29.6833H51.9876C52.1377 29.7477 52.2128 29.812 52.2128 29.8442C52.8026 29.9622 53.1458 30.1445 53.2638 30.4019C53.7786 30.434 54.036 30.4984 54.036 30.6164C54.6902 30.8201 55.0441 30.9703 55.0977 31.0668C55.1835 31.0561 55.2478 31.0453 55.3122 31.0024C55.4409 31.0668 55.5481 31.1097 55.6554 31.1097L55.9771 31.099V31.1633C56.2774 31.1633 56.4275 31.292 56.4275 31.5494H56.8136C56.8136 31.6674 56.9102 31.721 57.1032 31.721H57.1568L57.3177 31.6138H57.3713C57.4893 31.6566 57.8217 31.7639 58.3687 31.9355C58.5617 31.9033 58.6797 31.8819 58.7119 31.8819C58.8191 31.9891 59.2052 32.0964 59.8701 32.2036C59.9452 32.1607 59.9988 32.1393 60.0417 32.1393C60.2455 32.1393 60.4064 32.1822 60.5458 32.268C60.6316 32.268 60.7817 32.2465 60.9855 32.2036L61.4896 32.2572C61.747 32.2143 61.8971 32.1929 61.94 32.1929L62.1545 32.3001C63.0661 32.3001 63.731 32.2036 64.1493 32.0213L64.4281 32.1285L66.4765 31.7317C68.3533 30.9917 69.6295 30.2625 70.2945 29.5546C71.1524 28.4178 71.5707 27.5491 71.5707 26.9378C71.5707 26.8199 71.5171 26.5839 71.3991 26.2193L71.4634 26.112Z" fill="white"/>
<path d="M46.9579 35.1953H46.8936V35.3133H46.9579V35.1953Z" fill="white"/>
<path d="M45.0801 37.7656V37.9158H45.2517V37.7656H45.0801Z" fill="white"/>
<path d="M53.1771 25.0039H53.0698V25.1326H53.1771V25.0039Z" fill="white"/>
<path d="M99.3579 17.8187C99.6582 17.8187 100.109 17.6256 100.72 17.2502C101.932 16.4352 102.618 15.7917 102.758 15.3198V15.1375C102.736 15.1375 102.511 15.0946 102.071 15.0195C101.492 15.2662 101.042 15.5129 100.709 15.7703C99.39 16.4137 98.7358 16.8856 98.7358 17.1966C98.7358 17.5613 98.9396 17.765 99.3579 17.8187Z" fill="white"/>
<path d="M160.091 12.9727V13.0048L160.123 13.0692C160.22 13.0048 160.263 12.9727 160.263 12.9727C160.263 12.9727 160.209 12.9727 160.091 12.9727Z" fill="white"/>
<path d="M153.335 12.9389V12.6172H153.056V12.9389H153.335Z" fill="white"/>
<path d="M159.941 12.9414V12.9736C160.005 12.9736 160.048 12.9736 160.091 12.9736V12.9414H159.941Z" fill="white"/>
<path d="M151.008 12.8741C150.987 12.8633 150.965 12.8633 150.943 12.8633C150.943 12.8633 150.943 12.8633 150.943 12.8741H151.008Z" fill="white"/>
<path d="M156.37 12.8202V12.7344L156.091 12.7451L156.102 13.0668H156.37V12.9489C156.413 13.0347 156.499 13.0883 156.628 13.1097V12.8202H156.37Z" fill="white"/>
<path d="M122.694 20.0502C122.662 20.0502 122.651 20.0717 122.662 20.1146V20.1789C122.244 21.0369 121.471 21.6696 120.345 22.0879C121.171 20.8867 121.943 20.2111 122.694 20.0502ZM135.96 24.9299C136.046 25.198 136.089 25.3803 136.089 25.4876V25.9809C135.842 26.4635 135.724 26.7316 135.724 26.7853C134.716 27.7398 133.869 28.2224 133.183 28.2224C132.915 28.2224 132.775 28.158 132.754 28.0401V27.9757C132.754 27.5682 133.74 26.5493 135.714 24.9299H135.96ZM106.135 26.9032C105.127 27.8577 104.28 28.3403 103.594 28.3403C103.325 28.3403 103.186 28.276 103.165 28.158V28.0937C103.165 27.6861 104.151 26.6673 106.125 25.0479H106.371C106.457 25.316 106.5 25.4983 106.5 25.6056V26.0989C106.253 26.5815 106.135 26.8496 106.135 26.9032ZM75.8812 23.0746C74.6157 24.2757 73.6075 24.8763 72.8461 24.887H72.7281C72.6531 24.887 72.6102 24.8441 72.5994 24.7583V24.3293C72.6638 23.836 72.889 23.3212 73.2751 22.7743C74.4119 21.5302 75.4843 20.7366 76.4925 20.4041C76.8571 20.4041 77.0501 20.6508 77.0501 21.1441V21.2085C77.0501 21.6375 76.6641 22.2595 75.8812 23.0746ZM155.565 13.2079V12.7468H155.039V12.9934H154.868C154.728 13.0471 154.643 13.0685 154.61 13.0685C154.46 12.9827 154.396 12.9613 154.396 13.0149C154.214 13.0149 154.171 12.9827 154.267 12.9184C154.149 12.9184 154.064 12.8969 153.999 12.854C153.742 12.9398 153.613 13.0578 153.613 13.2186H153.366C153.013 12.9827 152.841 12.8862 152.841 12.9398C152.819 12.9398 152.809 12.9291 152.809 12.8969V12.9398L152.884 13.1221L152.701 13.2401C152.541 13.0792 152.401 13.0042 152.283 13.0042C152.144 13.1543 151.994 13.2186 151.833 13.2186L151.65 13.2294L151.736 12.8647L151.007 12.8755C151.211 12.8969 151.318 13.0149 151.318 13.2294C151.125 13.2294 150.996 13.1007 150.943 12.8755H150.717C150.803 12.8647 150.878 12.8647 150.943 12.8647C150.932 12.8218 150.921 12.7789 150.921 12.736L150.728 12.7682L150.578 12.9184H150.76C150.76 13.0685 150.707 13.1543 150.578 13.1543C150.235 12.8647 149.956 12.7146 149.72 12.7253L149.827 12.8326C149.817 12.8969 149.795 13.0042 149.752 13.1543H149.452L149.43 13.1329V12.9076H149.302L149.195 12.7253H147.736C147.682 12.7253 147.639 12.8755 147.607 13.165H147.382V12.9613H147.371C147.286 12.8647 147.2 12.8326 147.125 12.8862L146.814 12.7468C146.567 12.8433 146.385 12.8862 146.267 12.8862C146.267 12.8218 146.224 12.7789 146.127 12.736L145.752 12.8111L144.519 12.8218C144.315 12.8218 143.982 12.8433 143.543 12.8969C143.543 12.8433 143.5 12.8218 143.414 12.8218C143.339 12.8755 143.264 12.8969 143.199 12.8969L142.91 12.7468L141.955 12.9076L141.837 12.8326C141.634 12.8862 141.451 12.9076 141.301 12.9076C141.108 12.9076 140.84 12.8862 140.486 12.8326L139.821 12.9184V12.9291C139.811 12.9184 139.778 12.9184 139.746 12.9184H138.942L138.159 12.9934L138.105 12.8433L137.322 12.9827L136.958 12.9291L134.909 13.0685L134.459 12.9505V12.9934C134.362 12.9934 134.019 12.9827 133.419 12.9398C133.311 12.9398 133.193 12.9827 133.065 13.0792C132.968 13.0792 132.925 13.09 132.936 13.1007C131.692 13.1007 131.349 13.0685 131.928 13.0042C131.756 13.0042 131.595 12.9934 131.435 12.9505C131.284 12.9934 131.113 13.0149 130.941 13.0149H130.502C130.405 13.0149 130.319 12.9934 130.255 12.9505C130.191 12.9934 130.115 13.0149 130.008 13.0149H129.268C129.097 13.0149 128.936 13.0685 128.775 13.1757C128.496 13.0685 128.249 13.0256 128.024 13.0256C127.863 13.0256 127.542 13.0792 127.08 13.1865L126.973 13.1221C126.909 13.165 126.834 13.1865 126.727 13.1865H126.48C126.276 13.1865 126.072 13.165 125.858 13.1114C125.129 13.1757 124.71 13.2508 124.635 13.3366C124.367 13.3366 124.045 13.3044 123.691 13.2615L123.38 13.3366L122.404 13.476C119.08 13.7549 117.31 13.9372 117.107 14.023L116.098 14.0337C116.002 14.0337 115.948 13.9694 115.927 13.8299C116.742 12.425 117.16 11.5778 117.149 11.2989C117.149 11.181 117.064 11.0094 116.871 10.7734L116.517 10.8485L116.206 10.7734L116.109 10.8378C115.702 11.7816 115.423 12.35 115.273 12.5644C115.273 12.8326 114.962 13.4224 114.329 14.334C113.01 14.4842 110.65 14.9346 107.251 15.696L107.1 16.0392L107.036 16.4039C107.143 16.6398 107.379 16.8436 107.733 17.0259L113.085 15.9856C113.16 16.0285 113.235 16.0607 113.299 16.0607C113.299 16.2215 113.16 16.5862 112.87 17.1439C112.624 17.4656 112.441 17.9482 112.313 18.5917C112.045 18.9134 111.884 19.3746 111.83 19.9644C111.68 20.3398 111.573 20.683 111.465 21.0154C111.422 21.0476 111.39 21.0583 111.347 21.0905C110.275 21.1763 109.106 21.6267 107.851 22.4311C107.251 22.785 106.843 23.0531 106.618 23.2462L106.489 23.1818C105.738 22.2273 105.363 21.2728 105.363 20.3398C105.363 19.9859 105.738 19.7607 106.478 19.6534C106.564 19.6534 106.596 19.6856 106.607 19.7714C106.607 20.0609 106.521 20.4578 106.36 20.9511C106.478 21.1978 106.639 21.3264 106.854 21.3264C106.94 21.2835 107.004 21.2621 107.036 21.2621C107.369 21.2621 107.637 20.758 107.84 19.7714C107.84 19.1708 107.465 18.7954 106.725 18.656C106.21 18.7096 105.674 18.8383 105.106 19.0314C104.569 19.0421 104.269 19.514 104.183 20.4685C104.183 20.6079 104.205 20.7688 104.237 20.9296C104.183 21.112 104.13 21.2085 104.076 21.2085C103.036 22.3667 102.478 22.9566 102.414 22.9566C102.296 23.2033 102.167 23.3212 102.038 23.3212C100.655 24.5653 99.6791 25.198 99.1321 25.198H98.6388C98.3921 25.0693 98.2634 24.8334 98.2634 24.5224V23.836C98.2634 23.0102 98.6066 21.9378 99.3037 20.6079V20.4256C99.1964 20.2111 99.0356 20.1146 98.8104 20.1146H98.6817L98.1883 20.6722C97.8773 20.9618 97.6092 21.4122 97.3733 21.9914C95.8396 23.6001 94.6599 24.5331 93.8449 24.8012H93.5875C93.3837 24.8012 93.2765 24.7154 93.2765 24.5331C93.2765 24.0505 93.4588 23.3963 93.8449 22.5812C94.9602 20.876 95.5179 19.8036 95.5179 19.3638C95.3141 18.8383 95.0996 18.5809 94.8744 18.5809C94.7457 18.6131 94.6063 18.6238 94.4562 18.6238C93.9092 18.8812 93.1799 19.1172 92.2469 19.3317L91.8715 19.0743L91.0886 19.278H90.7133C90.4773 19.4389 90.3594 19.6105 90.3594 19.8036V19.8679L90.7133 20.2862C90.6597 20.4041 90.6275 20.4899 90.6275 20.5543C90.3272 20.7473 90.1663 20.9404 90.1449 21.1227C90.1771 21.1978 90.22 21.2514 90.2521 21.305C88.3753 23.3534 86.9811 24.5331 86.0588 24.8334H85.7907C85.5869 24.8334 85.4797 24.7476 85.4797 24.5653C85.4797 24.0827 85.662 23.4285 86.0481 22.6134C87.1634 20.9082 87.7211 19.8357 87.7211 19.396C87.5174 18.8705 87.3029 18.6131 87.0884 18.6131C86.9489 18.6453 86.8095 18.656 86.6594 18.656C86.1232 18.9134 85.3832 19.1494 84.4501 19.3638L84.0748 19.1065L83.2919 19.3102H82.9165C82.6806 19.4604 82.5626 19.6427 82.5626 19.8357V19.9001L82.9165 20.3183C82.8629 20.4256 82.8307 20.5221 82.8307 20.5757C82.5304 20.7795 82.3695 20.9725 82.3481 21.1549C82.3695 21.1978 82.391 21.2192 82.4017 21.2514C81.8977 21.5946 81.6403 21.8305 81.6403 21.9378C80.2782 23.5143 79.313 24.2972 78.7339 24.2972H78.3693C78.2406 24.3079 78.1333 24.1148 78.0475 23.7502V23.5572C78.0475 22.8279 78.3371 21.9378 78.9055 20.8867C78.9055 20.8438 78.884 20.8331 78.8411 20.8331C78.8411 20.4578 78.573 20.2754 78.0368 20.2754C77.5006 19.7821 77.018 19.5354 76.6104 19.5354C75.8597 19.5998 75.4951 19.707 75.4951 19.8465L73.7577 20.9725C72.0739 22.2059 71.2267 23.3856 71.2374 24.5117V24.6404C71.4626 25.509 71.9881 25.938 72.7925 25.938H72.9748C73.822 25.9273 75.0017 25.2838 76.5032 23.9969H76.6855V24.1256C77.1145 25.1122 77.758 25.6056 78.6159 25.6056C79.5704 25.5948 80.7287 24.694 82.0907 22.8922C82.4232 22.474 82.6806 22.0343 82.9058 21.5731C82.9916 21.5624 83.0881 21.5302 83.1846 21.4766C83.7101 20.7688 83.9997 20.4256 84.0319 20.4256L84.0855 20.4149C84.7504 20.4149 85.5119 20.1789 86.3484 19.7178H86.5629V19.7714C86.5629 19.9001 86.4556 20.1575 86.2411 20.565C85.8979 20.9725 85.7263 21.2192 85.7263 21.2943C84.8577 22.4633 84.3643 23.3856 84.2571 24.0505V24.4151L84.3214 24.5224C84.2785 24.5224 84.2356 24.5975 84.2142 24.7261C84.2356 24.7261 84.2571 24.7798 84.2571 24.887C84.5252 25.5519 85.0721 25.8844 85.8979 25.8844H86.1017C86.9275 25.5841 87.7426 25.0693 88.5362 24.3401C89.7266 23.1604 90.4023 22.3238 90.5524 21.8305C90.6489 21.7233 90.724 21.616 90.7991 21.5195C90.8527 21.5088 90.9171 21.4873 90.9814 21.4444C91.5069 20.7473 91.7965 20.3934 91.8286 20.3934H91.8823C92.5472 20.3827 93.3086 20.1467 94.1344 19.6856H94.3596V19.7392C94.3596 19.8679 94.2524 20.136 94.0379 20.5328C93.6947 20.9404 93.5231 21.187 93.5231 21.2621C92.6544 22.4418 92.1611 23.3534 92.0539 24.0183V24.383L92.1075 24.4902C92.0753 24.5009 92.0324 24.5653 92.0002 24.694C92.0324 24.694 92.0539 24.7476 92.0539 24.8548C92.322 25.5198 92.8689 25.8522 93.6947 25.8522H93.8985C94.7243 25.5519 95.5394 25.0372 96.3223 24.3079C96.526 24.1041 96.7083 23.9218 96.8799 23.7395C96.8692 23.8146 96.8478 23.8896 96.837 23.9647C96.8692 24.2114 96.9121 24.3401 96.9657 24.3401C96.9657 25.5734 97.695 26.2812 99.1428 26.4314L99.7648 26.3134C100.634 26.0774 101.685 25.3696 102.918 24.1899C103.604 23.3856 104.14 22.6134 104.527 21.8627C104.773 22.4525 105.159 23.1175 105.685 23.8682V23.9969L105.631 24.1148C104.226 25.198 103.304 26.0238 102.843 26.603C102.232 27.1392 101.92 27.5682 101.92 27.9114V28.2224C101.92 28.8015 102.489 29.1769 103.604 29.3377C104.527 29.1983 105.331 28.8444 106.017 28.2653C106.886 27.7076 107.444 26.9998 107.68 26.1525C107.68 25.4769 107.508 24.8548 107.176 24.2972L107.422 23.9861C109.127 23.0209 110.393 22.3131 111.229 21.8412C111.176 22.0664 111.122 22.2917 111.09 22.4954C111.09 22.5383 111.111 22.6027 111.154 22.6992C111.111 22.9673 111.09 23.1925 111.101 23.3641V23.8038L110.972 24.0183V24.147C111.101 24.3186 111.165 24.4902 111.165 24.6725V24.8227L111.101 24.9514C111.305 25.2409 111.412 25.4769 111.412 25.6592C111.809 26.1418 112.431 26.4421 113.289 26.5708C114.039 26.5601 114.929 26.1954 115.98 25.4661C116.517 25.1551 116.903 24.8656 117.16 24.5975C117.503 24.4473 118.018 24.0183 118.672 23.3105L118.694 23.525C119.133 24.8012 119.991 25.4447 121.268 25.434C121.504 25.3589 121.729 25.3267 121.933 25.3267C123.949 24.9192 125.482 23.6001 126.544 21.3586C126.576 21.3479 126.619 21.3264 126.662 21.305C127.188 20.5972 127.466 20.2433 127.509 20.2433H127.563C128.228 20.2433 128.979 20.0073 129.815 19.5462L130.04 19.5354V19.5998C130.04 19.7285 129.933 19.9859 129.719 20.3934C129.375 20.8009 129.204 21.0476 129.204 21.1227C128.335 22.2917 127.842 23.214 127.724 23.8789L127.735 24.2435L127.788 24.3508C127.745 24.3508 127.713 24.4259 127.681 24.5546C127.713 24.5546 127.735 24.6082 127.735 24.7154C128.003 25.3803 128.55 25.7128 129.375 25.7128H129.579C130.405 25.4125 131.209 24.8977 132.003 24.1685C133.204 22.9888 133.88 22.1522 134.03 21.6589C134.041 21.6482 134.051 21.6375 134.062 21.616C134.309 22.238 134.716 22.9459 135.274 23.7502V23.8789L135.22 23.9969C133.815 25.0801 132.882 25.9059 132.432 26.485C131.821 27.0212 131.51 27.4502 131.51 27.7934V28.1044C131.51 28.6835 132.078 29.0589 133.193 29.2198C134.116 29.0803 134.92 28.7264 135.606 28.1473C136.475 27.5896 137.033 26.8818 137.269 26.0345C137.269 25.3589 137.097 24.7369 136.765 24.1792L137.011 23.8682C138.792 22.8601 140.1 22.1201 140.937 21.6482C141.591 21.0691 141.998 20.7795 142.181 20.7795V20.5972L142.116 20.4685C141.837 20.4685 141.441 20.6401 140.937 20.9725C139.864 21.0583 138.695 21.5088 137.44 22.3131C136.84 22.667 136.432 22.9459 136.207 23.1282L136.078 23.0638C135.328 22.1093 134.952 21.1549 134.952 20.2218C134.952 19.8679 135.328 19.6427 136.068 19.5354C136.143 19.5354 136.186 19.5676 136.186 19.6534C136.196 19.943 136.111 20.3398 135.95 20.8331C136.057 21.0798 136.229 21.2085 136.443 21.2085C136.529 21.1656 136.593 21.1441 136.625 21.1441C136.958 21.1441 137.226 20.6401 137.43 19.6534C137.43 19.0528 137.054 18.6775 136.314 18.5381C135.8 18.5917 135.263 18.7204 134.695 18.9134C134.159 18.9241 133.858 19.396 133.773 20.3505C133.773 20.5543 133.805 20.7795 133.869 21.0262C133.848 21.0262 133.826 21.0369 133.805 21.0476C131.896 23.1496 130.469 24.3508 129.526 24.6618H129.268C129.054 24.6618 128.957 24.576 128.957 24.3937C128.957 23.9111 129.14 23.2569 129.526 22.4418C130.641 20.7366 131.199 19.6641 131.199 19.2244C130.984 18.6989 130.78 18.4415 130.555 18.4415C130.426 18.4737 130.287 18.4844 130.137 18.4844C129.59 18.7311 128.861 18.967 127.928 19.1923L127.552 18.9349L126.759 19.1386H126.394C126.158 19.2888 126.04 19.4711 126.04 19.6641V19.7285L126.394 20.1467C126.33 20.254 126.308 20.3505 126.308 20.4041C126.008 20.6079 125.847 20.8009 125.826 20.9833C125.836 21.0047 125.847 21.0262 125.858 21.0476C125.643 21.2943 125.472 21.5624 125.354 21.8198C124.346 23.0102 123.552 23.718 122.994 23.9111C122.426 24.1148 121.868 24.2435 121.3 24.3079C120.463 24.3079 120.045 24.0719 120.034 23.5893V23.3748L120.731 23.0531C121.386 22.9351 122.211 22.2809 123.22 21.1012C123.498 20.7044 123.638 20.2325 123.638 19.6641C123.327 19.3102 123.037 19.1386 122.78 19.1386C122.297 19.1386 121.664 19.4067 120.882 19.9537C120.721 20.0824 120.571 20.2111 120.42 20.3398C120.431 20.2647 120.453 20.2004 120.463 20.136L120.367 19.9966C119.67 21.0476 119.048 21.8627 118.511 22.4418C118.104 22.785 117.632 23.1175 117.096 23.4499C115.273 24.6725 114.018 25.2731 113.353 25.2838C112.763 25.2838 112.409 24.9835 112.313 24.3722L112.302 23.718C112.302 23.2033 112.366 22.6992 112.484 22.1951C112.441 22.1093 112.42 22.0343 112.42 21.9806C112.42 21.8627 112.806 20.6401 113.589 18.3343C114.243 17.0473 114.576 16.3502 114.565 16.243C114.865 15.7497 115.005 15.503 114.972 15.4923C119.144 15.0204 122.565 14.6986 125.247 14.5378L125.858 14.6128C125.965 14.6128 126.169 14.5592 126.48 14.452L126.855 14.527L128.979 14.3876C129.054 14.4305 129.15 14.4627 129.268 14.4627C129.654 14.3555 129.965 14.3018 130.201 14.3018H131.07L131.638 14.3555C131.638 14.3233 131.724 14.2804 131.874 14.216L132.185 14.2911L133.998 14.1517L134.298 14.2804C134.513 14.2375 134.695 14.2053 134.856 14.2053H135.102C135.993 14.2053 137.065 14.1517 138.341 14.0552C138.416 14.1088 138.481 14.1302 138.513 14.1302L139.371 13.905C139.65 14.0015 139.843 14.0444 139.928 14.0444H140.186C140.475 13.9479 140.636 13.905 140.679 13.905H141.044C141.237 13.905 141.387 13.9372 141.494 14.0123C141.494 13.9372 141.612 13.8943 141.859 13.8943C141.955 13.8943 142.041 13.9157 142.116 13.9586C142.32 13.9157 142.502 13.8943 142.663 13.8943H144.036L144.154 13.9479C144.647 13.712 144.937 13.594 145.012 13.594H145.076C145.205 13.594 145.334 13.6369 145.462 13.7334C145.516 13.7334 145.613 13.6584 145.741 13.5082H145.848C145.913 13.6155 146.235 13.712 146.814 13.7978C147.243 13.712 147.511 13.6584 147.618 13.6584L147.929 13.7227L148.165 13.5833L148.615 13.6584C148.733 13.6584 148.916 13.6262 149.162 13.5726C149.195 13.594 149.227 13.6047 149.259 13.6262L149.302 13.5404C149.355 13.5297 149.409 13.5189 149.484 13.4975C149.559 13.4975 149.602 13.4975 149.591 13.4975C149.774 13.4975 149.87 13.5189 149.87 13.5726C150.385 13.5297 150.685 13.4546 150.76 13.3473H150.889V13.4868H151.297C151.297 13.4331 151.297 13.3902 151.297 13.3366L151.65 13.4224C151.715 13.4224 151.811 13.3688 151.94 13.2723C152.058 13.2723 152.176 13.3044 152.315 13.3795C152.315 13.476 152.466 13.4439 152.744 13.2615H152.83C153.002 13.2615 153.227 13.2937 153.495 13.3366L153.742 13.1972C153.978 13.2401 154.171 13.2615 154.31 13.2615H154.621C154.643 13.2615 154.793 13.2186 155.039 13.1436V13.283H155.565V13.2508C155.586 13.2508 155.597 13.2508 155.619 13.2508L155.565 13.2079Z" fill="white"/>
<path d="M156.938 13.1113C156.959 13.1113 156.959 13.1542 156.97 13.2293L157.506 13.0898L156.777 13.1006L156.938 13.1113Z" fill="white"/>
<path d="M157.957 12.9414C157.753 12.9736 157.7 13.0487 157.807 13.1881H157.828C157.936 13.0808 157.979 13.0272 157.957 13.0272V12.9414Z" fill="white"/>
<path d="M158.268 13.0273V13.3598L158.546 13.3491V13.0273H158.268Z" fill="white"/>
<path d="M73.1357 32.2881H74.2511V32.5026L73.983 32.524L73.9401 32.5991L74.0902 34.4115L75.0554 32.2881H75.4737L75.7096 34.4544L76.514 32.5669L76.4818 32.5133L76.2244 32.4918V32.2773H77.1575V32.4918L76.8786 32.524L75.6989 35.2159H75.3021L75.0662 32.9637L74.0366 35.2266H73.6291L73.4146 32.5884L73.3717 32.5347L73.1357 32.5026V32.2881Z" fill="white"/>
<path d="M77.8551 32.0391C77.9409 32.0391 78.0159 32.0605 78.0696 32.1141C78.1232 32.157 78.1446 32.2321 78.1446 32.3179C78.1446 32.4037 78.1125 32.4895 78.0481 32.5431C77.9838 32.6075 77.9087 32.6396 77.8122 32.6396C77.7264 32.6396 77.662 32.6182 77.5977 32.5646C77.5441 32.5217 77.5226 32.4466 77.5226 32.3715C77.5226 32.275 77.5548 32.1999 77.6191 32.1356C77.6728 32.0712 77.7586 32.0391 77.8551 32.0391ZM77.7693 33.0472H77.9623L77.6942 34.5272C77.6835 34.5701 77.6728 34.613 77.6728 34.6451C77.6728 34.6666 77.662 34.6988 77.662 34.7095C77.6728 34.7953 77.6835 34.8596 77.7264 34.8918C77.7586 34.9347 77.8122 34.9562 77.8872 34.9562C77.9194 34.9562 77.9516 34.9562 78.0052 34.9347C78.0588 34.924 78.1125 34.9133 78.1875 34.8811V35.0741C78.0374 35.1385 77.898 35.1814 77.78 35.2028C77.662 35.235 77.5441 35.2457 77.4368 35.2457C77.3296 35.2457 77.2545 35.2243 77.2009 35.1599C77.1365 35.1063 77.1151 35.0205 77.1151 34.9025C77.1151 34.8704 77.1151 34.8382 77.1258 34.7953C77.1258 34.7524 77.1365 34.688 77.1472 34.6022L77.3832 33.4225L77.0293 33.3689L77.0186 33.2188L77.7693 33.0472Z" fill="white"/>
<path d="M79.1205 32.5781H79.3993L79.3028 33.1358H79.9034V33.3825H79.2599L79.0669 34.4549C79.0561 34.5086 79.0454 34.5407 79.0454 34.5836C79.0454 34.6158 79.0347 34.648 79.0347 34.6801C79.0347 34.7767 79.0561 34.841 79.1098 34.8946C79.1527 34.9375 79.217 34.959 79.3028 34.959C79.3457 34.959 79.3993 34.9483 79.4637 34.9375C79.528 34.9268 79.6031 34.9054 79.6782 34.8732V35.0555C79.4959 35.1199 79.3457 35.1735 79.217 35.1949C79.099 35.2271 79.0025 35.2486 78.9274 35.2486C78.788 35.2486 78.6808 35.2057 78.6057 35.1413C78.5414 35.0662 78.4985 34.9697 78.4985 34.8303C78.4985 34.7874 78.4985 34.7338 78.5092 34.6909C78.5092 34.648 78.5199 34.5944 78.5306 34.5407L78.7451 33.3932L78.4556 33.4039V33.2431L78.8309 33.0607L79.1205 32.5781Z" fill="white"/>
<path d="M80.933 31.9766H81.1368C81.1046 32.0838 81.0832 32.2018 81.051 32.3197C81.0295 32.4484 80.9974 32.5771 80.9759 32.7273L80.8258 33.4673C80.9974 33.3171 81.1582 33.2099 81.2976 33.1455C81.4371 33.0705 81.5658 33.0276 81.673 33.0276C81.791 33.0276 81.8982 33.0705 81.9733 33.1455C82.0484 33.2206 82.0913 33.3171 82.0913 33.4458C82.0913 33.4887 82.0805 33.5424 82.0805 33.596C82.0698 33.6603 82.0591 33.7247 82.0484 33.7997L81.9089 34.411C81.8982 34.4861 81.8875 34.5612 81.8768 34.6041C81.8768 34.6577 81.866 34.7006 81.866 34.7328C81.866 34.8079 81.8875 34.8615 81.9197 34.9044C81.9518 34.9473 81.9947 34.9687 82.0484 34.9687C82.0913 34.9687 82.1342 34.958 82.1878 34.9473C82.2307 34.9366 82.2843 34.9258 82.3379 34.9044V35.076C82.1985 35.1296 82.0805 35.1618 81.9626 35.1939C81.8553 35.2154 81.7588 35.2368 81.6837 35.2368C81.5658 35.2368 81.48 35.2047 81.4156 35.151C81.362 35.0974 81.3298 35.0224 81.3298 34.9151C81.3298 34.8829 81.3298 34.8508 81.3298 34.8079C81.3405 34.7757 81.3513 34.7221 81.362 34.6792L81.5121 33.9499C81.5229 33.8855 81.5336 33.8319 81.5443 33.7783C81.5443 33.7354 81.555 33.6925 81.555 33.6603C81.555 33.5745 81.5336 33.5209 81.5014 33.4673C81.4585 33.4244 81.4049 33.4029 81.3405 33.4029C81.2762 33.4029 81.1904 33.4351 81.0939 33.4887C80.9974 33.5316 80.9008 33.6067 80.7936 33.7032L80.5255 35.1939H79.9785L80.5469 32.3519L80.1608 32.2983V32.1482L80.933 31.9766Z" fill="white"/>
<path d="M85.4366 32.5664L85.072 32.1803C85.0076 32.2554 84.9433 32.3734 84.8897 32.5342C84.836 32.6951 84.7931 32.8989 84.7502 33.1348H85.3401V33.3922H84.7073L84.5572 34.5397C84.525 34.7542 84.4821 34.9366 84.4392 35.0867C84.3856 35.2476 84.3213 35.387 84.2462 35.505C84.1282 35.698 83.9888 35.8481 83.8386 35.9554C83.6885 36.0626 83.5491 36.1163 83.4097 36.1163C83.3239 36.1163 83.2488 36.0948 83.1952 36.0412C83.1308 35.9876 83.1094 35.9232 83.1094 35.8481C83.1094 35.7838 83.1201 35.7302 83.1523 35.6766C83.1737 35.6337 83.2273 35.6015 83.281 35.5693L83.7421 35.816C83.8065 35.7409 83.8494 35.6337 83.8923 35.4728C83.9352 35.3226 83.9781 35.076 84.0317 34.7328L84.214 33.3922L83.9137 33.4351L83.9244 33.2421L84.2569 33.0919C84.3213 32.7595 84.4392 32.4913 84.6323 32.2876C84.836 32.0838 85.0505 31.9766 85.2865 31.9766C85.4152 31.9766 85.5117 31.998 85.5975 32.0624C85.6726 32.116 85.7155 32.1911 85.7155 32.2769C85.7155 32.3412 85.694 32.4055 85.6404 32.4592C85.5868 32.5021 85.5224 32.545 85.4366 32.5664Z" fill="white"/>
<path d="M86.6282 33.2301C86.6282 33.2301 86.6174 33.2301 86.6067 33.2194C86.596 33.2194 86.5853 33.2194 86.5745 33.2194C86.36 33.2194 86.1884 33.3266 86.049 33.5519C85.8989 33.7663 85.8345 34.0345 85.8345 34.3562C85.8345 34.5171 85.856 34.6458 85.9203 34.7316C85.974 34.8174 86.0598 34.8603 86.167 34.8603C86.2313 34.8603 86.2957 34.8388 86.3708 34.8066C86.4458 34.7745 86.5209 34.7208 86.6067 34.6565L86.8105 33.4875L86.6282 33.2301ZM87.1644 33.0156H87.4218C87.4111 33.0692 87.3896 33.155 87.3574 33.273C87.336 33.391 87.3038 33.5304 87.2824 33.6806L87.1537 34.3884C87.1429 34.4634 87.1322 34.5278 87.1215 34.5814C87.1108 34.6243 87.1108 34.6672 87.1108 34.6994C87.1108 34.7745 87.1322 34.8281 87.1644 34.871C87.1966 34.9139 87.2502 34.9353 87.2931 34.9353C87.336 34.9353 87.3896 34.9246 87.4325 34.9246C87.4861 34.9139 87.529 34.8924 87.5826 34.8817V35.0533C87.4325 35.1069 87.3038 35.1498 87.1966 35.1713C87.0893 35.1927 87.0035 35.2142 86.9284 35.2142C86.8212 35.2142 86.7354 35.182 86.6818 35.1284C86.6282 35.064 86.596 34.989 86.596 34.8817V34.8603C86.478 34.9782 86.36 35.064 86.2421 35.1284C86.1241 35.182 86.0169 35.2142 85.9096 35.2142C85.7058 35.2142 85.5557 35.1498 85.4377 35.0104C85.3305 34.8603 85.2769 34.6672 85.2769 34.4205C85.2769 34.2597 85.2983 34.1095 85.3412 33.9701C85.3841 33.82 85.4484 33.6806 85.5342 33.5411C85.6415 33.3803 85.7809 33.2516 85.9525 33.155C86.1241 33.0585 86.3064 33.0156 86.4995 33.0156C86.5745 33.0156 86.6603 33.0263 86.7461 33.0371C86.8319 33.0585 86.9177 33.08 87.0035 33.1229L87.1644 33.0156Z" fill="white"/>
<path d="M88.6437 31.9961C88.7295 31.9961 88.8045 32.0175 88.8582 32.0712C88.9118 32.1141 88.9332 32.1891 88.9332 32.2749C88.9332 32.3607 88.9118 32.4465 88.8474 32.5002C88.7831 32.5645 88.6973 32.5967 88.6115 32.5967C88.515 32.5967 88.4506 32.5752 88.3863 32.5216C88.3327 32.4787 88.3112 32.4036 88.3112 32.3286C88.3112 32.232 88.3434 32.157 88.4077 32.0926C88.4721 32.0283 88.5471 31.9961 88.6437 31.9961ZM88.5579 33.0042H88.7509L88.4828 34.4842C88.4721 34.5271 88.4613 34.57 88.4613 34.6022C88.4613 34.6236 88.4613 34.6558 88.4613 34.6665C88.4613 34.7523 88.4721 34.8167 88.515 34.8488C88.5471 34.8917 88.6008 34.9132 88.6758 34.9132C88.708 34.9132 88.7509 34.9132 88.7938 34.8917C88.8474 34.881 88.9118 34.8703 88.9761 34.8381V35.0312C88.826 35.0955 88.6973 35.1384 88.5686 35.1599C88.4506 35.192 88.3327 35.2028 88.2254 35.2028C88.1182 35.2028 88.0431 35.1813 87.9895 35.117C87.9358 35.0633 87.9037 34.9775 87.9037 34.8596C87.9037 34.8274 87.9037 34.7952 87.9144 34.7523C87.9144 34.7094 87.9251 34.6451 87.9466 34.5593L88.1718 33.3796L87.8179 33.3259V33.1758L88.5579 33.0042Z" fill="white"/>
<path d="M89.9091 32.5352H90.1879L90.0914 33.0928H90.692V33.3395H90.0485L89.8554 34.412C89.8447 34.4656 89.834 34.4978 89.834 34.5407C89.834 34.5728 89.8233 34.605 89.8233 34.6372C89.834 34.7337 89.8554 34.798 89.8983 34.8517C89.9412 34.8946 90.0056 34.916 90.0914 34.916C90.1343 34.916 90.1879 34.9053 90.2523 34.8946C90.3166 34.8838 90.3917 34.8624 90.4667 34.8302V35.0125C90.2844 35.0769 90.1343 35.1305 90.0056 35.152C89.8876 35.1841 89.7911 35.2056 89.716 35.2056C89.5766 35.2056 89.4694 35.1627 89.3943 35.0983C89.3299 35.0233 89.287 34.9267 89.287 34.7873C89.287 34.7444 89.2978 34.6908 89.2978 34.6479C89.2978 34.605 89.3085 34.5514 89.3192 34.4978L89.5337 33.3502L89.2441 33.361V33.2001L89.6195 33.0178L89.9091 32.5352Z" fill="white"/>
<path d="M91.7216 31.9336H91.9253C91.8932 32.0408 91.8717 32.1588 91.8396 32.2768C91.8181 32.4055 91.7967 32.5342 91.7645 32.6843L91.6143 33.4243C91.7967 33.2742 91.9468 33.1669 92.0862 33.1026C92.2256 33.0275 92.3543 32.9846 92.4616 32.9846C92.5903 32.9846 92.6868 33.0275 92.7619 33.1026C92.8369 33.1776 92.8798 33.2742 92.8798 33.4029C92.8798 33.4458 92.8798 33.4994 92.8691 33.553C92.8584 33.6174 92.8477 33.6817 92.8369 33.7568L92.7082 34.3681C92.6868 34.4432 92.6761 34.5182 92.6653 34.5611C92.6653 34.6147 92.6546 34.6576 92.6546 34.6898C92.6546 34.7649 92.6761 34.8185 92.7082 34.8614C92.7511 34.9043 92.794 34.9258 92.8477 34.9258C92.8798 34.9258 92.9335 34.915 92.9764 34.9043C93.0193 34.8936 93.0729 34.8829 93.1265 34.8614V35.033C92.9871 35.0866 92.8691 35.1188 92.7619 35.151C92.6439 35.1724 92.5581 35.1939 92.4723 35.1939C92.3543 35.1939 92.2685 35.1617 92.2042 35.1081C92.1506 35.0545 92.1184 34.9794 92.1184 34.8721C92.1184 34.84 92.1184 34.8078 92.1291 34.7649C92.1291 34.7327 92.1398 34.6791 92.1506 34.6362L92.3007 33.9069C92.3222 33.8426 92.3222 33.789 92.3329 33.7353C92.3436 33.6924 92.3436 33.6495 92.3436 33.6174C92.3436 33.5316 92.3222 33.4779 92.29 33.4243C92.2471 33.3814 92.2042 33.36 92.1291 33.36C92.0648 33.3707 91.979 33.3921 91.8932 33.4458C91.7967 33.4887 91.6894 33.5637 91.5822 33.6603L91.314 35.151H90.7671L91.3355 32.309L90.9494 32.2553V32.1052L91.7216 31.9336Z" fill="white"/>
<path d="M95.5182 31.9648C95.604 31.9648 95.679 31.9863 95.7327 32.0399C95.7863 32.0935 95.8077 32.1579 95.8077 32.2437C95.8077 32.3402 95.7756 32.4153 95.7112 32.4796C95.6469 32.544 95.5718 32.5761 95.4753 32.5761C95.3895 32.5761 95.3144 32.544 95.2608 32.5011C95.2071 32.4475 95.175 32.3831 95.175 32.2973C95.175 32.2008 95.2071 32.1257 95.2715 32.0614C95.3358 31.997 95.4216 31.9648 95.5182 31.9648ZM95.4324 32.9837H95.6254L95.3466 34.453C95.3466 34.5066 95.3358 34.5387 95.3358 34.5709C95.3251 34.6031 95.3251 34.6245 95.3251 34.646C95.3251 34.7211 95.3466 34.7854 95.3787 34.8283C95.4216 34.8712 95.4753 34.8927 95.5396 34.8927C95.5718 34.8927 95.6147 34.8819 95.6683 34.8712C95.7219 34.8605 95.7756 34.839 95.8399 34.8176V35.0106C95.7005 35.0643 95.5611 35.1072 95.4431 35.1393C95.3251 35.1608 95.2071 35.1822 95.0999 35.1822C94.9927 35.1822 94.9069 35.1501 94.8532 35.0964C94.7996 35.0321 94.7782 34.9463 94.7782 34.839C94.7782 34.8069 94.7782 34.764 94.7782 34.7318C94.7889 34.6782 94.7996 34.6245 94.8103 34.5387L95.0463 33.359L94.6816 33.3054V33.1445L95.4324 32.9837Z" fill="white"/>
<path d="M96.8269 32.9727H96.9985L96.9127 33.4124C97.095 33.2515 97.2558 33.1442 97.3953 33.0799C97.5347 33.0048 97.6634 32.9727 97.7813 32.9727C97.8993 32.9727 97.9958 33.0048 98.0709 33.0906C98.146 33.1657 98.1889 33.2729 98.1889 33.4016C98.1889 33.4338 98.1782 33.4874 98.1782 33.5411C98.1674 33.6054 98.1567 33.6698 98.1353 33.7448L98.0066 34.3454C97.9958 34.4312 97.9851 34.4955 97.9744 34.5492C97.9637 34.6028 97.9637 34.6457 97.9637 34.6779C97.9637 34.7422 97.9851 34.7958 98.0173 34.8387C98.0495 34.8816 98.0924 34.9031 98.146 34.9031C98.1889 34.9031 98.2318 34.8924 98.2854 34.8816C98.3283 34.8709 98.3819 34.8602 98.4355 34.8387V35.0103C98.3069 35.064 98.1889 35.0961 98.0709 35.1283C97.9637 35.1498 97.8564 35.1712 97.7813 35.1712C97.6634 35.1712 97.5776 35.139 97.5132 35.0854C97.4596 35.0318 97.4274 34.9567 97.4274 34.8495C97.4274 34.828 97.4274 34.7958 97.4274 34.7637C97.4382 34.7315 97.4489 34.6779 97.4596 34.6135L97.6098 33.8842C97.6205 33.8199 97.6312 33.7663 97.6419 33.7127C97.6419 33.6698 97.6527 33.6269 97.6527 33.5947C97.6527 33.5196 97.6312 33.4553 97.5883 33.4124C97.5561 33.3695 97.5025 33.348 97.4274 33.348C97.3631 33.348 97.288 33.3695 97.1915 33.4231C97.095 33.466 96.9985 33.5411 96.8912 33.6376L96.6338 35.1283H96.0761L96.4193 33.3587L96.0654 33.3051L96.0547 33.155L96.8269 32.9727Z" fill="white"/>
<path d="M102.714 32.2566L102.586 33.0073H102.275V32.5247L102.221 32.4389C102.167 32.4175 102.114 32.4068 102.071 32.4068C102.017 32.396 101.974 32.3853 101.931 32.3853C101.771 32.3853 101.62 32.4175 101.492 32.4604C101.352 32.514 101.234 32.5891 101.127 32.6856C100.966 32.825 100.848 33.0073 100.752 33.2325C100.666 33.447 100.623 33.683 100.623 33.9404C100.623 34.2299 100.709 34.4659 100.859 34.6267C101.02 34.7983 101.234 34.8841 101.502 34.8841C101.524 34.8841 101.556 34.8841 101.599 34.8734C101.631 34.8734 101.674 34.8734 101.728 34.8627L101.889 33.9725L101.846 33.9082L101.545 33.8867V33.6723L102.779 33.6615V33.876L102.511 33.9082L102.446 33.9618L102.253 34.9699C102.082 35.0343 101.91 35.0772 101.749 35.1094C101.588 35.1415 101.427 35.1523 101.277 35.1523C100.902 35.163 100.591 35.045 100.366 34.8305C100.13 34.6053 100.022 34.305 100.022 33.9296C100.022 33.6401 100.076 33.3612 100.205 33.1146C100.323 32.8572 100.505 32.6534 100.73 32.4818C100.891 32.3639 101.073 32.2781 101.267 32.2137C101.46 32.1494 101.653 32.1172 101.867 32.1172C102.017 32.1172 102.167 32.1279 102.307 32.1494C102.457 32.1815 102.586 32.2137 102.714 32.2566Z" fill="white"/>
<path d="M104.119 33.1773C103.958 33.1773 103.819 33.2846 103.701 33.4991C103.583 33.7136 103.529 33.9817 103.529 34.3034C103.529 34.5072 103.562 34.6573 103.626 34.7646C103.69 34.8611 103.776 34.9147 103.905 34.9147C104.066 34.9147 104.216 34.8075 104.334 34.593C104.452 34.3785 104.505 34.1104 104.505 33.7994C104.505 33.5849 104.473 33.4347 104.409 33.3275C104.344 33.2202 104.248 33.1773 104.119 33.1773ZM104.173 32.9414C104.452 32.9414 104.666 33.0272 104.827 33.1881C104.988 33.3489 105.063 33.5634 105.074 33.8423C105.074 34.0139 105.042 34.1962 104.966 34.3571C104.902 34.5179 104.816 34.6681 104.688 34.7968C104.58 34.904 104.462 34.9898 104.312 35.0542C104.173 35.1185 104.023 35.14 103.851 35.14C103.583 35.1507 103.368 35.0649 103.208 34.904C103.047 34.7431 102.961 34.5179 102.961 34.2391C102.961 34.0675 102.993 33.9066 103.057 33.735C103.133 33.5742 103.218 33.424 103.336 33.306C103.454 33.1881 103.572 33.1023 103.722 33.0379C103.862 32.9736 104.023 32.9414 104.173 32.9414Z" fill="white"/>
<path d="M106.736 33.122C106.703 33.122 106.693 33.122 106.682 33.122C106.66 33.122 106.65 33.122 106.65 33.122C106.457 33.122 106.296 33.2292 106.146 33.4652C105.996 33.6904 105.92 33.9585 105.92 34.2695C105.931 34.4304 105.953 34.5591 106.017 34.6449C106.071 34.7414 106.156 34.7843 106.264 34.7843C106.328 34.7843 106.403 34.7628 106.489 34.7199C106.564 34.677 106.65 34.6127 106.736 34.5376L106.918 33.3901L106.736 33.122ZM107.497 31.8672H107.679L107.283 34.3124C107.272 34.3982 107.261 34.4625 107.261 34.5162C107.25 34.5698 107.25 34.602 107.25 34.6341C107.25 34.6985 107.261 34.7521 107.304 34.795C107.336 34.8379 107.379 34.8594 107.433 34.8594C107.476 34.8486 107.518 34.8486 107.572 34.8379C107.615 34.8272 107.669 34.8165 107.722 34.795V34.9666C107.572 35.0202 107.443 35.0631 107.336 35.0953C107.229 35.1167 107.132 35.1275 107.057 35.1275C106.939 35.1275 106.854 35.106 106.789 35.0417C106.736 34.988 106.703 34.8915 106.703 34.7736V34.7628C106.585 34.8808 106.467 34.9773 106.349 35.0417C106.232 35.106 106.114 35.1382 105.996 35.1382C105.813 35.1382 105.663 35.0631 105.545 34.913C105.438 34.7628 105.374 34.5698 105.374 34.3231C105.374 34.173 105.395 34.0336 105.438 33.8834C105.47 33.744 105.534 33.6153 105.609 33.4866C105.727 33.3043 105.878 33.1649 106.049 33.0683C106.221 32.9718 106.414 32.9182 106.628 32.9182C106.682 32.9182 106.736 32.9289 106.8 32.9396C106.854 32.9504 106.918 32.9718 106.982 32.9933L107.111 32.2425L106.736 32.1889V32.0388L107.497 31.8672Z" fill="white"/>
<path d="M110.532 33.1364C110.521 33.1364 110.521 33.1364 110.51 33.1364C110.489 33.1256 110.478 33.1256 110.478 33.1256C110.264 33.1256 110.092 33.2436 109.942 33.4581C109.803 33.6726 109.728 33.9407 109.728 34.2625C109.728 34.434 109.76 34.552 109.813 34.6378C109.878 34.7236 109.953 34.7665 110.071 34.7665C110.135 34.7665 110.199 34.7558 110.275 34.7129C110.339 34.6807 110.425 34.6271 110.51 34.5627L110.704 33.3938L110.532 33.1364ZM111.068 32.9219H111.326C111.304 32.9755 111.283 33.0613 111.261 33.1793C111.229 33.308 111.208 33.4367 111.175 33.5868L111.047 34.3053C111.036 34.3697 111.036 34.434 111.025 34.4877C111.015 34.5413 111.015 34.5842 111.015 34.6056C111.015 34.6807 111.036 34.7343 111.068 34.7772C111.1 34.8201 111.143 34.8416 111.197 34.8416C111.24 34.8416 111.283 34.8416 111.336 34.8309C111.379 34.8201 111.433 34.8094 111.486 34.788V34.9595C111.336 35.0132 111.197 35.0561 111.1 35.0775C110.993 35.1097 110.907 35.1204 110.832 35.1204C110.725 35.1204 110.639 35.0882 110.586 35.0346C110.532 34.981 110.5 34.8952 110.5 34.788V34.7665C110.382 34.8845 110.264 34.9703 110.146 35.0346C110.028 35.0882 109.91 35.1204 109.803 35.1204C109.61 35.1204 109.449 35.0561 109.342 34.9167C109.234 34.7772 109.17 34.5842 109.17 34.3268C109.17 34.1659 109.191 34.0158 109.234 33.8764C109.277 33.7262 109.342 33.5868 109.427 33.4581C109.535 33.2865 109.674 33.1578 109.846 33.0613C110.017 32.9755 110.199 32.9219 110.403 32.9219C110.478 32.9219 110.564 32.9326 110.65 32.954C110.725 32.9648 110.811 32.9969 110.907 33.0291L111.068 32.9219Z" fill="white"/>
<path d="M112.474 32.9102H112.645L112.56 33.3499C112.742 33.1997 112.903 33.0817 113.042 33.0174C113.182 32.9423 113.31 32.9102 113.428 32.9102C113.546 32.9102 113.643 32.9531 113.718 33.0281C113.793 33.1032 113.825 33.2104 113.825 33.3391C113.825 33.382 113.825 33.4249 113.814 33.4893C113.804 33.5429 113.793 33.6073 113.782 33.6823L113.654 34.2829C113.632 34.3687 113.621 34.433 113.611 34.4867C113.611 34.5403 113.6 34.5832 113.6 34.6154C113.6 34.6797 113.621 34.7333 113.654 34.7762C113.696 34.8191 113.739 34.8406 113.793 34.8406C113.836 34.8406 113.879 34.8299 113.922 34.8191C113.975 34.8084 114.018 34.7977 114.072 34.7762L114.083 34.9478C113.943 35.0015 113.825 35.0444 113.718 35.0658C113.6 35.098 113.503 35.1087 113.418 35.1087C113.3 35.1087 113.214 35.0873 113.16 35.0336C113.096 34.98 113.064 34.8942 113.064 34.7977C113.064 34.7655 113.074 34.7333 113.074 34.7012C113.074 34.669 113.085 34.6154 113.096 34.551L113.257 33.8217C113.267 33.7574 113.278 33.7038 113.278 33.6609C113.289 33.6073 113.289 33.5644 113.289 33.5322C113.289 33.4571 113.267 33.3928 113.235 33.3499C113.192 33.307 113.139 33.2855 113.074 33.2855C113.01 33.2855 112.924 33.307 112.838 33.3606C112.742 33.4142 112.635 33.4786 112.527 33.5751L112.281 35.0658L111.723 35.0765L112.066 33.2962L111.702 33.2533V33.0925L112.474 32.9102Z" fill="white"/>
<path d="M115.659 33.0907C115.637 33.0907 115.627 33.0907 115.605 33.08C115.595 33.08 115.584 33.08 115.573 33.08C115.391 33.08 115.219 33.198 115.08 33.4232C114.93 33.6591 114.855 33.9272 114.855 34.2382C114.855 34.3991 114.887 34.5278 114.951 34.6136C115.005 34.7101 115.091 34.753 115.198 34.753C115.262 34.753 115.337 34.7316 115.412 34.6887C115.498 34.6458 115.584 34.5814 115.67 34.5064L115.852 33.3588L115.659 33.0907ZM116.431 31.8359H116.613L116.217 34.2811C116.206 34.3562 116.195 34.4313 116.184 34.4742C116.184 34.5278 116.184 34.5707 116.184 34.5922C116.184 34.6672 116.195 34.7209 116.238 34.753C116.27 34.7959 116.313 34.8174 116.367 34.8174C116.41 34.8174 116.453 34.8174 116.495 34.8067C116.549 34.7959 116.603 34.7852 116.656 34.7638V34.9353C116.506 34.989 116.377 35.0319 116.27 35.0533C116.163 35.0855 116.066 35.0962 115.991 35.0962C115.873 35.0962 115.788 35.064 115.723 35.0104C115.67 34.9568 115.637 34.8603 115.637 34.7423V34.7209C115.519 34.8496 115.391 34.9461 115.273 35.0104C115.155 35.064 115.048 35.0962 114.93 35.0962C114.747 35.0962 114.597 35.0319 114.479 34.8817C114.361 34.7316 114.308 34.5385 114.308 34.2919C114.308 34.1417 114.329 33.9916 114.361 33.8522C114.404 33.7127 114.468 33.5733 114.544 33.4554C114.662 33.273 114.801 33.1336 114.983 33.0371C115.155 32.9406 115.348 32.8869 115.562 32.8869C115.616 32.8869 115.67 32.8977 115.734 32.9084C115.788 32.9191 115.852 32.9406 115.916 32.962L116.034 32.2113L115.67 32.1577V32.0075L116.431 31.8359Z" fill="white"/>
<path d="M119.069 31.8242H119.252L118.833 33.9155L119.402 33.3149C119.563 33.1433 119.681 33.0361 119.777 32.9718C119.874 32.9074 119.959 32.8752 120.034 32.8752C120.11 32.8752 120.174 32.9074 120.228 32.961C120.281 33.0146 120.303 33.0897 120.303 33.1755C120.303 33.2613 120.27 33.3364 120.217 33.4007C120.152 33.4651 120.067 33.5187 119.949 33.5509L119.788 33.2935C119.702 33.3686 119.627 33.4329 119.552 33.4865C119.477 33.5509 119.423 33.5938 119.391 33.6367C119.412 33.6796 119.434 33.7332 119.466 33.7975C119.756 34.4732 119.992 34.8164 120.185 34.8164C120.206 34.8164 120.228 34.8164 120.27 34.8057C120.303 34.7949 120.345 34.7842 120.399 34.7628V34.9451C120.26 34.988 120.131 35.0202 120.034 35.0416C119.927 35.0738 119.841 35.0845 119.777 35.0845C119.67 35.0845 119.573 35.0523 119.509 34.988C119.434 34.9236 119.359 34.7949 119.273 34.6019L119.005 33.9584L118.801 34.1836L118.651 35.0416H118.125L118.672 32.1781L118.276 32.146V31.9958L119.069 31.8242Z" fill="white"/>
<path d="M121.343 32.8789H121.515L121.429 33.3079C121.622 33.1577 121.783 33.0505 121.922 32.9862C122.062 32.9111 122.19 32.8789 122.308 32.8789C122.415 32.8789 122.512 32.9111 122.587 32.9969C122.662 33.0719 122.705 33.1792 122.705 33.3079C122.705 33.3401 122.705 33.3937 122.694 33.4473C122.684 33.5117 122.673 33.576 122.651 33.6511L122.533 34.2517C122.512 34.3375 122.501 34.4018 122.491 34.4554C122.48 34.509 122.48 34.5519 122.48 34.5841C122.48 34.6485 122.501 34.7021 122.533 34.745C122.566 34.7879 122.608 34.8093 122.662 34.8093C122.705 34.8093 122.748 34.7986 122.802 34.7879C122.844 34.7772 122.898 34.7664 122.952 34.745V34.9166C122.823 34.9702 122.705 35.0024 122.587 35.0346C122.48 35.056 122.383 35.0774 122.297 35.0774C122.18 35.0774 122.094 35.0453 122.029 34.9917C121.976 34.938 121.944 34.863 121.944 34.7557C121.944 34.7343 121.944 34.7021 121.954 34.6699C121.954 34.6377 121.965 34.5841 121.976 34.5198L122.126 33.7905C122.137 33.7261 122.147 33.6725 122.158 33.6189C122.169 33.576 122.169 33.5331 122.169 33.5009C122.169 33.4259 122.147 33.3615 122.104 33.3186C122.072 33.2757 122.019 33.2435 121.954 33.2435C121.879 33.2543 121.804 33.2757 121.708 33.3293C121.622 33.3722 121.515 33.4473 121.407 33.5438L121.15 35.0346H120.603L120.946 33.265L120.582 33.2114V33.0612L121.343 32.8789Z" fill="white"/>
<path d="M124.335 33.0924C124.163 33.0924 124.024 33.1997 123.906 33.4141C123.799 33.6394 123.734 33.9075 123.734 34.2292C123.734 34.433 123.767 34.5831 123.831 34.6796C123.895 34.7869 123.992 34.8405 124.11 34.8405C124.281 34.8405 124.421 34.7333 124.539 34.5188C124.657 34.3043 124.721 34.0362 124.71 33.7144C124.71 33.5107 124.678 33.3498 124.614 33.2533C124.56 33.146 124.464 33.0924 124.335 33.0924ZM124.389 32.8672C124.657 32.8672 124.882 32.9423 125.032 33.1031C125.193 33.264 125.279 33.4892 125.279 33.7573C125.279 33.9396 125.247 34.1112 125.182 34.2721C125.118 34.4437 125.021 34.5831 124.903 34.7118C124.796 34.8298 124.667 34.9156 124.528 34.9692C124.378 35.0336 124.228 35.0657 124.067 35.0657C123.788 35.0657 123.574 34.9907 123.413 34.8191C123.252 34.6582 123.177 34.4437 123.177 34.1649C123.177 33.9933 123.209 33.8217 123.273 33.6608C123.338 33.4892 123.434 33.3498 123.552 33.2211C123.659 33.1139 123.788 33.0173 123.927 32.9637C124.078 32.8994 124.228 32.8672 124.389 32.8672Z" fill="white"/>
<path d="M126.104 32.8545H126.308L126.405 34.4524C126.566 34.1307 126.716 33.8626 126.834 33.6159C126.952 33.38 127.059 33.1548 127.145 32.951L127.563 32.9188C127.574 33.1333 127.584 33.3907 127.606 33.6695C127.617 33.9591 127.638 34.2594 127.66 34.5919C127.82 34.3881 127.949 34.2058 128.046 34.0449C128.153 33.8733 128.228 33.7339 128.271 33.6159L128.164 32.9617C128.206 32.9295 128.249 32.8974 128.292 32.8759C128.335 32.8545 128.389 32.8438 128.432 32.8438C128.517 32.8438 128.593 32.8759 128.646 32.9295C128.7 32.9832 128.721 33.0582 128.721 33.1548C128.721 33.3049 128.646 33.5194 128.485 33.7875C128.324 34.0664 128.024 34.4632 127.595 35.0101H127.22L127.134 33.498C126.995 33.7768 126.855 34.0342 126.716 34.2916C126.587 34.5382 126.448 34.7849 126.319 35.0101H125.911L125.944 34.8814L125.847 33.2191L125.482 33.1655V33.0261L126.104 32.8545Z" fill="white"/>
<path d="M129.451 32.1605L129.097 32.1069V31.9567L129.837 31.7852H130.031L129.591 34.2196C129.559 34.3805 129.548 34.4878 129.548 34.5414C129.548 34.6057 129.559 34.6594 129.591 34.7022C129.623 34.7451 129.666 34.7666 129.72 34.7666C129.773 34.7666 129.827 34.7559 129.891 34.7451C129.945 34.7344 130.009 34.713 130.073 34.6915V34.8738C129.913 34.9275 129.773 34.9704 129.666 35.0025C129.548 35.0347 129.462 35.0454 129.387 35.0454C129.269 35.0454 129.173 35.024 129.108 34.9596C129.033 34.906 129.001 34.8309 129.001 34.7237C129.001 34.6808 129.012 34.6057 129.033 34.4985V34.4878L129.451 32.1605Z" fill="white"/>
<path d="M130.845 33.8197C131.07 33.809 131.263 33.7553 131.402 33.6481C131.553 33.5408 131.628 33.4229 131.628 33.2835C131.628 33.2191 131.606 33.1655 131.574 33.1226C131.531 33.0797 131.478 33.069 131.413 33.069C131.295 33.069 131.188 33.1333 131.081 33.262C130.984 33.4014 130.898 33.5837 130.845 33.8197ZM130.813 34.002L130.802 34.0127C130.802 34.0664 130.802 34.1093 130.802 34.1307C130.802 34.3237 130.845 34.4632 130.92 34.5597C131.006 34.6562 131.124 34.7098 131.274 34.7098C131.37 34.7098 131.478 34.6777 131.585 34.624C131.703 34.5704 131.821 34.4953 131.949 34.3988V34.6669C131.799 34.7849 131.638 34.8814 131.488 34.9458C131.338 34.9994 131.188 35.0316 131.049 35.0316C130.813 35.0423 130.62 34.9672 130.48 34.8171C130.341 34.6669 130.276 34.4632 130.276 34.2058C130.276 34.002 130.319 33.809 130.405 33.6266C130.48 33.4336 130.609 33.2835 130.77 33.144C130.877 33.0475 130.995 32.9724 131.134 32.9188C131.263 32.8759 131.392 32.8438 131.531 32.8438C131.692 32.8438 131.831 32.8866 131.928 32.9724C132.024 33.0582 132.067 33.1762 132.078 33.3156C132.078 33.5301 131.971 33.7017 131.778 33.8197C131.574 33.9484 131.295 34.002 130.941 34.002C130.931 34.002 130.909 34.002 130.877 34.002C130.845 34.002 130.823 34.002 130.813 34.002Z" fill="white"/>
<path d="M133.665 33.0165C133.644 33.0165 133.622 33.0165 133.612 33.0165C133.601 33.0165 133.59 33.0165 133.579 33.0165C133.397 33.0165 133.226 33.1237 133.075 33.3597C132.936 33.5849 132.861 33.853 132.861 34.164C132.861 34.3249 132.893 34.4536 132.947 34.5394C133.011 34.6359 133.097 34.6788 133.193 34.6788C133.268 34.6788 133.344 34.6574 133.419 34.6145C133.504 34.5716 133.579 34.5179 133.676 34.4321L133.858 33.2846L133.665 33.0165ZM134.437 31.7617H134.62L134.223 34.2069C134.212 34.2927 134.201 34.3571 134.191 34.4107C134.191 34.4643 134.18 34.4965 134.18 34.5287C134.18 34.593 134.201 34.6466 134.234 34.6895C134.277 34.7324 134.319 34.7539 134.373 34.7539C134.405 34.7539 134.459 34.7432 134.502 34.7324C134.555 34.7217 134.609 34.711 134.663 34.6895V34.8611C134.513 34.9148 134.373 34.9577 134.266 34.9898C134.169 35.0113 134.073 35.022 133.998 35.022C133.88 35.022 133.783 35.0005 133.73 34.9362C133.676 34.8826 133.644 34.7861 133.644 34.6681V34.6574C133.515 34.7753 133.397 34.8719 133.279 34.9362C133.161 35.0005 133.043 35.0327 132.936 35.0327C132.754 35.0327 132.604 34.9577 132.486 34.8075C132.368 34.6681 132.314 34.4643 132.314 34.2177C132.314 34.0675 132.335 33.9281 132.368 33.7779C132.41 33.6385 132.464 33.5098 132.55 33.3811C132.668 33.1988 132.807 33.0594 132.99 32.9629C133.161 32.8664 133.354 32.8127 133.569 32.8127C133.622 32.8127 133.676 32.8235 133.74 32.8342C133.794 32.8449 133.858 32.8664 133.923 32.8878L134.041 32.1478L133.676 32.0835V31.9333L134.437 31.7617Z" fill="white"/>
<path d="M136.143 33.3497C136.143 33.2425 136.121 33.1567 136.078 33.1031C136.035 33.0494 135.982 33.028 135.896 33.028C135.789 33.028 135.681 33.0923 135.596 33.2425C135.51 33.3819 135.456 33.5535 135.456 33.7358C135.456 33.8431 135.478 33.9289 135.52 33.9932C135.563 34.0468 135.628 34.079 135.703 34.079C135.821 34.079 135.917 34.0039 136.003 33.8538C136.1 33.7144 136.143 33.5428 136.143 33.3497ZM135.37 34.8512C135.274 34.9048 135.199 34.9584 135.156 35.0228C135.113 35.0871 135.092 35.1622 135.092 35.2373C135.092 35.3767 135.145 35.4946 135.252 35.5804C135.36 35.6662 135.488 35.7091 135.66 35.7091C135.799 35.7091 135.917 35.677 136.014 35.6126C136.11 35.5483 136.153 35.4625 136.153 35.3659C136.153 35.3123 136.132 35.2694 136.089 35.2158C136.046 35.1729 135.982 35.13 135.896 35.0871L135.37 34.8512ZM136.454 32.9529H137.043V33.1781H136.604C136.625 33.2425 136.636 33.2961 136.647 33.3283C136.647 33.3604 136.657 33.3926 136.657 33.4248C136.657 33.6715 136.561 33.8752 136.378 34.0254C136.196 34.1862 135.949 34.272 135.671 34.272C135.649 34.3042 135.628 34.3364 135.628 34.3578C135.617 34.39 135.606 34.4115 135.606 34.4436V34.4544L136.271 34.7654C136.411 34.8404 136.518 34.9048 136.582 34.9799C136.636 35.0549 136.668 35.1407 136.668 35.2373C136.668 35.4303 136.561 35.5912 136.336 35.7199C136.11 35.8593 135.832 35.9236 135.499 35.9344C135.231 35.9344 135.016 35.8807 134.866 35.7735C134.705 35.6662 134.62 35.5268 134.62 35.3552C134.62 35.2158 134.673 35.0978 134.78 35.0013C134.877 34.8941 135.038 34.7975 135.263 34.7117V34.6903C135.263 34.6152 135.274 34.5402 135.306 34.4758C135.327 34.4007 135.381 34.3257 135.445 34.2399C135.285 34.197 135.156 34.1326 135.07 34.0361C134.984 33.9396 134.941 33.8216 134.941 33.6822C134.941 33.4355 135.027 33.2318 135.209 33.0709C135.392 32.91 135.628 32.8242 135.907 32.8242C135.992 32.8242 136.089 32.8349 136.175 32.8564C136.271 32.8778 136.357 32.91 136.454 32.9529Z" fill="white"/>
<path d="M137.666 33.7894C137.891 33.7787 138.073 33.7251 138.223 33.6178C138.373 33.5213 138.448 33.4033 138.448 33.2639C138.448 33.1889 138.427 33.1352 138.384 33.1031C138.352 33.0602 138.298 33.0387 138.234 33.0387C138.116 33.0387 137.998 33.1031 137.902 33.2425C137.794 33.3712 137.719 33.5535 137.666 33.7894ZM137.623 33.9718C137.623 33.9825 137.623 33.9825 137.623 33.9932C137.623 34.0468 137.612 34.0897 137.612 34.1112C137.623 34.2935 137.655 34.4329 137.741 34.5294C137.826 34.6367 137.934 34.6796 138.084 34.6796C138.18 34.6796 138.288 34.6581 138.406 34.6045C138.524 34.5509 138.642 34.4758 138.77 34.3686V34.6367C138.62 34.7654 138.459 34.8512 138.309 34.9155C138.148 34.9799 138.009 35.012 137.869 35.012C137.623 35.012 137.44 34.937 137.301 34.7975C137.162 34.6474 137.097 34.4436 137.097 34.1862C137.097 33.9718 137.129 33.7787 137.215 33.5964C137.301 33.4141 137.419 33.2532 137.58 33.1138C137.687 33.028 137.816 32.9529 137.944 32.8993C138.084 32.8457 138.213 32.8242 138.341 32.8242C138.513 32.8242 138.642 32.8564 138.749 32.9422C138.845 33.028 138.888 33.146 138.888 33.2961C138.888 33.5106 138.792 33.6715 138.588 33.8002C138.395 33.9181 138.116 33.9825 137.762 33.9825C137.741 33.9825 137.719 33.9825 137.698 33.9825C137.666 33.9825 137.644 33.9718 137.623 33.9718Z" fill="white"/>
<path d="M141.559 33.026C141.387 33.026 141.248 33.1332 141.13 33.3477C141.022 33.5622 140.958 33.8303 140.969 34.1628C140.969 34.3558 141.001 34.506 141.055 34.6132C141.119 34.7205 141.215 34.7634 141.333 34.7634C141.505 34.7634 141.644 34.6561 141.762 34.4416C141.88 34.2272 141.945 33.9698 141.945 33.648C141.945 33.4335 141.913 33.2834 141.848 33.1761C141.784 33.0796 141.687 33.026 141.559 33.026ZM141.612 32.8008C141.891 32.8008 142.106 32.8759 142.266 33.0367C142.427 33.1976 142.502 33.4121 142.502 33.6909C142.502 33.8732 142.47 34.0448 142.406 34.2057C142.342 34.3666 142.245 34.5167 142.127 34.6454C142.02 34.7527 141.891 34.8385 141.752 34.9028C141.602 34.9672 141.451 34.9993 141.291 34.9993C141.022 34.9993 140.797 34.9135 140.636 34.7527C140.486 34.5918 140.4 34.3666 140.4 34.0877C140.4 33.9161 140.433 33.7553 140.497 33.5837C140.561 33.4228 140.658 33.2727 140.776 33.1547C140.883 33.0367 141.012 32.9509 141.151 32.8866C141.301 32.833 141.451 32.8008 141.612 32.8008Z" fill="white"/>
<path d="M144.39 32.332L144.015 31.946C143.951 32.021 143.897 32.139 143.843 32.2999C143.79 32.4607 143.736 32.6645 143.693 32.9112L144.294 32.9004V33.1578H143.661L143.5 34.3054C143.468 34.5199 143.436 34.7022 143.382 34.863C143.328 35.0132 143.264 35.1526 143.189 35.2813C143.071 35.4636 142.942 35.6138 142.792 35.721C142.642 35.8283 142.492 35.8819 142.353 35.8819C142.267 35.8819 142.192 35.8604 142.138 35.8068C142.084 35.7639 142.052 35.6996 142.052 35.6138C142.052 35.5494 142.063 35.4958 142.095 35.4529C142.127 35.3993 142.17 35.3671 142.224 35.3457L142.696 35.5923C142.749 35.5172 142.803 35.3993 142.835 35.2384C142.878 35.0883 142.932 34.8416 142.975 34.4984L143.157 33.1686L142.867 33.2007V33.0077L143.211 32.8575C143.264 32.5358 143.393 32.2677 143.586 32.0532C143.779 31.8494 143.993 31.7422 144.24 31.7422C144.358 31.7422 144.465 31.7744 144.54 31.828C144.626 31.8816 144.658 31.9567 144.658 32.0425C144.658 32.1068 144.637 32.1712 144.583 32.2248C144.54 32.2784 144.465 32.3106 144.39 32.332Z" fill="white"/>
<path d="M146.021 32.0941L145.667 32.0405V31.8903L146.407 31.7188H146.6L146.16 34.1532C146.128 34.3141 146.117 34.4106 146.117 34.475C146.117 34.5393 146.128 34.5929 146.16 34.6358C146.203 34.6787 146.246 34.7002 146.289 34.7002C146.342 34.7002 146.396 34.6895 146.46 34.6787C146.514 34.668 146.578 34.6466 146.643 34.6251V34.8074C146.482 34.8611 146.342 34.904 146.235 34.9361C146.117 34.9683 146.031 34.979 145.967 34.979C145.838 34.979 145.742 34.9469 145.678 34.8932C145.602 34.8396 145.57 34.7645 145.57 34.6573C145.57 34.6144 145.581 34.5393 145.602 34.4321V34.4214L146.021 32.0941Z" fill="white"/>
<path d="M148.197 32.984C148.197 32.984 148.187 32.984 148.176 32.984C148.165 32.984 148.155 32.984 148.144 32.984C147.929 32.984 147.758 33.0913 147.618 33.3058C147.468 33.5203 147.404 33.7884 147.404 34.1101C147.404 34.2817 147.425 34.3997 147.49 34.4855C147.543 34.5713 147.629 34.6142 147.736 34.6142C147.801 34.6142 147.865 34.6034 147.94 34.5713C148.015 34.5284 148.09 34.4855 148.176 34.4104L148.38 33.2414L148.197 32.984ZM148.734 32.7695H148.991C148.98 32.8232 148.959 32.909 148.927 33.0269C148.905 33.1556 148.873 33.2843 148.852 33.4345L148.723 34.153C148.712 34.2174 148.702 34.2817 148.691 34.3353C148.691 34.3889 148.68 34.4318 148.68 34.4533C148.68 34.5284 148.702 34.582 148.734 34.6249C148.766 34.6678 148.809 34.6892 148.862 34.6892C148.905 34.6892 148.959 34.6892 149.002 34.6785C149.045 34.6678 149.098 34.6571 149.152 34.6356V34.8072C149.002 34.8608 148.873 34.9037 148.766 34.9252C148.659 34.9574 148.573 34.9681 148.498 34.9681C148.391 34.9681 148.305 34.9359 148.251 34.8823C148.197 34.8287 148.165 34.7429 148.165 34.6356V34.6249C148.047 34.7321 147.929 34.8287 147.811 34.8823C147.693 34.9466 147.586 34.9681 147.479 34.9681C147.275 34.9681 147.125 34.9037 147.007 34.7643C146.9 34.6249 146.846 34.4318 146.846 34.1745C146.846 34.0243 146.868 33.8634 146.9 33.724C146.943 33.5739 147.018 33.4345 147.104 33.3058C147.211 33.1342 147.35 33.0055 147.522 32.909C147.693 32.8232 147.876 32.7695 148.069 32.7695C148.144 32.7695 148.23 32.7803 148.315 32.8017C148.401 32.8124 148.487 32.8446 148.573 32.8768L148.734 32.7695Z" fill="white"/>
<path d="M149.871 32.7607H150.075L150.171 34.3587C150.332 34.0477 150.482 33.7688 150.6 33.5329C150.718 33.2862 150.826 33.0717 150.922 32.8572L151.33 32.8251C151.34 33.0503 151.351 33.297 151.372 33.5865C151.383 33.8654 151.405 34.1764 151.426 34.4981C151.587 34.2943 151.716 34.112 151.812 33.9512C151.919 33.7903 151.995 33.6509 152.048 33.5329L151.93 32.8787C151.973 32.8358 152.016 32.8036 152.059 32.7822C152.102 32.7607 152.155 32.75 152.209 32.75C152.295 32.75 152.359 32.7822 152.413 32.8358C152.466 32.9001 152.488 32.9752 152.488 33.061C152.488 33.2219 152.413 33.4364 152.252 33.7045C152.091 33.9726 151.791 34.3801 151.362 34.9164H150.986L150.901 33.4042C150.761 33.683 150.622 33.9404 150.482 34.1978C150.354 34.4445 150.214 34.6912 150.086 34.9164L149.678 34.9271L149.71 34.7877L149.614 33.1254L149.249 33.0717V32.9323L149.871 32.7607Z" fill="white"/>
</svg>
