<svg width="22" height="22" viewBox="0 0 22 22" fill="none" xmlns="http://www.w3.org/2000/svg">
<path d="M3.92073 5.24294L0.677734 2.00094L2.09273 0.585938L5.33473 3.82894H20.5767C20.7326 3.82893 20.8863 3.86535 21.0256 3.9353C21.1649 4.00526 21.2859 4.1068 21.379 4.23183C21.472 4.35686 21.5346 4.50192 21.5616 4.65542C21.5887 4.80893 21.5795 4.96663 21.5347 5.11594L19.1347 13.1159C19.073 13.322 18.9464 13.5027 18.7739 13.6311C18.6013 13.7596 18.3919 13.829 18.1767 13.8289H5.92073V15.8289H16.9207V17.8289H4.92073C4.65552 17.8289 4.40116 17.7236 4.21363 17.536C4.02609 17.3485 3.92073 17.0942 3.92073 16.8289V5.24294ZM5.92073 5.82894V11.8289H17.4327L19.2327 5.82894H5.92073ZM5.42073 21.8289C5.02291 21.8289 4.64138 21.6709 4.36007 21.3896C4.07877 21.1083 3.92073 20.7268 3.92073 20.3289C3.92073 19.9311 4.07877 19.5496 4.36007 19.2683C4.64138 18.987 5.02291 18.8289 5.42073 18.8289C5.81856 18.8289 6.20009 18.987 6.48139 19.2683C6.7627 19.5496 6.92073 19.9311 6.92073 20.3289C6.92073 20.7268 6.7627 21.1083 6.48139 21.3896C6.20009 21.6709 5.81856 21.8289 5.42073 21.8289ZM17.4207 21.8289C17.0229 21.8289 16.6414 21.6709 16.3601 21.3896C16.0788 21.1083 15.9207 20.7268 15.9207 20.3289C15.9207 19.9311 16.0788 19.5496 16.3601 19.2683C16.6414 18.987 17.0229 18.8289 17.4207 18.8289C17.8186 18.8289 18.2001 18.987 18.4814 19.2683C18.7627 19.5496 18.9207 19.9311 18.9207 20.3289C18.9207 20.7268 18.7627 21.1083 18.4814 21.3896C18.2001 21.6709 17.8186 21.8289 17.4207 21.8289Z" fill="#5C5C5C"/>
</svg>
