<svg width="25" height="25" viewBox="0 0 25 25" fill="none" xmlns="http://www.w3.org/2000/svg">
<path d="M24.3011 22.9444L18.6375 17.2808C18.4971 17.1872 18.3567 17.0936 18.2163 17.0936H17.6078C19.0588 15.4086 19.9949 13.1619 19.9949 10.7279C19.9949 5.39199 15.5951 0.992188 10.2592 0.992188C4.87644 0.992188 0.523438 5.39199 0.523438 10.7279C0.523438 16.1107 4.87644 20.4637 10.2592 20.4637C12.6931 20.4637 14.893 19.5743 16.6249 18.1233V18.7318C16.6249 18.8722 16.6717 19.0127 16.7653 19.1531L22.4289 24.8167C22.6629 25.0507 23.0373 25.0507 23.2246 24.8167L24.3011 23.7401C24.5351 23.5529 24.5351 23.1784 24.3011 22.9444ZM10.2592 18.217C6.0934 18.217 2.77015 14.8937 2.77015 10.7279C2.77015 6.60896 6.0934 3.2389 10.2592 3.2389C14.3781 3.2389 17.7482 6.60896 17.7482 10.7279C17.7482 14.8937 14.3781 18.217 10.2592 18.217Z" fill="black"/>
</svg>
