<svg width="21" height="15" viewBox="0 0 21 15" fill="none" xmlns="http://www.w3.org/2000/svg">
<path fill-rule="evenodd" clip-rule="evenodd" d="M0.908203 0.715456C0.908203 1.03963 0.961594 0.93157 1.01498 1.20171C1.33533 1.20171 1.65567 1.25574 1.92262 1.47186C2.13619 1.63394 2.24297 1.90409 2.40314 2.22826L5.87352 11.0349C5.98031 11.3051 6.08709 11.6292 6.19387 11.8994L6.88795 13.6823C6.99473 13.8984 7.10151 14.3847 7.42185 14.3847C7.79558 14.3847 7.95576 13.7904 8.06254 13.5202L8.2761 13.088C8.32949 12.98 8.32949 12.9259 8.38288 12.8719L9.34391 10.7648C9.50408 10.4406 9.66425 10.1705 9.77104 9.90033L10.6787 7.9553C10.6787 7.90127 10.7321 7.84724 10.7855 7.79321C10.7855 7.84724 10.8388 7.90127 10.8388 8.00933L11.1058 8.60364C11.1592 8.76573 11.266 8.87378 11.3194 9.03587C11.3728 9.19796 11.4261 9.30601 11.4795 9.4681C12.1202 10.8728 12.7075 12.2776 13.2948 13.6823C13.4016 13.8984 13.5084 14.3847 13.8287 14.3847C14.1491 14.3847 14.3092 13.9525 14.416 13.6823L17.2991 6.87472C17.3525 6.71264 17.4059 6.60458 17.5127 6.44249C17.6194 6.11832 17.7796 5.84818 17.8864 5.52401L18.2601 4.65955C18.3135 4.49746 18.3669 4.33538 18.4737 4.17329L19.0076 2.82257C19.1144 2.66049 19.1678 2.4984 19.2212 2.39034C19.3279 2.1202 19.4881 1.90409 19.6483 1.68797C19.9152 1.41783 20.2356 1.25574 20.6093 1.20171C20.8229 1.14769 20.8229 1.20171 20.8763 0.985599C20.9297 0.877542 20.9297 0.445312 20.7695 0.445312H17.1923C17.0322 0.445312 17.0855 0.985599 17.1389 1.09366C17.1923 1.20171 17.5661 1.20171 17.7796 1.25574C18.2067 1.41783 18.2601 1.63394 18.2601 2.01214C18.2601 2.4984 17.5661 3.95718 17.3525 4.49746C17.0322 5.30789 16.6584 6.06429 16.3381 6.87472C16.2313 7.09084 16.1779 7.25292 16.0711 7.46904L15.0567 9.8463C14.9499 10.0624 14.8965 10.2785 14.7897 10.4406L14.3626 11.5212C14.3092 11.5752 14.3092 11.5752 14.2558 11.6292C14.1491 11.5752 13.9355 11.0349 13.8821 10.9269C13.8287 10.8188 13.8287 10.6567 13.7753 10.5487C13.7219 10.4406 13.6152 10.2785 13.5618 10.2245C13.2948 9.41407 12.7609 8.44155 12.4406 7.68515C12.3872 7.52307 12.3338 7.41501 12.2804 7.30695C12.227 7.19889 12.1736 7.09084 12.1202 6.92875L11.7999 6.22638C11.6931 6.01026 11.7465 6.06429 11.8533 5.84818L12.8677 3.79509C12.9745 3.633 12.9745 3.52495 13.0812 3.41689C13.1346 3.30883 13.188 3.20077 13.2414 3.09272C13.455 2.60646 13.6685 2.1202 14.0423 1.742C14.7897 1.03963 15.1101 1.30977 15.1635 1.09366C15.2169 0.93157 15.2703 0.445312 15.0567 0.445312H12.1736C11.96 0.445312 12.0668 1.03963 12.1202 1.09366C12.1736 1.14769 12.3338 1.20171 12.4406 1.20171C12.9211 1.41783 12.7075 1.95811 12.6007 2.33632L12.3338 2.8766C12.1736 3.2548 11.96 3.633 11.7999 3.95718C11.6931 4.17329 11.266 4.92969 11.266 5.09178C11.1058 4.98372 11.1058 4.87566 11.0524 4.71358C10.8388 4.28135 10.6787 3.90315 10.5185 3.47092C10.3049 2.98466 9.82443 2.06617 9.82443 1.63394C9.82443 1.3638 10.038 1.25574 10.1982 1.20171C10.2516 1.20171 10.3049 1.20171 10.3583 1.20171C10.4651 1.14769 10.4117 1.20171 10.4651 1.09366C10.6253 0.877542 10.4651 0.661427 10.4651 0.445312H6.94134C6.88795 0.607398 6.78116 0.877542 6.88795 1.09366C6.94134 1.20171 6.88795 1.14769 6.94134 1.20171C6.99473 1.20171 7.10151 1.20171 7.1549 1.20171C7.63541 1.30977 7.90237 1.68797 8.06254 2.06617L9.77104 6.01026C9.87782 6.22638 9.9846 6.49652 10.0914 6.71264C10.1982 6.98278 10.0914 6.98278 9.93121 7.41501L9.34391 8.65767C9.34391 8.7117 9.29052 8.76573 9.23713 8.81975L8.22271 11.089C8.16932 11.143 8.16932 11.197 8.16932 11.251C8.11593 11.3051 8.11593 11.3591 8.06254 11.4131C8.06254 11.5212 8.00915 11.5752 7.95576 11.5752C7.90237 11.5752 7.90237 11.5752 7.90237 11.4672L6.72777 8.60364C6.62099 8.38753 6.51421 8.17141 6.46082 8.00933C6.30065 7.5771 6.14048 7.19889 5.98031 6.76667L4.96589 4.33538C4.75232 3.84912 4.05825 2.28229 4.05825 1.85006C4.05825 1.52589 4.21842 1.41783 4.37859 1.30977C4.48537 1.25574 4.59215 1.25574 4.75232 1.20171L5.07267 1.14769C5.12606 1.14769 5.12606 1.09366 5.17945 1.03963C5.23284 0.93157 5.23284 0.445312 5.07267 0.445312H1.01498C0.961594 0.445312 0.908203 0.661427 0.908203 0.715456Z" fill="white"/>
</svg>
