<svg width="14" height="16" viewBox="0 0 14 16" fill="none" xmlns="http://www.w3.org/2000/svg">
<path fill-rule="evenodd" clip-rule="evenodd" d="M11.1106 5.41699C12.6016 5.41699 13.8113 4.20789 13.8113 2.71631C13.8113 2.13843 13.6296 1.60274 13.3201 1.16377C13.2815 1.10809 13.2404 1.05417 13.1971 1.00142L13.1314 0.924644C13.0505 0.833799 12.9638 0.74823 12.8712 0.669112C12.3988 0.261783 11.7834 0.015625 11.1106 0.015625C9.61959 0.015625 8.40993 1.22472 8.40993 2.71631C8.40993 3.07499 8.48027 3.41785 8.60684 3.73141L4.86532 5.89171C4.3718 5.23881 3.58997 4.81684 2.70849 4.81684C1.21749 4.81684 0.0078125 6.0259 0.0078125 7.51752C0.0078125 9.00913 1.21749 10.2182 2.70849 10.2182C3.3356 10.2182 3.91348 10.0043 4.3718 9.64499L8.5506 12.0574C8.45914 12.3281 8.40993 12.6176 8.40993 12.9189C8.40993 14.4105 9.61959 15.6196 11.1106 15.6196C12.6016 15.6196 13.8113 14.4105 13.8113 12.9189C13.8113 11.4273 12.6016 10.2182 11.1106 10.2182C10.3534 10.2182 9.66887 10.5306 9.1777 11.0334L5.13725 8.70023C5.31189 8.34332 5.40917 7.94182 5.40917 7.51752C5.40917 7.33819 5.39159 7.16295 5.35876 6.99358L9.29845 4.71837C9.77785 5.15266 10.4132 5.41699 11.1106 5.41699ZM11.1106 4.21668C11.9394 4.21668 12.611 3.54503 12.611 2.71631C12.611 1.88758 11.9394 1.21593 11.1106 1.21593C10.5316 1.21593 10.0287 1.54414 9.779 2.02531C9.67121 2.2322 9.61023 2.46722 9.61023 2.71631C9.61023 3.54503 10.2819 4.21668 11.1106 4.21668ZM2.70849 6.01714C3.21252 6.01714 3.65795 6.26506 3.9299 6.64604C3.98616 6.72454 4.03539 6.80892 4.07524 6.89804C4.16081 7.08673 4.20887 7.29654 4.20887 7.51752C4.20887 8.34626 3.53722 9.01789 2.70849 9.01789C1.87977 9.01789 1.20811 8.34626 1.20811 7.51752C1.20811 6.68877 1.87977 6.01714 2.70849 6.01714ZM12.611 12.9189C12.611 13.7476 11.9394 14.4193 11.1106 14.4193C10.2819 14.4193 9.61023 13.7476 9.61023 12.9189C9.61023 12.0901 10.2819 11.4185 11.1106 11.4185C11.9394 11.4185 12.611 12.0901 12.611 12.9189Z" fill="white"/>
</svg>
