<svg aria-hidden="true" xmlns="http://www.w3.org/2000/svg" xmlns:xlink="http://www.w3.org/1999/xlink"><symbol viewBox="0 0 8 28" id="arrow" xmlns="http://www.w3.org/2000/svg">
<path d="M4.35355 27.5853C4.15829 27.7805 3.84171 27.7805 3.64645 27.5853L0.464466 24.4033C0.269204 24.208 0.269204 23.8914 0.464466 23.6962C0.659728 23.5009 0.976311 23.5009 1.17157 23.6962L4 26.5246L6.82843 23.6962C7.02369 23.5009 7.34027 23.5009 7.53553 23.6962C7.7308 23.8914 7.7308 24.208 7.53553 24.4033L4.35355 27.5853ZM4.5 0L4.5 27.2317H3.5L3.5 0L4.5 0Z"/>
</symbol><symbol viewBox="0 0 54 46" id="hammer" xmlns="http://www.w3.org/2000/svg">
<path fill-rule="evenodd" clip-rule="evenodd" d="M15.7147 16.1232C17.0127 15.8444 18.0347 17.2817 18.5985 17.8512L23.3339 22.6489C24.2235 23.7488 23.6949 25.3188 22.4214 25.5892C21.0983 25.87 20.0818 24.4166 19.514 23.8467L14.7784 19.0475C13.8906 17.9442 14.4124 16.403 15.7147 16.1232L15.7147 16.1232ZM29.1915 19.0471C29.5922 18.3219 30.9543 17.3363 31.511 16.5826C33.253 17.6073 32.2717 18.4379 31.6579 19.0564C31.1507 19.5676 30.1909 20.7771 29.1915 19.047V19.0471ZM19.6057 16.7391C19.7796 16.3886 20.5675 15.5923 20.8943 15.4098L24.4769 19.0646L23.1913 20.3118L19.6057 16.739L19.6057 16.7391ZM25.2883 8.56175C26.0528 8.26583 26.5647 9.02804 26.8977 9.36494L30.695 13.1961C32.0175 14.5102 30.6473 15.32 29.8286 16.1445C29.392 16.5841 27.6313 18.4799 27.2381 18.6432C26.4217 18.9826 25.9546 18.244 25.615 17.8997L21.8188 14.0674C21.3925 13.6412 20.7655 13.1587 21.415 12.3315C21.7434 11.9131 24.9764 8.6824 25.2883 8.56175H25.2883ZM29.2226 6.95398L32.8218 10.6383L31.6185 11.852L27.9859 8.17747L29.2226 6.95398ZM29.9938 1.67021C30.7698 1.4679 31.2604 1.73142 31.6863 2.18801L37.6003 8.13911C38.6239 9.10928 38.0591 10.7923 36.8446 11.0927C35.4886 11.428 34.4884 9.99273 33.9144 9.41339C33.0978 8.58925 32.3568 7.84305 31.542 7.01786C30.7799 6.24614 29.856 5.41746 29.1737 4.61848C28.2395 3.52451 28.664 2.01678 29.9938 1.67018V1.67021ZM12.7578 17.5533C12.618 19.3273 13.5822 20.0209 14.3792 20.8337C15.3137 21.7866 19.6824 26.3898 20.4608 26.829C22.1124 27.7609 24.3086 27.0706 25.1256 25.1275C25.6853 23.7963 25.2945 22.5008 24.3499 21.4826L25.6405 20.1165C27.0095 20.3274 26.5805 20.4176 28.0104 20.0977C30.8864 23.4145 32.3325 20.2776 33.4443 19.5989C37.9974 24.3478 43.0772 29.3181 47.7765 34.063C48.593 34.8876 49.3324 35.634 50.149 36.4585C50.5737 36.8873 52.3035 38.4376 52.3932 38.9876C52.5101 39.7041 51.8325 40.2875 51.118 39.9602C50.8197 39.8235 37.1434 25.9232 35.6337 24.3921C34.588 23.3315 33.7286 22.0648 32.8965 22.5291C32.008 23.0233 32.8883 23.9035 33.2391 24.255L48.3694 39.5328C49.0773 40.2486 50.1494 41.7945 51.7908 41.6408C53.1954 41.5092 54.3696 40.056 53.8913 38.4259C53.594 37.4122 51.9876 36.0385 51.3291 35.3729L34.1963 18.0761C34.0157 17.7871 34.0686 17.3711 33.9247 16.9625C33.7066 16.3437 33.0486 15.7074 32.674 15.4572C32.7237 14.9957 32.8779 14.734 32.8833 14.2514C32.8964 13.097 32.0241 13.4187 33.9682 11.7837C34.9803 12.384 35.922 13.1981 37.6136 12.5095C38.6489 12.0882 39.5881 11.1096 39.6959 9.68363C39.8307 7.90233 38.8225 7.1244 38.0817 6.37669L33.2842 1.53253C32.5382 0.778138 31.7252 -0.186522 29.984 0.031108C28.686 0.1934 27.6633 1.12799 27.2909 2.19027C26.6125 4.12557 27.7083 5.12346 28.0481 5.84042L26.8136 7.12642C26.1221 7.01431 25.6867 6.74964 24.8936 7.00637C23.9475 7.31282 22.1914 9.3744 21.4438 10.1273C20.8834 10.6919 19.7476 11.4942 19.5973 12.6574C19.4668 13.6665 20.0333 13.9128 19.5736 14.4037C19.2467 14.7528 18.836 15.1978 18.4686 15.4507C18.2824 15.345 18.4233 15.4247 18.272 15.3127C15.5743 13.3139 12.9359 15.2904 12.7578 17.5534V17.5533Z"/>
<path fill-rule="evenodd" clip-rule="evenodd" d="M9.18861 39.2681C8.5102 39.3674 8.22787 40.1016 8.71649 40.6029C9.0864 40.9823 10.0606 40.8505 10.6659 40.8504C11.9201 40.8501 23.5127 40.7316 24.1936 40.9505C25.5374 41.3827 25.4227 42.7908 25.3748 44.3786H1.60477C1.53629 41.5949 1.56664 40.8462 4.44488 40.8504C5.3349 40.8515 6.78783 41.096 6.64587 39.9353C6.52952 38.984 5.14 39.2652 4.1533 39.2502C3.98607 36.9909 4.7748 37.4365 7.92437 37.4365H19.1012C22.0542 37.4365 23.0597 36.9704 22.8073 39.2543L9.18861 39.2681V39.2681ZM2.53874 39.3696C1.13578 39.7275 0.0881408 40.872 0.0203431 42.5707C0.00213816 43.0256 -0.0297136 45.0886 0.0632216 45.4072C0.289105 46.1813 1.39816 45.9749 2.2307 45.9747H24.7949C26.795 45.9754 27.1965 46.499 26.946 42.4642C26.8917 41.5905 26.565 40.8699 26.1058 40.3992C25.4849 39.7626 25.3955 39.7473 24.4306 39.3237C24.2827 36.3013 23.7209 35.8397 20.5774 35.8403H6.23737C4.85677 35.8396 4.20453 35.7346 3.33072 36.5519C2.45006 37.3755 2.60653 37.992 2.53874 39.3696Z"/>
</symbol><symbol viewBox="0 0 320 88" id="logo-main" xmlns="http://www.w3.org/2000/svg">
<path d="M68.7755 44.3297C68.09 42.7016 67.3831 41.052 66.6119 39.4668C66.0549 38.2885 65.3694 37.1532 64.7053 35.9963C64.4268 35.5251 64.491 35.0966 64.7053 34.6682C65.198 33.6827 65.4979 32.6973 65.1337 31.5833C64.9409 31.0049 64.7695 30.4051 64.6196 29.8053C64.4268 29.184 64.2554 28.5413 64.084 27.9201C67.533 27.1489 69.761 24.7495 67.7258 17.98C66.3762 13.4599 63.2914 10.9535 62.2845 10.3322C59.3068 8.53274 54.2297 -0.0576699 43.09 0.263667C36.7275 0.456469 30.2579 1.2491 24.2168 3.09143C19.3539 4.56958 15.6906 6.56187 12.5844 10.9749C12.2202 11.2748 8.34273 16.9518 7.37872 22.5859C7.20734 23.6356 6.99311 24.6639 6.82173 25.7136C6.67178 26.5919 6.54324 27.4059 6.17906 28.0915C2.70862 28.0272 1.20905 29.741 0.887709 31.7333C0.523527 33.9826 1.359 35.4822 2.4944 36.2748C3.60836 37.0675 4.42242 37.2817 6.09337 37.346C6.17906 37.346 6.26475 37.346 6.35044 37.346C6.35044 37.3888 6.32902 37.4316 6.32902 37.4531C3.35129 37.753 1.03767 39.5311 0.951977 41.759C0.887709 43.7299 1.87314 45.4008 4.91513 46.2363C5.15078 46.3006 5.06509 46.6647 5.06509 46.8575C2.53724 47.4145 1.59465 49.0855 1.359 51.0563C1.03767 53.6056 3.30845 56.3477 6.05053 56.9261C6.13622 56.9475 6.22191 56.9689 6.30759 56.9904C6.45755 57.933 7.0788 58.747 7.97855 59.2183C7.89286 60.4394 7.76432 61.6819 7.63579 62.9458C6.35044 62.5602 4.85087 63.0958 3.99397 64.3811C3.17991 65.6022 3.09422 67.6373 3.88686 68.6442C3.58694 68.8156 3.32987 69.0298 3.13707 69.2869C2.2159 70.4865 2.38728 72.9715 3.82259 73.5071C5.38643 74.1069 5.96484 73.7213 6.80031 72.693C8.55695 70.9364 12.5201 66.1378 14.2768 56.9689C15.7549 56.7333 17.3187 56.3263 18.8612 55.7264C18.8612 55.7264 18.7541 61.1035 15.0051 66.8875C12.7558 70.1009 6.09337 74.5139 0.759174 83.8541C-0.933201 86.8319 -0.0120354 89.8096 5.72919 86.1892C8.02139 84.7325 10.6349 83.4471 13.4413 82.6545C22.1602 80.2123 29.5938 79.5696 40.9049 83.6613C53.1157 88.1172 63.2271 80.3837 63.2271 80.3837L61.5562 77.5131C61.5562 77.5131 63.0343 76.2492 62.8629 75.178C62.6915 74.0855 61.6847 72.843 60.9777 72.3503C60.2922 71.8361 60.1423 70.1652 60.0137 69.951C59.8852 69.7367 58.0857 68.0658 58.0857 68.0658C58.0857 68.0658 57.4645 67.5088 56.3719 67.9801C55.2794 68.4728 54.2725 68.6228 53.9083 68.4085C53.5656 68.1943 52.6658 67.2946 52.6658 67.2946L51.7232 66.3734C51.6804 66.0735 51.7018 65.7093 51.7661 65.3023C51.8732 64.7025 52.0446 64.2526 52.1945 63.9098C52.5373 63.8241 52.8801 63.7384 53.2014 63.6528C53.9512 63.4171 54.7224 63.2029 55.4936 63.0101C56.1577 62.8387 56.8004 62.6245 57.4645 62.5388C58.5142 62.3674 59.5853 62.3674 60.6136 62.1532C62.0917 61.8533 62.8844 60.5036 62.6059 58.9612C62.4131 57.9544 62.156 56.9904 62.6273 55.9621C62.9058 55.3408 62.563 54.6982 61.9632 54.334C61.6204 54.1412 61.2348 53.9698 60.6993 53.7341C61.2991 53.4771 61.7704 53.3057 62.2203 53.1343C62.9272 52.8558 63.2057 52.4488 63.1843 51.6562C63.1628 51.2063 63.0986 50.7564 63.0557 50.3066C62.9915 49.2783 63.3556 48.7213 64.3197 48.4642C65.3265 48.2286 66.3548 47.9929 67.3616 47.8858C68.0472 47.8001 68.4756 47.4359 68.8184 46.9004C69.3968 46.0435 69.0969 45.1652 68.7755 44.3297Z"/>
<path d="M138.848 56.1122C137.991 57.4618 136.513 58.5758 134.435 59.4756C132.957 60.4182 129.337 61.2108 123.574 61.832L121.56 61.6178L121.132 61.832C120.896 61.7035 120.382 61.5535 119.589 61.3822C119.525 61.3822 119.289 61.425 118.904 61.5107C116.547 61.1679 115.326 60.9537 115.241 60.868C113.334 60.5253 112.241 60.2682 112.027 60.0754C109.456 59.3042 106.95 58.2759 104.486 57.012C106.929 52.3205 109.092 48.4001 110.977 45.251C110.977 45.0797 111.792 44.844 113.42 44.5655H113.505L113.72 44.6941V44.5655C116.097 44.3941 117.297 44.1371 117.276 43.7729C117.447 43.7729 117.597 43.8157 117.726 43.9014C118.111 43.9014 120.061 43.5158 123.595 42.766C124.645 42.766 125.952 42.8946 127.494 43.1731C127.623 43.1088 127.73 43.0874 127.816 43.0874C129.079 43.6015 130.001 43.8586 130.6 43.8372C133.214 45.0797 134.778 45.6795 135.249 45.6795C135.506 46.1294 135.913 46.4935 136.492 46.7935C136.792 46.7935 137.134 47.0291 137.584 47.479C138.398 48.5287 138.955 49.1499 139.255 49.3642C139.598 49.9426 140.005 50.9066 140.498 52.2348C139.984 54.4413 139.427 55.7266 138.848 56.1122ZM104.144 53.5844V53.1559H104.358V53.5844H104.144ZM106.436 49.0214V48.8072C106.436 48.6786 106.5 48.6144 106.65 48.5929L106.864 48.7001C106.8 48.85 106.779 48.9571 106.779 49.0214H106.436ZM119.654 26.9134C121.153 26.4635 123.21 25.9708 125.845 25.4352L126.102 25.5638C129.122 25.2424 130.858 25.0068 131.307 24.8568C131.564 24.8568 131.886 24.8997 132.293 24.9854C132.357 24.9854 132.657 24.9425 133.193 24.8568C135.549 24.9854 136.942 25.221 137.391 25.5209C137.391 25.4352 137.434 25.3924 137.499 25.3924H137.734C140.241 26.2279 141.483 27.0419 141.505 27.8346C141.505 27.9203 141.462 28.0274 141.397 28.1773L141.505 28.3915L141.397 29.0342C140.84 30.7052 139.191 32.6546 136.449 34.8397C133.364 36.7249 129.337 38.503 124.367 40.1953H123.36L122.717 40.1096C122.567 40.1739 122.417 40.1953 122.246 40.1953C119.739 40.0668 118.475 39.9168 118.475 39.7669L117.618 40.0025C117.533 40.0025 117.404 39.9597 117.276 39.8954C117.147 39.9597 116.997 40.0025 116.847 40.0025H116.055L115.283 39.9168C115.283 40.0882 114.769 40.1739 113.72 40.2382L113.698 39.9168C114.876 38.0317 116.869 33.7043 119.654 26.9134ZM98.2954 63.1388C98.1669 63.1388 98.1026 63.0745 98.0812 62.9246C98.0812 62.796 98.1454 62.7318 98.2954 62.7104H98.4025V62.9246L98.2954 63.1388ZM142.618 51.4421C141.869 49.2356 141.162 47.8646 140.498 47.329C137.241 44.4156 133.428 42.4018 129.037 41.2879L129.122 41.0737C132.014 39.874 133.942 38.9743 134.885 38.3744C136.856 37.3676 138.484 36.3179 139.769 35.2682C142.276 32.976 143.732 30.8337 144.161 28.7986C144.161 27.6632 143.754 26.5706 142.94 25.4995C141.804 24.2999 139.812 23.4644 136.963 22.9502L136.706 23.0788C136.085 22.8646 134.949 22.6717 133.278 22.5432C133.278 22.6289 133.064 22.6932 132.614 22.7574C132.614 22.6075 132.443 22.5432 132.057 22.5432L131.072 22.6717L130.6 22.5432C126.68 22.9502 124.217 23.3573 123.188 23.7857L122.653 23.7C121.839 23.8714 121.41 24.0428 121.41 24.257H120.639C119.889 24.257 118.625 24.6426 116.869 25.3924C113.698 26.3778 112.113 27.0419 112.113 27.3847C111.235 27.4704 110.785 27.6203 110.785 27.8346C109.756 27.9631 108.321 28.67 106.479 29.9554V30.0625L106.714 29.9554C106.843 29.9554 106.929 30.0197 106.929 30.191L106.8 30.4053L106.029 30.2981H105.815C104.229 31.0051 103.373 31.5621 103.265 31.9691C102.194 32.4404 100.845 33.2545 99.1737 34.4327C98.8524 35.0111 97.9741 35.8251 96.5173 36.8534C95.0392 38.1602 94.1823 39.3599 93.9895 40.431C94.1609 41.1808 94.6107 41.545 95.3177 41.545L95.8747 41.4164L96.6459 39.6383C97.9741 38.3102 100.031 36.6606 102.858 34.7326C107.636 31.6906 111.984 29.5055 115.883 28.1559C115.883 28.2202 115.969 28.263 116.119 28.263C114.598 31.9477 113.677 33.8971 113.377 34.1328C112.906 35.9537 112.434 37.0891 111.942 37.5818L111.299 38.91L111.856 38.8029H111.942V38.91L110.828 39.724L111.085 40.024C110.742 40.024 110.378 40.3667 109.971 41.0094C107.079 41.952 105.643 42.9374 105.643 43.9443H105.986C105.986 43.7086 106.05 43.6015 106.2 43.6015H106.415V43.6872L106.2 44.03V44.1585H106.415V44.2442L106.329 44.8012C106.393 44.8012 106.415 44.844 106.415 44.9297C107.528 45.0797 108.085 45.3367 108.107 45.7009H108.193C108.193 45.4224 108.278 45.2725 108.428 45.2725H108.878V45.5724H108.535C108.128 46.5578 107.678 47.0291 107.207 47.0291V47.2433L107.421 47.5861V47.8003C107.357 47.8003 107.25 47.8432 107.121 47.9288L106.65 47.8217C106.286 48.5501 106.093 49 106.093 49.1499C106.093 49.2142 106.222 49.2785 106.436 49.3642C106.436 49.5355 106.329 49.7498 106.093 50.0497C106.05 50.0497 105.943 50.0068 105.793 49.9211C105.493 49.9211 105.301 50.2211 105.236 50.8209L105.322 51.0351C105.022 51.0351 104.765 51.2493 104.551 51.6992L103.373 53.7986C103.415 53.7986 103.458 53.8629 103.458 54.0128C103.544 54.0128 103.587 53.9914 103.587 53.9271L103.801 54.0128L103.694 54.2699C103.587 54.2699 103.501 54.1842 103.458 54.0128C103.03 54.2485 102.816 54.4841 102.816 54.6984V54.9126L103.244 54.5698C103.18 55.4696 103.115 55.9409 103.03 56.0265C102.858 56.0265 102.73 55.9837 102.601 55.9194V55.4696H102.473C102.28 55.6195 102.173 55.6838 102.13 55.6838L102.044 55.7052C101.23 55.4267 100.116 54.8697 98.681 54.0343C97.3314 52.9631 96.2603 52.2348 95.489 51.8492C95.2106 51.335 94.8464 51.078 94.3751 51.078C94.3751 51.1422 94.3322 51.1636 94.2465 51.1636L93.9038 51.1851C93.7753 51.1851 93.711 51.0994 93.6896 50.9494L93.9038 50.6281V50.521C92.8755 50.521 92.3614 50.0925 92.3614 49.1928C91.6544 48.4858 91.1403 47.7789 90.7975 47.0934C90.6904 47.0934 90.5833 47.2433 90.4548 47.5432C90.7547 48.1859 91.0546 48.5287 91.3545 48.5287C91.3545 48.6786 91.226 48.7643 90.9261 48.7643V49.0857C91.0546 49.0857 91.2474 49.1499 91.483 49.2999L91.3545 49.8569C91.6116 49.8569 91.8044 50.0283 91.9329 50.4139H92.4899C92.4899 50.5638 92.4471 50.7352 92.3614 50.8637C92.6399 51.5921 93.004 51.9563 93.4753 51.9563C94.2251 52.9203 94.675 53.3916 94.825 53.3916C94.825 53.3273 94.8464 53.2845 94.9321 53.2845H95.0392C96.5816 54.4627 97.6956 55.1696 98.3811 55.3624C98.9166 56.1979 99.4736 56.605 100.031 56.605C100.716 56.605 101.166 57.0334 101.359 57.9331V58.1474H100.802L100.93 58.9186C100.695 59.0043 100.545 59.0471 100.502 59.0471V59.2613L100.588 59.4756C100.48 59.4756 100.395 59.5613 100.373 59.6898C99.3879 60.4182 98.8738 60.9751 98.831 61.3822L98.9595 61.8106C98.9595 62.1105 98.6596 62.3462 98.0812 62.4961C97.5028 63.6529 96.8387 64.6812 96.0675 65.6024V65.7095C96.3031 65.7095 96.4531 65.8595 96.5387 66.1594C96.5387 66.4164 96.2817 66.7806 95.7675 67.2733H95.639C95.639 67.1877 95.6176 67.0805 95.5533 66.9306C95.7247 66.9092 95.8747 66.7164 95.9818 66.3736C95.8961 66.3736 95.8532 66.3308 95.8532 66.2451C95.7675 66.2451 95.5105 66.545 95.082 67.1448C94.9749 67.7446 94.825 68.0446 94.6536 68.0446C94.525 68.473 94.3537 68.6872 94.0966 68.7087V69.03H94.4393C94.4393 69.437 94.118 69.8226 93.4539 70.2511V70.3796L93.561 70.5938C93.4111 70.7438 93.0469 70.9152 92.4471 71.1508C92.1686 71.922 91.8044 72.479 91.3331 72.8218L91.4616 73.3788C90.7118 73.8072 90.3477 74.0857 90.3477 74.2571V74.4713H91.3331C91.7401 73.8072 92.1257 73.4644 92.4471 73.4644C94.0537 71.7721 94.9321 70.9152 95.1034 70.9152C96.3245 69.1371 97.0315 68.2588 97.2028 68.2588C97.6956 66.8021 98.1883 65.9666 98.7238 65.7095C99.3237 64.7455 99.6879 64.2528 99.8378 64.2528C100.502 62.8389 101.702 60.9537 103.48 58.5758H103.715C104.015 58.7044 104.165 58.8329 104.165 58.8972C105.343 59.1328 106.029 59.497 106.265 60.0111C107.293 60.0754 107.807 60.2039 107.807 60.4396C109.114 60.8466 109.821 61.1465 109.928 61.3393C110.099 61.3179 110.228 61.2965 110.356 61.2108C110.613 61.3393 110.828 61.425 111.042 61.425L111.684 61.4036V61.5321C112.284 61.5321 112.584 61.7892 112.584 62.3033H113.355C113.355 62.539 113.548 62.6461 113.934 62.6461H114.041L114.362 62.4319H114.469C114.705 62.5176 115.369 62.7318 116.462 63.0745C116.847 63.0103 117.083 62.9674 117.147 62.9674C117.361 63.1817 118.133 63.3959 119.461 63.6101C119.611 63.5244 119.718 63.4816 119.804 63.4816C120.211 63.4816 120.532 63.5673 120.81 63.7386C120.982 63.7386 121.282 63.6958 121.689 63.6101L122.696 63.7172C123.21 63.6315 123.51 63.5887 123.595 63.5887L124.024 63.8029C125.845 63.8029 127.173 63.6101 128.008 63.2459L128.565 63.4601L132.657 62.6675C136.406 61.1894 138.955 59.7326 140.283 58.3187C141.997 56.048 142.833 54.3127 142.833 53.0917C142.833 52.856 142.726 52.3847 142.49 51.6564L142.618 51.4421Z"/>
<path d="M93.6754 69.5872H93.5469V69.8228H93.6754V69.5872Z"/>
<path d="M89.9199 74.7271V75.027H90.2627V74.7271H89.9199Z"/>
<path d="M106.097 49.2336H105.883V49.4907H106.097V49.2336Z"/>
<path d="M198.34 34.882C198.94 34.882 199.84 34.4964 201.061 33.7466C203.482 32.1185 204.853 30.8332 205.131 29.8906V29.5264C205.088 29.5264 204.638 29.4407 203.76 29.2908C202.603 29.7835 201.703 30.2762 201.039 30.7903C198.404 32.0757 197.098 33.0183 197.098 33.6395C197.098 34.3679 197.505 34.7749 198.34 34.882Z"/>
<path d="M319.656 25.1982V25.2625L319.721 25.391C319.913 25.2625 319.999 25.1982 319.999 25.1982C319.999 25.1982 319.892 25.1982 319.656 25.1982Z"/>
<path d="M306.16 25.1336V24.491H305.604V25.1336H306.16Z"/>
<path d="M319.359 25.1357V25.2C319.488 25.2 319.574 25.2 319.659 25.2V25.1357H319.359Z"/>
<path d="M301.511 25.0072C301.467 24.9856 301.424 24.9856 301.381 24.9856C301.381 24.9856 301.381 24.9856 301.381 25.0072H301.511Z"/>
<path d="M312.223 24.8984V24.7271L311.666 24.7485L311.687 25.3911H312.223V25.1555C312.309 25.3269 312.48 25.434 312.737 25.4768V24.8984H312.223Z"/>
<path d="M244.959 39.3376C244.895 39.3376 244.873 39.3804 244.895 39.4661V39.5946C244.059 41.3084 242.517 42.5724 240.268 43.4078C241.917 41.0085 243.459 39.6589 244.959 39.3376ZM271.459 49.0848C271.63 49.6204 271.716 49.9845 271.716 50.1988V51.1842C271.223 52.1482 270.987 52.6838 270.987 52.7909C268.974 54.6975 267.281 55.6615 265.91 55.6615C265.375 55.6615 265.096 55.533 265.053 55.2973V55.1688C265.053 54.3547 267.024 52.3196 270.966 49.0848H271.459ZM211.883 53.0265C209.869 54.9331 208.177 55.8971 206.806 55.8971C206.27 55.8971 205.992 55.7686 205.949 55.533V55.4044C205.949 54.5904 207.92 52.5552 211.861 49.3204H212.354C212.525 49.856 212.611 50.2202 212.611 50.4344V51.4198C212.118 52.3839 211.883 52.9194 211.883 53.0265ZM151.45 45.3787C148.922 47.778 146.908 48.9777 145.387 48.9991H145.152C145.002 48.9991 144.916 48.9134 144.895 48.742V47.8851C145.023 46.8997 145.473 45.8714 146.244 44.7789C148.515 42.2939 150.657 40.7086 152.671 40.0445C153.399 40.0445 153.785 40.5372 153.785 41.5227V41.6512C153.785 42.5081 153.014 43.7506 151.45 45.3787ZM310.619 25.67V24.7489H309.569V25.2416H309.226C308.948 25.3487 308.777 25.3915 308.712 25.3915C308.412 25.2202 308.284 25.1773 308.284 25.2844C307.92 25.2844 307.834 25.2202 308.027 25.0916C307.791 25.0916 307.62 25.0488 307.491 24.9631C306.977 25.1345 306.72 25.3701 306.72 25.6915H306.227C305.52 25.2202 305.178 25.0274 305.178 25.1345C305.135 25.1345 305.113 25.113 305.113 25.0488V25.1345L305.263 25.4986L304.899 25.7343C304.578 25.413 304.299 25.263 304.064 25.263C303.785 25.5629 303.485 25.6915 303.164 25.6915L302.8 25.7129L302.971 24.9845L301.514 25.0059C301.921 25.0488 302.136 25.2844 302.136 25.7129C301.75 25.7129 301.493 25.4558 301.386 25.0059H300.936C301.107 24.9845 301.257 24.9845 301.386 24.9845C301.364 24.8988 301.343 24.8131 301.343 24.7274L300.957 24.7917L300.657 25.0916H301.022C301.022 25.3915 300.915 25.5629 300.657 25.5629C299.972 24.9845 299.415 24.6846 298.944 24.706L299.158 24.9202C299.136 25.0488 299.094 25.263 299.008 25.5629H298.408L298.365 25.5201V25.0702H298.108L297.894 24.706H294.98C294.873 24.706 294.788 25.0059 294.723 25.5843H294.274V25.1773H294.252C294.081 24.9845 293.909 24.9202 293.759 25.0274L293.138 24.7489C292.645 24.9417 292.281 25.0274 292.046 25.0274C292.046 24.8988 291.96 24.8131 291.767 24.7274L291.017 24.8774L288.554 24.8988C288.147 24.8988 287.483 24.9417 286.604 25.0488C286.604 24.9417 286.519 24.8988 286.347 24.8988C286.197 25.0059 286.047 25.0488 285.919 25.0488L285.34 24.7489L283.434 25.0702L283.198 24.9202C282.791 25.0274 282.427 25.0702 282.127 25.0702C281.741 25.0702 281.206 25.0274 280.499 24.9202L279.171 25.0916V25.113C279.149 25.0916 279.085 25.0916 279.021 25.0916H277.414L275.85 25.2416L275.743 24.9417L274.179 25.2202L273.451 25.113L269.359 25.3915L268.459 25.1559V25.2416C268.267 25.2416 267.581 25.2202 266.381 25.1345C266.167 25.1345 265.932 25.2202 265.675 25.413C265.482 25.413 265.396 25.4344 265.417 25.4558C262.932 25.4558 262.247 25.3915 263.404 25.263C263.061 25.263 262.74 25.2416 262.418 25.1559C262.118 25.2416 261.776 25.2844 261.433 25.2844H260.555C260.362 25.2844 260.19 25.2416 260.062 25.1559C259.933 25.2416 259.783 25.2844 259.569 25.2844H258.091C257.748 25.2844 257.427 25.3915 257.106 25.6058C256.549 25.3915 256.056 25.3058 255.606 25.3058C255.285 25.3058 254.642 25.413 253.721 25.6272L253.507 25.4986C253.378 25.5843 253.228 25.6272 253.014 25.6272H252.521C252.114 25.6272 251.707 25.5843 251.279 25.4772C249.822 25.6058 248.986 25.7557 248.836 25.9271C248.301 25.9271 247.658 25.8628 246.951 25.7771L246.33 25.9271L244.381 26.2056C237.74 26.7626 234.205 27.1268 233.798 27.2981L231.784 27.3196C231.591 27.3196 231.484 27.191 231.441 26.9125C233.07 24.1062 233.905 22.4138 233.884 21.8568C233.884 21.6212 233.712 21.2784 233.327 20.8071L232.62 20.9571L231.998 20.8071L231.806 20.9357C230.992 22.8208 230.435 23.9562 230.135 24.3847C230.135 24.9202 229.513 26.0985 228.249 27.9194C225.615 28.2193 220.902 29.119 214.111 30.64L213.811 31.3256L213.682 32.0539C213.896 32.5252 214.368 32.9322 215.075 33.2964L225.764 31.2184C225.914 31.3041 226.064 31.3684 226.193 31.3684C226.193 31.6897 225.914 32.4181 225.336 33.5321C224.843 34.1748 224.479 35.1388 224.222 36.4241C223.687 37.0668 223.365 37.9879 223.258 39.1662C222.958 39.916 222.744 40.6015 222.53 41.2656C222.444 41.3299 222.38 41.3513 222.294 41.4155C220.152 41.5869 217.817 42.4867 215.31 44.0934C214.111 44.8003 213.297 45.3359 212.847 45.7215L212.59 45.5929C211.09 43.6863 210.34 41.7797 210.34 39.916C210.34 39.209 211.09 38.7592 212.568 38.5449C212.74 38.5449 212.804 38.6092 212.825 38.7806C212.825 39.359 212.654 40.1516 212.333 41.1371C212.568 41.6298 212.89 41.8868 213.318 41.8868C213.489 41.8011 213.618 41.7583 213.682 41.7583C214.346 41.7583 214.882 40.7514 215.289 38.7806C215.289 37.5809 214.539 36.8311 213.061 36.5526C212.033 36.6598 210.962 36.9168 209.826 37.3024C208.755 37.3239 208.155 38.2664 207.984 40.173C207.984 40.4515 208.027 40.7729 208.091 41.0942C207.984 41.4584 207.877 41.6512 207.77 41.6512C205.692 43.9648 204.578 45.1431 204.449 45.1431C204.213 45.6358 203.956 45.8714 203.699 45.8714C200.936 48.3564 198.986 49.6204 197.894 49.6204H196.908C196.416 49.3633 196.159 48.892 196.159 48.2707V46.8997C196.159 45.2502 196.844 43.1079 198.237 40.4515V40.0874C198.022 39.6589 197.701 39.4661 197.251 39.4661H196.994L196.009 40.5801C195.387 41.1585 194.852 42.0582 194.381 43.215C191.317 46.4284 188.961 48.2922 187.333 48.8277H186.818C186.411 48.8277 186.197 48.6563 186.197 48.2922C186.197 47.3281 186.561 46.0214 187.333 44.3933C189.561 40.9871 190.674 38.8448 190.674 37.9665C190.267 36.9168 189.839 36.4027 189.389 36.4027C189.132 36.467 188.854 36.4884 188.554 36.4884C187.461 37.0025 186.004 37.4738 184.141 37.9023L183.391 37.3881L181.827 37.7951H181.077C180.606 38.1165 180.37 38.4592 180.37 38.8448V38.9734L181.077 39.8089C180.97 40.0445 180.906 40.2159 180.906 40.3444C180.306 40.73 179.985 41.1156 179.942 41.4798C180.006 41.6298 180.092 41.7369 180.156 41.844C176.407 45.9357 173.622 48.2922 171.78 48.892H171.244C170.837 48.892 170.623 48.7206 170.623 48.3564C170.623 47.3924 170.987 46.0856 171.758 44.4575C173.986 41.0514 175.1 38.9091 175.1 38.0308C174.693 36.9811 174.265 36.467 173.836 36.467C173.558 36.5312 173.279 36.5526 172.98 36.5526C171.908 37.0668 170.43 37.5381 168.567 37.9665L167.817 37.4524L166.253 37.8594H165.503C165.032 38.1593 164.796 38.5235 164.796 38.9091V39.0377L165.503 39.8731C165.396 40.0874 165.332 40.2802 165.332 40.3873C164.732 40.7943 164.411 41.1799 164.368 41.5441C164.411 41.6298 164.453 41.6726 164.475 41.7369C163.468 42.4224 162.954 42.8937 162.954 43.1079C160.233 46.257 158.305 47.8209 157.148 47.8209H156.42C156.163 47.8423 155.949 47.4567 155.777 46.7283V46.3427C155.777 44.886 156.356 43.1079 157.491 41.0085C157.491 40.9228 157.448 40.9014 157.363 40.9014C157.363 40.1516 156.827 39.7874 155.756 39.7874C154.685 38.802 153.721 38.3093 152.907 38.3093C151.407 38.4378 150.679 38.652 150.679 38.9305L147.208 41.1799C143.845 43.6435 142.153 46 142.174 48.2493V48.5064C142.624 50.2416 143.674 51.0985 145.28 51.0985H145.644C147.337 51.0771 149.693 49.7917 152.692 47.221H153.057V47.4781C153.914 49.449 155.199 50.4344 156.913 50.4344C158.819 50.413 161.133 48.6135 163.854 45.0145C164.518 44.179 165.032 43.3007 165.482 42.3796C165.653 42.3581 165.846 42.2939 166.039 42.1868C167.088 40.7729 167.667 40.0874 167.731 40.0874L167.838 40.0659C169.166 40.0659 170.687 39.5946 172.358 38.6735H172.787V38.7806C172.787 39.0377 172.573 39.5518 172.144 40.3658C171.459 41.1799 171.116 41.6726 171.116 41.8226C169.381 44.1576 168.395 46 168.181 47.3281V48.0565L168.309 48.2707C168.224 48.2707 168.138 48.4207 168.095 48.6778C168.138 48.6778 168.181 48.7849 168.181 48.9991C168.716 50.3273 169.809 50.9914 171.459 50.9914H171.866C173.515 50.3916 175.143 49.3633 176.728 47.9066C179.106 45.5501 180.456 43.8791 180.756 42.8937C180.949 42.6795 181.099 42.4652 181.249 42.2724C181.356 42.251 181.484 42.2082 181.613 42.1225C182.662 40.73 183.241 40.0231 183.305 40.0231H183.412C184.74 40.0017 186.261 39.5304 187.911 38.6092H188.361V38.7163C188.361 38.9734 188.147 39.5089 187.718 40.3016C187.033 41.1156 186.69 41.6083 186.69 41.7583C184.955 44.1148 183.969 45.9357 183.755 47.2639V47.9922L183.862 48.2065C183.798 48.2279 183.712 48.3564 183.648 48.6135C183.712 48.6135 183.755 48.7206 183.755 48.9348C184.291 50.263 185.383 50.9271 187.033 50.9271H187.44C189.089 50.3273 190.717 49.299 192.281 47.8423C192.688 47.4353 193.052 47.0711 193.395 46.7069C193.374 46.8569 193.331 47.0068 193.309 47.1568C193.374 47.6495 193.459 47.9066 193.567 47.9066C193.567 50.3701 195.023 51.784 197.915 52.0839L199.158 51.8483C200.893 51.377 202.992 49.9631 205.456 47.6066C206.827 46 207.898 44.4575 208.669 42.958C209.162 44.1362 209.933 45.4644 210.983 46.964V47.221L210.876 47.4567C208.07 49.6204 206.227 51.2699 205.306 52.4267C204.085 53.4978 203.464 54.3547 203.464 55.0402V55.6615C203.464 56.8183 204.599 57.5681 206.827 57.8894C208.669 57.6109 210.276 56.904 211.647 55.7472C213.382 54.6332 214.496 53.2193 214.968 51.527C214.968 50.1773 214.625 48.9348 213.961 47.8209L214.453 47.1996C217.86 45.2716 220.387 43.8577 222.058 42.9151C221.951 43.365 221.844 43.8149 221.78 44.2219C221.78 44.3076 221.823 44.4361 221.908 44.6289C221.823 45.1645 221.78 45.6143 221.801 45.9571V46.8354L221.544 47.2639V47.5209C221.801 47.8637 221.93 48.2065 221.93 48.5707V48.8706L221.801 49.1276C222.208 49.706 222.423 50.1773 222.423 50.5415C223.215 51.5055 224.458 52.1054 226.172 52.3624C227.671 52.341 229.449 51.6126 231.549 50.1559C232.62 49.5347 233.391 48.9563 233.905 48.4207C234.591 48.1208 235.619 47.2639 236.926 45.85L236.968 46.2784C237.847 48.8277 239.561 50.1131 242.11 50.0916C242.581 49.9417 243.031 49.8774 243.438 49.8774C247.465 49.0634 250.529 46.4284 252.65 41.9511C252.714 41.9297 252.8 41.8868 252.885 41.844C253.935 40.4301 254.492 39.7232 254.578 39.7232H254.685C256.013 39.7232 257.513 39.2519 259.184 38.3307L259.633 38.3093V38.4378C259.633 38.6949 259.419 39.209 258.991 40.0231C258.305 40.8371 257.962 41.3299 257.962 41.4798C256.227 43.8149 255.242 45.6572 255.006 46.9854L255.028 47.7138L255.135 47.928C255.049 47.928 254.985 48.0779 254.92 48.335C254.985 48.335 255.028 48.4421 255.028 48.6563C255.563 49.9845 256.656 50.6486 258.305 50.6486H258.712C260.362 50.0488 261.968 49.0205 263.554 47.5638C265.953 45.2073 267.303 43.5364 267.603 42.5509C267.624 42.5295 267.645 42.5081 267.667 42.4652C268.16 43.7077 268.974 45.1216 270.088 46.7283V46.9854L269.98 47.221C267.174 49.3847 265.31 51.0342 264.411 52.191C263.19 53.2622 262.568 54.1191 262.568 54.8046V55.4258C262.568 56.5827 263.704 57.3324 265.932 57.6538C267.774 57.3753 269.381 56.6683 270.752 55.5115C272.487 54.3976 273.601 52.9837 274.072 51.2913C274.072 49.9417 273.729 48.6992 273.065 47.5852L273.558 46.964C277.114 44.9503 279.728 43.4721 281.399 42.5295C282.705 41.3727 283.519 40.7943 283.884 40.7943V40.4301L283.755 40.173C283.198 40.173 282.405 40.5158 281.399 41.1799C279.256 41.3513 276.921 42.251 274.415 43.8577C273.215 44.5646 272.401 45.1216 271.951 45.4858L271.694 45.3573C270.195 43.4507 269.445 41.5441 269.445 39.6803C269.445 38.9734 270.195 38.5235 271.673 38.3093C271.823 38.3093 271.908 38.3736 271.908 38.5449C271.93 39.1233 271.759 39.916 271.437 40.9014C271.651 41.3941 271.994 41.6512 272.423 41.6512C272.594 41.5655 272.723 41.5227 272.787 41.5227C273.451 41.5227 273.986 40.5158 274.393 38.5449C274.393 37.3453 273.644 36.5955 272.166 36.317C271.137 36.4241 270.066 36.6812 268.931 37.0668C267.86 37.0882 267.26 38.0308 267.088 39.9374C267.088 40.3444 267.153 40.7943 267.281 41.287C267.238 41.287 267.196 41.3084 267.153 41.3299C263.339 45.5287 260.49 47.928 258.605 48.5492H258.091C257.663 48.5492 257.47 48.3778 257.47 48.0137C257.47 47.0497 257.834 45.7429 258.605 44.1148C260.833 40.7086 261.947 38.5664 261.947 37.688C261.519 36.6383 261.112 36.1242 260.662 36.1242C260.405 36.1885 260.126 36.2099 259.826 36.2099C258.734 36.7026 257.277 37.1739 255.413 37.6238L254.663 37.1096L253.078 37.5167H252.35C251.878 37.8166 251.643 38.1808 251.643 38.5664V38.6949L252.35 39.5304C252.221 39.7446 252.178 39.9374 252.178 40.0445C251.579 40.4515 251.257 40.8371 251.214 41.2013C251.236 41.2442 251.257 41.287 251.279 41.3299C250.85 41.8226 250.507 42.3581 250.272 42.8723C248.258 45.2502 246.673 46.6641 245.559 47.0497C244.423 47.4567 243.309 47.7138 242.174 47.8423C240.503 47.8423 239.668 47.371 239.646 46.407V45.9785L241.039 45.3359C242.345 45.1002 243.995 43.7934 246.009 41.437C246.566 40.6443 246.844 39.7017 246.844 38.5664C246.223 37.8594 245.645 37.5167 245.13 37.5167C244.166 37.5167 242.902 38.0522 241.339 39.1448C241.017 39.4018 240.717 39.6589 240.417 39.916C240.439 39.766 240.482 39.6375 240.503 39.5089L240.31 39.2305C238.918 41.3299 237.675 42.958 236.604 44.1148C235.79 44.8003 234.848 45.4644 233.776 46.1285C230.135 48.5707 227.628 49.7703 226.3 49.7917C225.122 49.7917 224.415 49.1919 224.222 47.9708L224.201 46.6641C224.201 45.6358 224.329 44.6289 224.565 43.6221C224.479 43.4507 224.436 43.3007 224.436 43.1936C224.436 42.958 225.208 40.5158 226.771 35.91C228.078 33.3393 228.742 31.9468 228.721 31.7326C229.321 30.7472 229.599 30.2544 229.535 30.233C237.868 29.2904 244.702 28.6478 250.058 28.3264L251.279 28.4764C251.493 28.4764 251.9 28.3693 252.521 28.155L253.271 28.305L257.513 28.0265C257.663 28.1122 257.855 28.1765 258.091 28.1765C258.862 27.9622 259.483 27.8551 259.955 27.8551H261.69L262.825 27.9622C262.825 27.898 262.997 27.8123 263.297 27.6837L263.918 27.8337L267.538 27.5552L268.138 27.8123C268.567 27.7266 268.931 27.6623 269.252 27.6623H269.745C271.523 27.6623 273.665 27.5552 276.214 27.3624C276.364 27.4695 276.493 27.5124 276.557 27.5124L278.271 27.0625C278.828 27.2553 279.214 27.341 279.385 27.341H279.899C280.477 27.1482 280.799 27.0625 280.884 27.0625H281.613C281.998 27.0625 282.298 27.1268 282.513 27.2767C282.513 27.1268 282.748 27.0411 283.241 27.0411C283.434 27.0411 283.605 27.0839 283.755 27.1696C284.162 27.0839 284.526 27.0411 284.848 27.0411H287.59L287.825 27.1482C288.811 26.6769 289.389 26.4412 289.539 26.4412H289.668C289.925 26.4412 290.182 26.5269 290.439 26.7197C290.546 26.7197 290.739 26.5698 290.996 26.2699H291.21C291.339 26.4841 291.981 26.6769 293.138 26.8483C293.995 26.6769 294.531 26.5698 294.745 26.5698L295.366 26.6983L295.837 26.4198L296.737 26.5698C296.973 26.5698 297.337 26.5055 297.83 26.3984C297.894 26.4412 297.958 26.4627 298.022 26.5055L298.108 26.3341C298.215 26.3127 298.322 26.2913 298.472 26.2484C298.622 26.2484 298.708 26.2484 298.687 26.2484C299.051 26.2484 299.244 26.2913 299.244 26.3984C300.272 26.3127 300.872 26.1627 301.022 25.9485H301.279V26.227H302.093C302.093 26.1199 302.093 26.0342 302.093 25.9271L302.8 26.0985C302.928 26.0985 303.121 25.9914 303.378 25.7986C303.614 25.7986 303.849 25.8628 304.128 26.0128C304.128 26.2056 304.428 26.1413 304.985 25.7771H305.156C305.499 25.7771 305.949 25.8414 306.484 25.9271L306.977 25.6486C307.448 25.7343 307.834 25.7771 308.112 25.7771H308.734C308.777 25.7771 309.076 25.6915 309.569 25.5415V25.82H310.619V25.7557C310.662 25.7557 310.683 25.7557 310.726 25.7557L310.619 25.67Z"/>
<path d="M313.36 25.4769C313.403 25.4769 313.403 25.5626 313.425 25.7126L314.496 25.4341L313.039 25.4555L313.36 25.4769Z"/>
<path d="M315.398 25.1357C314.991 25.2 314.884 25.35 315.098 25.6285H315.141C315.355 25.4142 315.441 25.3071 315.398 25.3071V25.1357Z"/>
<path d="M316.012 25.3064V25.9705L316.569 25.9491V25.3064H316.012Z"/>
<path d="M145.967 63.7807H148.195V64.2091L147.659 64.252L147.573 64.402L147.873 68.0223L149.801 63.7807H150.637L151.108 68.108L152.715 64.3377L152.651 64.2306L152.136 64.1877V63.7593H154V64.1877L153.443 64.252L151.087 69.629H150.294L149.823 65.1303L147.766 69.6505H146.952L146.524 64.3805L146.438 64.2734L145.967 64.2091V63.7807Z"/>
<path d="M155.394 63.2874C155.565 63.2874 155.715 63.3302 155.822 63.4373C155.929 63.523 155.972 63.673 155.972 63.8443C155.972 64.0157 155.908 64.1871 155.779 64.2942C155.651 64.4227 155.501 64.487 155.308 64.487C155.137 64.487 155.008 64.4442 154.879 64.3371C154.772 64.2514 154.73 64.1014 154.73 63.9515C154.73 63.7586 154.794 63.6087 154.922 63.4802C155.029 63.3516 155.201 63.2874 155.394 63.2874ZM155.222 65.3011H155.608L155.072 68.2574C155.051 68.3431 155.029 68.4287 155.029 68.493C155.029 68.5359 155.008 68.6001 155.008 68.6215C155.029 68.7929 155.051 68.9215 155.137 68.9857C155.201 69.0714 155.308 69.1143 155.458 69.1143C155.522 69.1143 155.586 69.1143 155.694 69.0714C155.801 69.05 155.908 69.0286 156.058 68.9643V69.3499C155.758 69.4784 155.479 69.5641 155.244 69.607C155.008 69.6713 154.772 69.6927 154.558 69.6927C154.344 69.6927 154.194 69.6498 154.087 69.5213C153.958 69.4142 153.915 69.2428 153.915 69.0072C153.915 68.9429 153.915 68.8786 153.937 68.7929C153.937 68.7072 153.958 68.5787 153.98 68.4073L154.451 66.0509L153.744 65.9437L153.723 65.6438L155.222 65.3011Z"/>
<path d="M157.922 64.3591H158.479L158.286 65.4731H159.486V65.9658H158.2L157.815 68.1081C157.793 68.2152 157.772 68.2794 157.772 68.3651C157.772 68.4294 157.751 68.4937 157.751 68.5579C157.751 68.7507 157.793 68.8793 157.901 68.9864C157.986 69.0721 158.115 69.1149 158.286 69.1149C158.372 69.1149 158.479 69.0935 158.607 69.0721C158.736 69.0507 158.886 69.0078 159.036 68.9435V69.3077C158.672 69.4363 158.372 69.5434 158.115 69.5862C157.879 69.6505 157.686 69.6933 157.536 69.6933C157.258 69.6933 157.044 69.6076 156.894 69.4791C156.765 69.3291 156.679 69.1363 156.679 68.8578C156.679 68.7722 156.679 68.665 156.701 68.5794C156.701 68.4937 156.722 68.3866 156.744 68.2794L157.172 65.9872L156.594 66.0087V65.6873L157.344 65.3231L157.922 64.3591Z"/>
<path d="M161.536 63.1584H161.943C161.878 63.3727 161.835 63.6083 161.771 63.844C161.728 64.101 161.664 64.3581 161.621 64.658L161.321 66.1362C161.664 65.8363 161.985 65.622 162.264 65.4935C162.542 65.3435 162.799 65.2578 163.014 65.2578C163.249 65.2578 163.464 65.3435 163.613 65.4935C163.763 65.6435 163.849 65.8363 163.849 66.0933C163.849 66.179 163.828 66.2861 163.828 66.3932C163.806 66.5218 163.785 66.6503 163.763 66.8003L163.485 68.0213C163.464 68.1713 163.442 68.3213 163.421 68.407C163.421 68.5141 163.399 68.5998 163.399 68.664C163.399 68.814 163.442 68.9211 163.506 69.0068C163.571 69.0925 163.656 69.1353 163.763 69.1353C163.849 69.1353 163.935 69.1139 164.042 69.0925C164.128 69.071 164.235 69.0496 164.342 69.0068V69.3495C164.063 69.4567 163.828 69.5209 163.592 69.5852C163.378 69.628 163.185 69.6709 163.035 69.6709C162.799 69.6709 162.628 69.6066 162.5 69.4995C162.392 69.3924 162.328 69.2424 162.328 69.0282C162.328 68.9639 162.328 68.8997 162.328 68.814C162.35 68.7497 162.371 68.6426 162.392 68.5569L162.692 67.1002C162.714 66.9716 162.735 66.8645 162.757 66.7574C162.757 66.6717 162.778 66.586 162.778 66.5218C162.778 66.3504 162.735 66.2433 162.671 66.1362C162.585 66.0505 162.478 66.0076 162.35 66.0076C162.221 66.0076 162.05 66.0719 161.857 66.179C161.664 66.2647 161.471 66.4147 161.257 66.6075L160.721 69.5852H159.629L160.764 63.9082L159.993 63.8011V63.5012L161.536 63.1584Z"/>
<path d="M170.535 64.3367L169.807 63.5655C169.678 63.7154 169.55 63.9511 169.443 64.2724C169.336 64.5938 169.25 65.0008 169.164 65.4721H170.343V65.9862H169.079L168.779 68.2784C168.714 68.7069 168.629 69.071 168.543 69.371C168.436 69.6923 168.307 69.9708 168.158 70.2064C167.922 70.592 167.643 70.892 167.343 71.1062C167.044 71.3204 166.765 71.4275 166.487 71.4275C166.315 71.4275 166.165 71.3847 166.058 71.2776C165.93 71.1705 165.887 71.0419 165.887 70.892C165.887 70.7634 165.908 70.6563 165.972 70.5492C166.015 70.4635 166.122 70.3992 166.229 70.335L167.151 70.8277C167.279 70.6777 167.365 70.4635 167.451 70.1422C167.536 69.8423 167.622 69.3495 167.729 68.664L168.093 65.9862L167.493 66.0719L167.515 65.6863L168.179 65.3864C168.307 64.7223 168.543 64.1867 168.929 63.7797C169.336 63.3727 169.764 63.1584 170.235 63.1584C170.493 63.1584 170.685 63.2013 170.857 63.3298C171.007 63.4369 171.092 63.5869 171.092 63.7583C171.092 63.8868 171.05 64.0153 170.942 64.1225C170.835 64.2081 170.707 64.2938 170.535 64.3367Z"/>
<path d="M172.916 65.6655C172.916 65.6655 172.895 65.6655 172.873 65.6441C172.852 65.6441 172.83 65.6441 172.809 65.6441C172.38 65.6441 172.038 65.8583 171.759 66.3082C171.459 66.7366 171.331 67.2722 171.331 67.9149C171.331 68.2362 171.374 68.4933 171.502 68.6647C171.609 68.836 171.781 68.9217 171.995 68.9217C172.123 68.9217 172.252 68.8789 172.402 68.8146C172.552 68.7503 172.702 68.6432 172.873 68.5147L173.28 66.1796L172.916 65.6655ZM173.987 65.2371H174.501C174.48 65.3442 174.437 65.5156 174.373 65.7512C174.33 65.9868 174.266 66.2653 174.223 66.5653L173.966 67.9791C173.944 68.1291 173.923 68.2576 173.901 68.3647C173.88 68.4504 173.88 68.5361 173.88 68.6004C173.88 68.7503 173.923 68.8575 173.987 68.9431C174.051 69.0288 174.159 69.0717 174.244 69.0717C174.33 69.0717 174.437 69.0503 174.523 69.0503C174.63 69.0288 174.716 68.986 174.823 68.9646V69.3073C174.523 69.4144 174.266 69.5001 174.051 69.543C173.837 69.5858 173.666 69.6287 173.516 69.6287C173.302 69.6287 173.13 69.5644 173.023 69.4573C172.916 69.3288 172.852 69.1788 172.852 68.9646V68.9217C172.616 69.1574 172.38 69.3288 172.145 69.4573C171.909 69.5644 171.695 69.6287 171.481 69.6287C171.074 69.6287 170.774 69.5001 170.538 69.2216C170.324 68.9217 170.217 68.5361 170.217 68.0434C170.217 67.7221 170.26 67.4222 170.345 67.1437C170.431 66.8437 170.56 66.5653 170.731 66.2868C170.945 65.9654 171.224 65.7084 171.566 65.5156C171.909 65.3228 172.273 65.2371 172.659 65.2371C172.809 65.2371 172.98 65.2585 173.152 65.2799C173.323 65.3228 173.494 65.3656 173.666 65.4513L173.987 65.2371Z"/>
<path d="M176.939 63.2024C177.11 63.2024 177.26 63.2452 177.367 63.3523C177.474 63.438 177.517 63.588 177.517 63.7594C177.517 63.9308 177.474 64.1021 177.346 64.2092C177.217 64.3378 177.046 64.4021 176.874 64.4021C176.682 64.4021 176.553 64.3592 176.424 64.2521C176.317 64.1664 176.274 64.0164 176.274 63.8665C176.274 63.6737 176.339 63.5237 176.467 63.3952C176.596 63.2667 176.746 63.2024 176.939 63.2024ZM176.767 65.2161H177.153L176.617 68.1724C176.596 68.2581 176.574 68.3438 176.574 68.4081C176.574 68.4509 176.574 68.5152 176.574 68.5366C176.574 68.708 176.596 68.8365 176.682 68.9008C176.746 68.9865 176.853 69.0293 177.003 69.0293C177.067 69.0293 177.153 69.0293 177.239 68.9865C177.346 68.965 177.474 68.9436 177.603 68.8793V69.265C177.303 69.3935 177.046 69.4792 176.789 69.522C176.553 69.5863 176.317 69.6077 176.103 69.6077C175.889 69.6077 175.739 69.5649 175.632 69.4363C175.525 69.3292 175.46 69.1578 175.46 68.9222C175.46 68.8579 175.46 68.7937 175.482 68.708C175.482 68.6223 175.503 68.4937 175.546 68.3224L175.996 65.9659L175.289 65.8588V65.5589L176.767 65.2161Z"/>
<path d="M179.465 64.2734H180.022L179.829 65.3874H181.029V65.8801H179.743L179.358 68.0224C179.336 68.1295 179.315 68.1937 179.315 68.2794C179.315 68.3437 179.294 68.408 179.294 68.4722C179.315 68.665 179.358 68.7936 179.443 68.9007C179.529 68.9864 179.658 69.0292 179.829 69.0292C179.915 69.0292 180.022 69.0078 180.15 68.9864C180.279 68.965 180.429 68.9221 180.579 68.8578V69.222C180.215 69.3506 179.915 69.4577 179.658 69.5005C179.422 69.5648 179.229 69.6076 179.079 69.6076C178.801 69.6076 178.587 69.5219 178.437 69.3934C178.308 69.2435 178.222 69.0506 178.222 68.7722C178.222 68.6865 178.244 68.5794 178.244 68.4937C178.244 68.408 178.265 68.3009 178.287 68.1937L178.715 65.9015L178.137 65.923V65.6016L178.887 65.2374L179.465 64.2734Z"/>
<path d="M183.086 63.0747H183.493C183.429 63.2889 183.386 63.5246 183.322 63.7602C183.279 64.0173 183.236 64.2744 183.172 64.5743L182.872 66.0524C183.236 65.7525 183.536 65.5383 183.815 65.4098C184.093 65.2598 184.35 65.1741 184.564 65.1741C184.822 65.1741 185.014 65.2598 185.164 65.4098C185.314 65.5597 185.4 65.7525 185.4 66.0096C185.4 66.0953 185.4 66.2024 185.378 66.3095C185.357 66.438 185.336 66.5666 185.314 66.7165L185.057 67.9376C185.014 68.0876 184.993 68.2375 184.971 68.3232C184.971 68.4303 184.95 68.516 184.95 68.5803C184.95 68.7302 184.993 68.8374 185.057 68.923C185.143 69.0087 185.229 69.0516 185.336 69.0516C185.4 69.0516 185.507 69.0302 185.593 69.0087C185.678 68.9873 185.786 68.9659 185.893 68.923V69.2658C185.614 69.3729 185.378 69.4372 185.164 69.5014C184.929 69.5443 184.757 69.5871 184.586 69.5871C184.35 69.5871 184.179 69.5229 184.05 69.4158C183.943 69.3086 183.879 69.1587 183.879 68.9445C183.879 68.8802 183.879 68.8159 183.9 68.7302C183.9 68.666 183.922 68.5589 183.943 68.4732L184.243 67.0164C184.286 66.8879 184.286 66.7808 184.307 66.6737C184.329 66.588 184.329 66.5023 184.329 66.438C184.329 66.2667 184.286 66.1595 184.222 66.0524C184.136 65.9667 184.05 65.9239 183.9 65.9239C183.772 65.9453 183.6 65.9882 183.429 66.0953C183.236 66.181 183.022 66.3309 182.808 66.5237L182.272 69.5014H181.18L182.315 63.8245L181.544 63.7174V63.4175L183.086 63.0747Z"/>
<path d="M190.669 63.1392C190.84 63.1392 190.99 63.182 191.097 63.2891C191.205 63.3962 191.247 63.5248 191.247 63.6961C191.247 63.8889 191.183 64.0389 191.055 64.1674C190.926 64.296 190.776 64.3602 190.583 64.3602C190.412 64.3602 190.262 64.296 190.155 64.2103C190.048 64.1032 189.983 63.9746 189.983 63.8033C189.983 63.6105 190.048 63.4605 190.176 63.332C190.305 63.2034 190.476 63.1392 190.669 63.1392ZM190.498 65.1743H190.883L190.326 68.1092C190.326 68.2163 190.305 68.2806 190.305 68.3448C190.283 68.4091 190.283 68.4519 190.283 68.4948C190.283 68.6447 190.326 68.7733 190.391 68.859C190.476 68.9446 190.583 68.9875 190.712 68.9875C190.776 68.9875 190.862 68.9661 190.969 68.9446C191.076 68.9232 191.183 68.8804 191.312 68.8375V69.2231C191.033 69.3303 190.755 69.4159 190.519 69.4802C190.283 69.5231 190.048 69.5659 189.834 69.5659C189.619 69.5659 189.448 69.5016 189.341 69.3945C189.234 69.266 189.191 69.0946 189.191 68.8804C189.191 68.8161 189.191 68.7304 189.191 68.6662C189.212 68.559 189.234 68.4519 189.255 68.2806L189.726 65.9241L188.998 65.817V65.4956L190.498 65.1743Z"/>
<path d="M193.287 65.1521H193.629L193.458 66.0304C193.822 65.7091 194.143 65.4949 194.422 65.3663C194.7 65.2164 194.958 65.1521 195.193 65.1521C195.429 65.1521 195.622 65.2164 195.772 65.3877C195.922 65.5377 196.007 65.7519 196.007 66.009C196.007 66.0733 195.986 66.1804 195.986 66.2875C195.964 66.416 195.943 66.5446 195.9 66.6945L195.643 67.8942C195.622 68.0656 195.6 68.1941 195.579 68.3012C195.557 68.4083 195.557 68.494 195.557 68.5583C195.557 68.6868 195.6 68.7939 195.664 68.8796C195.729 68.9653 195.814 69.0081 195.922 69.0081C196.007 69.0081 196.093 68.9867 196.2 68.9653C196.286 68.9439 196.393 68.9225 196.5 68.8796V69.2224C196.243 69.3295 196.007 69.3937 195.772 69.458C195.557 69.5009 195.343 69.5437 195.193 69.5437C194.958 69.5437 194.786 69.4794 194.658 69.3723C194.55 69.2652 194.486 69.1153 194.486 68.901C194.486 68.8582 194.486 68.7939 194.486 68.7297C194.508 68.6654 194.529 68.5583 194.55 68.4297L194.85 66.973C194.872 66.8445 194.893 66.7374 194.915 66.6302C194.915 66.5446 194.936 66.4589 194.936 66.3946C194.936 66.2446 194.893 66.1161 194.808 66.0304C194.743 65.9447 194.636 65.9019 194.486 65.9019C194.358 65.9019 194.208 65.9447 194.015 66.0518C193.822 66.1375 193.629 66.2875 193.415 66.4803L192.901 69.458H191.787L192.473 65.9233L191.766 65.8162L191.744 65.5163L193.287 65.1521Z"/>
<path d="M205.049 63.716L204.792 65.2156H204.171V64.2516L204.063 64.0802C203.956 64.0373 203.849 64.0159 203.764 64.0159C203.656 63.9945 203.571 63.9731 203.485 63.9731C203.164 63.9731 202.864 64.0373 202.607 64.123C202.328 64.2301 202.093 64.3801 201.878 64.5729C201.557 64.8514 201.321 65.2156 201.129 65.6654C200.957 66.0939 200.872 66.5652 200.872 67.0793C200.872 67.6577 201.043 68.129 201.343 68.4504C201.664 68.7931 202.093 68.9645 202.628 68.9645C202.671 68.9645 202.735 68.9645 202.821 68.9431C202.885 68.9431 202.971 68.9431 203.078 68.9217L203.399 67.1436L203.314 67.0151L202.714 66.9722V66.5438L205.177 66.5223V66.9508L204.642 67.0151L204.513 67.1222L204.128 69.1359C203.785 69.2644 203.442 69.3501 203.121 69.4144C202.8 69.4786 202.478 69.5001 202.178 69.5001C201.429 69.5215 200.807 69.2858 200.357 68.8574C199.886 68.4075 199.672 67.8077 199.672 67.0579C199.672 66.4795 199.779 65.9225 200.036 65.4298C200.272 64.9157 200.636 64.5086 201.086 64.1659C201.407 63.9302 201.771 63.7588 202.157 63.6303C202.542 63.5018 202.928 63.4375 203.357 63.4375C203.656 63.4375 203.956 63.4589 204.235 63.5018C204.535 63.566 204.792 63.6303 205.049 63.716Z"/>
<path d="M207.855 65.5582C207.533 65.5582 207.255 65.7724 207.019 66.2009C206.784 66.6293 206.676 67.1649 206.676 67.8076C206.676 68.2146 206.741 68.5145 206.869 68.7287C206.998 68.9215 207.169 69.0286 207.426 69.0286C207.748 69.0286 208.047 68.8144 208.283 68.386C208.519 67.9575 208.626 67.422 208.626 66.8007C208.626 66.3723 208.562 66.0723 208.433 65.8581C208.305 65.6439 208.112 65.5582 207.855 65.5582ZM207.962 65.0869C208.519 65.0869 208.947 65.2583 209.269 65.5796C209.59 65.901 209.74 66.3294 209.761 66.8864C209.761 67.2292 209.697 67.5933 209.547 67.9147C209.418 68.236 209.247 68.5359 208.99 68.793C208.776 69.0072 208.54 69.1786 208.24 69.3071C207.962 69.4357 207.662 69.4785 207.319 69.4785C206.784 69.4999 206.355 69.3286 206.034 69.0072C205.712 68.6859 205.541 68.236 205.541 67.679C205.541 67.3363 205.605 67.0149 205.734 66.6722C205.884 66.3508 206.055 66.0509 206.291 65.8153C206.526 65.5796 206.762 65.4083 207.062 65.2797C207.341 65.1512 207.662 65.0869 207.962 65.0869Z"/>
<path d="M213.076 65.4525C213.012 65.4525 212.99 65.4525 212.969 65.4525C212.926 65.4525 212.905 65.4525 212.905 65.4525C212.519 65.4525 212.198 65.6667 211.898 66.138C211.598 66.5879 211.448 67.1234 211.448 67.7447C211.469 68.066 211.512 68.3231 211.641 68.4945C211.748 68.6873 211.919 68.773 212.134 68.773C212.262 68.773 212.412 68.7301 212.583 68.6444C212.733 68.5587 212.905 68.4302 213.076 68.2802L213.44 65.988L213.076 65.4525ZM214.597 62.946H214.961L214.169 67.8304C214.147 68.0017 214.126 68.1303 214.126 68.2374C214.104 68.3445 214.104 68.4088 214.104 68.473C214.104 68.6016 214.126 68.7087 214.212 68.7944C214.276 68.8801 214.361 68.9229 214.469 68.9229C214.554 68.9015 214.64 68.9015 214.747 68.8801C214.833 68.8586 214.94 68.8372 215.047 68.7944V69.1371C214.747 69.2443 214.49 69.3299 214.276 69.3942C214.062 69.4371 213.869 69.4585 213.719 69.4585C213.483 69.4585 213.312 69.4156 213.183 69.2871C213.076 69.18 213.012 68.9872 213.012 68.7515V68.7301C212.776 68.9658 212.541 69.1586 212.305 69.2871C212.069 69.4156 211.834 69.4799 211.598 69.4799C211.234 69.4799 210.934 69.3299 210.698 69.03C210.484 68.7301 210.355 68.3445 210.355 67.8518C210.355 67.5519 210.398 67.2734 210.484 66.9735C210.548 66.695 210.677 66.4379 210.827 66.1808C211.062 65.8167 211.362 65.5382 211.705 65.3454C212.048 65.1526 212.433 65.0454 212.862 65.0454C212.969 65.0454 213.076 65.0669 213.205 65.0883C213.312 65.1097 213.44 65.1526 213.569 65.1954L213.826 63.6958L213.076 63.5887V63.2888L214.597 62.946Z"/>
<path d="M220.66 65.4734C220.639 65.4734 220.639 65.4734 220.617 65.4734C220.574 65.4519 220.553 65.4519 220.553 65.4519C220.125 65.4519 219.782 65.6876 219.482 66.116C219.203 66.5445 219.053 67.0801 219.053 67.7227C219.053 68.0655 219.118 68.3011 219.225 68.4725C219.353 68.6439 219.503 68.7296 219.739 68.7296C219.867 68.7296 219.996 68.7082 220.146 68.6225C220.275 68.5582 220.446 68.4511 220.617 68.3226L221.003 65.9875L220.66 65.4734ZM221.731 65.0449H222.245C222.203 65.152 222.16 65.3234 222.117 65.5591C222.053 65.8161 222.01 66.0732 221.945 66.3731L221.688 67.8084C221.667 67.937 221.667 68.0655 221.646 68.1726C221.624 68.2797 221.624 68.3654 221.624 68.4082C221.624 68.5582 221.667 68.6653 221.731 68.751C221.795 68.8367 221.881 68.8795 221.988 68.8795C222.074 68.8795 222.16 68.8795 222.267 68.8581C222.352 68.8367 222.46 68.8153 222.567 68.7724V69.1152C222.267 69.2223 221.988 69.308 221.795 69.3508C221.581 69.4151 221.41 69.4365 221.26 69.4365C221.046 69.4365 220.874 69.3723 220.767 69.2651C220.66 69.158 220.596 68.9867 220.596 68.7724V68.7296C220.36 68.9652 220.125 69.1366 219.889 69.2651C219.653 69.3723 219.418 69.4365 219.203 69.4365C218.818 69.4365 218.496 69.308 218.282 69.0295C218.068 68.751 217.939 68.3654 217.939 67.8513C217.939 67.5299 217.982 67.23 218.068 66.9515C218.154 66.6516 218.282 66.3731 218.454 66.116C218.668 65.7733 218.946 65.5162 219.289 65.3234C219.632 65.152 219.996 65.0449 220.403 65.0449C220.553 65.0449 220.724 65.0663 220.896 65.1092C221.046 65.1306 221.217 65.1949 221.41 65.2591L221.731 65.0449Z"/>
<path d="M224.544 65.0225H224.887L224.716 65.9008C225.08 65.6009 225.401 65.3652 225.68 65.2367C225.958 65.0867 226.215 65.0225 226.451 65.0225C226.687 65.0225 226.879 65.1082 227.029 65.2581C227.179 65.4081 227.244 65.6223 227.244 65.8794C227.244 65.965 227.244 66.0507 227.222 66.1793C227.201 66.2864 227.179 66.4149 227.158 66.5649L226.901 67.7645C226.858 67.9359 226.837 68.0645 226.815 68.1716C226.815 68.2787 226.794 68.3644 226.794 68.4286C226.794 68.5572 226.837 68.6643 226.901 68.75C226.987 68.8357 227.072 68.8785 227.179 68.8785C227.265 68.8785 227.351 68.8571 227.436 68.8357C227.544 68.8142 227.629 68.7928 227.736 68.75L227.758 69.0927C227.479 69.1998 227.244 69.2855 227.029 69.3284C226.794 69.3926 226.601 69.4141 226.43 69.4141C226.194 69.4141 226.023 69.3712 225.915 69.2641C225.787 69.157 225.723 68.9856 225.723 68.7928C225.723 68.7285 225.744 68.6643 225.744 68.6C225.744 68.5357 225.765 68.4286 225.787 68.3001L226.108 66.8434C226.13 66.7148 226.151 66.6077 226.151 66.522C226.172 66.4149 226.172 66.3292 226.172 66.265C226.172 66.115 226.13 65.9865 226.065 65.9008C225.98 65.8151 225.873 65.7722 225.744 65.7722C225.615 65.7722 225.444 65.8151 225.273 65.9222C225.08 66.0293 224.866 66.1579 224.651 66.3507L224.159 69.3284L223.045 69.3498L223.73 65.7937L223.002 65.708V65.3866L224.544 65.0225Z"/>
<path d="M230.906 65.387C230.863 65.387 230.842 65.387 230.799 65.3656C230.778 65.3656 230.756 65.3656 230.735 65.3656C230.371 65.3656 230.028 65.6013 229.749 66.0511C229.45 66.5224 229.3 67.058 229.3 67.6792C229.3 68.0006 229.364 68.2577 229.492 68.429C229.599 68.6218 229.771 68.7075 229.985 68.7075C230.114 68.7075 230.264 68.6647 230.414 68.579C230.585 68.4933 230.756 68.3648 230.928 68.2148L231.292 65.9226L230.906 65.387ZM232.449 62.8806H232.813L232.02 67.7649C231.999 67.9149 231.977 68.0649 231.956 68.1505C231.956 68.2577 231.956 68.3433 231.956 68.3862C231.956 68.5361 231.977 68.6433 232.063 68.7075C232.127 68.7932 232.213 68.8361 232.32 68.8361C232.406 68.8361 232.492 68.8361 232.577 68.8146C232.684 68.7932 232.791 68.7718 232.899 68.729V69.0717C232.599 69.1788 232.342 69.2645 232.127 69.3074C231.913 69.3716 231.72 69.393 231.57 69.393C231.335 69.393 231.163 69.3288 231.035 69.2217C230.928 69.1146 230.863 68.9218 230.863 68.6861V68.6433C230.628 68.9003 230.371 69.0931 230.135 69.2217C229.899 69.3288 229.685 69.393 229.45 69.393C229.085 69.393 228.785 69.2645 228.55 68.9646C228.314 68.6647 228.207 68.2791 228.207 67.7864C228.207 67.4864 228.25 67.1865 228.314 66.908C228.4 66.6295 228.528 66.3511 228.678 66.1154C228.914 65.7512 229.192 65.4727 229.557 65.2799C229.899 65.0871 230.285 64.98 230.713 64.98C230.821 64.98 230.928 65.0014 231.056 65.0229C231.163 65.0443 231.292 65.0871 231.42 65.13L231.656 63.6304L230.928 63.5233V63.2234L232.449 62.8806Z"/>
<path d="M237.715 62.8601H238.079L237.244 67.0375L238.379 65.8378C238.701 65.4951 238.936 65.2808 239.129 65.1523C239.322 65.0238 239.493 64.9595 239.643 64.9595C239.793 64.9595 239.922 65.0238 240.029 65.1309C240.136 65.238 240.179 65.388 240.179 65.5593C240.179 65.7307 240.115 65.8807 240.007 66.0092C239.879 66.1377 239.708 66.2449 239.472 66.3091L239.151 65.795C238.979 65.9449 238.829 66.0735 238.679 66.1806C238.529 66.3091 238.422 66.3948 238.358 66.4805C238.401 66.5662 238.444 66.6733 238.508 66.8018C239.086 68.1515 239.558 68.837 239.943 68.837C239.986 68.837 240.029 68.837 240.115 68.8156C240.179 68.7941 240.265 68.7727 240.372 68.7299V69.094C240.093 69.1797 239.836 69.244 239.643 69.2868C239.429 69.3511 239.258 69.3725 239.129 69.3725C238.915 69.3725 238.722 69.3083 238.594 69.1797C238.444 69.0512 238.294 68.7941 238.122 68.4085L237.587 67.1232L237.18 67.5731L236.88 69.2868H235.83L236.923 63.567L236.13 63.5028V63.2029L237.715 62.8601Z"/>
<path d="M242.259 64.96H242.602L242.431 65.8169C242.816 65.5169 243.138 65.3027 243.416 65.1742C243.695 65.0242 243.952 64.96 244.187 64.96C244.402 64.96 244.594 65.0242 244.744 65.1956C244.894 65.3456 244.98 65.5598 244.98 65.8169C244.98 65.8811 244.98 65.9882 244.959 66.0954C244.937 66.2239 244.916 66.3524 244.873 66.5024L244.637 67.702C244.594 67.8734 244.573 68.002 244.551 68.1091C244.53 68.2162 244.53 68.3019 244.53 68.3661C244.53 68.4947 244.573 68.6018 244.637 68.6875C244.701 68.7732 244.787 68.816 244.894 68.816C244.98 68.816 245.066 68.7946 245.173 68.7732C245.258 68.7517 245.366 68.7303 245.473 68.6875V69.0302C245.216 69.1373 244.98 69.2016 244.744 69.2659C244.53 69.3087 244.337 69.3516 244.166 69.3516C243.93 69.3516 243.759 69.2873 243.63 69.1802C243.523 69.0731 243.459 68.9231 243.459 68.7089C243.459 68.666 243.459 68.6018 243.48 68.5375C243.48 68.4732 243.502 68.3661 243.523 68.2376L243.823 66.7809C243.845 66.6523 243.866 66.5452 243.887 66.4381C243.909 66.3524 243.909 66.2667 243.909 66.2025C243.909 66.0525 243.866 65.924 243.78 65.8383C243.716 65.7526 243.609 65.6883 243.48 65.6883C243.33 65.7097 243.18 65.7526 242.988 65.8597C242.816 65.9454 242.602 66.0954 242.388 66.2882L241.874 69.2659H240.781L241.467 65.7312L240.738 65.6241V65.3241L242.259 64.96Z"/>
<path d="M248.234 65.3874C247.891 65.3874 247.612 65.6016 247.377 66.03C247.162 66.4799 247.034 67.0155 247.034 67.6582C247.034 68.0652 247.098 68.3651 247.227 68.5579C247.355 68.7721 247.548 68.8792 247.784 68.8792C248.126 68.8792 248.405 68.665 248.641 68.2366C248.876 67.8081 249.005 67.2725 248.983 66.6299C248.983 66.2228 248.919 65.9015 248.791 65.7087C248.683 65.4945 248.491 65.3874 248.234 65.3874ZM248.341 64.9375C248.876 64.9375 249.326 65.0875 249.626 65.4088C249.947 65.7301 250.119 66.18 250.119 66.7156C250.119 67.0797 250.054 67.4225 249.926 67.7438C249.797 68.0866 249.605 68.3651 249.369 68.6222C249.155 68.8578 248.898 69.0292 248.619 69.1363C248.319 69.2648 248.019 69.3291 247.698 69.3291C247.141 69.3291 246.713 69.1791 246.391 68.8364C246.07 68.5151 245.92 68.0866 245.92 67.5296C245.92 67.1869 245.984 66.8441 246.113 66.5228C246.241 66.18 246.434 65.9015 246.67 65.6444C246.884 65.4302 247.141 65.2374 247.419 65.1303C247.719 65.0018 248.019 64.9375 248.341 64.9375Z"/>
<path d="M251.766 64.9162H252.173L252.366 68.1081C252.687 67.4655 252.987 66.9299 253.223 66.4372C253.458 65.9659 253.673 65.516 253.844 65.109L254.679 65.0447C254.701 65.4732 254.722 65.9873 254.765 66.5443C254.787 67.1227 254.829 67.7225 254.872 68.3866C255.194 67.9796 255.451 67.6154 255.643 67.2941C255.858 66.9513 256.008 66.6728 256.093 66.4372L255.879 65.1304C255.965 65.0662 256.05 65.0019 256.136 64.959C256.222 64.9162 256.329 64.8948 256.415 64.8948C256.586 64.8948 256.736 64.959 256.843 65.0662C256.95 65.1733 256.993 65.3232 256.993 65.516C256.993 65.8159 256.843 66.2444 256.522 66.78C256.2 67.3369 255.601 68.1296 254.744 69.2221H253.994L253.822 66.2015C253.544 66.7585 253.266 67.2727 252.987 67.7868C252.73 68.2795 252.451 68.7722 252.194 69.2221H251.38L251.445 68.965L251.252 65.6446L250.523 65.5374V65.259L251.766 64.9162Z"/>
<path d="M258.452 63.524L257.746 63.4168V63.1169L259.224 62.7742H259.609L258.731 67.6371C258.667 67.9584 258.645 68.1726 258.645 68.2797C258.645 68.4083 258.667 68.5154 258.731 68.6011C258.795 68.6868 258.881 68.7296 258.988 68.7296C259.095 68.7296 259.202 68.7082 259.331 68.6868C259.438 68.6653 259.566 68.6225 259.695 68.5797V68.9438C259.374 69.051 259.095 69.1366 258.881 69.2009C258.645 69.2652 258.474 69.2866 258.324 69.2866C258.088 69.2866 257.895 69.2438 257.767 69.1152C257.617 69.0081 257.553 68.8582 257.553 68.6439C257.553 68.5582 257.574 68.4083 257.617 68.1941V68.1726L258.452 63.524Z"/>
<path d="M261.241 66.8442C261.691 66.8228 262.076 66.7157 262.355 66.5015C262.655 66.2872 262.805 66.0516 262.805 65.7731C262.805 65.6446 262.762 65.5374 262.698 65.4518C262.612 65.3661 262.505 65.3446 262.376 65.3446C262.141 65.3446 261.926 65.4732 261.712 65.7303C261.519 66.0087 261.348 66.3729 261.241 66.8442ZM261.177 67.2084L261.155 67.2298C261.155 67.3369 261.155 67.4226 261.155 67.4655C261.155 67.8511 261.241 68.1296 261.391 68.3224C261.562 68.5152 261.798 68.6223 262.098 68.6223C262.291 68.6223 262.505 68.558 262.719 68.4509C262.955 68.3438 263.19 68.1938 263.447 68.001V68.5366C263.147 68.7722 262.826 68.965 262.526 69.0936C262.226 69.2007 261.926 69.265 261.648 69.265C261.177 69.2864 260.791 69.1364 260.512 68.8365C260.234 68.5366 260.105 68.1296 260.105 67.6154C260.105 67.2084 260.191 66.8228 260.363 66.4586C260.512 66.073 260.77 65.7731 261.091 65.4946C261.305 65.3018 261.541 65.1518 261.819 65.0447C262.076 64.959 262.333 64.8948 262.612 64.8948C262.933 64.8948 263.212 64.9805 263.405 65.1518C263.597 65.3232 263.683 65.5589 263.704 65.8374C263.704 66.2658 263.49 66.6086 263.105 66.8442C262.698 67.1013 262.141 67.2084 261.434 67.2084C261.412 67.2084 261.369 67.2084 261.305 67.2084C261.241 67.2084 261.198 67.2084 261.177 67.2084Z"/>
<path d="M266.869 65.2379C266.826 65.2379 266.783 65.2379 266.762 65.2379C266.741 65.2379 266.719 65.2379 266.698 65.2379C266.334 65.2379 265.991 65.4521 265.691 65.9234C265.412 66.3733 265.262 66.9088 265.262 67.5301C265.262 67.8514 265.327 68.1085 265.434 68.2799C265.562 68.4727 265.734 68.5584 265.927 68.5584C266.077 68.5584 266.226 68.5155 266.376 68.4298C266.548 68.3441 266.698 68.237 266.891 68.0656L267.255 65.7734L266.869 65.2379ZM268.412 62.7314H268.776L267.983 67.6158C267.962 67.7871 267.94 67.9157 267.919 68.0228C267.919 68.1299 267.897 68.1942 267.897 68.2584C267.897 68.387 267.94 68.4941 268.005 68.5798C268.09 68.6655 268.176 68.7083 268.283 68.7083C268.347 68.7083 268.454 68.6869 268.54 68.6655C268.647 68.644 268.754 68.6226 268.861 68.5798V68.9225C268.562 69.0297 268.283 69.1153 268.069 69.1796C267.876 69.2225 267.683 69.2439 267.533 69.2439C267.298 69.2439 267.105 69.201 266.998 69.0725C266.891 68.9654 266.826 68.7726 266.826 68.5369V68.5155C266.569 68.7512 266.334 68.944 266.098 69.0725C265.862 69.201 265.627 69.2653 265.412 69.2653C265.048 69.2653 264.748 69.1153 264.513 68.8154C264.277 68.5369 264.17 68.1299 264.17 67.6372C264.17 67.3373 264.213 67.0588 264.277 66.7589C264.363 66.4804 264.47 66.2233 264.641 65.9662C264.877 65.6021 265.155 65.3236 265.52 65.1308C265.862 64.938 266.248 64.8308 266.676 64.8308C266.783 64.8308 266.891 64.8523 267.019 64.8737C267.126 64.8951 267.255 64.938 267.383 64.9808L267.619 63.5027L266.891 63.3741V63.0742L268.412 62.7314Z"/>
<path d="M271.823 65.9025C271.823 65.6883 271.78 65.5169 271.695 65.4098C271.609 65.3027 271.502 65.2598 271.331 65.2598C271.116 65.2598 270.902 65.3883 270.731 65.6883C270.559 65.9668 270.452 66.3095 270.452 66.6737C270.452 66.8879 270.495 67.0593 270.581 67.1878C270.666 67.2949 270.795 67.3592 270.945 67.3592C271.181 67.3592 271.373 67.2093 271.545 66.9093C271.738 66.6308 271.823 66.2881 271.823 65.9025ZM270.281 68.9016C270.088 69.0087 269.938 69.1159 269.852 69.2444C269.767 69.3729 269.724 69.5229 269.724 69.6728C269.724 69.9513 269.831 70.187 270.045 70.3584C270.259 70.5297 270.516 70.6154 270.859 70.6154C271.138 70.6154 271.373 70.5512 271.566 70.4226C271.759 70.2941 271.845 70.1227 271.845 69.9299C271.845 69.8228 271.802 69.7371 271.716 69.63C271.63 69.5443 271.502 69.4586 271.331 69.3729L270.281 68.9016ZM272.444 65.1099H273.623V65.5597H272.744C272.787 65.6883 272.809 65.7954 272.83 65.8596C272.83 65.9239 272.852 65.9882 272.852 66.0524C272.852 66.5452 272.659 66.9522 272.295 67.2521C271.93 67.5734 271.438 67.7448 270.881 67.7448C270.838 67.8091 270.795 67.8734 270.795 67.9162C270.774 67.9805 270.752 68.0233 270.752 68.0876V68.109L272.08 68.7302C272.359 68.8802 272.573 69.0087 272.702 69.1587C272.809 69.3087 272.873 69.48 272.873 69.6728C272.873 70.0584 272.659 70.3798 272.209 70.6368C271.759 70.9153 271.202 71.0439 270.538 71.0653C270.002 71.0653 269.574 70.9582 269.274 70.744C268.953 70.5297 268.781 70.2512 268.781 69.9085C268.781 69.63 268.888 69.3943 269.103 69.2015C269.295 68.9873 269.617 68.7945 270.067 68.6231V68.5803C270.067 68.4303 270.088 68.2804 270.152 68.1518C270.195 68.0019 270.302 67.8519 270.431 67.6805C270.109 67.5949 269.852 67.4663 269.681 67.2735C269.51 67.0807 269.424 66.8451 269.424 66.5666C269.424 66.0739 269.595 65.6668 269.959 65.3455C270.324 65.0242 270.795 64.8528 271.352 64.8528C271.523 64.8528 271.716 64.8742 271.888 64.9171C272.08 64.9599 272.252 65.0242 272.444 65.1099Z"/>
<path d="M274.864 66.7808C275.314 66.7594 275.678 66.6523 275.978 66.438C276.278 66.2452 276.428 66.0096 276.428 65.7311C276.428 65.5811 276.385 65.474 276.299 65.4098C276.235 65.3241 276.128 65.2812 275.999 65.2812C275.764 65.2812 275.528 65.4098 275.335 65.6883C275.121 65.9453 274.971 66.3095 274.864 66.7808ZM274.778 67.145C274.778 67.1664 274.778 67.1664 274.778 67.1878C274.778 67.2949 274.757 67.3806 274.757 67.4235C274.778 67.7877 274.842 68.0662 275.014 68.259C275.185 68.4732 275.399 68.5589 275.699 68.5589C275.892 68.5589 276.106 68.516 276.342 68.4089C276.578 68.3018 276.813 68.1518 277.07 67.9376V68.4732C276.771 68.7303 276.449 68.9016 276.149 69.0302C275.828 69.1587 275.549 69.223 275.271 69.223C274.778 69.223 274.414 69.073 274.136 68.7945C273.857 68.4946 273.729 68.0876 273.729 67.5734C273.729 67.145 273.793 66.7594 273.964 66.3952C274.136 66.031 274.371 65.7097 274.693 65.4312C274.907 65.2598 275.164 65.1099 275.421 65.0027C275.699 64.8956 275.956 64.8528 276.214 64.8528C276.556 64.8528 276.813 64.9171 277.028 65.0884C277.22 65.2598 277.306 65.4955 277.306 65.7954C277.306 66.2238 277.113 66.5452 276.706 66.8022C276.321 67.0379 275.764 67.1664 275.057 67.1664C275.014 67.1664 274.971 67.1664 274.928 67.1664C274.864 67.1664 274.821 67.145 274.778 67.145Z"/>
<path d="M282.636 65.2597C282.293 65.2597 282.015 65.4739 281.779 65.9024C281.565 66.3308 281.436 66.8664 281.458 67.5305C281.458 67.9161 281.522 68.216 281.629 68.4302C281.758 68.6444 281.95 68.7301 282.186 68.7301C282.529 68.7301 282.807 68.5159 283.043 68.0875C283.279 67.659 283.407 67.1449 283.407 66.5022C283.407 66.0737 283.343 65.7738 283.214 65.5596C283.086 65.3668 282.893 65.2597 282.636 65.2597ZM282.743 64.8098C283.3 64.8098 283.728 64.9598 284.05 65.2811C284.371 65.6024 284.521 66.0309 284.521 66.5879C284.521 66.9521 284.457 67.2948 284.328 67.6162C284.2 67.9375 284.007 68.2374 283.771 68.4945C283.557 68.7087 283.3 68.8801 283.021 69.0086C282.722 69.1372 282.422 69.2014 282.1 69.2014C281.565 69.2014 281.115 69.03 280.794 68.7087C280.494 68.3874 280.322 67.9375 280.322 67.3805C280.322 67.0378 280.387 66.7164 280.515 66.3737C280.644 66.0523 280.836 65.7524 281.072 65.5168C281.286 65.2811 281.543 65.1097 281.822 64.9812C282.122 64.8741 282.422 64.8098 282.743 64.8098Z"/>
<path d="M288.293 63.8667L287.543 63.0955C287.415 63.2455 287.308 63.4811 287.201 63.8024C287.093 64.1238 286.986 64.5308 286.901 65.0235L288.1 65.0021V65.5162H286.836L286.515 67.8084C286.451 68.2369 286.387 68.6011 286.279 68.9224C286.172 69.2223 286.044 69.5008 285.894 69.7579C285.658 70.1221 285.401 70.422 285.101 70.6362C284.801 70.8504 284.501 70.9575 284.223 70.9575C284.051 70.9575 283.902 70.9147 283.794 70.8076C283.687 70.7219 283.623 70.5934 283.623 70.422C283.623 70.2935 283.644 70.1863 283.709 70.1007C283.773 69.9935 283.859 69.9293 283.966 69.8864L284.908 70.3791C285.016 70.2292 285.123 69.9935 285.187 69.6722C285.273 69.3723 285.38 68.8796 285.465 68.1941L285.83 65.5377L285.251 65.6019V65.2163L285.937 64.9164C286.044 64.2737 286.301 63.7382 286.686 63.3097C287.072 62.9027 287.501 62.6885 287.993 62.6885C288.229 62.6885 288.443 62.7527 288.593 62.8599C288.764 62.967 288.829 63.1169 288.829 63.2883C288.829 63.4168 288.786 63.5454 288.679 63.6525C288.593 63.7596 288.443 63.8239 288.293 63.8667Z"/>
<path d="M291.552 63.3953L290.845 63.2882V62.9883L292.323 62.6455H292.709L291.831 67.5084C291.766 67.8297 291.745 68.0225 291.745 68.1511C291.745 68.2796 291.766 68.3867 291.831 68.4724C291.916 68.5581 292.002 68.601 292.088 68.601C292.195 68.601 292.302 68.5795 292.43 68.5581C292.538 68.5367 292.666 68.4938 292.795 68.451V68.8152C292.473 68.9223 292.195 69.008 291.981 69.0722C291.745 69.1365 291.574 69.1579 291.445 69.1579C291.188 69.1579 290.995 69.0937 290.867 68.9866C290.717 68.8794 290.652 68.7295 290.652 68.5153C290.652 68.4296 290.674 68.2796 290.717 68.0654V68.044L291.552 63.3953Z"/>
<path d="M295.904 65.1738C295.904 65.1738 295.883 65.1738 295.861 65.1738C295.84 65.1738 295.819 65.1738 295.797 65.1738C295.369 65.1738 295.026 65.388 294.747 65.8165C294.448 66.2449 294.319 66.7805 294.319 67.4232C294.319 67.7659 294.362 68.0016 294.49 68.173C294.598 68.3443 294.769 68.43 294.983 68.43C295.112 68.43 295.24 68.4086 295.39 68.3443C295.54 68.2586 295.69 68.173 295.861 68.023L296.268 65.6879L295.904 65.1738ZM296.975 64.7454H297.49C297.468 64.8525 297.425 65.0239 297.361 65.2595C297.318 65.5166 297.254 65.7736 297.211 66.0736L296.954 67.5089C296.933 67.6374 296.911 67.7659 296.89 67.873C296.89 67.9802 296.868 68.0658 296.868 68.1087C296.868 68.2586 296.911 68.3658 296.975 68.4514C297.04 68.5371 297.125 68.58 297.233 68.58C297.318 68.58 297.425 68.58 297.511 68.5586C297.597 68.5371 297.704 68.5157 297.811 68.4729V68.8156C297.511 68.9227 297.254 69.0084 297.04 69.0513C296.825 69.1155 296.654 69.137 296.504 69.137C296.29 69.137 296.119 69.0727 296.011 68.9656C295.904 68.8585 295.84 68.6871 295.84 68.4729V68.4514C295.604 68.6657 295.369 68.8585 295.133 68.9656C294.897 69.0941 294.683 69.137 294.469 69.137C294.062 69.137 293.762 69.0084 293.526 68.7299C293.312 68.4514 293.205 68.0658 293.205 67.5517C293.205 67.2518 293.248 66.9305 293.312 66.652C293.398 66.352 293.548 66.0736 293.719 65.8165C293.933 65.4737 294.212 65.2167 294.555 65.0239C294.897 64.8525 295.262 64.7454 295.647 64.7454C295.797 64.7454 295.969 64.7668 296.14 64.8096C296.311 64.8311 296.483 64.8953 296.654 64.9596L296.975 64.7454Z"/>
<path d="M299.246 64.7241H299.653L299.846 67.916C300.168 67.2948 300.467 66.7378 300.703 66.2665C300.939 65.7738 301.153 65.3453 301.346 64.9169L302.16 64.8526C302.181 65.3025 302.203 65.7952 302.246 66.3736C302.267 66.9306 302.31 67.5518 302.353 68.1945C302.674 67.7875 302.931 67.4233 303.124 67.102C303.338 66.7806 303.488 66.5021 303.595 66.2665L303.36 64.9597C303.445 64.874 303.531 64.8097 303.617 64.7669C303.702 64.7241 303.809 64.7026 303.917 64.7026C304.088 64.7026 304.216 64.7669 304.324 64.874C304.431 65.0026 304.473 65.1525 304.473 65.3239C304.473 65.6452 304.324 66.0737 304.002 66.6092C303.681 67.1448 303.081 67.9589 302.224 69.03H301.474L301.303 66.0094C301.024 66.5664 300.746 67.0805 300.467 67.5947C300.21 68.0874 299.932 68.5801 299.675 69.03L298.861 69.0514L298.925 68.7729L298.732 65.4524L298.004 65.3453V65.0668L299.246 64.7241Z"/>
</symbol><symbol viewBox="0 0 44 52" id="shield" xmlns="http://www.w3.org/2000/svg">
<path fill-rule="evenodd" clip-rule="evenodd" d="M2.19787 10.8823C3.90158 10.2353 5.79642 9.78272 7.51653 9.15294C10.7442 7.9705 14.3831 6.4719 17.3862 4.89361C17.9728 4.58509 21.8047 2.4344 21.9914 2.4344C22.1845 2.4344 26.0347 4.58127 26.6118 4.88023C29.4774 6.36544 33.4122 8.03552 36.4783 9.1421L41.785 10.8829C41.785 20.7262 42.4984 28.6667 37.9171 36.4191C37.0631 37.8642 35.9857 39.6088 34.921 40.8129C34.294 41.5218 33.7723 42.0782 33.1964 42.7297C32.8451 43.1262 32.6742 43.2836 32.2679 43.6208C31.9172 43.9121 31.6864 44.2073 31.3294 44.4999C30.0249 45.5701 28.6896 46.6773 27.0811 47.6277C22.1914 50.5166 21.7568 50.4955 16.8387 47.5901C13.3373 45.5217 9.78793 42.0687 7.45913 38.6718C1.43401 29.8854 2.1985 22.1368 2.1985 10.8829L2.19787 10.8823ZM0.113178 23.578C0.63041 29.997 2.70817 36.2802 6.54451 41.1189C6.99803 41.6907 7.38659 42.2357 7.9013 42.7954L9.3773 44.3526C10.2724 45.3451 11.3718 46.3095 12.5047 47.1917C12.7973 47.4199 13.0086 47.6182 13.3461 47.8649L16.0168 49.6388C17.0954 50.3266 18.6931 51.1349 20.019 51.59C22.0936 52.302 22.9357 52.0203 24.8305 51.2496C26.2384 50.6772 27.5473 49.9238 28.7129 49.1773C29.9656 48.3748 31.0726 47.5251 32.1544 46.6563L34.5097 44.461C34.7626 44.1786 34.9613 44.0396 35.2263 43.7655C39.2865 39.5629 42.1527 33.7591 43.3222 27.8571C44.1125 23.8681 44.0318 15.0441 43.9517 10.3602C43.9309 9.14529 43.5253 9.08282 42.47 8.77494C35.7908 6.82376 29.2169 4.03627 23.6321 0.776435C21.7713 -0.30975 22.0387 -0.171428 20.5426 0.667434C15.7392 3.35931 12.8188 4.8133 7.36767 6.87093C-0.0312681 9.66352 0.031809 8.0438 0.031809 11.5847C0.031809 14.3907 -0.0785758 21.2208 0.111917 23.5793L0.113178 23.578Z"/>
<path fill-rule="evenodd" clip-rule="evenodd" d="M33.0544 19.9192C32.7541 20.4922 30.9672 22.1578 30.4039 22.7271L19.4291 33.7935C18.8255 34.2589 18.0458 34.2608 17.5229 33.6845C16.0753 32.0871 13.6374 29.728 12.0062 28.0796C11.6473 27.7162 10.8702 27.1712 10.7831 26.4841C10.6835 25.6994 11.2304 25.0734 11.8864 24.9587C12.8054 24.7981 13.1813 25.4801 13.5793 25.8804L17.7134 30.0365C18.4401 30.621 19.0128 30.3329 19.5269 29.8274L30.5426 18.6991C30.9262 18.3103 31.4276 17.6467 32.3441 17.9922C32.9598 18.2242 33.5085 19.0535 33.0556 19.9185L33.0544 19.9192ZM18.5031 27.7041C17.4289 26.6709 14.5533 23.4678 13.4898 23.0247C12.5916 22.6506 11.6183 22.664 10.7106 23.0528C9.38536 23.622 8.16419 25.2596 8.74702 27.3045C9.13116 28.6526 10.9289 30.1353 11.7079 30.9219C12.8054 32.031 13.8291 33.0656 14.9267 34.1747C15.8224 35.0799 17.0284 36.7461 19.3206 36.2209C20.2775 36.0016 20.7998 35.4713 21.2974 34.9728L32.71 23.4327C33.5319 22.6021 35.2066 21.3438 35.3579 19.6145C35.5301 17.6556 34.2181 16.1589 32.6109 15.8039C30.4196 15.3201 29.1222 16.9825 28.2782 17.836C27.1642 18.9624 26.1235 20.0135 25.0089 21.1399C22.8208 23.3511 20.6862 25.5247 18.5025 27.7054L18.5031 27.7041Z"/>
<path fill-rule="evenodd" clip-rule="evenodd" d="M6.48947 14.2269C6.85027 13.6124 11.6725 12.7047 12.2825 11.7333C12.6187 11.1972 12.5701 9.5163 10.4078 10.3462C9.36642 10.7459 8.37737 11.1252 7.31011 11.4847C6.47181 11.7664 4.83244 12.0985 4.46596 12.7819C4.20609 13.267 4.32404 16.0079 4.32089 16.7696C4.31773 17.4574 4.28935 17.9973 4.74035 18.3492C5.22604 18.7272 5.8587 18.6405 6.22014 18.2077C6.74431 17.5805 6.4901 15.1761 6.4901 14.2263L6.48947 14.2269Z"/>
<path fill-rule="evenodd" clip-rule="evenodd" d="M33.899 35.259C33.3887 35.5261 33.2108 35.862 32.862 36.3924C31.5027 38.4621 30.5729 39.1053 29.2193 40.5408C28.9626 40.8136 28.9777 40.8805 28.6775 41.1068C28.2404 41.4357 27.8915 41.7825 27.4582 42.1114C25.9936 43.2225 27.1844 44.686 28.2933 44.185C28.663 44.018 30.2784 42.5646 30.6657 42.2038C31.0649 41.8322 31.4377 41.5148 31.8156 41.1298L33.8504 38.7126C34.4251 37.9509 35.5989 36.6786 35.31 35.8365C35.1422 35.347 34.4976 34.9454 33.8984 35.259H33.899Z"/>
<path fill-rule="evenodd" clip-rule="evenodd" d="M24.9293 43.9868C23.3669 44.5069 24.1547 46.5403 25.5172 46.052C26.891 45.5593 26.1953 43.5654 24.9293 43.9868Z"/>
<path fill-rule="evenodd" clip-rule="evenodd" d="M13.9678 8.94128C12.6267 9.70492 13.7937 11.4438 14.977 10.8007C16.1471 10.1651 15.2495 8.21142 13.9678 8.94128Z"/>
</symbol><symbol viewBox="0 0 55 55" id="stars" xmlns="http://www.w3.org/2000/svg">
<path fill-rule="evenodd" clip-rule="evenodd" d="M12.3073 9.97716L7.97837 7.90959L10.016 12.2879C9.16289 13.185 7.29127 14.6461 6.79688 15.9493L11.712 15.2228C12.0879 16.5497 12.951 18.5804 13.8576 19.3397L14.7293 14.8247L19.361 13.9549C18.5962 12.9367 16.5545 12.076 15.2994 11.7158L15.9593 6.79407C14.6764 7.27943 13.1821 9.16789 12.3078 9.97716H12.3073Z"/>
<path fill-rule="evenodd" clip-rule="evenodd" d="M45.0219 42.6949C45.8256 41.862 47.7214 40.3267 48.2042 39.0472L43.2805 39.7026C42.9147 38.4342 42.0556 36.4191 41.038 35.6381L40.2309 40.2631L35.6562 41.1445C36.4442 42.037 38.4324 42.8947 39.7668 43.2873L39.0484 48.2059C40.3615 47.7155 41.8452 45.8397 42.6988 45.0123L47.0807 47.0274L45.0214 42.6949H45.0219Z"/>
<path fill-rule="evenodd" clip-rule="evenodd" d="M39.7673 11.7147C38.4324 12.1047 36.4412 12.9639 35.6562 13.8555L40.2309 14.7369L41.0375 19.3604C42.0571 18.5819 42.9157 16.5638 43.2805 15.2964L48.2027 15.9523C47.7265 14.6844 45.819 13.1254 45.0209 12.305L47.0802 7.97211L42.7003 9.99023C41.8462 9.15826 40.3631 7.28948 39.0479 6.7915L39.7678 11.7147H39.7673Z"/>
<path fill-rule="evenodd" clip-rule="evenodd" d="M6.79492 39.0477C7.81246 40.8448 8.80225 41.421 10.0125 42.7106L7.97642 47.0869L12.3074 45.0214C13.1726 45.8246 14.6875 47.7292 15.9568 48.2029L15.2984 43.2817C16.5496 42.925 18.5912 42.0648 19.359 41.0436L14.7269 40.1748L13.8576 35.6567C12.9501 36.411 12.0864 38.4438 11.7106 39.7747L6.79492 39.0477Z"/>
<path fill-rule="evenodd" clip-rule="evenodd" d="M27.5011 45.4598C26.1612 44.8705 24.9641 43.4689 23.4582 42.8221L24.8016 47.7216C23.7458 48.1484 21.8746 49.6 21.0645 50.4925L25.8651 50.5364L27.6187 55.0005L29.1477 50.545L33.9343 50.4163C33.171 49.5884 31.2454 48.1313 30.0896 47.6833L31.4462 42.7933C30.0901 43.484 28.9021 44.7237 27.5011 45.4598Z"/>
<path fill-rule="evenodd" clip-rule="evenodd" d="M25.8661 4.46561L21.0645 4.50698C21.8923 5.41766 23.7321 6.83287 24.8047 7.27635L23.4607 12.1769C24.9696 11.5275 26.1572 10.1355 27.5016 9.54019C28.9026 10.2718 30.0881 11.5139 31.4457 12.2056L30.0936 7.31874C31.2444 6.86819 33.176 5.4111 33.9363 4.58165L29.1382 4.46258L27.6222 0L25.8666 4.46561H25.8661Z"/>
<path fill-rule="evenodd" clip-rule="evenodd" d="M42.793 23.552C43.4871 24.9163 44.9052 26.1973 45.4576 27.5C44.9158 28.7921 43.4861 30.0968 42.8273 31.5609L47.3464 30.1947C48.6344 31.235 48.76 32.3647 50.4495 33.9373L50.5413 29.1467L54.9999 27.3779L50.5287 25.8622L50.4172 21.0621C49.5792 21.8815 48.1506 23.7266 47.6915 24.9057L42.793 23.5525V23.552Z"/>
<path fill-rule="evenodd" clip-rule="evenodd" d="M9.54528 27.5C10.1108 26.1842 11.5259 24.9214 12.1766 23.4491L7.65701 24.8043C6.37159 23.7367 6.23387 22.6399 4.56908 21.0602L4.46768 25.8759L0 27.6262L4.47172 29.1392L4.59178 33.9303C5.44032 33.0897 6.85236 31.287 7.32405 30.0817L12.2089 31.4444C11.5274 30.0691 10.1163 28.8189 9.54578 27.5H9.54528Z"/>
</symbol><symbol id="weight" viewBox="0 0 45 46" xmlns="http://www.w3.org/2000/svg">
  <path fill-rule="evenodd" clip-rule="evenodd" d="M30.064 41.2485C28.6474 41.4121 20.1959 41.1137 19.6103 41.3411C19.2073 41.4974 19.0581 42.1368 19.4776 42.4707C19.8209 42.7435 20.5899 42.6231 21.0764 42.6231L31.7111 42.6223C33.422 42.6147 33.3173 42.9753 33.2855 44.6035L11.6378 44.6191C11.6838 43.6342 11.5134 42.716 12.5623 42.6279C14.7436 42.4448 17.8427 43.1927 17.3956 41.7128C17.1783 40.994 15.7118 41.3399 14.9242 41.2489C14.6841 38.8269 15.5622 39.272 17.6195 39.272H27.2793C29.3697 39.272 30.3064 38.7946 30.0632 41.2489L30.064 41.2485ZM43.3664 28.4092C42.5115 30.1164 42.547 30.7311 41.0175 30.7363H31.6214C30.2147 30.7355 29.9262 30.1216 29.228 28.3641L43.366 28.4092H43.3664ZM3.79517 30.7343C2.4672 30.7343 2.33771 29.8584 1.62099 28.3972C2.68092 28.2871 13.2692 28.3765 15.3159 28.3645L15.7606 28.3697C15.1509 29.8879 14.8223 30.7339 13.4991 30.7339H3.79477L3.79517 30.7343ZM36.2866 13.2292C36.5471 13.6361 36.8659 14.4179 37.0832 14.9317C37.9731 17.0354 42.1703 26.0215 42.4679 27.0127L30.1053 26.9987L36.2866 13.2292ZM2.52073 27.0127C2.70454 26.4004 3.71881 24.3007 4.05533 23.5109C4.5422 22.3685 5.07196 21.1978 5.60803 20.0581C5.97407 19.2795 8.38282 13.7242 8.71501 13.2236L14.8636 27.0127L2.52113 27.0131L2.52073 27.0127ZM22.2032 1.36998C25.1276 0.955138 25.6074 5.41707 22.8381 5.81396C19.922 6.23239 19.2608 1.78721 22.2032 1.36998ZM6.53965 11.364C6.05633 11.3676 5.0633 11.3022 5.55922 10.5878C5.83592 10.1889 8.61425 10.3712 9.28964 10.3712C11.9188 10.3712 14.548 10.3712 17.1771 10.3712C22.5441 10.3712 21.8545 11.1383 21.8545 7.17296L23.1317 7.14623C23.1317 10.816 22.7287 10.3712 25.6849 10.3712H37.206C37.8507 10.3712 39.6049 10.0776 39.5124 10.9328C39.4368 11.6317 37.7712 11.3624 37.1174 11.3624C33.3067 11.3624 29.496 11.3624 25.6849 11.3624C22.4516 11.3624 23.149 11.3246 23.1301 14.6293C23.1278 15.0593 23.0664 15.5148 23.4277 15.7526C23.767 15.9756 24.2149 15.8228 24.368 15.54C24.5695 15.167 24.4664 13.3054 24.4664 12.7163L35.0153 12.7151L33.0584 17.1598C31.6725 20.0805 30.5339 22.972 29.1571 25.8699C29.0505 26.0941 28.7706 26.844 28.6254 26.9457C28.318 27.1611 27.9177 26.9804 27.6835 27.5253C27.4096 28.1631 28.1661 29.2891 28.4294 29.8105C29.4653 31.8592 29.7711 32.0849 32.5093 32.0845C34.5772 32.0845 36.6451 32.0845 38.713 32.0845C43.3432 32.0845 42.9221 32.2197 44.7227 28.7143C44.914 28.3418 45.1348 27.9533 44.8924 27.4958C44.6629 27.0634 44.2957 27.1312 43.9182 26.9333L37.5807 12.7354C38.5717 12.6465 39.318 12.879 40.1138 12.3637C40.6274 12.031 41.0848 11.1323 40.7558 10.2192C40.1701 8.59339 37.9381 9.0194 36.0544 9.0194C33.4394 9.0194 26.5965 9.14505 24.4959 9.00663C24.4211 8.50683 24.4695 7.78764 24.4636 7.25832C24.4518 6.18372 24.5585 6.64882 25.0638 6.09318C27.1927 3.75212 25.6054 0.0133706 22.4953 0.00100517C19.2466 -0.0113603 17.8482 3.98746 19.9696 6.13905C20.5207 6.69789 20.5372 6.21005 20.5254 7.34967C20.5199 7.8742 20.5702 8.50005 20.4947 9.00663C18.6972 9.1247 16.534 9.0194 14.6967 9.0194C12.7469 9.0194 10.7975 9.0194 8.84765 9.0194C6.98676 9.0194 4.73545 8.59658 4.21198 10.2859C3.91757 11.2356 4.40405 12.0749 4.93263 12.398C5.74893 12.897 6.43771 12.6405 7.42758 12.743L1.06879 26.9317C0.835392 27.1826 -0.614189 26.9975 0.298539 28.7734C2.07401 32.2285 1.65248 32.0845 6.36647 32.0845C8.4639 32.0845 10.5613 32.0841 12.6587 32.0845C15.3237 32.0849 15.589 31.7327 16.5915 29.7511C16.8808 29.1794 17.6652 28.0662 17.2413 27.4072C16.9119 26.895 16.5072 27.2189 16.2404 26.8049C16.1385 26.6465 15.8984 26.0135 15.7767 25.7498C14.433 22.8448 13.2668 19.9927 11.9035 17.1L9.97567 12.7143L20.5246 12.7438V37.8919C19.097 38.1029 16.8662 37.7339 15.3851 37.9569C14.6617 38.0658 14.1497 38.4826 13.858 39.0124C13.405 39.8341 13.6923 40.4017 13.5333 41.2713C11.8129 41.2713 10.5755 41.5421 10.3913 43.2038C10.3448 43.6235 10.309 45.3016 10.4614 45.5964C10.7506 46.1556 11.8751 45.9717 12.571 45.9717H32.5109C33.2123 45.9717 34.3072 46.164 34.5595 45.5373C34.6764 45.2465 34.6445 43.5026 34.5922 43.1273C34.3698 41.5293 33.1572 41.2713 31.4596 41.2713C31.292 40.3534 31.5982 39.7938 31.1022 38.9557C30.0092 37.1085 27.1467 38.2605 24.4683 37.8923V19.8364C24.4683 18.9911 24.675 18.1112 24.0035 17.7693C22.9168 17.6469 23.1337 18.6261 23.1341 19.5671V37.9234H21.8569V13.9085C21.8569 11.4765 22.1237 11.3549 20.3699 11.3624L6.54201 11.3644L6.53965 11.364Z"/>
</symbol></svg>