<svg width="21" height="21" viewBox="0 0 21 21" fill="none" xmlns="http://www.w3.org/2000/svg">
<path fill-rule="evenodd" clip-rule="evenodd" d="M7.37785 2.22155C8.9294 2.15113 14.0336 2.13353 15.4618 2.27437C16.837 2.4064 17.6128 2.85532 18.2387 3.60351C18.891 4.37811 19.0409 5.54882 19.0938 6.84275C19.1555 8.40076 19.182 13.4709 19.0409 14.888C18.8999 16.27 18.4326 17.0446 17.6921 17.652C16.8811 18.3209 15.7791 18.4618 14.4832 18.5146C12.9493 18.5762 7.80982 18.5938 6.41695 18.453C5.00645 18.3121 4.26594 17.872 3.64003 17.1238C2.95241 16.3052 2.83781 15.1873 2.7761 13.8846C2.70558 12.4322 2.69676 7.20365 2.82899 5.84809C2.96123 4.53655 3.41964 3.68273 4.16015 3.08418C4.98882 2.4064 6.07314 2.28317 7.37785 2.22155ZM0.951268 13.8318C1.03061 15.4778 1.15403 16.6309 1.92099 17.8368C2.56453 18.8579 3.59595 19.5973 4.78606 19.967C6.12603 20.3807 7.92442 20.3455 9.40544 20.3455C11.0451 20.3455 12.7377 20.3807 14.3686 20.319C16.07 20.2486 17.1896 20.1254 18.415 19.3508C19.3318 18.761 20.134 17.8192 20.5484 16.4901C20.9892 15.0817 20.901 13.3828 20.901 11.8424C20.901 10.1876 20.901 8.53279 20.901 6.87796C20.8922 5.35517 20.6542 3.938 19.9225 2.85532C19.5698 2.32718 19.1996 1.93988 18.7147 1.57018C18.2563 1.21809 17.7009 0.945222 17.0486 0.733967C15.7703 0.337864 13.8397 0.364271 12.4116 0.364271C10.7719 0.364271 9.07927 0.329062 7.44838 0.39948C5.81749 0.461096 4.60975 0.610735 3.41964 1.37653C0.819034 3.04017 0.933637 6.03294 0.924822 8.87608C0.916006 10.4957 0.880744 12.2121 0.951268 13.8318Z" fill="white"/>
<path fill-rule="evenodd" clip-rule="evenodd" d="M10.5506 7.1392C12.4534 6.89931 13.9362 8.34725 14.1247 9.98367C14.3562 11.8857 12.9248 13.3765 11.2792 13.5735C9.37637 13.7963 7.87644 12.3741 7.68787 10.7205C7.46503 8.79277 8.88782 7.34483 10.5506 7.1392ZM5.92223 10.652C6.1108 13.2908 8.30499 15.5098 11.1677 15.347C13.8333 15.1928 16.0704 12.9481 15.899 10.0865C15.7447 7.4048 13.4733 5.18577 10.602 5.36569C7.97929 5.53705 5.70796 7.79892 5.92223 10.652Z" fill="white"/>
<path fill-rule="evenodd" clip-rule="evenodd" d="M15.687 4.389C15.2083 4.50577 14.796 4.98013 14.9359 5.58585C15.0537 6.06022 15.525 6.4616 16.1362 6.33024C17.4175 6.06022 16.9904 4.07519 15.687 4.389Z" fill="white"/>
</svg>
