<svg width="24" height="33" viewBox="0 0 24 33" fill="none" xmlns="http://www.w3.org/2000/svg">
<path d="M6.47712 25.2256L6.4771 25.2256C2.76267 20.0356 1 15.6721 1 12.2155C1 6.01528 5.95212 1 11.9999 1C18.0476 1 22.9999 6.01529 23 12.2155C23 15.8788 21.2297 20.3062 17.5226 25.4051C14.8155 29.1286 12.1444 31.7128 12.0508 31.8029L12.0507 31.803C12.0424 31.811 12.0347 31.8155 12.0274 31.8184C12.0195 31.8215 12.0102 31.8234 12.0001 31.8234C11.9896 31.8234 11.98 31.8214 11.9718 31.8181C11.9644 31.815 11.9566 31.8104 11.9483 31.802C11.8521 31.7051 9.18335 29.0071 6.47712 25.2256ZM5.13331 11.6225C5.13331 15.4097 8.21273 18.4892 11.9999 18.4892C15.787 18.4892 18.8666 15.4097 18.8666 11.6225C18.8666 7.8354 15.7871 4.75591 11.9999 4.75591C8.2128 4.75591 5.13331 7.8354 5.13331 11.6225Z" stroke="#191D2A" stroke-width="2"/>
</svg>
