<svg width="38" height="28" viewBox="0 0 38 28" fill="none" xmlns="http://www.w3.org/2000/svg">
<path fill-rule="evenodd" clip-rule="evenodd" d="M2.17542 4.30032C2.18192 4.23526 2.18192 4.20272 2.22091 4.13765C2.27289 4.05957 2.25339 4.07258 2.31188 4.05957C2.34437 3.87087 2.41584 3.76676 2.5523 3.60409C2.58479 3.56505 2.59129 3.56505 2.62378 3.53251L2.68226 3.48696C2.67576 3.38285 2.65627 3.40888 2.75374 3.34381C2.83171 3.18114 2.80572 3.25272 2.93568 3.10956C3.07213 2.96641 3.31905 2.68011 3.52049 2.63456L3.72193 2.44586C3.82589 2.37429 3.85838 2.32223 3.99484 2.32874C4.08581 2.21162 4.4302 2.07497 4.61864 1.99038C5.30092 1.66504 6.45755 1.74963 7.22431 1.74963C13.5143 1.75613 19.8563 1.71709 26.1333 1.74963C27.3874 1.75613 28.6415 1.74963 29.8956 1.74963C30.7078 1.74963 32.2738 1.63901 33.0406 2.14655L33.138 2.22463C33.1445 2.21812 33.1575 2.24415 33.164 2.25066C33.424 2.24415 34.0218 2.79723 34.2362 2.98593C34.4766 3.19415 35.0224 3.78628 34.9445 4.03354L35.1134 4.22224C35.1524 4.29382 35.1849 4.37841 35.2109 4.44998C35.6592 5.62773 35.5228 7.24143 35.5163 8.56884V18.674C35.5163 19.8583 35.5423 21.2898 35.5033 22.448C35.4903 22.8059 35.4513 22.7343 35.3213 23.1898L35.1849 23.424C35.1914 23.4956 35.1914 23.5086 35.1524 23.6388C35.1329 23.7234 35.0939 23.7884 35.0549 23.8795C34.9445 24.1008 34.4701 24.9532 34.2297 24.9271C34.1777 25.0833 34.1517 25.0833 34.0413 25.1809C33.9438 25.272 33.9308 25.3175 33.7683 25.3566L33.7099 25.4347C33.6709 25.4737 33.6319 25.4997 33.5864 25.5258C33.5019 25.5778 33.3915 25.6364 33.3395 25.6364C33.268 25.7535 33.3785 25.6754 33.2095 25.7665C33.177 25.786 33.0601 25.8121 33.0146 25.8251C32.3843 26.0203 32.8911 25.9943 32.0074 26.196C31.598 26.2871 27.056 26.235 26.4257 26.235C23.911 26.235 21.4028 26.235 18.8946 26.2415L7.64018 26.235C7.15933 26.235 5.0475 26.3066 4.59915 26.0268L4.30674 25.7925C4.02733 25.8446 3.21509 25.1614 3.01365 24.9662C2.79272 24.7579 2.18192 23.9316 2.17542 23.6843C2.04546 23.5997 2.09095 23.6518 2.03247 23.4631L1.83753 22.7083C1.70757 22.0966 1.77255 14.8024 1.77255 13.9956C1.77255 12.6356 1.70107 6.46061 1.85052 5.25683L2.04546 4.49553C2.10394 4.31984 2.05196 4.39142 2.17542 4.30032ZM3.4945 0.519827C3.46201 0.565375 3.56598 0.500307 3.44901 0.558869C3.44252 0.558869 3.42302 0.571882 3.42302 0.558869C3.42302 0.552362 3.40353 0.558869 3.39703 0.558869C3.38403 0.571882 3.37104 0.578389 3.36454 0.584896C3.35804 0.591403 3.34505 0.604417 3.33855 0.610924L3.02015 0.799623C2.8707 0.903733 2.89669 0.949281 2.66276 1.00784L2.62378 1.0599C2.61728 1.07291 2.59129 1.09243 2.58479 1.09894L1.94799 1.626C1.74656 1.80168 1.36318 2.27018 1.2852 2.27018C1.23972 2.49141 1.15525 2.47189 1.05128 2.63456C1.01879 2.69312 0.999295 2.75819 0.966805 2.79723C0.875834 2.94689 0.869336 2.90785 0.836847 2.91436C0.843345 3.10956 0.771867 3.12909 0.648407 3.38936C0.433975 3.81881 0.239037 4.38491 0.148066 4.83389C-0.0663653 5.94006 0.0311037 11.074 0.0311037 12.4209C0.0311037 15.8305 -0.0468715 19.3377 0.0440995 22.7343C0.0505974 22.7473 0.174058 23.3199 0.193552 23.398C0.258531 23.6258 0.343004 23.8014 0.401486 24.0552C0.505452 24.4912 1.04478 25.3566 1.33719 25.734C1.43466 25.8576 1.6101 26.0463 1.74656 26.1895C1.90251 26.3521 2.03896 26.4562 2.19491 26.6124C2.27939 26.6905 2.32487 26.723 2.43534 26.7881C2.50681 26.8271 2.49382 26.8141 2.5653 26.8727L2.66276 26.9833C2.89669 27.0354 2.93568 27.146 3.12412 27.2566C3.27357 27.3412 3.45551 27.3997 3.61146 27.4713C3.89087 27.5949 4.05982 27.7186 4.37822 27.7706C4.50818 27.7902 4.57315 27.7902 4.68362 27.8813C4.89155 27.8227 5.17096 27.9268 5.22945 27.9658C7.47773 28.0244 9.73901 27.9723 11.9808 27.9854C16.4254 28.0049 21.0259 28.0049 25.4705 27.9854C26.6011 27.9789 27.7318 27.9984 28.8624 27.9854C29.9865 27.9723 31.1562 28.0244 32.2283 27.9268C32.2478 27.9138 32.7027 27.8032 32.8131 27.8422C33.0016 27.6665 32.9951 27.8097 33.333 27.6275C33.6969 27.4258 33.9308 27.4193 34.3142 27.159C34.4896 27.0419 34.6131 26.9182 34.821 26.8597C34.8275 26.7751 34.769 26.8597 34.886 26.7751C34.964 26.71 34.9445 26.7165 35.0224 26.7165C35.0809 26.5669 35.3733 26.3847 35.6462 26.0463C35.6722 26.0138 35.7112 25.9617 35.7437 25.9357C35.8737 25.8251 35.7827 25.8771 35.9127 25.8576C35.9451 25.6559 36.374 25.2199 36.6404 24.6408C36.7509 24.4001 36.8094 24.1463 36.9003 23.9446C37.0823 23.5607 37.0368 23.3134 37.1603 23.2158L37.2382 21.9925C37.2772 17.249 37.2187 12.4144 37.2382 7.65787C37.2447 6.02465 37.3747 5.08115 36.7314 3.59107C36.6729 3.45443 36.5625 3.28525 36.543 3.10956C36.426 3.051 36.1791 2.52395 36.0101 2.32223L35.3928 1.65853C35.1264 1.41127 34.9705 1.26161 34.691 1.07942C34.5546 0.988322 34.4246 0.916747 34.2947 0.80613C34.0997 0.643458 33.9763 0.61743 33.9373 0.565375C33.6579 0.539348 33.1835 0.28558 33.1121 0.272566C32.9561 0.233525 32.9366 0.266059 32.8131 0.148935C32.6832 0.194483 32.4688 0.109894 32.2543 0.0838664C31.9749 0.0708527 31.6305 0.0187976 31.3446 0.00578389C31.0522 -0.00722987 30.7338 0.00578389 30.4349 0.00578389H6.64599C5.91823 0.00578389 4.83957 0.0122908 4.17678 0.266059C4.00783 0.331128 3.70243 0.487293 3.4945 0.519827Z" fill="#191D2A"/>
<path fill-rule="evenodd" clip-rule="evenodd" d="M4.35123 5.80348C4.39672 5.823 4.35123 5.76444 4.39672 5.84252C4.47469 5.97917 4.40321 5.79698 4.39672 5.90109C4.53317 5.97266 4.61764 6.09629 4.7541 6.23294L8.31497 9.71412C8.54239 9.93535 9.50409 10.8008 9.56907 11.022L9.58206 11.035C9.95244 11.1847 13.013 14.321 13.013 14.3275C12.9805 14.5227 12.6166 14.7895 12.4801 14.9066C11.9863 15.3491 11.8238 15.5573 11.317 15.9802C11.1351 16.1364 10.9336 16.3902 10.7452 16.5659L9.02324 18.1991C8.26948 18.9083 7.41825 19.6631 6.70348 20.3919C6.60601 20.4895 6.52154 20.5611 6.43706 20.6392C6.3331 20.7368 6.28111 20.7953 6.13166 20.8994L4.99452 21.9926C4.89706 22.0967 4.53967 22.4286 4.48769 22.5912C4.36423 22.9426 4.53967 23.307 4.70212 23.4827C4.7541 23.5347 4.94904 23.6714 5.02052 23.6974C5.16997 23.7625 5.3974 23.769 5.56634 23.7364C5.83276 23.6909 6.09917 23.4566 6.25512 23.3005L8.00306 21.6542C8.2175 21.4655 8.37345 21.2768 8.56838 21.0946L10.8427 18.9474C11.0896 18.7001 14.2671 15.6614 14.3385 15.6549C14.4555 15.6484 16.9507 18.1535 17.4056 18.5895C17.49 18.6741 17.581 18.7522 17.659 18.8368C17.9709 19.2077 18.5492 19.6176 19.056 19.2987C19.212 19.1946 19.212 19.2402 19.3549 19.097L20.895 17.6135C21.0834 17.4508 22.7794 15.6224 22.9873 15.6419L25.3395 17.8087C25.7359 18.2316 26.0998 18.5114 26.4832 18.9018C26.6716 19.097 26.873 19.2597 27.068 19.4419L31.1357 23.32C31.6295 23.8145 32.1169 23.9707 32.6562 23.4697C33.4554 22.7214 32.2533 21.934 31.818 21.4785C31.3956 21.0296 30.6159 20.3464 30.122 19.8648C30.018 19.7607 29.9531 19.6957 29.8556 19.5916L28.9524 18.7522C28.1142 17.9713 27.4514 17.3207 26.6261 16.5659C26.4377 16.3902 24.3194 14.3991 24.3129 14.3275C24.3064 14.2234 25.9503 12.6357 26.1583 12.447C27.6593 11.0285 29.1148 9.54494 30.6029 8.11342L32.5132 6.25246C32.7147 6.05725 32.9681 5.88156 32.9486 5.46512C32.9356 5.10074 32.7407 4.86649 32.4873 4.69731C32.3443 4.59971 32.2533 4.55416 32.0064 4.56067C31.675 4.56067 31.7075 4.65176 31.4671 4.72985C31.3891 4.76238 31.4476 4.74937 31.4216 4.71683C31.3566 4.92505 31.4216 4.76238 31.3046 4.88601C31.2656 4.92505 31.2072 4.95759 31.1942 4.9706L21.8501 14.1453C21.2588 14.7049 20.778 15.1864 20.2647 15.7004L19.056 16.8522C18.4257 17.4963 18.7441 17.2491 17.8149 16.4487C17.2691 15.9737 15.898 14.6138 15.3717 14.0802C15.0728 13.7744 14.8259 13.5662 14.5465 13.2929L6.87243 5.77745C6.74896 5.67334 5.7028 4.71683 5.63782 4.5932C5.58584 4.5932 5.59883 4.5932 5.52735 4.56718C5.0725 4.55416 4.83857 4.61272 4.59815 4.85998C4.35773 5.10725 4.32524 5.36101 4.35123 5.80348Z" fill="#191D2A"/>
</svg>
