<svg width="204" height="56" viewBox="0 0 204 56" fill="none" xmlns="http://www.w3.org/2000/svg">
<path d="M43.6048 28.362C43.1744 27.3398 42.7305 26.3041 42.2463 25.3088C41.8966 24.569 41.4662 23.8562 41.0492 23.1299C40.8744 22.834 40.9147 22.5649 41.0492 22.2959C41.3586 21.6772 41.5469 21.0585 41.3182 20.3591C41.1972 19.996 41.0896 19.6194 40.9954 19.2428C40.8744 18.8527 40.7668 18.4492 40.6592 18.0591C42.8247 17.5749 44.2235 16.0685 42.9457 11.8183C42.0984 8.98027 40.1615 7.4066 39.5294 7.01655C37.6598 5.88673 34.4721 0.493216 27.478 0.694968C23.4833 0.81602 19.4214 1.31368 15.6284 2.47039C12.5752 3.39845 10.2752 4.64932 8.32497 7.42005C8.09632 7.60836 5.66184 11.1727 5.05658 14.71C4.94898 15.3691 4.81448 16.0147 4.70688 16.6738C4.61273 17.2252 4.53202 17.7363 4.30337 18.1667C2.12444 18.1264 1.18293 19.2024 0.981179 20.4533C0.752526 21.8655 1.27708 22.8071 1.98994 23.3047C2.68935 23.8024 3.20046 23.9369 4.24957 23.9772C4.30337 23.9772 4.35717 23.9772 4.41097 23.9772C4.41097 24.0041 4.39752 24.031 4.39752 24.0445C2.52795 24.2328 1.07533 25.3491 1.02153 26.748C0.981179 27.9854 1.59989 29.0345 3.50981 29.559C3.65776 29.5994 3.60396 29.828 3.60396 29.9491C2.01684 30.2988 1.42503 31.3479 1.27708 32.5853C1.07533 34.1859 2.50105 35.9075 4.22267 36.2707C4.27647 36.2841 4.33027 36.2976 4.38407 36.311C4.47822 36.9028 4.86828 37.4139 5.43319 37.7098C5.37939 38.4765 5.29868 39.2566 5.21798 40.0502C4.41097 39.8081 3.46946 40.1443 2.93145 40.9513C2.42035 41.718 2.36655 42.9958 2.8642 43.6279C2.6759 43.7355 2.5145 43.87 2.39345 44.0314C1.81509 44.7846 1.92269 46.3449 2.82385 46.6811C3.80572 47.0577 4.16887 46.8156 4.69343 46.17C5.79634 45.0671 8.28462 42.0542 9.38754 36.2976C10.3156 36.1496 11.2975 35.8941 12.2659 35.5175C12.2659 35.5175 12.1986 38.8935 9.84484 42.525C8.43258 44.5425 4.24957 47.3133 0.900478 53.1775C-0.162085 55.0471 0.416272 56.9167 4.02092 54.6436C5.46009 53.729 7.10101 52.922 8.86298 52.4243C14.3372 50.891 19.0044 50.4875 26.1061 53.0565C33.7727 55.8541 40.1212 50.9986 40.1212 50.9986L39.0721 49.1963C39.0721 49.1963 40.0001 48.4027 39.8925 47.7302C39.7849 47.0443 39.1528 46.2642 38.7089 45.9548C38.2785 45.632 38.1844 44.5829 38.1037 44.4484C38.023 44.3139 36.8931 43.2648 36.8931 43.2648C36.8931 43.2648 36.5031 42.9151 35.8171 43.211C35.1312 43.5203 34.499 43.6145 34.2704 43.48C34.0552 43.3455 33.4902 42.7806 33.4902 42.7806L32.8984 42.2022C32.8715 42.0139 32.885 41.7852 32.9253 41.5297C32.9926 41.1531 33.1002 40.8706 33.1943 40.6554C33.4095 40.6016 33.6247 40.5478 33.8265 40.494C34.2973 40.3461 34.7815 40.2116 35.2657 40.0905C35.6826 39.9829 36.0861 39.8484 36.5031 39.7946C37.1621 39.687 37.8347 39.687 38.4803 39.5525C39.4083 39.3642 39.906 38.5169 39.7311 37.5484C39.6101 36.9163 39.4487 36.311 39.7446 35.6654C39.9194 35.2754 39.7042 34.8719 39.3276 34.6432C39.1124 34.5222 38.8703 34.4146 38.5341 34.2666C38.9107 34.1052 39.2066 33.9976 39.489 33.89C39.9329 33.7151 40.1077 33.4596 40.0943 32.9619C40.0808 32.6795 40.0405 32.397 40.0136 32.1146C39.9732 31.469 40.2019 31.1193 40.8071 30.9579C41.4393 30.8099 42.0849 30.662 42.7171 30.5947C43.1475 30.5409 43.4165 30.3122 43.6317 29.976C43.9948 29.438 43.8065 28.8865 43.6048 28.362Z" fill="#111111"/>
<path d="M89.3369 30.2385C88.7989 31.0859 87.8709 31.7853 86.5662 32.3502C85.6381 32.942 83.3651 33.4397 79.747 33.8297L78.4826 33.6952L78.2136 33.8297C78.0657 33.749 77.7429 33.6549 77.2452 33.5473C77.2049 33.5473 77.0569 33.5742 76.8148 33.628C75.3353 33.4128 74.5686 33.2783 74.5148 33.2245C73.3178 33.0093 72.6318 32.8479 72.4973 32.7268C70.8833 32.2426 69.3096 31.597 67.7629 30.8034C69.2962 27.8578 70.6546 25.3965 71.8383 23.4193C71.8383 23.3117 72.3494 23.1637 73.3716 22.9889H73.4254L73.5599 23.0696V22.9889C75.0528 22.8813 75.8061 22.7199 75.7926 22.4912C75.9002 22.4912 75.9944 22.5181 76.0751 22.5719C76.3172 22.5719 77.5411 22.3298 79.7604 21.8591C80.4195 21.8591 81.2399 21.9398 82.2083 22.1146C82.289 22.0743 82.3563 22.0608 82.4101 22.0608C83.2037 22.3836 83.782 22.545 84.1586 22.5316C85.7995 23.3117 86.7814 23.6883 87.0773 23.6883C87.2387 23.9707 87.4943 24.1994 87.8574 24.3877C88.0457 24.3877 88.2609 24.5357 88.5434 24.8181C89.0545 25.4772 89.4042 25.8672 89.5925 26.0017C89.8077 26.3649 90.0632 26.9701 90.3726 27.804C90.0498 29.1894 89.7001 29.9964 89.3369 30.2385ZM67.5477 28.6514V28.3824H67.6822V28.6514H67.5477ZM68.9868 25.7865V25.652C68.9868 25.5713 69.0272 25.531 69.1213 25.5175L69.2558 25.5848C69.2155 25.6789 69.202 25.7462 69.202 25.7865H68.9868ZM77.2856 11.9059C78.2271 11.6235 79.5183 11.3141 81.1727 10.9779L81.3341 11.0586C83.2306 10.8568 84.32 10.7089 84.6025 10.6147C84.7639 10.6147 84.9656 10.6416 85.2212 10.6954C85.2615 10.6954 85.4498 10.6685 85.7861 10.6147C87.2656 10.6954 88.1399 10.8434 88.4223 11.0317C88.4223 10.9779 88.4492 10.951 88.4896 10.951H88.6375C90.2112 11.4755 90.9913 11.9866 91.0048 12.4843C91.0048 12.5381 90.9779 12.6054 90.9375 12.6995L91.0048 12.834L90.9375 13.2375C90.5878 14.2866 89.5521 15.5106 87.8305 16.8825C85.8937 18.0661 83.3651 19.1825 80.2446 20.2451H79.6125L79.209 20.1912C79.1148 20.2316 79.0206 20.2451 78.913 20.2451C77.3394 20.1643 76.5458 20.0702 76.5458 19.976L76.0078 20.124C75.954 20.124 75.8733 20.0971 75.7926 20.0567C75.7119 20.0971 75.6178 20.124 75.5236 20.124H75.0259L74.5417 20.0702C74.5417 20.1778 74.2189 20.2316 73.5599 20.272L73.5464 20.0702C74.2862 18.8866 75.5371 16.1696 77.2856 11.9059ZM63.8758 34.6502C63.7951 34.6502 63.7547 34.6098 63.7413 34.5157C63.7413 34.435 63.7816 34.3946 63.8758 34.3812H63.943V34.5157L63.8758 34.6502ZM91.7042 27.3064C91.2334 25.921 90.7895 25.0602 90.3726 24.724C88.3282 22.8947 85.934 21.6304 83.1768 20.931L83.2306 20.7965C85.0463 20.0433 86.2568 19.4784 86.8486 19.1018C88.0861 18.4696 89.1083 17.8106 89.9153 17.1515C91.489 15.7123 92.4036 14.3673 92.6726 13.0896C92.6726 12.3767 92.417 11.6907 91.9059 11.0182C91.1931 10.265 89.9422 9.74047 88.1533 9.41766L87.9919 9.49836C87.6019 9.36386 86.889 9.24281 85.8399 9.16211C85.8399 9.21591 85.7054 9.25626 85.4229 9.29661C85.4229 9.20246 85.3153 9.16211 85.0732 9.16211L84.4545 9.24281L84.1586 9.16211C81.6972 9.41766 80.1505 9.67322 79.5049 9.94222L79.1686 9.88842C78.6575 9.99602 78.3885 10.1036 78.3885 10.2381H77.9043C77.4335 10.2381 76.64 10.4802 75.5371 10.951C73.5464 11.5697 72.5511 11.9866 72.5511 12.2018C71.9997 12.2556 71.7172 12.3498 71.7172 12.4843C71.0716 12.565 70.1704 13.0089 69.0137 13.8159V13.8831L69.1617 13.8159C69.2424 13.8159 69.2962 13.8562 69.2962 13.9638L69.2155 14.0983L68.7313 14.0311H68.5968C67.6015 14.4749 67.0634 14.8246 66.9962 15.0802C66.3237 15.3761 65.4763 15.8872 64.4272 16.627C64.2255 16.9901 63.674 17.5012 62.7594 18.1468C61.8313 18.9673 61.2933 19.7205 61.1723 20.393C61.2799 20.8638 61.5623 21.0924 62.0062 21.0924L62.3559 21.0117L62.8401 19.8953C63.674 19.0614 64.9652 18.0258 66.7406 16.8153C69.74 14.9053 72.4704 13.5334 74.9183 12.6861C74.9183 12.7264 74.9721 12.7533 75.0663 12.7533C74.1113 15.0667 73.533 16.2907 73.3447 16.4387C73.0488 17.5819 72.7529 18.2948 72.4435 18.6041L72.04 19.438L72.3897 19.3708H72.4435V19.438L71.7441 19.9491L71.9055 20.1374C71.6903 20.1374 71.4617 20.3527 71.2061 20.7562C69.3903 21.348 68.4892 21.9667 68.4892 22.5988H68.7044C68.7044 22.4509 68.7447 22.3836 68.8389 22.3836H68.9734V22.4374L68.8389 22.6526V22.7333H68.9734V22.7871L68.9196 23.1368C68.9599 23.1368 68.9734 23.1637 68.9734 23.2175C69.6728 23.3117 70.0225 23.4731 70.0359 23.7017H70.0897C70.0897 23.5269 70.1435 23.4327 70.2377 23.4327H70.5201V23.621H70.3049C70.0494 24.2398 69.7669 24.5357 69.471 24.5357V24.6702L69.6055 24.8854V25.0199C69.5652 25.0199 69.4979 25.0468 69.4172 25.1006L69.1213 25.0333C68.8927 25.4906 68.7716 25.7731 68.7716 25.8672C68.7716 25.9076 68.8523 25.9479 68.9868 26.0017C68.9868 26.1093 68.9196 26.2438 68.7716 26.4321C68.7447 26.4321 68.6775 26.4052 68.5833 26.3514C68.395 26.3514 68.274 26.5397 68.2336 26.9163L68.2874 27.0508C68.0991 27.0508 67.9377 27.1853 67.8032 27.4678L67.0634 28.7859C67.0903 28.7859 67.1172 28.8263 67.1172 28.9204C67.171 28.9204 67.1979 28.907 67.1979 28.8666L67.3324 28.9204L67.2652 29.0818C67.1979 29.0818 67.1441 29.028 67.1172 28.9204C66.8482 29.0684 66.7137 29.2163 66.7137 29.3508V29.4853L66.9827 29.2701C66.9424 29.835 66.902 30.1309 66.8482 30.1847C66.7406 30.1847 66.6599 30.1578 66.5792 30.1175V29.835H66.4985C66.3775 29.9292 66.3102 29.9695 66.2833 29.9695L66.2295 29.983C65.7184 29.8081 65.019 29.4584 64.1179 28.9339C63.2705 28.2614 62.598 27.804 62.1138 27.5619C61.9389 27.2391 61.7103 27.0777 61.4144 27.0777C61.4144 27.1181 61.3875 27.1315 61.3337 27.1315L61.1185 27.145C61.0378 27.145 60.9974 27.0912 60.984 26.997L61.1185 26.7953V26.728C60.4729 26.728 60.1501 26.459 60.1501 25.8941C59.7062 25.4503 59.3834 25.0064 59.1682 24.576C59.1009 24.576 59.0337 24.6702 58.953 24.8585C59.1413 25.262 59.3296 25.4772 59.5179 25.4772C59.5179 25.5713 59.4372 25.6251 59.2489 25.6251V25.8269C59.3296 25.8269 59.4506 25.8672 59.5986 25.9614L59.5179 26.3111C59.6793 26.3111 59.8004 26.4187 59.8811 26.6608H60.2308C60.2308 26.7549 60.2039 26.8625 60.1501 26.9432C60.3249 27.4005 60.5536 27.6292 60.8495 27.6292C61.3202 28.2345 61.6027 28.5304 61.6968 28.5304C61.6968 28.49 61.7103 28.4631 61.7641 28.4631H61.8313C62.7997 29.2029 63.4992 29.6467 63.9296 29.7678C64.2658 30.2923 64.6155 30.5479 64.9652 30.5479C65.3956 30.5479 65.6781 30.8169 65.7991 31.3818V31.5163H65.4494L65.5301 32.0005C65.3822 32.0543 65.288 32.0812 65.2611 32.0812V32.2157L65.3149 32.3502C65.2477 32.3502 65.1939 32.404 65.1804 32.4847C64.5617 32.942 64.2389 33.2917 64.212 33.5473L64.2927 33.8163C64.2927 34.0046 64.1044 34.1525 63.7413 34.2467C63.3781 34.973 62.9611 35.6186 62.4769 36.197V36.2642C62.6249 36.2642 62.719 36.3584 62.7728 36.5467C62.7728 36.7081 62.6114 36.9367 62.2886 37.2461H62.2079C62.2079 37.1923 62.1945 37.125 62.1541 37.0309C62.2617 37.0174 62.3559 36.8964 62.4231 36.6812C62.3693 36.6812 62.3424 36.6543 62.3424 36.6005C62.2886 36.6005 62.1272 36.7888 61.8582 37.1654C61.791 37.542 61.6968 37.7303 61.5892 37.7303C61.5085 37.9993 61.4009 38.1338 61.2395 38.1472V38.349H61.4547C61.4547 38.6045 61.253 38.8466 60.836 39.1156V39.1963L60.9033 39.3308C60.8091 39.425 60.5805 39.5326 60.2039 39.6805C60.029 40.1648 59.8004 40.5145 59.5045 40.7297L59.5852 41.0794C59.1144 41.3484 58.8857 41.5232 58.8857 41.6308V41.7653H59.5045C59.76 41.3484 60.0021 41.1332 60.2039 41.1332C61.2126 40.0706 61.7641 39.5326 61.8717 39.5326C62.6383 38.4162 63.0822 37.8648 63.1898 37.8648C63.4992 36.9502 63.8085 36.4256 64.1448 36.2642C64.5214 35.6589 64.75 35.3496 64.8442 35.3496C65.2611 34.4619 66.0143 33.2783 67.1307 31.7853H67.2786C67.467 31.866 67.5611 31.9467 67.5611 31.987C68.3009 32.135 68.7313 32.3637 68.8792 32.6865C69.5248 32.7268 69.8476 32.8075 69.8476 32.9555C70.6681 33.211 71.1119 33.3993 71.1792 33.5204C71.2868 33.5069 71.3675 33.4935 71.4482 33.4397C71.6096 33.5204 71.7441 33.5742 71.8786 33.5742L72.2821 33.5607V33.6414C72.6587 33.6414 72.847 33.8028 72.847 34.1256H73.3312C73.3312 34.2736 73.4523 34.3408 73.6944 34.3408H73.7616L73.9634 34.2063H74.0306C74.1786 34.2601 74.5955 34.3946 75.2815 34.6098C75.5236 34.5695 75.6716 34.5426 75.7119 34.5426C75.8464 34.6771 76.3306 34.8116 77.1645 34.9461C77.2587 34.8923 77.3259 34.8654 77.3797 34.8654C77.6353 34.8654 77.837 34.9192 78.0119 35.0268C78.1195 35.0268 78.3078 34.9999 78.5633 34.9461L79.1955 35.0133C79.5183 34.9595 79.7066 34.9326 79.7604 34.9326L80.0294 35.0671C81.1727 35.0671 82.0066 34.9461 82.5311 34.7174L82.8808 34.8519L85.4498 34.3543C87.8036 33.4262 89.4042 32.5116 90.2381 31.6239C91.3141 30.1982 91.8387 29.1087 91.8387 28.3421C91.8387 28.1941 91.7714 27.8982 91.6235 27.4409L91.7042 27.3064Z" fill="#111111"/>
<path d="M60.9703 38.6973H60.8896V38.8452H60.9703V38.6973Z" fill="#111111"/>
<path d="M58.6162 41.9258V42.1141H58.8314V41.9258H58.6162Z" fill="#111111"/>
<path d="M68.7702 25.9199H68.6357V26.0813H68.7702V25.9199Z" fill="#111111"/>
<path d="M126.687 16.9089C127.064 16.9089 127.629 16.6668 128.396 16.1961C129.915 15.1739 130.776 14.3668 130.951 13.775V13.5464C130.924 13.5464 130.642 13.4926 130.09 13.3984C129.364 13.7078 128.799 14.0171 128.382 14.3399C126.728 15.147 125.907 15.7388 125.907 16.1288C125.907 16.5861 126.163 16.8417 126.687 16.9089Z" fill="#111111"/>
<path d="M202.855 10.8301V10.8704L202.896 10.9511C203.017 10.8704 203.071 10.8301 203.071 10.8301C203.071 10.8301 203.003 10.8301 202.855 10.8301Z" fill="#111111"/>
<path d="M194.382 10.7883V10.3848H194.032V10.7883H194.382Z" fill="#111111"/>
<path d="M202.667 10.7891V10.8294C202.748 10.8294 202.801 10.8294 202.855 10.8294V10.7891H202.667Z" fill="#111111"/>
<path d="M191.464 10.7088C191.437 10.6953 191.41 10.6953 191.383 10.6953C191.383 10.6953 191.383 10.6953 191.383 10.7088H191.464Z" fill="#111111"/>
<path d="M198.189 10.6408V10.5332L197.839 10.5467L197.852 10.9502H198.189V10.8022C198.242 10.9098 198.35 10.9771 198.511 11.004V10.6408H198.189Z" fill="#111111"/>
<path d="M155.955 19.7067C155.915 19.7067 155.901 19.7336 155.915 19.7874V19.8681C155.39 20.9441 154.422 21.7376 153.009 22.2622C154.045 20.7558 155.013 19.9084 155.955 19.7067ZM172.593 25.8265C172.7 26.1627 172.754 26.3914 172.754 26.5259V27.1446C172.445 27.7499 172.297 28.0861 172.297 28.1534C171.033 29.3504 169.97 29.9557 169.109 29.9557C168.773 29.9557 168.598 29.875 168.571 29.727V29.6463C168.571 29.1352 169.809 27.8575 172.283 25.8265H172.593ZM135.188 28.3013C133.924 29.4984 132.861 30.1036 132 30.1036C131.664 30.1036 131.489 30.0229 131.462 29.875V29.7943C131.462 29.2832 132.7 28.0054 135.174 25.9744H135.484C135.591 26.3107 135.645 26.5394 135.645 26.6739V27.2926C135.336 27.8978 135.188 28.2341 135.188 28.3013ZM97.2449 23.4996C95.6578 25.006 94.3935 25.7592 93.4386 25.7727H93.2906C93.1964 25.7727 93.1426 25.7189 93.1292 25.6113V25.0733C93.2099 24.4546 93.4924 23.809 93.9766 23.123C95.4023 21.5628 96.7473 20.5675 98.0116 20.1505C98.4689 20.1505 98.711 20.4599 98.711 21.0786V21.1593C98.711 21.6973 98.2268 22.4774 97.2449 23.4996ZM197.18 11.1255V10.5471H196.521V10.8565H196.305C196.131 10.9237 196.023 10.9506 195.983 10.9506C195.794 10.843 195.714 10.8161 195.714 10.8834C195.485 10.8834 195.431 10.843 195.552 10.7623C195.404 10.7623 195.297 10.7354 195.216 10.6816C194.893 10.7892 194.732 10.9372 194.732 11.1389H194.422C193.979 10.843 193.763 10.7219 193.763 10.7892C193.736 10.7892 193.723 10.7757 193.723 10.7354V10.7892L193.817 11.0179L193.589 11.1658C193.387 10.9641 193.212 10.8699 193.064 10.8699C192.889 11.0582 192.701 11.1389 192.499 11.1389L192.27 11.1524L192.378 10.695L191.463 10.7085C191.719 10.7354 191.853 10.8834 191.853 11.1524C191.611 11.1524 191.45 10.991 191.383 10.7085H191.1C191.208 10.695 191.302 10.695 191.383 10.695C191.369 10.6412 191.356 10.5874 191.356 10.5336L191.114 10.574L190.925 10.7623H191.154C191.154 10.9506 191.087 11.0582 190.925 11.0582C190.495 10.695 190.145 10.5067 189.849 10.5202L189.984 10.6547C189.97 10.7354 189.944 10.8699 189.89 11.0582H189.513L189.486 11.0313V10.7488H189.325L189.19 10.5202H187.361C187.294 10.5202 187.24 10.7085 187.2 11.0717H186.917V10.8161H186.904C186.796 10.695 186.689 10.6547 186.594 10.7219L186.204 10.5471C185.895 10.6681 185.666 10.7219 185.518 10.7219C185.518 10.6412 185.465 10.5874 185.344 10.5336L184.873 10.6278L183.326 10.6412C183.071 10.6412 182.654 10.6681 182.102 10.7354C182.102 10.6681 182.048 10.6412 181.941 10.6412C181.847 10.7085 181.752 10.7354 181.672 10.7354L181.309 10.5471L180.111 10.7488L179.964 10.6547C179.708 10.7219 179.479 10.7488 179.291 10.7488C179.049 10.7488 178.713 10.7219 178.269 10.6547L177.435 10.7623V10.7757C177.421 10.7623 177.381 10.7623 177.341 10.7623H176.332L175.35 10.8565L175.283 10.6681L174.301 10.843L173.844 10.7757L171.275 10.9506L170.71 10.8027V10.8565C170.589 10.8565 170.158 10.843 169.405 10.7892C169.271 10.7892 169.123 10.843 168.961 10.9641C168.84 10.9641 168.786 10.9775 168.8 10.991C167.24 10.991 166.809 10.9506 167.536 10.8699C167.32 10.8699 167.119 10.8565 166.917 10.8027C166.729 10.8565 166.513 10.8834 166.298 10.8834H165.747C165.626 10.8834 165.518 10.8565 165.437 10.8027C165.357 10.8565 165.262 10.8834 165.128 10.8834H164.2C163.985 10.8834 163.783 10.9506 163.581 11.0851C163.231 10.9506 162.922 10.8968 162.64 10.8968C162.438 10.8968 162.034 10.9641 161.456 11.0986L161.322 11.0179C161.241 11.0717 161.147 11.0986 161.012 11.0986H160.703C160.447 11.0986 160.192 11.0717 159.923 11.0044C159.008 11.0851 158.484 11.1793 158.389 11.2869C158.053 11.2869 157.65 11.2465 157.206 11.1927L156.816 11.2869L155.592 11.4617C151.422 11.8114 149.203 12.0401 148.947 12.1477L147.683 12.1611C147.562 12.1611 147.495 12.0804 147.468 11.9056C148.49 10.1436 149.015 9.08103 149.001 8.73132C149.001 8.58337 148.894 8.36817 148.652 8.07227L148.208 8.16642L147.818 8.07227L147.697 8.15297C147.185 9.33658 146.836 10.0494 146.647 10.3184C146.647 10.6547 146.257 11.3945 145.464 12.5377C143.809 12.726 140.85 13.2909 136.587 14.2459L136.398 14.6763L136.318 15.1336C136.452 15.4295 136.748 15.6851 137.192 15.9137L143.904 14.609C143.998 14.6628 144.092 14.7032 144.173 14.7032C144.173 14.905 143.998 15.3623 143.635 16.0617C143.325 16.4652 143.097 17.0704 142.935 17.8774C142.599 18.2809 142.397 18.8593 142.33 19.5991C142.142 20.0698 142.007 20.5002 141.873 20.9172C141.819 20.9575 141.778 20.971 141.725 21.0113C140.38 21.1189 138.914 21.6838 137.34 22.6926C136.587 23.1365 136.076 23.4727 135.793 23.7148L135.632 23.6341C134.69 22.437 134.219 21.24 134.219 20.0698C134.219 19.626 134.69 19.3435 135.618 19.209C135.726 19.209 135.766 19.2494 135.78 19.357C135.78 19.7201 135.672 20.2178 135.47 20.8365C135.618 21.1458 135.82 21.3072 136.089 21.3072C136.197 21.2534 136.277 21.2265 136.318 21.2265C136.735 21.2265 137.071 20.5944 137.326 19.357C137.326 18.6037 136.856 18.133 135.928 17.9581C135.282 18.0254 134.61 18.1868 133.897 18.4289C133.224 18.4423 132.848 19.0342 132.74 20.2312C132.74 20.4061 132.767 20.6078 132.807 20.8096C132.74 21.0382 132.673 21.1593 132.605 21.1593C131.301 22.6119 130.601 23.3517 130.521 23.3517C130.373 23.661 130.211 23.809 130.05 23.809C128.315 25.3692 127.091 26.1627 126.405 26.1627H125.786C125.477 26.0013 125.315 25.7054 125.315 25.3154V24.4546C125.315 23.4189 125.746 22.0739 126.62 20.4061V20.1774C126.486 19.9084 126.284 19.7874 126.001 19.7874H125.84L125.221 20.4868C124.831 20.8499 124.495 21.4148 124.199 22.1411C122.276 24.1587 120.796 25.3288 119.774 25.6651H119.451C119.196 25.6651 119.061 25.5575 119.061 25.3288C119.061 24.7236 119.29 23.9031 119.774 22.8809C121.173 20.7423 121.872 19.3973 121.872 18.8459C121.617 18.1868 121.348 17.864 121.065 17.864C120.904 17.9043 120.729 17.9178 120.541 17.9178C119.855 18.2406 118.94 18.5365 117.77 18.8055L117.299 18.4827L116.317 18.7383H115.847C115.551 18.94 115.403 19.1552 115.403 19.3973V19.478L115.847 20.0026C115.779 20.1505 115.739 20.2581 115.739 20.3388C115.362 20.5809 115.161 20.823 115.134 21.0517C115.174 21.1458 115.228 21.2131 115.268 21.2803C112.914 23.8493 111.166 25.3288 110.009 25.7054H109.673C109.417 25.7054 109.283 25.5978 109.283 25.3692C109.283 24.7639 109.512 23.9435 109.996 22.9213C111.395 20.7827 112.094 19.4377 112.094 18.8862C111.838 18.2271 111.569 17.9043 111.3 17.9043C111.126 17.9447 110.951 17.9581 110.762 17.9581C110.09 18.2809 109.162 18.5768 107.992 18.8459L107.521 18.523L106.539 18.7786H106.068C105.772 18.9669 105.624 19.1956 105.624 19.4377V19.5184L106.068 20.0429C106.001 20.1774 105.961 20.2985 105.961 20.3657C105.584 20.6213 105.382 20.8634 105.355 21.092C105.382 21.1458 105.409 21.1727 105.423 21.2131C104.79 21.6435 104.468 21.9394 104.468 22.0739C102.76 24.0511 101.549 25.0329 100.823 25.0329H100.365C100.204 25.0464 100.069 24.8043 99.9619 24.347V24.1049C99.9619 23.1903 100.325 22.0739 101.038 20.7558C101.038 20.702 101.011 20.6885 100.957 20.6885C100.957 20.2178 100.621 19.9891 99.9484 19.9891C99.2759 19.3704 98.6707 19.0611 98.1596 19.0611C97.218 19.1418 96.7607 19.2763 96.7607 19.4511L94.5818 20.8634C92.4701 22.4101 91.4076 23.8897 91.421 25.3019V25.4633C91.7035 26.5528 92.3625 27.0908 93.3713 27.0908H93.6C94.6625 27.0774 96.142 26.2703 98.0251 24.6563H98.2537V24.8177C98.7917 26.0551 99.5987 26.6739 100.675 26.6739C101.872 26.6604 103.324 25.5306 105.033 23.271C105.45 22.7464 105.772 22.1949 106.055 21.6166C106.162 21.6031 106.283 21.5628 106.405 21.4955C107.064 20.6078 107.427 20.1774 107.467 20.1774L107.534 20.164C108.368 20.164 109.323 19.8681 110.372 19.2897H110.641V19.357C110.641 19.5184 110.507 19.8412 110.238 20.3523C109.807 20.8634 109.592 21.1727 109.592 21.2669C108.503 22.733 107.884 23.8897 107.75 24.7236V25.1809L107.83 25.3154C107.776 25.3154 107.723 25.4095 107.696 25.5709C107.723 25.5709 107.75 25.6382 107.75 25.7727C108.086 26.6066 108.772 27.0236 109.807 27.0236H110.063C111.099 26.647 112.121 26.0013 113.116 25.0867C114.609 23.6072 115.456 22.5581 115.645 21.9394C115.766 21.8049 115.86 21.6704 115.954 21.5493C116.021 21.5359 116.102 21.509 116.183 21.4552C116.842 20.5809 117.205 20.1371 117.245 20.1371H117.313C118.147 20.1236 119.101 19.8277 120.137 19.2494H120.42V19.3166C120.42 19.478 120.285 19.8143 120.016 20.3119C119.586 20.823 119.37 21.1324 119.37 21.2265C118.281 22.7061 117.662 23.8493 117.528 24.6832V25.1405L117.595 25.275C117.555 25.2885 117.501 25.3692 117.461 25.5306C117.501 25.5306 117.528 25.5978 117.528 25.7323C117.864 26.5662 118.55 26.9832 119.586 26.9832H119.841C120.877 26.6066 121.899 25.961 122.881 25.0464C123.137 24.7908 123.365 24.5622 123.58 24.3335C123.567 24.4277 123.54 24.5218 123.527 24.616C123.567 24.9253 123.621 25.0867 123.688 25.0867C123.688 26.6335 124.603 27.5212 126.418 27.7095L127.198 27.5616C128.288 27.2657 129.606 26.3779 131.153 24.8984C132.014 23.8897 132.686 22.9213 133.17 21.9797C133.48 22.7195 133.964 23.5534 134.623 24.4949V24.6563L134.556 24.8043C132.794 26.1627 131.637 27.1984 131.059 27.9247C130.292 28.5972 129.902 29.1352 129.902 29.5656V29.9557C129.902 30.682 130.615 31.1528 132.014 31.3545C133.17 31.1797 134.179 30.7358 135.04 30.0095C136.129 29.3101 136.829 28.4224 137.125 27.3598C137.125 26.5124 136.91 25.7323 136.493 25.0329L136.802 24.6429C138.94 23.4324 140.528 22.5446 141.577 21.9528C141.509 22.2353 141.442 22.5177 141.402 22.7733C141.402 22.8271 141.429 22.9078 141.483 23.0289C141.429 23.3651 141.402 23.6476 141.415 23.8628V24.4142L141.254 24.6832V24.8446C141.415 25.0598 141.496 25.275 141.496 25.5037V25.692L141.415 25.8534C141.671 26.2165 141.805 26.5124 141.805 26.7411C142.303 27.3464 143.083 27.723 144.159 27.8844C145.101 27.8709 146.217 27.4136 147.535 26.499C148.208 26.1089 148.692 25.7458 149.015 25.4095C149.445 25.2212 150.091 24.6832 150.911 23.7955L150.938 24.0645C151.489 25.6651 152.566 26.4721 154.166 26.4586C154.462 26.3645 154.744 26.3241 155 26.3241C157.529 25.813 159.452 24.1587 160.784 21.3476C160.824 21.3341 160.878 21.3072 160.932 21.2803C161.591 20.3926 161.94 19.9488 161.994 19.9488H162.061C162.895 19.9488 163.837 19.6529 164.886 19.0745L165.168 19.0611V19.1418C165.168 19.3032 165.034 19.626 164.765 20.1371C164.334 20.6482 164.119 20.9575 164.119 21.0517C163.03 22.5177 162.411 23.6745 162.263 24.5084L162.277 24.9657L162.344 25.1002C162.29 25.1002 162.25 25.1943 162.209 25.3557C162.25 25.3557 162.277 25.423 162.277 25.5575C162.613 26.3914 163.299 26.8084 164.334 26.8084H164.59C165.626 26.4317 166.634 25.7861 167.63 24.8715C169.136 23.392 169.983 22.3429 170.172 21.7242C170.185 21.7107 170.199 21.6973 170.212 21.6704C170.521 22.4505 171.033 23.3382 171.732 24.347V24.5084L171.665 24.6563C169.903 26.0148 168.733 27.0505 168.168 27.7768C167.401 28.4493 167.011 28.9873 167.011 29.4177V29.8077C167.011 30.5341 167.724 31.0048 169.123 31.2066C170.279 31.0317 171.288 30.5879 172.149 29.8615C173.238 29.1621 173.938 28.2744 174.234 27.2119C174.234 26.3645 174.019 25.5844 173.602 24.885L173.911 24.4949C176.144 23.2306 177.785 22.3025 178.834 21.7107C179.654 20.9844 180.165 20.6213 180.394 20.6213V20.3926L180.313 20.2312C179.964 20.2312 179.466 20.4464 178.834 20.8634C177.489 20.971 176.023 21.5359 174.449 22.5446C173.696 22.9885 173.185 23.3382 172.902 23.5669L172.741 23.4862C171.799 22.2891 171.328 21.092 171.328 19.9219C171.328 19.478 171.799 19.1956 172.727 19.0611C172.821 19.0611 172.875 19.1014 172.875 19.209C172.889 19.5722 172.781 20.0698 172.579 20.6885C172.714 20.9979 172.929 21.1593 173.198 21.1593C173.306 21.1055 173.386 21.0786 173.427 21.0786C173.844 21.0786 174.18 20.4464 174.435 19.209C174.435 18.4558 173.965 17.985 173.037 17.8102C172.391 17.8774 171.719 18.0388 171.006 18.2809C170.333 18.2944 169.957 18.8862 169.849 20.0833C169.849 20.3388 169.889 20.6213 169.97 20.9306C169.943 20.9306 169.916 20.9441 169.889 20.9575C167.495 23.5938 165.706 25.1002 164.523 25.4902H164.2C163.931 25.4902 163.81 25.3826 163.81 25.154C163.81 24.5487 164.039 23.7283 164.523 22.7061C165.922 20.5675 166.621 19.2225 166.621 18.671C166.352 18.0119 166.096 17.6891 165.814 17.6891C165.653 17.7295 165.478 17.7429 165.289 17.7429C164.603 18.0523 163.689 18.3482 162.519 18.6306L162.048 18.3078L161.053 18.5634H160.595C160.299 18.7517 160.151 18.9804 160.151 19.2225V19.3032L160.595 19.8277C160.515 19.9622 160.488 20.0833 160.488 20.1505C160.111 20.4061 159.909 20.6482 159.882 20.8768C159.896 20.9037 159.909 20.9306 159.923 20.9575C159.654 21.2669 159.439 21.6031 159.291 21.9259C158.026 23.4189 157.031 24.3066 156.332 24.5487C155.619 24.8043 154.919 24.9657 154.206 25.0464C153.157 25.0464 152.633 24.7505 152.619 24.1452V23.8762L153.494 23.4727C154.314 23.3248 155.35 22.5043 156.614 21.0248C156.964 20.5271 157.139 19.9353 157.139 19.2225C156.749 18.7786 156.385 18.5634 156.063 18.5634C155.457 18.5634 154.664 18.8997 153.682 19.5856C153.48 19.747 153.292 19.9084 153.104 20.0698C153.117 19.9757 153.144 19.895 153.157 19.8143L153.036 19.6394C152.162 20.9575 151.382 21.9797 150.709 22.7061C150.198 23.1365 149.606 23.5534 148.934 23.9704C146.647 25.5037 145.074 26.2569 144.24 26.2703C143.5 26.2703 143.056 25.8937 142.935 25.1271L142.922 24.3066C142.922 23.661 143.002 23.0289 143.15 22.3967C143.097 22.2891 143.07 22.1949 143.07 22.1277C143.07 21.9797 143.554 20.4464 144.536 17.5546C145.356 15.9406 145.773 15.0664 145.76 14.9319C146.136 14.3131 146.311 14.0038 146.271 13.9903C151.503 13.3985 155.794 12.995 159.156 12.7933L159.923 12.8874C160.057 12.8874 160.313 12.8202 160.703 12.6857L161.174 12.7798L163.837 12.605C163.931 12.6588 164.052 12.6991 164.2 12.6991C164.684 12.5646 165.074 12.4974 165.37 12.4974H166.46L167.172 12.5646C167.172 12.5243 167.28 12.4705 167.468 12.3898L167.858 12.4839L170.131 12.3091L170.508 12.4705C170.777 12.4167 171.006 12.3763 171.207 12.3763H171.517C172.633 12.3763 173.978 12.3091 175.579 12.188C175.673 12.2553 175.754 12.2822 175.794 12.2822L176.87 11.9997C177.22 12.1208 177.462 12.1746 177.569 12.1746H177.892C178.255 12.0535 178.457 11.9997 178.511 11.9997H178.968C179.21 11.9997 179.399 12.0401 179.533 12.1342C179.533 12.0401 179.681 11.9863 179.99 11.9863C180.111 11.9863 180.219 12.0132 180.313 12.067C180.569 12.0132 180.797 11.9863 180.999 11.9863H182.721L182.869 12.0535C183.487 11.7576 183.851 11.6097 183.945 11.6097H184.025C184.187 11.6097 184.348 11.6635 184.51 11.7845C184.577 11.7845 184.698 11.6904 184.859 11.5021H184.994C185.075 11.6366 185.478 11.7576 186.204 11.8652C186.742 11.7576 187.079 11.6904 187.213 11.6904L187.603 11.7711L187.899 11.5962L188.464 11.6904C188.612 11.6904 188.841 11.65 189.15 11.5828C189.19 11.6097 189.231 11.6231 189.271 11.65L189.325 11.5424C189.392 11.529 189.459 11.5155 189.553 11.4886C189.648 11.4886 189.701 11.4886 189.688 11.4886C189.917 11.4886 190.038 11.5155 190.038 11.5828C190.683 11.529 191.06 11.4348 191.154 11.3003H191.315V11.4752H191.827C191.827 11.4079 191.827 11.3541 191.827 11.2869L192.27 11.3945C192.351 11.3945 192.472 11.3272 192.634 11.2062C192.782 11.2062 192.929 11.2465 193.104 11.3407C193.104 11.4617 193.293 11.4214 193.642 11.1927H193.75C193.965 11.1927 194.248 11.2331 194.584 11.2869L194.893 11.112C195.189 11.1658 195.431 11.1927 195.606 11.1927H195.996C196.023 11.1927 196.211 11.1389 196.521 11.0448V11.2196H197.18V11.1793C197.207 11.1793 197.22 11.1793 197.247 11.1793L197.18 11.1255Z" fill="#111111"/>
<path d="M198.901 11.0035C198.928 11.0035 198.928 11.0573 198.941 11.1514L199.614 10.9766L198.699 10.99L198.901 11.0035Z" fill="#111111"/>
<path d="M200.179 10.7891C199.923 10.8294 199.856 10.9236 199.991 11.0984H200.018C200.152 10.9639 200.206 10.8967 200.179 10.8967V10.7891Z" fill="#111111"/>
<path d="M200.569 10.8965V11.3134L200.919 11.3V10.8965H200.569Z" fill="#111111"/>
<path d="M93.8018 35.0525H95.2006V35.3215L94.8643 35.3484L94.8105 35.4426L94.9988 37.7156L96.2093 35.0525H96.7339L97.0298 37.7694L98.0386 35.4022L97.9982 35.335L97.6754 35.3081V35.0391H98.8456V35.3081L98.4959 35.3484L97.0163 38.7244H96.5187L96.2228 35.8999L94.9316 38.7379H94.4205L94.1515 35.4291L94.0977 35.3619L93.8018 35.3215V35.0525Z" fill="#111111"/>
<path d="M99.72 34.7441C99.8276 34.7441 99.9218 34.771 99.989 34.8383C100.056 34.8921 100.083 34.9862 100.083 35.0938C100.083 35.2014 100.043 35.309 99.9621 35.3763C99.8814 35.457 99.7873 35.4974 99.6662 35.4974C99.5586 35.4974 99.4779 35.4704 99.3972 35.4032C99.33 35.3494 99.3031 35.2552 99.3031 35.1611C99.3031 35.04 99.3434 34.9459 99.4241 34.8652C99.4914 34.7845 99.599 34.7441 99.72 34.7441ZM99.6124 36.0085H99.8545L99.5183 37.8646C99.5048 37.9184 99.4914 37.9722 99.4914 38.0125C99.4914 38.0394 99.4779 38.0798 99.4779 38.0932C99.4914 38.2008 99.5048 38.2815 99.5586 38.3219C99.599 38.3757 99.6662 38.4026 99.7604 38.4026C99.8007 38.4026 99.8411 38.4026 99.9083 38.3757C99.9756 38.3622 100.043 38.3488 100.137 38.3084V38.5505C99.9487 38.6312 99.7738 38.685 99.6259 38.7119C99.4779 38.7523 99.33 38.7657 99.1955 38.7657C99.061 38.7657 98.9668 38.7388 98.8996 38.6581C98.8189 38.5909 98.7919 38.4833 98.7919 38.3353C98.7919 38.295 98.7919 38.2546 98.8054 38.2008C98.8054 38.147 98.8189 38.0663 98.8323 37.9587L99.1282 36.4792L98.6843 36.412L98.6709 36.2237L99.6124 36.0085Z" fill="#111111"/>
<path d="M101.307 35.416H101.656L101.535 36.1154H102.288V36.4248H101.481L101.239 37.7698C101.226 37.837 101.212 37.8774 101.212 37.9312C101.212 37.9715 101.199 38.0119 101.199 38.0522C101.199 38.1733 101.226 38.254 101.293 38.3213C101.347 38.3751 101.428 38.402 101.535 38.402C101.589 38.402 101.656 38.3885 101.737 38.3751C101.818 38.3616 101.912 38.3347 102.006 38.2944V38.523C101.777 38.6037 101.589 38.671 101.428 38.6979C101.28 38.7382 101.159 38.7651 101.064 38.7651C100.89 38.7651 100.755 38.7113 100.661 38.6306C100.58 38.5365 100.526 38.4154 100.526 38.2406C100.526 38.1868 100.526 38.1195 100.54 38.0657C100.54 38.0119 100.553 37.9446 100.567 37.8774L100.836 36.4382L100.473 36.4517V36.2499L100.943 36.0213L101.307 35.416Z" fill="#111111"/>
<path d="M103.58 34.6621H103.835C103.795 34.7966 103.768 34.9446 103.728 35.0925C103.701 35.2539 103.661 35.4153 103.634 35.6036L103.445 36.5317C103.661 36.3434 103.862 36.2089 104.037 36.1282C104.212 36.034 104.373 35.9802 104.508 35.9802C104.656 35.9802 104.79 36.034 104.885 36.1282C104.979 36.2223 105.032 36.3434 105.032 36.5048C105.032 36.5586 105.019 36.6258 105.019 36.6931C105.006 36.7738 104.992 36.8545 104.979 36.9486L104.804 37.7153C104.79 37.8094 104.777 37.9036 104.763 37.9574C104.763 38.0247 104.75 38.0785 104.75 38.1188C104.75 38.213 104.777 38.2802 104.817 38.334C104.858 38.3878 104.911 38.4147 104.979 38.4147C105.032 38.4147 105.086 38.4013 105.154 38.3878C105.207 38.3744 105.275 38.3609 105.342 38.334V38.5492C105.167 38.6165 105.019 38.6568 104.871 38.6972C104.737 38.7241 104.616 38.751 104.521 38.751C104.373 38.751 104.266 38.7106 104.185 38.6434C104.118 38.5761 104.078 38.482 104.078 38.3475C104.078 38.3071 104.078 38.2668 104.078 38.213C104.091 38.1726 104.104 38.1054 104.118 38.0516L104.306 37.1369C104.32 37.0562 104.333 36.989 104.347 36.9217C104.347 36.8679 104.36 36.8141 104.36 36.7738C104.36 36.6662 104.333 36.5989 104.293 36.5317C104.239 36.4779 104.172 36.451 104.091 36.451C104.01 36.451 103.903 36.4913 103.782 36.5586C103.661 36.6124 103.54 36.7065 103.405 36.8276L103.069 38.6972H102.383L103.096 35.1329L102.611 35.0656V34.8773L103.58 34.6621Z" fill="#111111"/>
<path d="M109.229 35.4019L108.772 34.9177C108.691 35.0118 108.611 35.1598 108.543 35.3615C108.476 35.5633 108.422 35.8188 108.368 36.1147H109.108V36.4375H108.315L108.126 37.8767C108.086 38.1457 108.032 38.3744 107.978 38.5627C107.911 38.7644 107.83 38.9393 107.736 39.0872C107.588 39.3293 107.413 39.5176 107.225 39.6521C107.037 39.7866 106.862 39.8539 106.687 39.8539C106.58 39.8539 106.485 39.827 106.418 39.7597C106.337 39.6925 106.311 39.6118 106.311 39.5176C106.311 39.4369 106.324 39.3697 106.364 39.3024C106.391 39.2486 106.458 39.2083 106.526 39.1679L107.104 39.4773C107.185 39.3831 107.239 39.2486 107.292 39.0469C107.346 38.8586 107.4 38.5492 107.467 38.1188L107.696 36.4375L107.319 36.4913L107.333 36.2492L107.75 36.0609C107.83 35.644 107.978 35.3077 108.22 35.0522C108.476 34.7966 108.745 34.6621 109.041 34.6621C109.202 34.6621 109.323 34.689 109.431 34.7697C109.525 34.837 109.579 34.9311 109.579 35.0387C109.579 35.1194 109.552 35.2001 109.485 35.2674C109.418 35.3212 109.337 35.375 109.229 35.4019Z" fill="#111111"/>
<path d="M110.721 36.2378C110.721 36.2378 110.708 36.2378 110.694 36.2243C110.681 36.2243 110.667 36.2243 110.654 36.2243C110.385 36.2243 110.17 36.3588 109.995 36.6413C109.806 36.9103 109.726 37.2465 109.726 37.65C109.726 37.8518 109.753 38.0132 109.833 38.1208C109.901 38.2284 110.008 38.2822 110.143 38.2822C110.223 38.2822 110.304 38.2553 110.398 38.2149C110.492 38.1746 110.587 38.1073 110.694 38.0266L110.95 36.5606L110.721 36.2378ZM111.394 35.9688H111.716C111.703 36.036 111.676 36.1436 111.636 36.2916C111.609 36.4395 111.568 36.6144 111.542 36.8027L111.38 37.6904C111.367 37.7845 111.353 37.8652 111.34 37.9325C111.326 37.9863 111.326 38.0401 111.326 38.0804C111.326 38.1746 111.353 38.2418 111.394 38.2956C111.434 38.3494 111.501 38.3763 111.555 38.3763C111.609 38.3763 111.676 38.3629 111.73 38.3629C111.797 38.3494 111.851 38.3225 111.918 38.3091V38.5243C111.73 38.5915 111.568 38.6453 111.434 38.6722C111.299 38.6991 111.192 38.726 111.098 38.726C110.963 38.726 110.856 38.6857 110.788 38.6184C110.721 38.5377 110.681 38.4436 110.681 38.3091V38.2822C110.533 38.4301 110.385 38.5377 110.237 38.6184C110.089 38.6857 109.954 38.726 109.82 38.726C109.564 38.726 109.376 38.6453 109.228 38.4705C109.094 38.2822 109.026 38.0401 109.026 37.7307C109.026 37.529 109.053 37.3407 109.107 37.1658C109.161 36.9775 109.242 36.8027 109.349 36.6278C109.484 36.4261 109.659 36.2647 109.874 36.1436C110.089 36.0226 110.318 35.9688 110.56 35.9688C110.654 35.9688 110.761 35.9822 110.869 35.9957C110.977 36.0226 111.084 36.0495 111.192 36.1033L111.394 35.9688Z" fill="#111111"/>
<path d="M113.251 34.6895C113.358 34.6895 113.452 34.7164 113.52 34.7836C113.587 34.8374 113.614 34.9316 113.614 35.0392C113.614 35.1468 113.587 35.2544 113.506 35.3216C113.425 35.4023 113.318 35.4427 113.21 35.4427C113.089 35.4427 113.008 35.4158 112.928 35.3485C112.86 35.2947 112.834 35.2006 112.834 35.1064C112.834 34.9854 112.874 34.8912 112.955 34.8105C113.035 34.7298 113.129 34.6895 113.251 34.6895ZM113.143 35.9538H113.385L113.049 37.8099C113.035 37.8637 113.022 37.9175 113.022 37.9578C113.022 37.9847 113.022 38.0251 113.022 38.0385C113.022 38.1461 113.035 38.2268 113.089 38.2672C113.129 38.321 113.197 38.3479 113.291 38.3479C113.331 38.3479 113.385 38.3479 113.439 38.321C113.506 38.3075 113.587 38.2941 113.667 38.2537V38.4959C113.479 38.5766 113.318 38.6304 113.156 38.6573C113.008 38.6976 112.86 38.7111 112.726 38.7111C112.591 38.7111 112.497 38.6842 112.43 38.6035C112.363 38.5362 112.322 38.4286 112.322 38.2806C112.322 38.2403 112.322 38.1999 112.336 38.1461C112.336 38.0923 112.349 38.0116 112.376 37.904L112.659 36.4245L112.215 36.3573V36.169L113.143 35.9538Z" fill="#111111"/>
<path d="M114.838 35.3613H115.188L115.066 36.0607H115.82V36.3701H115.013L114.771 37.7151C114.757 37.7824 114.744 37.8227 114.744 37.8765C114.744 37.9169 114.73 37.9572 114.73 37.9976C114.744 38.1186 114.771 38.1993 114.824 38.2666C114.878 38.3204 114.959 38.3473 115.066 38.3473C115.12 38.3473 115.188 38.3338 115.268 38.3204C115.349 38.3069 115.443 38.28 115.537 38.2397V38.4683C115.309 38.549 115.12 38.6163 114.959 38.6432C114.811 38.6835 114.69 38.7104 114.596 38.7104C114.421 38.7104 114.286 38.6566 114.192 38.5759C114.112 38.4818 114.058 38.3607 114.058 38.1859C114.058 38.1321 114.071 38.0648 114.071 38.011C114.071 37.9572 114.085 37.89 114.098 37.8227L114.367 36.3835L114.004 36.397V36.1952L114.475 35.9666L114.838 35.3613Z" fill="#111111"/>
<path d="M117.111 34.6094H117.367C117.326 34.7439 117.299 34.8918 117.259 35.0398C117.232 35.2012 117.205 35.3626 117.165 35.5509L116.977 36.4789C117.205 36.2906 117.394 36.1561 117.568 36.0754C117.743 35.9813 117.905 35.9275 118.039 35.9275C118.201 35.9275 118.322 35.9813 118.416 36.0754C118.51 36.1696 118.564 36.2906 118.564 36.452C118.564 36.5058 118.564 36.5731 118.55 36.6404C118.537 36.7211 118.523 36.8018 118.51 36.8959L118.349 37.6626C118.322 37.7567 118.308 37.8509 118.295 37.9047C118.295 37.9719 118.281 38.0257 118.281 38.0661C118.281 38.1602 118.308 38.2275 118.349 38.2813C118.402 38.3351 118.456 38.362 118.523 38.362C118.564 38.362 118.631 38.3485 118.685 38.3351C118.739 38.3216 118.806 38.3082 118.873 38.2813V38.4965C118.698 38.5637 118.55 38.6041 118.416 38.6444C118.268 38.6713 118.16 38.6982 118.053 38.6982C117.905 38.6982 117.797 38.6579 117.716 38.5906C117.649 38.5234 117.609 38.4292 117.609 38.2947C117.609 38.2544 117.609 38.214 117.622 38.1602C117.622 38.1199 117.636 38.0526 117.649 37.9988L117.837 37.0842C117.864 37.0035 117.864 36.9363 117.878 36.869C117.891 36.8152 117.891 36.7614 117.891 36.7211C117.891 36.6135 117.864 36.5462 117.824 36.4789C117.77 36.4251 117.716 36.3982 117.622 36.3982C117.542 36.4117 117.434 36.4386 117.326 36.5058C117.205 36.5597 117.071 36.6538 116.936 36.7749L116.6 38.6444H115.914L116.627 35.0801L116.143 35.0129V34.8246L117.111 34.6094Z" fill="#111111"/>
<path d="M121.872 34.6504C121.98 34.6504 122.074 34.6773 122.141 34.7445C122.209 34.8118 122.236 34.8925 122.236 35.0001C122.236 35.1211 122.195 35.2153 122.114 35.296C122.034 35.3767 121.94 35.4171 121.819 35.4171C121.711 35.4171 121.617 35.3767 121.55 35.3229C121.482 35.2556 121.442 35.1749 121.442 35.0673C121.442 34.9463 121.482 34.8521 121.563 34.7714C121.644 34.6907 121.751 34.6504 121.872 34.6504ZM121.765 35.9282H122.007L121.657 37.7708C121.657 37.8381 121.644 37.8784 121.644 37.9188C121.63 37.9591 121.63 37.986 121.63 38.0129C121.63 38.1071 121.657 38.1878 121.698 38.2416C121.751 38.2954 121.819 38.3223 121.899 38.3223C121.94 38.3223 121.993 38.3088 122.061 38.2954C122.128 38.2819 122.195 38.255 122.276 38.2281V38.4702C122.101 38.5375 121.926 38.5913 121.778 38.6316C121.63 38.6585 121.482 38.6854 121.348 38.6854C121.213 38.6854 121.106 38.6451 121.038 38.5778C120.971 38.4971 120.944 38.3895 120.944 38.255C120.944 38.2147 120.944 38.1609 120.944 38.1205C120.958 38.0533 120.971 37.986 120.985 37.8784L121.281 36.3989L120.823 36.3317V36.1299L121.765 35.9282Z" fill="#111111"/>
<path d="M123.513 35.9141H123.729L123.621 36.4655C123.85 36.2638 124.051 36.1293 124.226 36.0486C124.401 35.9544 124.562 35.9141 124.71 35.9141C124.858 35.9141 124.979 35.9544 125.074 36.062C125.168 36.1562 125.222 36.2907 125.222 36.4521C125.222 36.4924 125.208 36.5597 125.208 36.6269C125.195 36.7076 125.181 36.7883 125.154 36.8825L124.993 37.6357C124.979 37.7433 124.966 37.824 124.953 37.8912C124.939 37.9585 124.939 38.0123 124.939 38.0526C124.939 38.1333 124.966 38.2006 125.006 38.2544C125.047 38.3082 125.1 38.3351 125.168 38.3351C125.222 38.3351 125.275 38.3216 125.343 38.3082C125.396 38.2947 125.464 38.2813 125.531 38.2544V38.4696C125.369 38.5368 125.222 38.5772 125.074 38.6175C124.939 38.6444 124.805 38.6713 124.71 38.6713C124.562 38.6713 124.455 38.631 124.374 38.5637C124.307 38.4965 124.267 38.4023 124.267 38.2678C124.267 38.2409 124.267 38.2006 124.267 38.1602C124.28 38.1199 124.293 38.0526 124.307 37.9719L124.495 37.0573C124.509 36.9766 124.522 36.9094 124.536 36.8421C124.536 36.7883 124.549 36.7345 124.549 36.6942C124.549 36.6 124.522 36.5193 124.468 36.4655C124.428 36.4117 124.361 36.3848 124.267 36.3848C124.186 36.3848 124.092 36.4117 123.971 36.479C123.85 36.5328 123.729 36.6269 123.594 36.748L123.271 38.6175H122.572L123.002 36.3983L122.558 36.331L122.545 36.1427L123.513 35.9141Z" fill="#111111"/>
<path d="M130.897 35.0127L130.736 35.9543H130.346V35.349L130.279 35.2414C130.212 35.2145 130.144 35.201 130.09 35.201C130.023 35.1876 129.969 35.1741 129.916 35.1741C129.714 35.1741 129.526 35.2145 129.364 35.2683C129.189 35.3355 129.041 35.4297 128.907 35.5507C128.705 35.7256 128.557 35.9543 128.436 36.2367C128.328 36.5057 128.275 36.8016 128.275 37.1244C128.275 37.4876 128.382 37.7835 128.571 37.9852C128.772 38.2004 129.041 38.308 129.378 38.308C129.405 38.308 129.445 38.308 129.499 38.2946C129.539 38.2946 129.593 38.2946 129.66 38.2811L129.862 37.1648L129.808 37.0841L129.431 37.0572V36.7882L130.978 36.7747V37.0437L130.642 37.0841L130.561 37.1513L130.319 38.4156C130.104 38.4963 129.889 38.5501 129.687 38.5905C129.485 38.6308 129.283 38.6443 129.095 38.6443C128.624 38.6577 128.234 38.5098 127.952 38.2408C127.656 37.9583 127.521 37.5817 127.521 37.111C127.521 36.7478 127.589 36.3981 127.75 36.0888C127.898 35.766 128.127 35.5104 128.409 35.2952C128.611 35.1472 128.84 35.0396 129.082 34.9589C129.324 34.8782 129.566 34.8379 129.835 34.8379C130.023 34.8379 130.212 34.8513 130.386 34.8782C130.575 34.9186 130.736 34.9589 130.897 35.0127Z" fill="#111111"/>
<path d="M132.659 36.169C132.457 36.169 132.282 36.3035 132.134 36.5725C131.986 36.8415 131.919 37.1777 131.919 37.5812C131.919 37.8368 131.959 38.0251 132.04 38.1596C132.121 38.2806 132.228 38.3479 132.39 38.3479C132.591 38.3479 132.78 38.2134 132.928 37.9444C133.076 37.6754 133.143 37.3391 133.143 36.9491C133.143 36.6801 133.103 36.4918 133.022 36.3573C132.941 36.2228 132.82 36.169 132.659 36.169ZM132.726 35.873C133.076 35.873 133.345 35.9806 133.546 36.1824C133.748 36.3842 133.842 36.6532 133.856 37.0029C133.856 37.2181 133.815 37.4467 133.721 37.6485C133.641 37.8502 133.533 38.0385 133.372 38.1999C133.237 38.3344 133.089 38.442 132.901 38.5227C132.726 38.6034 132.538 38.6303 132.322 38.6303C131.986 38.6438 131.717 38.5362 131.515 38.3344C131.314 38.1327 131.206 37.8502 131.206 37.5005C131.206 37.2853 131.246 37.0836 131.327 36.8684C131.421 36.6666 131.529 36.4783 131.677 36.3304C131.825 36.1824 131.973 36.0748 132.161 35.9941C132.336 35.9134 132.538 35.873 132.726 35.873Z" fill="#111111"/>
<path d="M135.941 36.103C135.9 36.103 135.887 36.103 135.873 36.103C135.846 36.103 135.833 36.103 135.833 36.103C135.591 36.103 135.389 36.2375 135.201 36.5334C135.013 36.8158 134.918 37.1521 134.918 37.5421C134.932 37.7439 134.959 37.9053 135.039 38.0129C135.107 38.1339 135.214 38.1877 135.349 38.1877C135.429 38.1877 135.524 38.1608 135.631 38.107C135.725 38.0532 135.833 37.9725 135.941 37.8784L136.169 36.4392L135.941 36.103ZM136.896 34.5293H137.124L136.627 37.5959C136.613 37.7035 136.6 37.7842 136.6 37.8515C136.586 37.9187 136.586 37.9591 136.586 37.9994C136.586 38.0801 136.6 38.1474 136.653 38.2012C136.694 38.255 136.748 38.2819 136.815 38.2819C136.869 38.2684 136.922 38.2684 136.99 38.255C137.044 38.2415 137.111 38.2281 137.178 38.2012V38.4164C136.99 38.4836 136.828 38.5374 136.694 38.5778C136.559 38.6047 136.438 38.6181 136.344 38.6181C136.196 38.6181 136.089 38.5912 136.008 38.5105C135.941 38.4433 135.9 38.3222 135.9 38.1743V38.1608C135.752 38.3088 135.604 38.4298 135.456 38.5105C135.308 38.5912 135.16 38.6316 135.013 38.6316C134.784 38.6316 134.596 38.5374 134.448 38.3491C134.313 38.1608 134.232 37.9187 134.232 37.6094C134.232 37.4211 134.259 37.2462 134.313 37.0579C134.353 36.8831 134.434 36.7217 134.528 36.5603C134.676 36.3316 134.865 36.1568 135.08 36.0357C135.295 35.9147 135.537 35.8474 135.806 35.8474C135.873 35.8474 135.941 35.8609 136.021 35.8743C136.089 35.8878 136.169 35.9147 136.25 35.9416L136.411 35.0001L135.941 34.9328V34.7445L136.896 34.5293Z" fill="#111111"/>
<path d="M140.702 36.1167C140.689 36.1167 140.689 36.1167 140.675 36.1167C140.649 36.1032 140.635 36.1032 140.635 36.1032C140.366 36.1032 140.151 36.2512 139.963 36.5202C139.788 36.7892 139.694 37.1254 139.694 37.5289C139.694 37.7441 139.734 37.8921 139.801 37.9997C139.882 38.1073 139.976 38.1611 140.124 38.1611C140.205 38.1611 140.285 38.1476 140.38 38.0938C140.46 38.0535 140.568 37.9862 140.675 37.9055L140.918 36.4395L140.702 36.1167ZM141.375 35.8477H141.698C141.671 35.9149 141.644 36.0225 141.617 36.1705C141.577 36.3319 141.55 36.4933 141.509 36.6816L141.348 37.5827C141.334 37.6634 141.334 37.7441 141.321 37.8114C141.308 37.8786 141.308 37.9324 141.308 37.9593C141.308 38.0535 141.334 38.1207 141.375 38.1745C141.415 38.2283 141.469 38.2552 141.536 38.2552C141.59 38.2552 141.644 38.2552 141.711 38.2418C141.765 38.2283 141.832 38.2149 141.899 38.188V38.4032C141.711 38.4704 141.536 38.5242 141.415 38.5511C141.281 38.5915 141.173 38.6049 141.079 38.6049C140.944 38.6049 140.837 38.5646 140.77 38.4973C140.702 38.4301 140.662 38.3225 140.662 38.188V38.1611C140.514 38.309 140.366 38.4166 140.218 38.4973C140.07 38.5646 139.922 38.6049 139.788 38.6049C139.546 38.6049 139.344 38.5242 139.209 38.3494C139.075 38.1745 138.994 37.9324 138.994 37.6096C138.994 37.4079 139.021 37.2196 139.075 37.0447C139.129 36.8564 139.209 36.6816 139.317 36.5202C139.451 36.305 139.626 36.1436 139.842 36.0225C140.057 35.9149 140.285 35.8477 140.541 35.8477C140.635 35.8477 140.743 35.8611 140.85 35.888C140.944 35.9015 141.052 35.9418 141.173 35.9822L141.375 35.8477Z" fill="#111111"/>
<path d="M143.137 35.832H143.353L143.245 36.3835C143.474 36.1952 143.675 36.0472 143.85 35.9665C144.025 35.8724 144.186 35.832 144.334 35.832C144.482 35.832 144.603 35.8858 144.698 35.98C144.792 36.0741 144.832 36.2086 144.832 36.37C144.832 36.4238 144.832 36.4776 144.819 36.5583C144.805 36.6256 144.792 36.7063 144.778 36.8004L144.617 37.5537C144.59 37.6613 144.577 37.742 144.563 37.8092C144.563 37.8765 144.55 37.9303 144.55 37.9706C144.55 38.0513 144.577 38.1186 144.617 38.1724C144.671 38.2262 144.724 38.2531 144.792 38.2531C144.846 38.2531 144.899 38.2396 144.953 38.2262C145.02 38.2127 145.074 38.1993 145.141 38.1724L145.155 38.3876C144.98 38.4548 144.832 38.5086 144.698 38.5355C144.55 38.5759 144.429 38.5893 144.321 38.5893C144.173 38.5893 144.065 38.5624 143.998 38.4952C143.917 38.4279 143.877 38.3203 143.877 38.1993C143.877 38.1589 143.891 38.1186 143.891 38.0782C143.891 38.0379 143.904 37.9706 143.917 37.8899L144.119 36.9753C144.133 36.8946 144.146 36.8273 144.146 36.7735C144.16 36.7063 144.16 36.6525 144.16 36.6121C144.16 36.518 144.133 36.4373 144.092 36.3835C144.039 36.3297 143.971 36.3028 143.891 36.3028C143.81 36.3028 143.702 36.3297 143.595 36.3969C143.474 36.4642 143.339 36.5449 143.205 36.6659L142.895 38.5355L142.196 38.549L142.626 36.3162L142.169 36.2624V36.0607L143.137 35.832Z" fill="#111111"/>
<path d="M147.132 36.062C147.105 36.062 147.092 36.062 147.065 36.0485C147.052 36.0485 147.038 36.0485 147.025 36.0485C146.796 36.0485 146.581 36.1965 146.406 36.4789C146.218 36.7748 146.123 37.1111 146.123 37.5011C146.123 37.7029 146.164 37.8643 146.245 37.9719C146.312 38.0929 146.419 38.1467 146.554 38.1467C146.635 38.1467 146.729 38.1198 146.823 38.066C146.93 38.0122 147.038 37.9315 147.146 37.8374L147.374 36.3982L147.132 36.062ZM148.101 34.4883H148.329L147.832 37.5549C147.818 37.6491 147.805 37.7432 147.791 37.797C147.791 37.8643 147.791 37.9181 147.791 37.945C147.791 38.0391 147.805 38.1064 147.859 38.1467C147.899 38.2005 147.953 38.2274 148.02 38.2274C148.074 38.2274 148.128 38.2274 148.181 38.214C148.249 38.2005 148.316 38.1871 148.383 38.1602V38.3754C148.195 38.4426 148.033 38.4964 147.899 38.5233C147.764 38.5637 147.643 38.5771 147.549 38.5771C147.401 38.5771 147.294 38.5368 147.213 38.4695C147.146 38.4023 147.105 38.2812 147.105 38.1333V38.1064C146.957 38.2678 146.796 38.3888 146.648 38.4695C146.5 38.5368 146.366 38.5771 146.218 38.5771C145.989 38.5771 145.801 38.4964 145.653 38.3081C145.505 38.1198 145.438 37.8777 145.438 37.5684C145.438 37.3801 145.464 37.1918 145.505 37.0169C145.559 36.8421 145.639 36.6672 145.733 36.5193C145.881 36.2906 146.056 36.1158 146.285 35.9947C146.5 35.8736 146.742 35.8064 147.011 35.8064C147.078 35.8064 147.146 35.8198 147.226 35.8333C147.294 35.8467 147.374 35.8736 147.455 35.9005L147.603 34.959L147.146 34.8918V34.7035L148.101 34.4883Z" fill="#111111"/>
<path d="M151.409 34.4746H151.638L151.113 37.0974L151.826 36.3442C152.028 36.129 152.176 35.9945 152.297 35.9138C152.418 35.8331 152.526 35.7927 152.62 35.7927C152.714 35.7927 152.795 35.8331 152.862 35.9003C152.929 35.9676 152.956 36.0617 152.956 36.1693C152.956 36.2769 152.916 36.3711 152.848 36.4518C152.768 36.5325 152.66 36.5997 152.512 36.6401L152.31 36.3173C152.203 36.4114 152.109 36.4921 152.014 36.5594C151.92 36.6401 151.853 36.6939 151.813 36.7477C151.84 36.8015 151.867 36.8687 151.907 36.9494C152.27 37.7968 152.566 38.2272 152.808 38.2272C152.835 38.2272 152.862 38.2272 152.916 38.2138C152.956 38.2003 153.01 38.1869 153.077 38.16V38.3886C152.902 38.4424 152.741 38.4828 152.62 38.5097C152.485 38.55 152.378 38.5635 152.297 38.5635C152.162 38.5635 152.041 38.5231 151.961 38.4424C151.867 38.3617 151.772 38.2003 151.665 37.9582L151.328 37.1512L151.073 37.4336L150.885 38.5097H150.226L150.912 34.9185L150.414 34.8781V34.6898L151.409 34.4746Z" fill="#111111"/>
<path d="M154.26 35.793H154.475L154.367 36.331C154.609 36.1427 154.811 36.0082 154.986 35.9275C155.161 35.8333 155.322 35.793 155.47 35.793C155.605 35.793 155.726 35.8333 155.82 35.9409C155.914 36.0351 155.968 36.1696 155.968 36.331C155.968 36.3713 155.968 36.4386 155.954 36.5058C155.941 36.5865 155.927 36.6672 155.901 36.7614L155.753 37.5146C155.726 37.6222 155.712 37.7029 155.699 37.7701C155.685 37.8374 155.685 37.8912 155.685 37.9315C155.685 38.0122 155.712 38.0795 155.753 38.1333C155.793 38.1871 155.847 38.214 155.914 38.214C155.968 38.214 156.022 38.2005 156.089 38.1871C156.143 38.1736 156.21 38.1602 156.277 38.1333V38.3485C156.116 38.4158 155.968 38.4561 155.82 38.4965C155.685 38.5234 155.564 38.5503 155.457 38.5503C155.309 38.5503 155.201 38.5099 155.12 38.4427C155.053 38.3754 155.013 38.2813 155.013 38.1467C155.013 38.1198 155.013 38.0795 155.026 38.0391C155.026 37.9988 155.04 37.9315 155.053 37.8508L155.242 36.9362C155.255 36.8555 155.268 36.7883 155.282 36.721C155.295 36.6672 155.295 36.6134 155.295 36.5731C155.295 36.4789 155.268 36.3982 155.215 36.3444C155.174 36.2906 155.107 36.2503 155.026 36.2503C154.932 36.2637 154.838 36.2906 154.717 36.3579C154.609 36.4117 154.475 36.5058 154.34 36.6269L154.018 38.4965H153.332L153.762 36.2772L153.305 36.2099V36.0216L154.26 35.793Z" fill="#111111"/>
<path d="M158.012 36.0618C157.797 36.0618 157.622 36.1963 157.474 36.4653C157.34 36.7477 157.259 37.084 157.259 37.4875C157.259 37.743 157.299 37.9313 157.38 38.0524C157.461 38.1869 157.582 38.2541 157.73 38.2541C157.945 38.2541 158.12 38.1196 158.268 37.8506C158.416 37.5816 158.496 37.2454 158.483 36.8419C158.483 36.5863 158.443 36.3846 158.362 36.2635C158.295 36.129 158.174 36.0618 158.012 36.0618ZM158.079 35.7793C158.416 35.7793 158.698 35.8734 158.886 36.0752C159.088 36.277 159.196 36.5594 159.196 36.8957C159.196 37.1243 159.155 37.3395 159.075 37.5413C158.994 37.7565 158.873 37.9313 158.725 38.0927C158.591 38.2407 158.429 38.3483 158.254 38.4155C158.066 38.4962 157.878 38.5366 157.676 38.5366C157.326 38.5366 157.057 38.4424 156.855 38.2272C156.654 38.0255 156.56 37.7565 156.56 37.4068C156.56 37.1916 156.6 36.9764 156.681 36.7746C156.761 36.5594 156.882 36.3846 157.03 36.2232C157.165 36.0887 157.326 35.9676 157.501 35.9003C157.689 35.8196 157.878 35.7793 158.079 35.7793Z" fill="#111111"/>
<path d="M160.231 35.7654H160.487L160.608 37.7695C160.81 37.366 160.998 37.0297 161.146 36.7204C161.294 36.4245 161.428 36.142 161.536 35.8865L162.061 35.8461C162.074 36.1151 162.087 36.4379 162.114 36.7876C162.128 37.1508 162.155 37.5274 162.182 37.9443C162.383 37.6888 162.545 37.4601 162.666 37.2584C162.8 37.0432 162.894 36.8683 162.948 36.7204L162.814 35.8999C162.868 35.8596 162.921 35.8192 162.975 35.7923C163.029 35.7654 163.096 35.752 163.15 35.752C163.258 35.752 163.352 35.7923 163.419 35.8596C163.486 35.9268 163.513 36.021 163.513 36.142C163.513 36.3303 163.419 36.5993 163.217 36.9356C163.015 37.2853 162.639 37.7829 162.101 38.4689H161.63L161.522 36.5724C161.348 36.9221 161.173 37.2449 160.998 37.5677C160.837 37.8771 160.662 38.1864 160.5 38.4689H159.989L160.03 38.3075L159.908 36.2227L159.451 36.1555V35.9806L160.231 35.7654Z" fill="#111111"/>
<path d="M164.428 34.8926L163.984 34.8254V34.6371L164.912 34.4219H165.154L164.603 37.4751C164.563 37.6768 164.549 37.8113 164.549 37.8786C164.549 37.9593 164.563 38.0265 164.603 38.0803C164.643 38.1341 164.697 38.161 164.764 38.161C164.832 38.161 164.899 38.1476 164.98 38.1341C165.047 38.1207 165.128 38.0938 165.208 38.0669V38.2955C165.007 38.3628 164.832 38.4166 164.697 38.4569C164.549 38.4973 164.442 38.5107 164.347 38.5107C164.2 38.5107 164.078 38.4838 163.998 38.4031C163.904 38.3359 163.863 38.2417 163.863 38.1072C163.863 38.0534 163.877 37.9593 163.904 37.8248V37.8113L164.428 34.8926Z" fill="#111111"/>
<path d="M166.177 36.9759C166.459 36.9625 166.701 36.8952 166.876 36.7607C167.064 36.6262 167.159 36.4783 167.159 36.3034C167.159 36.2227 167.132 36.1555 167.091 36.1017C167.038 36.0479 166.97 36.0344 166.89 36.0344C166.742 36.0344 166.607 36.1151 166.473 36.2765C166.352 36.4514 166.244 36.68 166.177 36.9759ZM166.136 37.2046L166.123 37.218C166.123 37.2853 166.123 37.3391 166.123 37.366C166.123 37.6081 166.177 37.7829 166.271 37.904C166.378 38.025 166.526 38.0923 166.715 38.0923C166.836 38.0923 166.97 38.0519 167.105 37.9847C167.253 37.9174 167.401 37.8233 167.562 37.7022V38.0385C167.374 38.1864 167.172 38.3075 166.984 38.3882C166.795 38.4554 166.607 38.4958 166.432 38.4958C166.136 38.5092 165.894 38.4151 165.719 38.2268C165.545 38.0385 165.464 37.7829 165.464 37.4601C165.464 37.2046 165.518 36.9625 165.625 36.7338C165.719 36.4917 165.881 36.3034 166.083 36.1286C166.217 36.0075 166.365 35.9134 166.54 35.8461C166.701 35.7923 166.863 35.752 167.038 35.752C167.239 35.752 167.414 35.8058 167.535 35.9134C167.656 36.021 167.71 36.1689 167.723 36.3438C167.723 36.6128 167.589 36.828 167.347 36.9759C167.091 37.1373 166.742 37.2046 166.298 37.2046C166.284 37.2046 166.257 37.2046 166.217 37.2046C166.177 37.2046 166.15 37.2046 166.136 37.2046Z" fill="#111111"/>
<path d="M169.714 35.9682C169.687 35.9682 169.66 35.9682 169.647 35.9682C169.634 35.9682 169.62 35.9682 169.607 35.9682C169.378 35.9682 169.163 36.1027 168.974 36.3986C168.8 36.6811 168.705 37.0173 168.705 37.4074C168.705 37.6091 168.746 37.7705 168.813 37.8781C168.894 37.9992 169.001 38.053 169.122 38.053C169.217 38.053 169.311 38.0261 169.405 37.9723C169.513 37.9185 169.607 37.8512 169.728 37.7436L169.956 36.3045L169.714 35.9682ZM170.683 34.3945H170.911L170.414 37.4612C170.4 37.5688 170.387 37.6495 170.373 37.7167C170.373 37.784 170.36 37.8243 170.36 37.8647C170.36 37.9454 170.387 38.0126 170.427 38.0664C170.481 38.1202 170.535 38.1471 170.602 38.1471C170.642 38.1471 170.71 38.1337 170.763 38.1202C170.831 38.1068 170.898 38.0933 170.965 38.0664V38.2816C170.777 38.3489 170.602 38.4027 170.467 38.443C170.346 38.4699 170.225 38.4834 170.131 38.4834C169.983 38.4834 169.862 38.4565 169.795 38.3758C169.728 38.3085 169.687 38.1875 169.687 38.0395V38.0261C169.526 38.174 169.378 38.2951 169.23 38.3758C169.082 38.4565 168.934 38.4968 168.8 38.4968C168.571 38.4968 168.383 38.4027 168.235 38.2144C168.087 38.0395 168.02 37.784 168.02 37.4746C168.02 37.2863 168.046 37.1115 168.087 36.9232C168.141 36.7483 168.208 36.5869 168.315 36.4255C168.463 36.1969 168.638 36.022 168.867 35.901C169.082 35.7799 169.324 35.7126 169.593 35.7126C169.66 35.7126 169.728 35.7261 169.808 35.7395C169.876 35.753 169.956 35.7799 170.037 35.8068L170.185 34.8787L169.728 34.798V34.6097L170.683 34.3945Z" fill="#111111"/>
<path d="M172.821 36.3837C172.821 36.2492 172.794 36.1416 172.74 36.0743C172.687 36.0071 172.619 35.9802 172.512 35.9802C172.377 35.9802 172.243 36.0609 172.135 36.2492C172.027 36.424 171.96 36.6392 171.96 36.8679C171.96 37.0024 171.987 37.11 172.041 37.1907C172.095 37.2579 172.175 37.2983 172.27 37.2983C172.418 37.2983 172.539 37.2041 172.646 37.0158C172.767 36.841 172.821 36.6258 172.821 36.3837ZM171.853 38.2667C171.732 38.3339 171.637 38.4012 171.584 38.4819C171.53 38.5626 171.503 38.6567 171.503 38.7509C171.503 38.9257 171.57 39.0737 171.705 39.1813C171.839 39.2889 172.001 39.3427 172.216 39.3427C172.391 39.3427 172.539 39.3024 172.66 39.2217C172.781 39.141 172.835 39.0334 172.835 38.9123C172.835 38.845 172.808 38.7912 172.754 38.724C172.7 38.6702 172.619 38.6164 172.512 38.5626L171.853 38.2667ZM173.211 35.886H173.951V36.1685H173.399C173.426 36.2492 173.44 36.3164 173.453 36.3568C173.453 36.3971 173.467 36.4375 173.467 36.4778C173.467 36.7872 173.346 37.0427 173.117 37.231C172.888 37.4328 172.579 37.5404 172.229 37.5404C172.202 37.5807 172.175 37.6211 172.175 37.648C172.162 37.6883 172.149 37.7152 172.149 37.7556V37.769L172.982 38.1591C173.157 38.2532 173.292 38.3339 173.373 38.4281C173.44 38.5222 173.48 38.6298 173.48 38.7509C173.48 38.993 173.346 39.1948 173.063 39.3562C172.781 39.531 172.431 39.6117 172.014 39.6252C171.678 39.6252 171.409 39.5579 171.22 39.4234C171.019 39.2889 170.911 39.1141 170.911 38.8988C170.911 38.724 170.978 38.576 171.113 38.455C171.234 38.3205 171.436 38.1994 171.718 38.0918V38.0649C171.718 37.9708 171.732 37.8766 171.772 37.7959C171.799 37.7018 171.866 37.6076 171.947 37.5C171.745 37.4462 171.584 37.3655 171.476 37.2445C171.368 37.1234 171.315 36.9755 171.315 36.8006C171.315 36.4913 171.422 36.2357 171.651 36.034C171.88 35.8322 172.175 35.7246 172.525 35.7246C172.633 35.7246 172.754 35.7381 172.861 35.765C172.982 35.7919 173.09 35.8322 173.211 35.886Z" fill="#111111"/>
<path d="M174.731 36.9351C175.014 36.9217 175.243 36.8544 175.431 36.7199C175.619 36.5989 175.713 36.4509 175.713 36.2761C175.713 36.1819 175.686 36.1147 175.633 36.0743C175.592 36.0205 175.525 35.9936 175.444 35.9936C175.296 35.9936 175.148 36.0743 175.027 36.2492C174.893 36.4106 174.799 36.6392 174.731 36.9351ZM174.678 37.1638C174.678 37.1772 174.678 37.1772 174.678 37.1907C174.678 37.2579 174.664 37.3117 174.664 37.3386C174.678 37.5673 174.718 37.7421 174.826 37.8632C174.933 37.9977 175.068 38.0515 175.256 38.0515C175.377 38.0515 175.512 38.0246 175.659 37.9573C175.807 37.8901 175.955 37.7959 176.117 37.6614V37.9977C175.928 38.1591 175.727 38.2667 175.538 38.3474C175.337 38.4281 175.162 38.4684 174.987 38.4684C174.678 38.4684 174.449 38.3743 174.274 38.1994C174.099 38.0111 174.019 37.7556 174.019 37.4328C174.019 37.1638 174.059 36.9217 174.167 36.693C174.274 36.4644 174.422 36.2626 174.624 36.0878C174.758 35.9802 174.92 35.886 175.081 35.8188C175.256 35.7515 175.417 35.7246 175.579 35.7246C175.794 35.7246 175.955 35.765 176.09 35.8726C176.211 35.9802 176.265 36.1281 176.265 36.3164C176.265 36.5854 176.144 36.7872 175.888 36.9486C175.646 37.0965 175.296 37.1772 174.852 37.1772C174.826 37.1772 174.799 37.1772 174.772 37.1772C174.731 37.1772 174.705 37.1638 174.678 37.1638Z" fill="#111111"/>
<path d="M179.614 35.9817C179.399 35.9817 179.224 36.1162 179.076 36.3852C178.941 36.6542 178.861 36.9904 178.874 37.4074C178.874 37.6495 178.914 37.8378 178.982 37.9723C179.062 38.1068 179.183 38.1606 179.331 38.1606C179.547 38.1606 179.721 38.0261 179.869 37.7571C180.017 37.4881 180.098 37.1653 180.098 36.7618C180.098 36.4928 180.058 36.3045 179.977 36.17C179.896 36.0489 179.775 35.9817 179.614 35.9817ZM179.681 35.6992C180.031 35.6992 180.3 35.7934 180.501 35.9951C180.703 36.1969 180.797 36.4659 180.797 36.8156C180.797 37.0442 180.757 37.2594 180.676 37.4612C180.596 37.6629 180.475 37.8512 180.327 38.0126C180.192 38.1471 180.031 38.2548 179.856 38.3355C179.668 38.4162 179.479 38.4565 179.277 38.4565C178.941 38.4565 178.659 38.3489 178.457 38.1471C178.269 37.9454 178.161 37.6629 178.161 37.3132C178.161 37.098 178.201 36.8963 178.282 36.6811C178.363 36.4793 178.484 36.291 178.632 36.1431C178.766 35.9951 178.928 35.8875 179.103 35.8068C179.291 35.7396 179.479 35.6992 179.681 35.6992Z" fill="#111111"/>
<path d="M183.165 35.1069L182.694 34.6227C182.613 34.7169 182.546 34.8648 182.479 35.0666C182.411 35.2683 182.344 35.5239 182.29 35.8333L183.044 35.8198V36.1426H182.25L182.048 37.5818C182.008 37.8508 181.967 38.0794 181.9 38.2812C181.833 38.4695 181.752 38.6443 181.658 38.8057C181.51 39.0344 181.349 39.2227 181.16 39.3572C180.972 39.4917 180.784 39.559 180.609 39.559C180.501 39.559 180.407 39.5321 180.34 39.4648C180.273 39.411 180.232 39.3303 180.232 39.2227C180.232 39.142 180.246 39.0747 180.286 39.0209C180.327 38.9537 180.38 38.9133 180.448 38.8864L181.039 39.1958C181.107 39.1016 181.174 38.9537 181.214 38.7519C181.268 38.5636 181.335 38.2543 181.389 37.8239L181.618 36.1561L181.255 36.1964V35.9543L181.685 35.766C181.752 35.3625 181.914 35.0262 182.156 34.7572C182.398 34.5017 182.667 34.3672 182.976 34.3672C183.124 34.3672 183.259 34.4075 183.353 34.4748C183.46 34.542 183.501 34.6362 183.501 34.7438C183.501 34.8245 183.474 34.9052 183.407 34.9724C183.353 35.0397 183.259 35.08 183.165 35.1069Z" fill="#111111"/>
<path d="M185.209 34.8106L184.766 34.7433V34.555L185.694 34.3398H185.936L185.384 37.393C185.344 37.5948 185.33 37.7158 185.33 37.7965C185.33 37.8772 185.344 37.9445 185.384 37.9983C185.438 38.0521 185.492 38.079 185.546 38.079C185.613 38.079 185.68 38.0655 185.761 38.0521C185.828 38.0386 185.909 38.0117 185.99 37.9848V38.2135C185.788 38.2807 185.613 38.3345 185.478 38.3749C185.33 38.4152 185.223 38.4287 185.142 38.4287C184.981 38.4287 184.86 38.3883 184.779 38.3211C184.685 38.2538 184.645 38.1597 184.645 38.0252C184.645 37.9714 184.658 37.8772 184.685 37.7427V37.7293L185.209 34.8106Z" fill="#111111"/>
<path d="M187.94 35.9272C187.94 35.9272 187.926 35.9272 187.913 35.9272C187.899 35.9272 187.886 35.9272 187.873 35.9272C187.604 35.9272 187.388 36.0617 187.214 36.3307C187.025 36.5997 186.945 36.936 186.945 37.3395C186.945 37.5547 186.971 37.7026 187.052 37.8102C187.119 37.9178 187.227 37.9716 187.361 37.9716C187.442 37.9716 187.523 37.9582 187.617 37.9178C187.711 37.864 187.805 37.8102 187.913 37.7161L188.168 36.25L187.94 35.9272ZM188.612 35.6582H188.935C188.922 35.7255 188.895 35.8331 188.854 35.981C188.828 36.1424 188.787 36.3038 188.76 36.4921L188.599 37.3933C188.585 37.474 188.572 37.5547 188.559 37.6219C188.559 37.6892 188.545 37.743 188.545 37.7699C188.545 37.864 188.572 37.9313 188.612 37.9851C188.653 38.0389 188.706 38.0658 188.774 38.0658C188.828 38.0658 188.895 38.0658 188.949 38.0523C189.002 38.0389 189.07 38.0254 189.137 37.9985V38.2137C188.949 38.281 188.787 38.3348 188.653 38.3617C188.518 38.402 188.411 38.4155 188.316 38.4155C188.182 38.4155 188.074 38.3751 188.007 38.3079C187.94 38.2406 187.899 38.133 187.899 37.9985V37.9851C187.752 38.1196 187.604 38.2406 187.456 38.3079C187.308 38.3886 187.173 38.4155 187.039 38.4155C186.783 38.4155 186.595 38.3348 186.447 38.1599C186.312 37.9851 186.245 37.743 186.245 37.4202C186.245 37.2319 186.272 37.0301 186.312 36.8553C186.366 36.667 186.46 36.4921 186.568 36.3307C186.702 36.1155 186.877 35.9541 187.092 35.8331C187.308 35.7255 187.536 35.6582 187.778 35.6582C187.873 35.6582 187.98 35.6717 188.088 35.6986C188.195 35.712 188.303 35.7524 188.411 35.7927L188.612 35.6582Z" fill="#111111"/>
<path d="M190.038 35.6443H190.293L190.415 37.6484C190.616 37.2583 190.805 36.9086 190.953 36.6127C191.1 36.3034 191.235 36.0344 191.356 35.7654L191.867 35.725C191.881 36.0075 191.894 36.3168 191.921 36.68C191.934 37.0297 191.961 37.4197 191.988 37.8232C192.19 37.5677 192.351 37.339 192.472 37.1373C192.607 36.9355 192.701 36.7607 192.768 36.6127L192.62 35.7923C192.674 35.7385 192.728 35.6981 192.782 35.6712C192.836 35.6443 192.903 35.6309 192.97 35.6309C193.078 35.6309 193.158 35.6712 193.226 35.7385C193.293 35.8192 193.32 35.9133 193.32 36.0209C193.32 36.2227 193.226 36.4917 193.024 36.8279C192.822 37.1642 192.446 37.6753 191.907 38.3478H191.437L191.329 36.4513C191.154 36.801 190.979 37.1238 190.805 37.4466C190.643 37.756 190.468 38.0653 190.307 38.3478L189.796 38.3612L189.836 38.1864L189.715 36.1016L189.258 36.0344V35.8595L190.038 35.6443Z" fill="#111111"/>
</svg>
