<svg width="151" height="1062" viewBox="0 0 151 1062" fill="none" xmlns="http://www.w3.org/2000/svg">
<path d="M72.7748 994.62C72.7748 1016.47 89.175 1032.41 112.276 1032.41C135.554 1032.41 151.954 1016.47 151.954 993.904C151.954 971.608 135.818 956.207 112.453 956.207C89.6159 956.207 72.7748 972.324 72.7748 994.62ZM180.17 988.084C180.17 1007.25 174.791 1019.69 160.771 1033.03H177.172V1061.69H6.46875L6.46875 1030.53H60.9596C49.2326 1018.53 44.5595 1007.07 44.5595 990.143C44.5595 952.894 73.6566 924.778 112.276 924.778C150.808 924.778 180.17 951.461 180.17 988.084Z" fill="#E0E0E0"/>
<path d="M74.3616 843.117C74.3616 865.413 91.0262 881.082 114.304 881.082C136.7 881.082 151.954 865.413 151.954 842.669C151.954 818.94 135.377 804.882 114.128 804.882C90.7617 804.882 74.3616 820.821 74.3616 843.117ZM177.171 803.987H160.507C174.35 816.343 180.169 828.79 180.169 847.056C180.169 885.112 152.218 912.512 113.687 912.512C74.6261 912.512 46.2344 884.843 46.2344 846.43C46.2344 827.626 52.2301 814.732 66.3378 803.987H49.2323V775.333H177.171V803.987Z" fill="#E0E0E0"/>
<path d="M106.016 720.89H177.171V752.141H49.2323V723.487H61.6646C49.9376 715.339 46.2344 708.713 46.2344 695.371L46.2344 693.043H75.7723C76.2132 711.757 86.1767 720.89 106.016 720.89Z" fill="#E0E0E0"/>
<path d="M106.016 645.855H177.171V677.105H49.2323V648.452H61.6646C49.9376 640.214 46.2344 633.678 46.2344 620.336L46.2344 618.008H75.7723C76.2132 636.722 86.1767 645.855 106.016 645.855Z" fill="#E0E0E0"/>
<path d="M0.03125 542.523H30.7155L30.7155 573.684H0.03125L0.03125 542.523Z" fill="#E0E0E0"/>
<path d="M180.169 445.457C180.169 471.245 166.326 489.781 136.524 493.094V461.664C147.369 458.62 151.954 453.427 151.954 444.293C151.954 436.324 146.663 430.235 139.521 430.235C132.115 430.235 129.999 431.399 123.121 452.263C114.568 478.051 103.988 488.348 85.2068 488.348C63.3399 488.348 46.2344 469.365 46.2344 445.278C46.2344 423.161 60.5184 403.731 84.5014 402.567V433.011C77.8885 434.444 74.3616 438.652 74.3616 445.278C74.3616 452.083 79.0347 457.187 85.2068 457.187C91.908 457.187 92.437 456.471 99.1382 435.16C107.426 407.939 117.566 399.074 136.524 399.074C160.947 399.074 180.169 419.49 180.169 445.457Z" fill="#E0E0E0"/>
<path d="M77.1835 343.473H177.172V374.633H77.1835V389.855H49.2326V374.633H6.46875L6.46875 343.473H49.2326L49.2326 324.669H77.1835V343.473Z" fill="#E0E0E0"/>
<path d="M74.3616 248.017C74.3616 266.553 83.3552 279.178 99.7554 284.103V212.111C83.3552 216.14 74.3616 228.766 74.3616 248.017ZM126.824 182.562L126.824 283.207C142.255 279.447 151.954 265.836 151.954 247.301C151.954 234.407 148.515 226.706 139.257 218.737V184.711C165.621 193.397 180.169 220.349 180.169 246.585C180.169 286.252 151.072 316.965 113.687 316.965C76.0368 316.965 46.2344 286.7 46.2344 248.465C46.2344 209.783 75.3315 181.398 115.009 181.398C119.682 181.398 122.416 181.667 126.824 182.562Z" fill="#E0E0E0"/>
<path d="M106.016 130H177.171V161.25H49.2323V132.597H61.6646C49.9376 124.448 46.2344 117.822 46.2344 104.48L46.2344 102.152H75.7723C76.2132 120.866 86.1767 130 106.016 130Z" fill="#E0E0E0"/>
<path d="M180.169 46.8164C180.169 72.6045 166.326 91.1398 136.524 94.3633V62.934C147.369 59.8895 151.954 54.7856 151.954 45.6523C151.954 37.6831 146.663 31.5047 139.521 31.5047C132.115 31.5047 129.999 32.7583 123.121 53.6216C114.568 79.4097 103.988 89.7071 85.2068 89.7071C63.3399 89.7071 46.2344 70.7241 46.2344 46.5478C46.2344 24.5204 60.5184 5.08974 84.5014 3.83614V34.37C77.8885 35.8027 74.3616 40.0112 74.3616 46.5478C74.3616 53.353 79.0347 58.5464 85.2068 58.5464C91.908 58.5464 92.437 57.8301 99.1382 36.4295C107.338 9.38776 117.478 0.43354 136.259 0.344002H136.612C161.036 0.43354 180.169 20.8492 180.169 46.8164Z" fill="#E0E0E0"/>
<path d="M167.384 509.39C166.943 512.256 166.943 515.3 166.414 518.255C165.532 522.374 161.741 524.702 157.509 523.896C154.687 523.359 152.042 522.643 149.132 523.896C147.369 524.702 145.605 523.807 144.635 522.105C144.018 521.031 143.666 519.956 142.872 518.524C142.255 520.225 141.814 521.479 141.285 522.732C140.491 524.792 139.345 525.597 137.229 525.508C135.906 525.418 134.672 525.239 133.437 525.15C130.528 524.971 129.029 525.956 128.323 528.731C127.618 531.597 127.001 534.462 126.648 537.327C126.472 539.297 125.414 540.461 124.003 541.446C121.534 543.058 119.065 542.163 116.773 541.267C112.276 539.387 107.691 537.417 103.282 535.178C100.02 533.567 96.8457 531.686 93.6714 529.806C92.3488 529 91.1144 529.179 89.9682 529.806C87.2348 531.239 84.4133 532.044 81.4154 530.97C79.7401 530.433 78.0648 529.985 76.4777 529.537C74.7142 529 72.9508 528.552 71.1873 528.105C69.1593 537.327 62.9872 543.416 46.2344 539.118L46.2344 577.532C62.9872 573.144 69.1593 579.323 71.1873 588.546C72.9508 588.098 74.7142 587.561 76.4777 587.023C78.0648 586.576 79.7401 586.128 81.4154 585.591C84.4133 584.606 87.2348 585.412 89.9682 586.755C91.1144 587.382 92.3488 587.65 93.6714 586.844C96.8457 584.964 100.02 582.994 103.282 581.382C107.691 579.233 112.276 577.263 116.773 575.383C119.065 574.398 121.534 573.592 124.003 575.204C125.414 576.189 126.472 577.353 126.648 579.323C127.001 582.188 127.618 585.053 128.323 587.829C129.029 590.605 130.528 591.59 133.437 591.411C134.672 591.321 135.906 591.142 137.229 591.142C139.345 591.053 140.491 591.769 141.285 593.829C141.814 595.082 142.255 596.425 142.872 598.127C143.666 596.604 144.018 595.53 144.635 594.545C145.605 592.844 147.369 591.859 149.132 592.665C152.042 594.008 154.687 593.291 157.509 592.754C161.741 591.948 165.532 594.187 166.414 598.395C166.943 601.082 166.943 603.947 167.384 606.723H176.29V505.898H168.178C167.825 507.062 167.56 508.226 167.384 509.39Z" fill="#E0E0E0"/>
</svg>
