<svg width="52" height="60" viewBox="0 0 52 60" fill="none" xmlns="http://www.w3.org/2000/svg">
<path d="M27.5951 36.569V42.3364C25.0975 41.4534 22.4245 41.1825 19.8006 41.5466C17.1767 41.9106 14.6784 42.899 12.5156 44.4287C10.3527 45.9583 8.58854 47.9846 7.3711 50.3373C6.15365 52.6901 5.51851 55.3006 5.51902 57.9497L7.13213e-07 57.9469C-0.000855763 54.5773 0.769686 51.2521 2.25258 48.2263C3.73548 45.2004 5.89138 42.5542 8.55508 40.4904C11.2188 38.4265 14.3196 36.9999 17.6199 36.3197C20.9202 35.6395 24.3324 35.7238 27.5951 36.5663V36.569ZM22.0761 33.1141C12.9283 33.1141 5.51902 25.7048 5.51902 16.5571C5.51902 7.40928 12.9283 0 22.0761 0C31.2238 0 38.6331 7.40928 38.6331 16.5571C38.6331 25.7048 31.2238 33.1141 22.0761 33.1141ZM22.0761 27.5951C28.1746 27.5951 33.1141 22.6556 33.1141 16.5571C33.1141 10.4585 28.1746 5.51902 22.0761 5.51902C15.9776 5.51902 11.038 10.4585 11.038 16.5571C11.038 22.6556 15.9776 27.5951 22.0761 27.5951ZM38.0619 52.1933L47.8168 42.4385L51.7215 46.3404L38.0619 60L28.3043 50.2424L32.209 46.3404L38.0591 52.1933H38.0619Z" fill="url(#paint0_linear_224_470)"/>
<defs>
<linearGradient id="paint0_linear_224_470" x1="25.8607" y1="0" x2="25.8607" y2="60" gradientUnits="userSpaceOnUse">
<stop stop-color="#1B1B1B"/>
<stop offset="1" stop-color="#2A2A2A"/>
</linearGradient>
</defs>
</svg>
