<svg width="50" height="60" viewBox="0 0 50 60" fill="none" xmlns="http://www.w3.org/2000/svg">
<path d="M2.13545 4.98L24.5455 0L46.9555 4.98C47.5611 5.11463 48.1027 5.45172 48.4909 5.93565C48.8792 6.41958 49.0908 7.02141 49.0909 7.64182V34.8791C49.0907 37.5729 48.4255 40.225 47.1542 42.6C45.883 44.975 44.0451 46.9995 41.8036 48.4936L24.5455 60L7.28727 48.4936C5.0462 46.9997 3.20853 44.9757 1.93731 42.6012C0.666097 40.2267 0.000644608 37.5752 0 34.8818V7.64182C0.000106467 7.02141 0.21174 6.41958 0.599972 5.93565C0.988203 5.45172 1.52983 5.11463 2.13545 4.98ZM5.45455 9.82909V34.8791C5.45458 36.6749 5.89793 38.4429 6.74526 40.0262C7.59259 41.6096 8.81768 42.9592 10.3118 43.9555L24.5455 53.4464L38.7791 43.9555C40.2728 42.9595 41.4977 41.6103 42.345 40.0274C43.1923 38.4446 43.6359 36.6772 43.6364 34.8818V9.82909L24.5455 5.59091L5.45455 9.82909Z" fill="url(#paint0_linear_224_474)"/>
<defs>
<linearGradient id="paint0_linear_224_474" x1="24.5455" y1="0" x2="24.5455" y2="60" gradientUnits="userSpaceOnUse">
<stop stop-color="#1B1B1B"/>
<stop offset="1" stop-color="#2A2A2A"/>
</linearGradient>
</defs>
</svg>
