<svg width="187" height="139" viewBox="0 0 187 139" fill="none" xmlns="http://www.w3.org/2000/svg">
<path d="M14.0363 127.312C18.2261 135.082 27.1182 138.418 27.1182 138.418C27.1182 138.418 29.2174 129.155 25.0277 121.385C20.838 113.615 11.9458 110.28 11.9458 110.28C11.9458 110.28 9.8466 119.542 14.0363 127.312Z" fill="#2F2E41"/>
<path d="M16.915 124.756C24.4792 129.307 27.3924 138.346 27.3924 138.346C27.3924 138.346 18.0416 140.007 10.4774 135.456C2.91322 130.905 0 121.866 0 121.866C0 121.866 9.35079 120.205 16.915 124.756Z" fill="#28B3A1"/>
<path d="M122.053 123.754H42.2305V123.18H121.479V95.3282H48.941L45.4172 87.987L45.935 87.7385L49.3024 94.7538H122.053V123.754Z" fill="#2F2E41"/>
<path d="M52.854 137.824C56.1842 137.824 58.8838 135.124 58.8838 131.794C58.8838 128.464 56.1842 125.764 52.854 125.764C49.5239 125.764 46.8242 128.464 46.8242 131.794C46.8242 135.124 49.5239 137.824 52.854 137.824Z" fill="#3F3D56"/>
<path d="M112.292 137.824C115.622 137.824 118.321 135.124 118.321 131.794C118.321 128.464 115.622 125.764 112.292 125.764C108.961 125.764 106.262 128.464 106.262 131.794C106.262 135.124 108.961 137.824 112.292 137.824Z" fill="#3F3D56"/>
<path d="M182.352 7.46546C184.413 7.46546 186.085 5.79426 186.085 3.73273C186.085 1.6712 184.413 0 182.352 0C180.29 0 178.619 1.6712 178.619 3.73273C178.619 5.79426 180.29 7.46546 182.352 7.46546Z" fill="#3F3D56"/>
<path d="M130.592 85.8527H40.8706L21.457 22.3964H150.585L150.468 22.7697L130.592 85.8527ZM41.2954 85.2785H130.171L149.802 22.9706H22.2332L41.2954 85.2785Z" fill="#2F2E41"/>
<path d="M123.588 82.5507H44.7822L27.7305 26.2726H141.148L141.045 26.604L123.588 82.5507Z" fill="#F2F2F2"/>
<path d="M152.194 16.7273L151.639 16.58L155.428 2.297H177.471V2.87143H155.87L152.194 16.7273Z" fill="#2F2E41"/>
<path d="M144.132 41.6343H27.7305V42.2085H144.132V41.6343Z" fill="#2F2E41"/>
<path d="M137.466 62.7913H34.2031V63.3655H137.466V62.7913Z" fill="#2F2E41"/>
<path d="M86.3047 22.6835H85.7305V85.5656H86.3047V22.6835Z" fill="#2F2E41"/>
<path d="M112.017 22.6653L107.895 85.5459L108.468 85.5835L112.59 22.7029L112.017 22.6653Z" fill="#2F2E41"/>
<path d="M60.0321 22.6648L59.459 22.7021L63.5574 85.5843L64.1305 85.5469L60.0321 22.6648Z" fill="#2F2E41"/>
<path d="M186.085 138.188H0V138.862H186.085V138.188Z" fill="#2F2E41"/>
</svg>
