<svg width="54" height="223" viewBox="0 0 54 223" fill="none" xmlns="http://www.w3.org/2000/svg">
<path d="M-131.129 189.73C-133.283 188.976 -134.977 187.282 -135.731 185.128L-165.583 99.8145C-166.337 97.6602 -166.069 95.2798 -164.854 93.3472L-116.766 16.8154C-115.552 14.8828 -113.524 13.6083 -111.256 13.3528L-21.4382 3.23281C-19.1701 2.97725 -16.9091 3.76843 -15.2952 5.38236L48.6172 69.2947C50.2311 70.9087 51.0223 73.1697 50.7667 75.4378L40.6468 165.255C40.3912 167.523 39.1167 169.552 37.1842 170.766L-39.3477 218.854C-41.2803 220.068 -43.6606 220.337 -45.815 219.583L-131.129 189.73Z" stroke="#BEBFB8" stroke-width="5"/>
</svg>
