<svg width="432" height="716" viewBox="0 0 432 716" fill="none" xmlns="http://www.w3.org/2000/svg">
<path d="M111.425 617.011C106.25 614.375 102.043 610.168 99.4066 604.993L6.43596 422.528C3.79945 417.354 2.86873 411.477 3.77721 405.742L35.8128 203.477C36.7212 197.742 39.4223 192.44 43.5287 188.334L188.334 43.5288C192.44 39.4223 197.742 36.7214 203.477 35.8128L405.742 3.77732C411.478 2.86884 417.354 3.79955 422.528 6.43605L604.993 99.4067C610.168 102.043 614.375 106.25 617.011 111.425L709.982 293.89C712.619 299.064 713.549 304.941 712.641 310.677L680.605 512.941C679.697 518.677 676.996 523.978 672.889 528.084L528.084 672.889C523.978 676.996 518.677 679.697 512.941 680.605L310.676 712.641C304.94 713.549 299.064 712.619 293.89 709.982L111.425 617.011Z" stroke="#F7F7F7" stroke-width="5"/>
</svg>
