<svg width="178" height="78" fill="none" xmlns="http://www.w3.org/2000/svg"><path d="M30.367 58.885c-1.23.21-2.511 1.053-3.419 3.264L20.698 78 15.41 66.152 10.63 78S3.15 61.254 2.963 60.86C2.029 58.885.427 58.885 0 58.885c2.27 0 5.769-.027 8.092 0 0 0-2.83.21-1.843 2.606.428 1.053 2.618 6.162 4.38 10.19.24.474.615 1.238 1.07 1.238.373 0 .586-.053 1.28-1.686.642-1.527.695-1.712 2.244-5.503l-2.19-4.871c-.935-1.974-2.537-1.974-2.964-1.974 2.27 0 5.769-.027 8.092 0 0 0-2.804.21-1.843 2.606l4.38 10.19c.267.474.615 1.238 1.069 1.238.374 0 .641-.29 1.228-1.738.694-1.712 1.523-3.74 3.526-8.821.8-2.001.026-3.396-2.11-3.475h5.956ZM48.833 68.256c-.134 5.24-3.74 9.374-9.508 9.321-6.544-.026-9.215-5.371-9.108-9.637.08-5.766 4.38-9.268 9.882-9.268 6.41-.026 8.84 5.108 8.734 9.584Zm-9.588-9.136c-3.926-.105-6.464 3.186-6.196 8.584.267 4.844 3.124 9.11 6.863 9.4 4.514.42 6.357-3.581 6.063-8.927-.187-4.923-2.911-9.057-6.73-9.057ZM69.213 77.315h-3.952c-.614-.658-1.175-1.527-1.816-2.686l-2.43-4.133c-1.336-2.291-2.778-2.08-4.248-2.08l-.026 7.267c0 1.58 1.656 1.632 1.977 1.632H51.96c.321 0 2.27-.053 2.27-2.054V60.938c0-2.001-2.056-2.054-2.27-2.054 2.35 0 4.728-.132 6.784-.105 3.232.026 5.342.395 6.464 2.053.56.764.8 1.738.774 2.765-.054 1.422-.695 2.79-1.817 3.66-.827.658-1.895 1-2.51 1.053.348.106 1.096.395 2.297 2.475l2.404 4.029c1.148 2.027 2.858 2.501 2.858 2.501Zm-5.688-13.77c.053-3.95-2.698-4.74-6.784-4.53l.026 9.11c.802 0 1.683-.025 2.43-.13 2.886-.317 4.301-2.054 4.328-4.45ZM86.897 72.575l-1.015 4.74H71.567c.32 0 2.377-.053 2.377-2.344V61.12c0-2.185-1.95-2.237-2.27-2.237h7.05c-.32 0-2.296.052-2.296 2.237v13.613c0 1.843.854 2.343 2.136 2.343h1.148c3.419 0 6.41-2.37 7.185-4.502ZM99.828 77.315H90.88c.32 0 2.483-.053 2.483-2.133v-14.06c0-2.212-2.163-2.238-2.483-2.238h7.557c5.877-.08 9.696 1.658 9.829 8.584.107 5.344-2.884 9.794-8.44 9.847Zm5.742-9.874c-.107-6.715-3.499-8.215-7.184-8.294-.695 0-1.79 0-2.404.053v15.64c0 1.843.908 2.185 2.564 2.185.186 0 1.148 0 1.335-.026 3.953-.237 5.796-3.95 5.689-9.558ZM134.847 60.885c-1.816-1.765-4.673-2.422-6.517-1.344-1.068.659-1.522 1.95-1.308 3.213.294 1.79 1.682 2.975 4.62 3.58 5.182 1.054 6.917 3.002 6.544 6.4-.294 3.659-3.419 4.949-6.437 4.949-2.857-.026-5.288-.737-6.997-2l-.054-5.004c1.095 3.081 3.766 5.53 6.677 6.215 2.591.552 5.368-.08 5.475-2.792.107-1.922-.935-3.817-6.143-5.002-4.513-1.053-5.528-3.134-5.395-5.635.107-3.001 2.831-4.87 6.437-4.845 3.178.027 5.208 1.29 5.208 1.29l.027 3.713s-.481-1.237-2.137-2.738ZM155.113 67.785c-1.47 1.132-3.472 1.711-7.105 1.132 4.647.211 6.464-1.843 6.49-5.03.027-3.922-2.27-4.949-5.422-4.87-.4 0-1.148.026-1.548.053v15.982c0 2.212 2.056 2.265 2.376 2.265h-7.264c.32 0 2.377-.053 2.377-2.265V60.834c0-1.896-1.95-1.948-2.27-1.948 2.243-.027 4.647-.106 6.329-.106 3.366-.027 5.77.237 7.025 2.265 1.362 2.185.694 5.397-.988 6.74ZM177.893 77.314h-7.158s2.457-.21 1.603-2.396l-1.896-5.134h-6.17l-1.736 4.502c-.615 1.606-.187 2.87 1.816 3.028h-5.288c1.201-.08 2.376-1.132 3.125-3.107l6.356-16.114s.027.105.08.237l6.597 16.693c.828 2.054 2.27 2.264 2.671 2.291Zm-11.591-12.77-1.897 4.976 5.93-.026-1.977-5.477c-.454-1.185-.694-1.474-.935-1.474-.347 0-.721.975-1.121 2Zm11.591 12.77H178h-.107ZM102.415.074c4.38.162 5.968 3.022 4.325 7.125-2.533 6.426-4.38 10.697-5.581 13.676l.579.65 5.879-14.758c1.861-4.534 4.489-6.262 7.008-6.693h-12.21Z" fill="#20495D"/><path d="M96.323 17.112c-2.048-1.607-4.172-3.147-5.943-5.047-1.77-1.9-3.191-4.226-3.504-6.788-.155-1.274.006-2.668.847-3.647C88.48.753 89.644.354 90.754 0c-3.568.054-7.099 1.653-9.354 4.375-2.255 2.723-3.132 6.553-2.093 9.916.832 2.692 2.765 4.924 4.896 6.796a46.8 46.8 0 0 0 1.773 1.468c-.368.907-.688 1.686-1.17 2.834-1.423 3.346-1.861 3.454-2.627 3.454-.93 0-1.808-1.518-2.19-2.537-3.247-8.669-6.469-18.435-7.347-20.89C70.862.486 76.42.073 76.42.073c-4.764-.055-13.57 0-18.223 0 .876 0 4.16 0 6.077 4.047.28.591 12.548 35.113 12.548 35.113l3.167.028 6.559-16.257c1.44 1.128 2.9 2.235 4.239 3.477a26.92 26.92 0 0 1 3.494 3.948c1.201 1.661 2.246 3.724 1.692 5.667-.642 1.691-2.063 3.077-3.785 3.692.314.127.707.084 1.084.027a14.983 14.983 0 0 0 6.39-2.601c2.05-1.464 3.523-3.534 4.086-5.966.451-1.95.402-4.247-.315-5.938-1.551-3.354-4.196-5.912-7.11-8.198Z" fill="#20495D"/></svg>