<svg width="57" height="40" viewBox="0 0 57 40" fill="none" xmlns="http://www.w3.org/2000/svg">
<path d="M44.2176 0.0743332C48.5976 0.236074 50.1856 3.09609 48.5426 7.19872C46.0096 13.6254 44.1626 17.8964 42.9616 20.8753L43.5406 21.5256L49.4196 6.76704C51.2806 2.23273 53.9086 0.505455 56.4276 0.0743332H44.2176Z" fill="#20495D"/>
<path d="M38.1257 17.1121C36.0777 15.5048 33.954 13.9654 32.1827 12.0653C30.412 10.1651 28.9914 7.83939 28.6791 5.2772C28.5235 4.0028 28.6842 2.60904 29.526 1.62967C30.2813 0.75293 31.4467 0.353598 32.5566 0C28.9891 0.0540994 25.4579 1.65254 23.2023 4.3748C20.9473 7.09817 20.0704 10.9281 21.1097 14.2912C21.9418 16.9833 23.8744 19.2148 26.0055 21.0865C26.582 21.5923 27.1771 22.0776 27.7785 22.555C27.4108 23.4624 27.0906 24.2415 26.6091 25.3888C25.1852 28.7346 24.7473 28.8433 23.9813 28.8433C23.0507 28.8433 22.1732 27.3246 21.7914 26.3057C18.5446 17.637 15.3228 7.87118 14.4442 5.41607C12.665 0.486896 18.2222 0.0730623 18.2222 0.0730623C13.4587 0.0184052 4.6531 0.0730623 0 0.0730623C0.8757 0.0730623 4.1604 0.0730624 6.0765 4.12048C6.356 4.71111 18.625 39.2332 18.625 39.2332L21.7914 39.2611L28.3504 23.0039C29.7908 24.1322 31.2504 25.2388 32.5894 26.4814C33.881 27.6805 35.0538 29.0051 36.084 30.4295C37.285 32.0904 38.3294 34.1534 37.7761 36.096C37.134 37.787 35.7123 39.173 33.9902 39.7881C34.3047 39.9153 34.6979 39.8724 35.0741 39.8149C37.3721 39.4591 39.5819 38.5595 41.4646 37.2137C43.5146 35.7496 44.9876 33.6799 45.5506 31.2477C46.0016 29.2979 45.9526 27.0006 45.2356 25.3101C43.6846 21.956 41.0398 19.3983 38.1257 17.1121Z" fill="#20495D"/>
</svg>
