<svg width="100%" height="100%" viewBox="0 0 2207 1275" version="1.1" xmlns="http://www.w3.org/2000/svg" xmlns:xlink="http://www.w3.org/1999/xlink" xml:space="preserve" xmlns:serif="http://www.serif.com/" style="fill-rule:evenodd;clip-rule:evenodd;stroke-linejoin:round;stroke-miterlimit:2;">
    <g id="Layer-1" serif:id="Layer 1" transform="matrix(4.16667,0,0,4.16667,0,0)">
        <g transform="matrix(1,0,0,1,161.13,222.878)">
            <path d="M0,-34.226C-2.172,-33.849 -4.438,-32.338 -6.043,-28.373L-17.09,0.048L-26.438,-21.196L-34.888,0.048C-34.888,0.048 -48.107,-29.978 -48.438,-30.686C-50.09,-34.226 -52.922,-34.226 -53.677,-34.226C-49.665,-34.226 -43.48,-34.274 -39.373,-34.226C-39.373,-34.226 -44.377,-33.849 -42.631,-29.553C-41.875,-27.664 -38.004,-18.505 -34.888,-11.283C-34.463,-10.433 -33.802,-9.063 -32.999,-9.063C-32.339,-9.063 -31.961,-9.158 -30.734,-12.085C-29.601,-14.824 -29.506,-15.154 -26.768,-21.952L-30.639,-30.686C-32.292,-34.226 -35.124,-34.226 -35.879,-34.226C-31.867,-34.226 -25.682,-34.274 -21.575,-34.226C-21.575,-34.226 -26.532,-33.849 -24.833,-29.553L-17.09,-11.283C-16.618,-10.433 -16.004,-9.063 -15.201,-9.063C-14.54,-9.063 -14.068,-9.583 -13.03,-12.179C-11.803,-15.248 -10.339,-18.883 -6.798,-27.995C-5.382,-31.583 -6.751,-34.084 -10.528,-34.226L0,-34.226Z" style="fill:rgb(32,73,93);fill-rule:nonzero;"/>
        </g>
        <g transform="matrix(1,0,0,1,193.77,205.034)">
            <path d="M0,0.424C-0.237,9.819 -6.61,17.231 -16.807,17.137C-28.374,17.09 -33.095,7.506 -32.906,-0.142C-32.764,-10.481 -25.163,-16.76 -15.438,-16.76C-4.108,-16.807 0.188,-7.601 0,0.424M-16.949,-15.957C-23.888,-16.146 -28.374,-10.245 -27.901,-0.566C-27.429,8.12 -22.378,15.767 -15.769,16.287C-7.79,17.042 -4.532,9.867 -5.052,0.283C-5.382,-8.545 -10.198,-15.957 -16.949,-15.957" style="fill:rgb(32,73,93);fill-rule:nonzero;"/>
        </g>
        <g transform="matrix(1,0,0,1,229.807,188.415)">
            <path d="M0,33.284L-6.987,33.284C-8.072,32.104 -9.064,30.545 -10.197,28.468L-14.493,21.056C-16.854,16.949 -19.403,17.327 -22,17.327L-22.047,30.357C-22.047,33.189 -19.12,33.284 -18.553,33.284L-30.497,33.284C-29.93,33.284 -26.484,33.189 -26.484,29.601L-26.484,3.92C-26.484,0.331 -30.12,0.237 -30.497,0.237C-26.343,0.237 -22.141,0 -18.506,0.049C-12.794,0.095 -9.064,0.756 -7.081,3.73C-6.09,5.1 -5.665,6.846 -5.712,8.687C-5.807,11.236 -6.94,13.691 -8.923,15.25C-10.386,16.43 -12.274,17.043 -13.36,17.137C-12.746,17.327 -11.424,17.846 -9.3,21.575L-5.052,28.799C-3.022,32.434 0,33.284 0,33.284M-10.055,8.593C-9.961,1.511 -14.824,0.095 -22.047,0.473L-22,16.807C-20.583,16.807 -19.025,16.761 -17.704,16.572C-12.605,16.005 -10.103,12.889 -10.055,8.593" style="fill:rgb(32,73,93);fill-rule:nonzero;"/>
        </g>
        <g transform="matrix(1,0,0,1,261.061,197.151)">
            <path d="M0,16.05L-1.794,24.548L-27.098,24.548C-26.532,24.548 -22.897,24.454 -22.897,20.346L-22.897,-4.486C-22.897,-8.405 -26.343,-8.498 -26.91,-8.498L-14.446,-8.498C-15.012,-8.498 -18.506,-8.405 -18.506,-4.486L-18.506,19.921C-18.506,23.226 -16.995,24.123 -14.729,24.123L-12.7,24.123C-6.657,24.123 -1.369,19.873 0,16.05" style="fill:rgb(32,73,93);fill-rule:nonzero;"/>
        </g>
        <g transform="matrix(1,0,0,1,283.912,188.51)">
            <path d="M0,33.189L-15.815,33.189C-15.249,33.189 -11.425,33.095 -11.425,29.365L-11.425,4.156C-11.425,0.19 -15.249,0.143 -15.815,0.143L-2.456,0.143C7.932,0 14.682,3.116 14.918,15.533C15.107,25.116 9.819,33.095 0,33.189M10.15,15.486C9.962,3.446 3.966,0.756 -2.549,0.615C-3.777,0.615 -5.713,0.615 -6.798,0.709L-6.798,28.751C-6.798,32.056 -5.193,32.67 -2.266,32.67C-1.936,32.67 -0.236,32.67 0.094,32.623C7.082,32.198 10.339,25.541 10.15,15.486" style="fill:rgb(32,73,93);fill-rule:nonzero;"/>
        </g>
        <g transform="matrix(1,0,0,1,345.805,218.016)">
            <path d="M0,-25.776C-3.21,-28.94 -8.261,-30.119 -11.519,-28.185C-13.407,-27.004 -14.21,-24.69 -13.832,-22.424C-13.313,-19.214 -10.858,-17.09 -5.665,-16.004C3.494,-14.115 6.562,-10.622 5.901,-4.531C5.382,2.03 -0.142,4.343 -5.476,4.343C-10.527,4.296 -14.824,3.022 -17.845,0.756L-17.94,-8.214C-16.004,-2.69 -11.283,1.7 -6.138,2.928C-1.557,3.918 3.352,2.785 3.541,-2.077C3.73,-5.524 1.888,-8.922 -7.318,-11.047C-15.295,-12.935 -17.09,-16.665 -16.854,-21.149C-16.665,-26.531 -11.85,-29.883 -5.476,-29.836C0.142,-29.789 3.73,-27.523 3.73,-27.523L3.777,-20.867C3.777,-20.867 2.927,-23.085 0,-25.776" style="fill:rgb(32,73,93);fill-rule:nonzero;"/>
        </g>
        <g transform="matrix(1,0,0,1,381.638,205.507)">
            <path d="M0,-0.898C-2.597,1.132 -6.137,2.171 -12.558,1.132C-4.344,1.511 -1.132,-2.172 -1.086,-7.885C-1.039,-14.919 -5.098,-16.76 -10.67,-16.619C-11.377,-16.619 -12.7,-16.571 -13.407,-16.523L-13.407,12.132C-13.407,16.098 -9.772,16.193 -9.206,16.193L-22.047,16.193C-21.481,16.193 -17.845,16.098 -17.845,12.132L-17.845,-13.361C-17.845,-16.76 -21.292,-16.854 -21.857,-16.854C-17.892,-16.902 -13.643,-17.044 -10.67,-17.044C-4.721,-17.091 -0.472,-16.619 1.747,-12.983C4.155,-9.065 2.974,-3.306 0,-0.898" style="fill:rgb(32,73,93);fill-rule:nonzero;"/>
        </g>
        <g transform="matrix(1,0,0,1,421.91,187.235)">
            <path d="M0,34.464L-12.652,34.464C-12.652,34.464 -8.309,34.086 -9.819,30.168L-13.171,20.962L-24.077,20.962L-27.146,29.035C-28.232,31.914 -27.476,34.181 -23.935,34.464L-33.283,34.464C-31.159,34.321 -29.082,32.434 -27.759,28.893L-16.523,0C-16.523,0 -16.476,0.189 -16.382,0.425L-4.721,30.356C-3.258,34.039 -0.708,34.416 0,34.464M-20.489,11.567L-23.841,20.489L-13.36,20.443L-16.854,10.623C-17.656,8.498 -18.081,7.979 -18.507,7.979C-19.12,7.979 -19.781,9.727 -20.489,11.567M0,34.464L0.189,34.464L0,34.464Z" style="fill:rgb(32,73,93);fill-rule:nonzero;"/>
        </g>
        <g transform="matrix(1,0,0,1,288.496,121.667)">
            <path d="M0,-38.462C7.743,-38.172 10.55,-33.044 7.646,-25.688C3.168,-14.165 -0.097,-6.507 -2.219,-1.166L-1.196,0L9.195,-26.462C12.485,-34.592 17.131,-37.689 21.583,-38.462L0,-38.462Z" style="fill:rgb(32,73,93);fill-rule:nonzero;"/>
        </g>
        <g transform="matrix(1,0,0,1,277.72,123.959)">
            <path d="M0,-10.204C-3.62,-13.086 -7.374,-15.846 -10.505,-19.253C-13.635,-22.66 -16.146,-26.83 -16.698,-31.424C-16.973,-33.709 -16.689,-36.208 -15.201,-37.964C-13.866,-39.536 -11.806,-40.252 -9.844,-40.886C-16.15,-40.789 -22.392,-37.923 -26.379,-33.042C-30.365,-28.159 -31.915,-21.292 -30.078,-15.262C-28.607,-10.435 -25.191,-6.434 -21.424,-3.078C-20.405,-2.171 -19.353,-1.301 -18.29,-0.445C-18.94,1.182 -19.506,2.579 -20.357,4.636C-22.874,10.635 -23.648,10.83 -25.002,10.83C-26.647,10.83 -28.198,8.107 -28.873,6.28C-34.612,-9.263 -40.307,-26.773 -41.86,-31.175C-45.005,-40.013 -35.182,-40.755 -35.182,-40.755C-43.602,-40.853 -59.167,-40.755 -67.392,-40.755C-65.844,-40.755 -60.038,-40.755 -56.651,-33.498C-56.157,-32.439 -34.47,29.459 -34.47,29.459L-28.873,29.509L-17.279,0.36C-14.733,2.383 -12.153,4.367 -9.786,6.595C-7.503,8.745 -5.43,11.12 -3.609,13.674C-1.486,16.652 0.36,20.351 -0.618,23.834C-1.753,26.866 -4.266,29.351 -7.31,30.454C-6.754,30.682 -6.059,30.605 -5.394,30.502C-1.332,29.864 2.574,28.251 5.902,25.838C9.525,23.213 12.129,19.502 13.125,15.141C13.922,11.645 13.835,7.526 12.568,4.495C9.826,-1.519 5.151,-6.105 0,-10.204" style="fill:rgb(32,73,93);fill-rule:nonzero;"/>
        </g>
    </g>
</svg>
