<?xml version="1.0" encoding="utf-8"?>
<!-- Generator: Adobe Illustrator 21.0.0, SVG Export Plug-In . SVG Version: 6.00 Build 0)  -->
<svg version="1.1" id="Layer_1" xmlns="http://www.w3.org/2000/svg" xmlns:xlink="http://www.w3.org/1999/xlink" x="0px" y="0px"
	 viewBox="0 0 512 512" style="enable-background:new 0 0 512 512;" xml:space="preserve">
<g>
	<path d="M478.9,417.8C466.7,389.1,449.1,363,427,341c-22-22.1-48.1-39.7-76.9-51.8c-0.3-0.1-0.5-0.2-0.8-0.3
		c40.1-28.9,66.1-76.1,66.1-129.3C415.5,71.4,344.1,0,256,0S96.5,71.4,96.5,159.5c0,53.2,26.1,100.3,66.1,129.4
		c-0.3,0.1-0.5,0.2-0.8,0.3C133,301.3,107.2,318.8,85,341c-22.1,22-39.7,48.1-51.8,76.9c-11.9,28.1-18.4,58.3-19,88.8
		c-0.1,2.8,2.2,5.2,5,5.3l0.1,0h38.6c2.8,0,5.1-2.3,5.1-5c1.3-49.7,21.2-96.2,56.5-131.4C156,339.1,204.4,319,256,319
		s100,20.1,136.5,56.5c35.2,35.2,55.2,81.8,56.5,131.4c0.1,2.8,2.3,5,5.1,5h38.6c2.8,0,5.1-2.3,5.1-5.1l0-0.1
		C497.2,476,490.8,446.1,478.9,417.8z M256,270.2c-29.5,0-57.3-11.5-78.2-32.4s-32.4-48.7-32.4-78.2s11.5-57.3,32.4-78.2
		s48.7-32.4,78.2-32.4s57.3,11.5,78.2,32.4c20.9,20.9,32.4,48.7,32.4,78.2s-11.5,57.3-32.4,78.2C313.3,258.6,285.5,270.2,256,270.2z
		"/>
</g>
</svg>
