<svg xmlns="http://www.w3.org/2000/svg" viewBox="0 0 178.79 268.64"><g data-name="Layer 2"><g data-name="Layer 1"><path d="m87.19 157.81.27-2.09.44-.29c2.9 4 5 8.52 9.34 11.27a6.06 6.06 0 0 0 2.12.5c-.52-3.2-6-7.27-3-10.18 1.14-.92 2.29-.45 3.38.24 3.88 2.46 5.47 6 5.13 10.54-.23 3.06 3.3 5.67 6.59 4.71a112.51 112.51 0 0 1-5.17-12.67 6 6 0 0 1-.14-2.36c.25-2.85 3.56-2.33 4.89-.58 3.48 4.28 6.4 9.12 5.8 14.95-.53 3.82 2.26 6.5 6.12 5.68a3.36 3.36 0 0 0 1.88-1.76c1.13-3 .8-7.37-2.35-8.85-2.1-1.2-6.5-5.21-4.29-7.67 1.35-1.22 2.63.18 4 .64l.49-.3c-.8-4.84-4.23-8.44-6.53-12.55-.18-.94.6-1.56 1.42-1 3.64 3.31 7 6.83 7.5 12.08a24.43 24.43 0 0 1 .15 5.67 26.79 26.79 0 0 1 3.47 8.86 8.15 8.15 0 0 1-2.53 9.08c-3.58 2.71-8-1.33-10.15-3.89a6.1 6.1 0 0 0-3.25-1.67c-3.56-.52-6.37-3.13-9.17-5.17-2.36-.88-5.16-1.49-7.2-3-3.38-2.14-5-6.83-9-7.9-7.86-2-11.42-7.16-13.43-14.7-1.91-4.31-7-5.76-11-7.49-.12.49-.43 1-.34 1.46.93 4.65 1.38 9.44 4.2 13.52.42.61.21 1.65.29 2.48-3.07.88-5.29-2.64-8.16-1.87-.51 1.73.48 4.27.52 6.15a1.37 1.37 0 0 1-.38 1c-.88.3-1.66-.84-2.28-1.37-10.1-8.89-23-18.44-24-32.94l.63-.21c2.58 4.84 4.48 10 8.51 14a105.33 105.33 0 0 1 14.55 17.13c1.31-1.94 1-6-.28-8.06a15 15 0 0 1-1.53-4.08c-.11-.44.57-1.08.89-1.62 2.27.73 2.18 3.36 2.82 5.29.37 1.71 2.95 3.5 4.59 2.9 1.61-1.37-1.13-5.55-1.33-7.49-.76-2.66-2.14-11.93.11-13.63.4 1.25 5.63 10.34 5.84 5.62-.21-1.55-1.12-3.25-.83-4.81.64-1.57 1.55-2.5 3-.89 2 1.9 1.85 4.85 1.57 7.41-.45 2.23 3.3 5.41 5.76 5.82 3.54.11-1.92-6.24-1-8.19.55-1.87 1.65-2.89 3.35-1.24 2 2 2.67 4.64 2.73 7.42a8.1 8.1 0 0 0 7.47 7.44c1.36 0 1.22-1 .68-1.83-2.46-3.82-6.47-7.12-6.21-12.06 0-1.68 1.52-2.57 3.14-2.06a14.39 14.39 0 0 1 8 14.15 2.6 2.6 0 0 0 1.8 3c2.31 1.15 5.89 1.15 7.13-1.48a3.15 3.15 0 0 0-.94-2.4c-2-2.15-4.36-4-6.28-6.26s-5.65-9-2.8-11.28c5.33-1.39 9.36 4.38 11.2 8.67 1.19 2.35 1 6.09 2.88 7.9a2.73 2.73 0 0 0 2.22-.76c4.24-7.53-2.79-15.05-6.59-21.23-4.22-5.72-10-10.73-16.64-13.2-1-.3-2.36-1.56-.68-1.92 3.57 1 3.78-1.55 4.43-3.89q2-7.31 4.3-14.55c4.19-14.8 10.27-28.94 16.9-42.8 2.6-5.16 5.8-10 8.82-14.89a7.65 7.65 0 0 0 .55-2.19c-.78-.14-1.65-.59-2.33-.39-5.43 1.54-10.91 3-16.22 4.9-11.16 3.96-20.64 11.21-29.69 18.67-1.91 2.09-4.34-.55-2.06-2.25 8.23-7.19 17.16-13.39 27.23-17.68a85.24 85.24 0 0 1 25.55-7.43 4.58 4.58 0 0 0 2.36-1.38c3.67-4.32 7.18-8.78 10.89-13.07 3.9-3.91 8.05-8 12.24-11.48 4.21.13.26 3.59-1.26 4.76a105.12 105.12 0 0 0-17 18.82c-2.37 2.89 5.69 1.79 7.17 2.43C149 27.22 159.38 32 166 40.58c12.91 15.62 7.2 37.42-4.84 51.55a72.76 72.76 0 0 1-14.21 12.33c-.42.32-.92.93-.88 1.35s.7.89 1.18 1c9 3.14 15.82 9.26 21.55 16.52 7.74 9.55 10.71 22.3 9.9 34.47-.85 20.31-10 39.65-23.21 54.84-7.51 8.63-13.85 15.89-27.14 21.81-9.66 4.29-18.38 4.89-25.57-3.63-7.08-9.74-7.37-22.58-4-33.71 1-3.49 2.13-6.93 3.32-10.35.19-.52 1-.81 1.55-1.21 1.77 2 .22 4.2-.4 6.37-5.75 14.59-6.53 47.28 16.94 42.18 13.79-4.37 20.83-19.5 27.17-31.36a139 139 0 0 0 7.92-23.18c2.34-10.28 2.29-20.84 2.25-31.31-.12-12.88-4.23-31.75-16.75-38a3.39 3.39 0 0 0-2.23.23c-5.88 2.41-12 7.37-18.64 4.67-3.63-1.54-4.24-5.19-1.5-8 4.72-4.23 11.63-4.68 17.62-3.58 4.08.83 5.72.1 8.09-3.45 10-13.32 12.69-31.3 8.57-47.29-2.47-11.65-11-21.18-22.93-23.26a2.64 2.64 0 0 0-3.23 1.7c-7.68 17.26-11.32 35.79-14.34 54.34-2.29 10.95-4.46 22-6.09 33.05a3.63 3.63 0 0 0 .76 2c2.57 3.54 4.87 7.28 5.8 11.55 1.23 5.38 2.77 14.62-4.41 16.36-5.14 2.74-5.88 7.28-12.62 3.12a3.52 3.52 0 0 0-3.42-.49c-3.73 1.29-7-2.22-9.76-4.21-1.61-1.47-3.37-.93-5.1-.87-2.94 2.53 7.15 11.03 9.84 11.69Zm36.6-44.81c2.73.32 8.71-2.67 10.66-4.1.26-.2.58-.68.5-.89-2.25-2.24-9.09-1.15-12-.15-3.64 1.26-3.66 5.45.84 5.14Zm-28.91 19.15c.94 5.31 4.67 9.41 8.8 12.61.24.18.84.27 1 .13 2.15-2.3-8.38-19.24-9.8-12.74Zm19.47 37.63c.14-3.29-2.33-11.85-5.7-11.82-2.54.85 4.35 16.44 5.7 11.82Zm-28.27-33c.68 3.24 2.78 6.15 5 8.6.76.74 1.21 0 1.37-.69a10.29 10.29 0 0 0-4.66-9.16c-1.14-.53-1.71-.24-1.71 1.29Zm16.67 28.41a8.84 8.84 0 0 0-3-5.61c-.49-.47-1.31-1.32-1.93-1-1.43 1.79 1.86 5.33 2.72 7.05.87 1.22 2.24.91 2.21-.4Z"/><path d="M104.64 176.76c-3 .78-6 .11-9 .14-1.94-.05-2.28.41-1.57 2.29 1.29 3.84 4.36 7.74 2.34 11.87-.93 2-1.6 4.2-2.65 6.06a6.9 6.9 0 0 1-1.32.69c-.08-.48-.34-1-.19-1.42a27.71 27.71 0 0 0 2.56-7.77c.44-3.84-2.92-6.84-3.81-10.53-.33-1.74-2.16-1.93-3.47-2.69-3.42 5.57 1.1 9.22.9 14.45-3.36 16.57-2.74 33.6-5.31 50.29-.15 1.18.65 1.36 1.45 1.4 6.35.14 12.53.09 18.63 2.35 4.15 1.52 11.3 5 7.83 10.08-4.18 5.35-11.92 5.37-18.29 5.9-2.39.11-2.3-1.38-.13-1.68 4.3-1.08 9.06-.63 12.79-3.37 7.82-7.81-7.69-11.38-13.45-11.16-3-.1-5.79-.1-8.81-.11a3.25 3.25 0 0 0-2.76 1.54c-2.07 2.73-4.65 4.7-8.3 4.44-8.92-1.65-1.2-7.36 3.71-7.49 4.22-.37 3.75-1.25 4.21-4.68.89-6.55 1.33-13.16 1.68-19.77.31-5.76.3-11.55.28-17.33a11.69 11.69 0 0 0-1-3.95c-1.23-2.4-3 2.16-3.76 3.08A122.69 122.69 0 0 1 64.51 218c-10.67 13.18-29.4 29.21-46.25 15.92-11.15-10.15-11.61-26.74-12-40.8-.67-29.11 8-57.28 19.86-83.57.39-1 .77-2.45 1.76-2.77 1.63.44.92 2.58.61 3.71A202.71 202.71 0 0 0 17 141.15a160.21 160.21 0 0 0-7.35 42.36c-.86 12.19-.35 24.76 2.88 36.56 5.89 20.13 27.31 21.06 38.63 4.8A96 96 0 0 0 63 202.69c3.06-9 7.6-17.85 9-27.31a4.72 4.72 0 0 0-1.17-2.93c-2.13-2.49-4.43-4.83-6.66-7.24-.44-.4-.81-1.11-.44-1.63a1.32 1.32 0 0 1 1.53.25c4 3.74 8.54 6.8 11.78 11.31A10.57 10.57 0 0 1 79.2 182a19 19 0 0 0 2.52 10.47c.93 1.56.51 3.8 1.88 5.15 1.2-1.58 1.24-3.73 2-5.52a7.39 7.39 0 0 0-.53-6.55 7.37 7.37 0 0 1-1-3.41c.17-4.16.18-8.37.52-12.51 3 .39 5.2 2.9 8 3.72 3.88 1.24 8 1.7 12 2.69ZM72 247.17c1.3 0 4.38-1.08 4.16-2.69a.64.64 0 0 0-.71-.48c-1.55.39-4.63 1-4.53 2.74.08.26.42.4 1.08.43Z"/><path d="M52.69 82.28a8 8 0 0 1 4.6 1.72c1.74 1.5 2.2 1.53 3.26.25 2.75-3.14 0-4.6-2.19-6.31-2.44-2.16 0-3.6 2.31-2.54.91.48 1.49 1.6 2.18 2.46 1.14 1.34 5.33 1.2 4.37-1.27-1.4-2.52-2-5.64-5.39-6.68-1-.43-2.78-2-2.25-3.27 2.18-2.53 5.9 4.8 7.87 1.33a1.56 1.56 0 0 0-.36-1.58c-1.85-2.19-3.34-5-6.45-5.53-2-.12-6.25-3.36-2-3.81 1.1.07 2.17 1 3.25 1.19a11 11 0 0 0 1.89-.12c-1.28-2.28-4-3-6-4.53-4.24-2.77-8.56 1.54-13 2a1.69 1.69 0 0 1-1.49-.69c-.18-3.6 13.3-5.51 16.31-6.05.85-.09 2.41-.33 2.59.81-.2 1.17-2 .67-2.42 1.51a1.43 1.43 0 0 0 .55 1c2.44 2 6.19 3.06 7.7 5.9-.17 1.4-4.13 2-1.83 3.8 1.37 1.92 9.75 6.79 4.52 8.24-5.65.34-3.62 2.18-1.22 5.5 1.73 2.2 1.5 3.55-1.16 4.08s-4.61 1.51-5.06 4.6c-.47 1.71-3.1 3.13-3.27 5.08.21 5-4.44 5.39-5.88 9.44-1.48 3.35-5.32 6.25-3.63 10.28.59 1.75 1.54 2.41 2.92.65 3.87-7.3 10.55-10.08 19.19-9 4.09.47 6.3 2.07 9.39 3.26.77.3 1.31 1.24 2 1.88a10.11 10.11 0 0 1-2.62-.41c-8.7-3.74-19.86-2.37-26.1 5.12-2.2 2.8 2.5 6.19-.26 8.9-2.07-.89-2-3-2.74-4.76-1.1-2.21-2.86-3.13-4.34-.62a16.19 16.19 0 0 1-10.8 6.89c-3.11.53-6.53-2.12-3.89-5.44 2.17-3.06 5.29-4.45 8.84-5.1 1.59-.27 3.26-.12 4.17-1.72-1.54-1.66-3.56-.28-5.43-.09a9 9 0 0 1-7.27-1.4c-1.79-1.26-2-3-.46-4.56a10 10 0 0 1 11.13-2.13c3 1.63 6.09 3.44 6.53-1.43a4.19 4.19 0 0 0-1.63-.38 10.76 10.76 0 0 1-7.84-1C33.07 92 47.69 86 52.77 92.76c2 2.76 4.49-1.35 3.68-2.88a2 2 0 0 0-1.45-.52 7.13 7.13 0 0 1-5.75-2.18c-3.17-2.57.37-5.39 3.44-4.9Zm-15.6 36.93c2.89-.48 7.2-3 8.11-5.64.3-.86 0-1.49-1-1.56-3-.12-5.13 1.68-7.76 2.82-2.76 1.86-2.83 4.17.65 4.38Zm9.65-22c1.89-.06 5.07 0 4-2.51-1.31-3.32-6.29-3.52-8.48-2-3.26 2.38 2.53 4.78 4.48 4.5Zm-7.27 10c1.27-.22 8-1 5.13-3.53-2.37-2-9-2.26-9.75 1.45.69 1.75 2.6 1.93 4.62 2.02ZM53 87.33c1.17.29 2.38.26 2.79-1 .34-1.74-4.19-3.44-5-1.79-.64 1.7.96 2.3 2.21 2.79ZM88.37 263.53c9-.17 25.59-1.56 31.58-8.35 2.58-3.08 1.45-7.58-2.07-9.67-6.33-3.73-13.7-4.18-20.81-4.93-.64-.09-1.67-.67-1.71-1.1-.12-1.13 1-1.09 1.73-1 3.62.48 7.23 1 10.83 1.57 5.24 1 10.39 2.35 14.33 6.32 3.45 3.25 3.52 6.71-.12 10.56-6.49 6.55-16.28 7.08-24.87 8.59-15 1.05-30.46.24-43.58-7.43a12.93 12.93 0 0 1-5.61-6.82c-.6-1.81-1.25-2-2.64-.64-2.71 2.59-2.38 8.28.55 10.74 4.53 3.8 9.5 4.38 15.6 4.89 1.79.22 3.79-.32 4.94 1.45-.54.32-1.11.95-1.63.92-5.29-.41-10.73-.85-15.78-2.53-15.65-5-15.9-16.41.36-20.35 3.5-2.49 7.24-4.71 11.74-4.49a1.77 1.77 0 0 1 1.56.9c-.08 1-1.49 1.3-2.33 1.57-2.27.68-4.64 1.39-5.15 4.1-2.29 13.38 23.56 15.56 33.08 15.7Z"/><path d="M10.19 96.28c-8.75-.44-5.54-8.9-9.26-6.17-.2.12-.61-.1-.93-.17.14-.36.17-.84.43-1.09 4-3.82 8.1-7.44 12.12-11.2 3.12-2.42 5.12-7 9.52-7 .94 0 1.39.2 1.13 1.29-1.2 4.4 8.15-2.47 10.12-1.94a7.53 7.53 0 0 1-.81 2.76c-.09.68-.22 1.71.14 2 1.67.61 4.4-.9 6.05-.27 3.91 1.5 6-2.72 9.34-3.74a2.25 2.25 0 0 1 3.11 2.68 54.09 54.09 0 0 1-2.58 6.63c-.12.28-.64.39-1 .57-.69-1.33.39-2.54.53-3.86-.31-7.51-11 5.31-14.68 3.67-1.89-.28-3.12.44-4.43 1.8-2.35 2.42-5 4.59-7.52 6.83q-5.35 4.72-10.8 9.36a5.21 5.21 0 0 1-1.78.61c.12-.56.22-1.12.36-1.68.08-.15.75-.66.94-1.08ZM29.45 75c0-1.24-.7-1.53-1.79-.92Q22 77.23 16.31 80.4c-.82.47-1.59 1-2.41 1.51-2.72 1.53-1.16 1.52-.13 2.45 1.46 1.12 2.12 5.14 4.31 2.23 3.3-3.21 5-7.91 9.78-9.57A3.52 3.52 0 0 0 29.45 75ZM9.34 94.45c6.11-.11 6.77-8.45.55-8.85-6.38.04-6.71 8.54-.55 8.85Zm26.9-16.55c.78-.65 1.17-.59 1.77-1.09a1.09 1.09 0 0 0-.9-.35 12.73 12.73 0 0 0-2 .8c.26.33.71.09 1.13.64ZM20.69 67.55c11.76-22.48 26.56-21.88 49-23.47l.21.62c-3.84 1.71-8.48 1-12.63 1.76-10.22 1.27-21.27 5.43-27.92 13.4.56.11 1.13.51 1.69.36 6.62-1.17 3.87 5.4.72 7.8-1.83 2-6.05-.7-4.24-3 1.41-1.77 3.43-.24 4.93.58.16-.32.51-.7.43-.94a3.56 3.56 0 0 0-1-1.78c-4.2-2.53-7.3 3.72-10.76 5.11Z"/></g></g></svg>