<svg width="24" height="24" viewBox="0 0 24 24" fill="none" xmlns="http://www.w3.org/2000/svg">
<path d="M5.883 18.6528C5.583 18.4528 5.325 18.1978 5.02299 17.8368C4.86624 17.6449 4.7109 17.4519 4.557 17.2578C4.094 16.6828 3.802 16.4178 3.5 16.3088C3.25029 16.2191 3.04643 16.034 2.93325 15.794C2.82007 15.5541 2.80685 15.279 2.8965 15.0293C2.98614 14.7796 3.1713 14.5757 3.41126 14.4625C3.65121 14.3494 3.92629 14.3361 4.176 14.4258C4.928 14.6958 5.437 15.1608 6.123 16.0138C6.029 15.8968 6.463 16.4408 6.556 16.5528C6.746 16.7798 6.88599 16.9178 6.996 16.9908C7.2 17.1278 7.58299 17.1868 8.146 17.1308C8.16899 16.7488 8.24 16.3778 8.34799 16.0358C5.37999 15.3098 3.7 13.3958 3.7 9.63978C3.7 8.39978 4.06999 7.28378 4.758 6.34778C4.53999 5.45378 4.573 4.37278 5.06 3.15578C5.11526 3.01811 5.20047 2.89447 5.30943 2.79381C5.4184 2.69315 5.54839 2.61799 5.69 2.57378C5.771 2.54978 5.81699 2.53878 5.89799 2.52678C6.70099 2.40378 7.83499 2.69678 9.31299 3.62278C10.1938 3.41686 11.0954 3.31351 12 3.31478C12.912 3.31478 13.818 3.41878 14.684 3.62278C16.161 2.68978 17.297 2.39678 18.106 2.52678C18.191 2.53978 18.263 2.55678 18.324 2.57678C18.4628 2.62256 18.5899 2.69821 18.6964 2.79842C18.8028 2.89863 18.886 3.02095 18.94 3.15678C19.427 4.37278 19.46 5.45378 19.242 6.34678C19.933 7.28278 20.3 8.39178 20.3 9.63978C20.3 13.3968 18.626 15.3048 15.658 16.0318C15.783 16.4468 15.848 16.9108 15.848 17.4118C15.8481 18.3171 15.8441 19.2225 15.836 20.1278C16.0606 20.1768 16.2614 20.3016 16.4047 20.4813C16.548 20.6611 16.625 20.8847 16.6228 21.1145C16.6206 21.3444 16.5392 21.5664 16.3925 21.7433C16.2457 21.9202 16.0425 22.0412 15.817 22.0858C14.678 22.3138 13.834 21.5538 13.834 20.5608L13.836 20.1148L13.841 19.4098C13.846 18.7018 13.848 18.0718 13.848 17.4118C13.848 16.7148 13.665 16.2598 13.423 16.0518C12.762 15.4818 13.097 14.3968 13.963 14.2998C16.93 13.9668 18.3 12.8178 18.3 9.63978C18.3 8.68478 17.988 7.89578 17.387 7.23578C17.2604 7.09702 17.1754 6.92541 17.1418 6.74059C17.1082 6.55577 17.1273 6.36523 17.197 6.19078C17.363 5.77678 17.434 5.23378 17.293 4.57678L17.283 4.57978C16.792 4.71878 16.173 5.01978 15.425 5.52878C15.3044 5.61063 15.1673 5.66513 15.0234 5.68845C14.8795 5.71177 14.7323 5.70335 14.592 5.66378C13.7479 5.43007 12.8758 5.31265 12 5.31478C11.11 5.31478 10.228 5.43378 9.408 5.66478C9.26821 5.70404 9.12156 5.71238 8.97823 5.68924C8.8349 5.6661 8.69832 5.61203 8.578 5.53078C7.826 5.02378 7.204 4.72378 6.71 4.58378C6.566 5.23678 6.637 5.77778 6.802 6.19078C6.8718 6.36514 6.8911 6.55563 6.85767 6.74044C6.82425 6.92525 6.73945 7.09692 6.613 7.23578C6.016 7.88978 5.7 8.69378 5.7 9.63978C5.7 12.8118 7.071 13.9678 10.022 14.2998C10.887 14.3968 11.223 15.4768 10.566 16.0478C10.374 16.2158 10.137 16.7798 10.137 17.4118V20.5618C10.137 21.5478 9.302 22.2868 8.177 22.0898C7.94876 22.0497 7.74153 21.9316 7.59071 21.7557C7.4399 21.5798 7.35486 21.3569 7.35014 21.1252C7.34541 20.8936 7.4213 20.6674 7.56482 20.4855C7.70834 20.3036 7.91058 20.1771 8.137 20.1278V19.1378C7.227 19.1988 6.475 19.0498 5.883 18.6528Z" fill="#D1D5DB"/>
</svg>
