<svg width="19" height="20" viewBox="0 0 19 20" fill="none" xmlns="http://www.w3.org/2000/svg">
<path fill-rule="evenodd" clip-rule="evenodd" d="M0.840858 18.8047C0.645596 18.6095 0.708458 18.23 0.981264 17.9572L17.7759 1.16259C18.0487 0.889782 18.4281 0.826919 18.6234 1.02218C18.8187 1.21744 18.7558 1.59689 18.483 1.86969L1.68837 18.6643C1.41556 18.9371 1.03612 19 0.840858 18.8047Z" fill="white"/>
<path fill-rule="evenodd" clip-rule="evenodd" d="M18.6225 18.8047C18.8178 18.6095 18.7549 18.23 18.4821 17.9572L1.68749 1.16259C1.41468 0.889782 1.03524 0.826919 0.839977 1.02218C0.644715 1.21744 0.707578 1.59689 0.980383 1.86969L17.775 18.6643C18.0478 18.9371 18.4273 19 18.6225 18.8047Z" fill="white"/>
</svg>
