<svg width="18" height="21" viewBox="0 0 18 21" fill="none" xmlns="http://www.w3.org/2000/svg">
<path d="M13 0.5V2.5H12V5.743C12 6.90042 12.2511 8.04406 12.736 9.095L17.018 18.371C17.1236 18.5996 17.1699 18.851 17.1528 19.1022C17.1356 19.3534 17.0555 19.5963 16.9198 19.8083C16.7841 20.0204 16.5972 20.195 16.3764 20.3158C16.1555 20.4367 15.9078 20.5 15.656 20.5H2.344C2.09222 20.5 1.84449 20.4367 1.62362 20.3158C1.40276 20.195 1.21587 20.0204 1.08019 19.8083C0.944511 19.5963 0.864398 19.3534 0.847238 19.1022C0.830078 18.851 0.876423 18.5996 0.982002 18.371L5.264 9.095C5.74893 8.04406 6.00004 6.90042 6 5.743V2.5H5V0.5H13ZM10.388 8.501H7.612C7.5077 8.86479 7.38283 9.22236 7.238 9.572L7.08 9.933L3.125 18.5H14.874L10.92 9.933C10.7064 9.46993 10.5286 8.9912 10.388 8.501ZM8 5.743C7.99993 5.99594 7.99025 6.24879 7.971 6.501H10.029C10.0198 6.3798 10.0128 6.25845 10.008 6.137L10 5.743V2.5H8V5.743Z" fill="#73B6DA"/>
</svg>
