<svg width="48" height="42" viewBox="0 0 48 42" fill="none" xmlns="http://www.w3.org/2000/svg">
<g filter="url(#filter0_d_18_19167)">
<path d="M36.2152 10.3634C36.2152 10.6643 36.2152 10.9051 36.2152 11.206C36.2152 19.5716 29.8958 29.1409 18.2803 29.1409C14.6692 29.1409 11.3591 28.1177 8.59064 26.3122C9.07211 26.3724 9.55358 26.4326 10.0952 26.4326C13.0443 26.4326 15.7526 25.4094 17.9192 23.7243C15.1507 23.6641 12.8035 21.8586 12.0211 19.3308C12.4424 19.391 12.8035 19.4512 13.2248 19.4512C13.7665 19.4512 14.3683 19.3308 14.8498 19.2105C11.961 18.6086 9.79432 16.0809 9.79432 13.0115V12.9513C10.6369 13.4328 11.66 13.6735 12.6832 13.7337C10.9378 12.5902 9.85451 10.6643 9.85451 8.49769C9.85451 7.294 10.1554 6.21069 10.6971 5.30792C13.8267 9.09953 18.521 11.6273 23.7571 11.9282C23.6367 11.4467 23.5765 10.9652 23.5765 10.4838C23.5765 6.99308 26.4052 4.16442 29.8958 4.16442C31.7014 4.16442 33.3263 4.88664 34.53 6.1505C35.9143 5.84958 37.2985 5.30792 38.5022 4.58571C38.0207 6.09032 37.0578 7.294 35.7337 8.0764C36.9976 7.95603 38.2614 7.59492 39.3448 7.11345C38.5022 8.37732 37.4189 9.46063 36.2152 10.3634Z" fill="url(#paint0_linear_18_19167)"/>
</g>
<defs>
<filter id="filter0_d_18_19167" x="0.590637" y="0.164429" width="46.7542" height="40.9764" filterUnits="userSpaceOnUse" color-interpolation-filters="sRGB">
<feFlood flood-opacity="0" result="BackgroundImageFix"/>
<feColorMatrix in="SourceAlpha" type="matrix" values="0 0 0 0 0 0 0 0 0 0 0 0 0 0 0 0 0 0 127 0" result="hardAlpha"/>
<feOffset dy="4"/>
<feGaussianBlur stdDeviation="4"/>
<feComposite in2="hardAlpha" operator="out"/>
<feColorMatrix type="matrix" values="0 0 0 0 1 0 0 0 0 1 0 0 0 0 1 0 0 0 0.25 0"/>
<feBlend mode="normal" in2="BackgroundImageFix" result="effect1_dropShadow_18_19167"/>
<feBlend mode="normal" in="SourceGraphic" in2="effect1_dropShadow_18_19167" result="shape"/>
</filter>
<linearGradient id="paint0_linear_18_19167" x1="24.0906" y1="1.17792" x2="24.0906" y2="32.1779" gradientUnits="userSpaceOnUse">
<stop stop-color="white"/>
<stop offset="0.458333" stop-color="white"/>
<stop offset="0.713542" stop-color="#D2F3FA"/>
<stop offset="0.9375" stop-color="#D2F3FA"/>
<stop offset="1" stop-color="#CFF2FA"/>
</linearGradient>
</defs>
</svg>
