<svg width="46" height="50" viewBox="0 0 46 50" fill="none" xmlns="http://www.w3.org/2000/svg">
<g filter="url(#filter0_d_18_19171)">
<path d="M37.3531 16.8541C34.6449 16.9143 32.1171 16.0717 29.9505 14.5069V25.2799C29.9505 32.8029 21.7654 37.4973 15.2655 33.7658C8.76565 29.9742 8.76565 20.5855 15.2655 16.7939C17.1313 15.7106 19.3581 15.2893 21.5247 15.5902V21.0068C18.2146 19.9235 15.0248 22.8725 15.747 26.2428C16.5294 29.6131 20.6219 30.9372 23.2099 28.59C24.1126 27.7474 24.6543 26.5437 24.6543 25.2799V4.2154H29.9505C29.9505 4.69687 29.9505 5.11816 30.0709 5.59964C30.432 7.58571 31.5755 9.33106 33.3208 10.4144C34.4643 11.1968 35.9087 11.6181 37.3531 11.6181V16.8541Z" fill="url(#paint0_linear_18_19171)"/>
</g>
<defs>
<filter id="filter0_d_18_19171" x="0.765625" y="0.215393" width="44.5875" height="49.2819" filterUnits="userSpaceOnUse" color-interpolation-filters="sRGB">
<feFlood flood-opacity="0" result="BackgroundImageFix"/>
<feColorMatrix in="SourceAlpha" type="matrix" values="0 0 0 0 0 0 0 0 0 0 0 0 0 0 0 0 0 0 127 0" result="hardAlpha"/>
<feOffset dy="4"/>
<feGaussianBlur stdDeviation="4"/>
<feComposite in2="hardAlpha" operator="out"/>
<feColorMatrix type="matrix" values="0 0 0 0 1 0 0 0 0 1 0 0 0 0 1 0 0 0 0.25 0"/>
<feBlend mode="normal" in2="BackgroundImageFix" result="effect1_dropShadow_18_19171"/>
<feBlend mode="normal" in="SourceGraphic" in2="effect1_dropShadow_18_19171" result="shape"/>
</filter>
<linearGradient id="paint0_linear_18_19171" x1="23.8906" y1="4.17792" x2="23.8906" y2="35.1779" gradientUnits="userSpaceOnUse">
<stop stop-color="white"/>
<stop offset="0.458333" stop-color="white"/>
<stop offset="0.713542" stop-color="#D2F3FA"/>
<stop offset="0.9375" stop-color="#D2F3FA"/>
<stop offset="1" stop-color="#CFF2FA"/>
</linearGradient>
</defs>
</svg>
