<svg width="17" height="22" viewBox="0 0 17 22" fill="none" xmlns="http://www.w3.org/2000/svg">
<path d="M0.100952 21.3636C0.100952 19.2419 0.943807 17.2071 2.4441 15.7068C3.94439 14.2065 5.97922 13.3636 8.10095 13.3636C10.2227 13.3636 12.2575 14.2065 13.7578 15.7068C15.2581 17.2071 16.101 19.2419 16.101 21.3636H14.101C14.101 19.7723 13.4688 18.2462 12.3436 17.121C11.2184 15.9958 9.69225 15.3636 8.10095 15.3636C6.50965 15.3636 4.98353 15.9958 3.85831 17.121C2.73309 18.2462 2.10095 19.7723 2.10095 21.3636H0.100952ZM8.10095 12.3636C4.78595 12.3636 2.10095 9.67865 2.10095 6.36365C2.10095 3.04865 4.78595 0.363647 8.10095 0.363647C11.416 0.363647 14.101 3.04865 14.101 6.36365C14.101 9.67865 11.416 12.3636 8.10095 12.3636ZM8.10095 10.3636C10.311 10.3636 12.101 8.57365 12.101 6.36365C12.101 4.15365 10.311 2.36365 8.10095 2.36365C5.89095 2.36365 4.10095 4.15365 4.10095 6.36365C4.10095 8.57365 5.89095 10.3636 8.10095 10.3636Z" fill="#73B6DA"/>
</svg>
