<svg width="20" height="18" viewBox="0 0 20 18" fill="none" xmlns="http://www.w3.org/2000/svg">
<path d="M13.366 0L16.577 5.562H20V7.562H18.833L18.076 16.645C18.0552 16.8949 17.9413 17.1278 17.7568 17.2977C17.5723 17.4675 17.3308 17.5619 17.08 17.562H2.92C2.66925 17.5619 2.4277 17.4675 2.24322 17.2977C2.05875 17.1278 1.94481 16.8949 1.924 16.645L1.166 7.562H0V5.562H3.422L6.634 0L8.366 1L5.732 5.562H14.267L11.634 1L13.366 0ZM16.826 7.562H3.173L3.84 15.562H16.159L16.826 7.562ZM11 9.562V13.562H9V9.562H11ZM7 9.562V13.562H5V9.562H7ZM15 9.562V13.562H13V9.562H15Z" fill="#BCBCBC"/>
</svg>
