<svg width="21" height="19" viewBox="0 0 21 19" fill="none" xmlns="http://www.w3.org/2000/svg">
<path d="M7.36379 6.65729L2.41379 11.6073L7.60779 16.8013H8.77779V16.7993H9.94979L13.7278 13.0213L7.36379 6.65729ZM8.77779 5.24329L15.1418 11.6073L17.9698 8.77829L11.6058 2.41429L8.77779 5.24329ZM12.7778 16.7993H19.7778V18.7993H10.7778L6.77979 18.8013L0.292786 12.3143C0.105315 12.1268 0 11.8725 0 11.6073C0 11.3421 0.105315 11.0878 0.292786 10.9003L10.8978 0.293287C10.9907 0.20031 11.1009 0.126551 11.2223 0.0762269C11.3437 0.0259027 11.4739 0 11.6053 0C11.7367 0 11.8668 0.0259027 11.9882 0.0762269C12.1096 0.126551 12.2199 0.20031 12.3128 0.293287L20.0908 8.07129C20.2783 8.25881 20.3836 8.51312 20.3836 8.77829C20.3836 9.04345 20.2783 9.29776 20.0908 9.48529L12.7778 16.7993Z" fill="#DE4422"/>
</svg>
