<?xml version="1.0" encoding="UTF-8" standalone="no"?>
<!DOCTYPE svg PUBLIC "-//W3C//DTD SVG 1.1//EN" "http://www.w3.org/Graphics/SVG/1.1/DTD/svg11.dtd">
<svg width="100%" height="100%" viewBox="0 0 180 180" version="1.1" xmlns="http://www.w3.org/2000/svg" xmlns:xlink="http://www.w3.org/1999/xlink" xml:space="preserve" xmlns:serif="http://www.serif.com/" style="fill-rule:evenodd;clip-rule:evenodd;stroke-linejoin:round;stroke-miterlimit:2;">
    <g id="Layer-1" serif:id="Layer 1" transform="matrix(1.5,0,0,1.5,-296.64,-85.32)">
        <g transform="matrix(1,0,0,1,288.496,121.667)">
            <path d="M0,-38.462C7.743,-38.172 10.55,-33.044 7.646,-25.688C3.168,-14.165 -0.097,-6.507 -2.219,-1.166L-1.196,0L9.195,-26.462C12.485,-34.592 17.131,-37.689 21.583,-38.462L0,-38.462Z" style="fill:rgb(32,73,93);fill-rule:nonzero;"/>
        </g>
        <g transform="matrix(1,0,0,1,277.72,123.959)">
            <path d="M0,-10.204C-3.62,-13.086 -7.374,-15.846 -10.505,-19.253C-13.635,-22.66 -16.146,-26.83 -16.698,-31.424C-16.973,-33.709 -16.689,-36.208 -15.201,-37.964C-13.866,-39.536 -11.806,-40.252 -9.844,-40.886C-16.15,-40.789 -22.392,-37.923 -26.379,-33.042C-30.365,-28.159 -31.915,-21.292 -30.078,-15.262C-28.607,-10.435 -25.191,-6.434 -21.424,-3.078C-20.405,-2.171 -19.353,-1.301 -18.29,-0.445C-18.94,1.182 -19.506,2.579 -20.357,4.636C-22.874,10.635 -23.648,10.83 -25.002,10.83C-26.647,10.83 -28.198,8.107 -28.873,6.28C-34.612,-9.263 -40.307,-26.773 -41.86,-31.175C-45.005,-40.013 -35.182,-40.755 -35.182,-40.755C-43.602,-40.853 -59.167,-40.755 -67.392,-40.755C-65.844,-40.755 -60.038,-40.755 -56.651,-33.498C-56.157,-32.439 -34.47,29.459 -34.47,29.459L-28.873,29.509L-17.279,0.36C-14.733,2.383 -12.153,4.367 -9.786,6.595C-7.503,8.745 -5.43,11.12 -3.609,13.674C-1.486,16.652 0.36,20.351 -0.618,23.834C-1.753,26.866 -4.266,29.351 -7.31,30.454C-6.754,30.682 -6.059,30.605 -5.394,30.502C-1.332,29.864 2.574,28.251 5.902,25.838C9.525,23.213 12.129,19.502 13.125,15.141C13.922,11.645 13.835,7.526 12.568,4.495C9.826,-1.519 5.151,-6.105 0,-10.204" style="fill:rgb(32,73,93);fill-rule:nonzero;"/>
        </g>
    </g>
</svg>
