<svg width="24" height="24" viewBox="0 0 24 24" fill="none" xmlns="http://www.w3.org/2000/svg">
<path d="M12.2628 10.2857V14.4H19.2701C18.9197 16.1143 17.1679 19.5429 12.2628 19.5429C8.05839 19.5429 4.72993 16.1143 4.72993 12C4.72993 7.88571 8.05839 4.45714 12.2628 4.45714C14.7153 4.45714 16.292 5.48571 17.1679 6.34286L20.4964 3.25714C18.3942 1.2 15.5912 0 12.2628 0C5.43066 0 0 5.31429 0 12C0 18.6857 5.43066 24 12.2628 24C19.2701 24 24 19.2 24 12.3429C24 11.4857 24 10.9714 23.8248 10.2857H12.2628Z" fill="#191E28"/>
</svg>
