<svg width="48" height="48" viewBox="0 0 48 48" fill="none" xmlns="http://www.w3.org/2000/svg">
<path d="M48 24C48 37.2548 37.2548 48 24 48C10.7452 48 0 37.2548 0 24C0 10.7452 10.7452 0 24 0C37.2548 0 48 10.7452 48 24Z" fill="url(#paint0_linear_301_8319)"/>
<path d="M24 21C23.2044 21 22.4413 21.3161 21.8787 21.8787C21.3161 22.4413 21 23.2044 21 24C21 24.7956 21.3161 25.5587 21.8787 26.1213C22.4413 26.6839 23.2044 27 24 27C24.7956 27 25.5587 26.6839 26.1213 26.1213C26.6839 25.5587 27 24.7956 27 24C27 23.2044 26.6839 22.4413 26.1213 21.8787C25.5587 21.3161 24.7956 21 24 21ZM24 19C25.3261 19 26.5979 19.5268 27.5355 20.4645C28.4732 21.4021 29 22.6739 29 24C29 25.3261 28.4732 26.5979 27.5355 27.5355C26.5979 28.4732 25.3261 29 24 29C22.6739 29 21.4021 28.4732 20.4645 27.5355C19.5268 26.5979 19 25.3261 19 24C19 22.6739 19.5268 21.4021 20.4645 20.4645C21.4021 19.5268 22.6739 19 24 19ZM30.5 18.75C30.5 19.0815 30.3683 19.3995 30.1339 19.6339C29.8995 19.8683 29.5815 20 29.25 20C28.9185 20 28.6005 19.8683 28.3661 19.6339C28.1317 19.3995 28 19.0815 28 18.75C28 18.4185 28.1317 18.1005 28.3661 17.8661C28.6005 17.6317 28.9185 17.5 29.25 17.5C29.5815 17.5 29.8995 17.6317 30.1339 17.8661C30.3683 18.1005 30.5 18.4185 30.5 18.75ZM24 16C21.526 16 21.122 16.007 19.971 16.058C19.187 16.095 18.661 16.2 18.173 16.39C17.739 16.558 17.426 16.759 17.093 17.093C16.78 17.3954 16.5394 17.7646 16.389 18.173C16.199 18.663 16.094 19.188 16.058 19.971C16.006 21.075 16 21.461 16 24C16 26.474 16.007 26.878 16.058 28.029C16.095 28.812 16.2 29.339 16.389 29.826C16.559 30.261 16.759 30.574 17.091 30.906C17.428 31.242 17.741 31.443 18.171 31.609C18.665 31.8 19.191 31.906 19.971 31.942C21.075 31.994 21.461 32 24 32C26.474 32 26.878 31.993 28.029 31.942C28.811 31.905 29.338 31.8 29.826 31.611C30.259 31.442 30.574 31.241 30.906 30.909C31.243 30.572 31.444 30.259 31.61 29.829C31.8 29.336 31.906 28.809 31.942 28.029C31.994 26.925 32 26.539 32 24C32 21.526 31.993 21.122 31.942 19.971C31.905 19.189 31.8 18.661 31.61 18.173C31.4593 17.765 31.2191 17.396 30.907 17.093C30.6047 16.7798 30.2355 16.5392 29.827 16.389C29.337 16.199 28.811 16.094 28.029 16.058C26.925 16.006 26.539 16 24 16ZM24 14C26.717 14 27.056 14.01 28.122 14.06C29.187 14.11 29.912 14.277 30.55 14.525C31.21 14.779 31.766 15.123 32.322 15.678C32.8305 16.1779 33.224 16.7826 33.475 17.45C33.722 18.087 33.89 18.813 33.94 19.878C33.987 20.944 34 21.283 34 24C34 26.717 33.99 27.056 33.94 28.122C33.89 29.187 33.722 29.912 33.475 30.55C33.2247 31.2178 32.8311 31.8226 32.322 32.322C31.822 32.8303 31.2173 33.2238 30.55 33.475C29.913 33.722 29.187 33.89 28.122 33.94C27.056 33.987 26.717 34 24 34C21.283 34 20.944 33.99 19.878 33.94C18.813 33.89 18.088 33.722 17.45 33.475C16.7823 33.2245 16.1775 32.8309 15.678 32.322C15.1694 31.8222 14.7759 31.2175 14.525 30.55C14.277 29.913 14.11 29.187 14.06 28.122C14.013 27.056 14 26.717 14 24C14 21.283 14.01 20.944 14.06 19.878C14.11 18.812 14.277 18.088 14.525 17.45C14.7752 16.7822 15.1688 16.1773 15.678 15.678C16.1777 15.1692 16.7824 14.7757 17.45 14.525C18.088 14.277 18.812 14.11 19.878 14.06C20.944 14.013 21.283 14 24 14Z" fill="white"/>
<defs>
<linearGradient id="paint0_linear_301_8319" x1="24" y1="0" x2="24" y2="48" gradientUnits="userSpaceOnUse">
<stop stop-color="#6A1DD7"/>
<stop offset="0.510417" stop-color="#C92171"/>
<stop offset="1" stop-color="#DC9B3A"/>
</linearGradient>
</defs>
</svg>
