<svg width="49" height="48" viewBox="0 0 49 48" fill="none" xmlns="http://www.w3.org/2000/svg">
<path d="M12.25 20V40H38.25V20H12.25ZM36.25 16H40.25C40.7804 16 41.2891 16.2107 41.6642 16.5858C42.0393 16.9609 42.25 17.4696 42.25 18V42C42.25 42.5304 42.0393 43.0391 41.6642 43.4142C41.2891 43.7893 40.7804 44 40.25 44H8.25C7.71957 44 7.21086 43.7893 6.83579 43.4142C6.46071 43.0391 6.25 42.5304 6.25 42V18C6.25 17.4696 6.46071 16.9609 6.83579 16.5858C7.21086 16.2107 7.71957 16 8.25 16H12.25V14C12.25 10.8174 13.5143 7.76516 15.7647 5.51472C18.0152 3.26428 21.0674 2 24.25 2C27.4326 2 30.4848 3.26428 32.7353 5.51472C34.9857 7.76516 36.25 10.8174 36.25 14V16ZM32.25 16V14C32.25 11.8783 31.4071 9.84344 29.9069 8.34315C28.4066 6.84285 26.3717 6 24.25 6C22.1283 6 20.0934 6.84285 18.5931 8.34315C17.0929 9.84344 16.25 11.8783 16.25 14V16H32.25ZM14.25 22H18.25V26H14.25V22ZM14.25 28H18.25V32H14.25V28ZM14.25 34H18.25V38H14.25V34Z" fill="#F9FAFB"/>
</svg>
