<svg width="49" height="48" viewBox="0 0 49 48" fill="none" xmlns="http://www.w3.org/2000/svg">
<path d="M34.918 31.6241C36.7988 29.6369 38.0561 27.1421 38.5344 24.448C39.0127 21.754 38.6912 18.9789 37.6094 16.4657C36.5277 13.9524 34.7332 11.8113 32.4478 10.3068C30.1623 8.80236 27.4862 8.00059 24.75 8.00059C22.0139 8.00059 19.3377 8.80236 17.0522 10.3068C14.7668 11.8113 12.9723 13.9524 11.8906 16.4657C10.8089 18.9789 10.4873 21.754 10.9656 24.448C11.4439 27.1421 12.7012 29.6369 14.582 31.6241C15.6613 29.9018 17.1607 28.4821 18.9393 27.4983C20.718 26.5145 22.7175 25.999 24.75 26.0001C26.7826 25.999 28.7821 26.5145 30.5607 27.4983C32.3393 28.4821 33.8387 29.9018 34.918 31.6241V31.6241ZM17.52 34.5701L24.75 41.7981L31.98 34.5701C31.3316 33.2012 30.308 32.0445 29.0281 31.2345C27.7482 30.4246 26.2647 29.9946 24.75 29.9946C23.2353 29.9946 21.7518 30.4246 20.4719 31.2345C19.192 32.0445 18.1684 33.2012 17.52 34.5701V34.5701ZM24.75 47.4561L12.022 34.7281C9.50469 32.2107 7.79037 29.0034 7.09586 25.5118C6.40134 22.0201 6.75781 18.4009 8.1202 15.1119C9.48258 11.8228 11.7897 9.01163 14.7498 7.03378C17.7098 5.05592 21.19 4.00024 24.75 4.00024C28.3101 4.00024 31.7902 5.05592 34.7502 7.03378C37.7103 9.01163 40.0174 11.8228 41.3798 15.1119C42.7422 18.4009 43.0987 22.0201 42.4042 25.5118C41.7096 29.0034 39.9953 32.2107 37.478 34.7281L24.75 47.4561ZM24.75 20.0001C25.2804 20.0001 25.7891 19.7894 26.1642 19.4143C26.5393 19.0392 26.75 18.5305 26.75 18.0001C26.75 17.4697 26.5393 16.9609 26.1642 16.5859C25.7891 16.2108 25.2804 16.0001 24.75 16.0001C24.2196 16.0001 23.7109 16.2108 23.3358 16.5859C22.9607 16.9609 22.75 17.4697 22.75 18.0001C22.75 18.5305 22.9607 19.0392 23.3358 19.4143C23.7109 19.7894 24.2196 20.0001 24.75 20.0001V20.0001ZM24.75 24.0001C23.1587 24.0001 21.6326 23.3679 20.5074 22.2427C19.3821 21.1175 18.75 19.5914 18.75 18.0001C18.75 16.4088 19.3821 14.8827 20.5074 13.7574C21.6326 12.6322 23.1587 12.0001 24.75 12.0001C26.3413 12.0001 27.8674 12.6322 28.9926 13.7574C30.1179 14.8827 30.75 16.4088 30.75 18.0001C30.75 19.5914 30.1179 21.1175 28.9926 22.2427C27.8674 23.3679 26.3413 24.0001 24.75 24.0001Z" fill="#F9FAFB"/>
</svg>
