<svg width="21" height="17" viewBox="0 0 21 17" fill="none" xmlns="http://www.w3.org/2000/svg">
<path d="M9.012 7.59L4.502 0.518L6.433 0L13.384 6.42L18.646 5.01C19.0303 4.9071 19.4397 4.96107 19.7842 5.16004C20.1287 5.35902 20.3801 5.6867 20.483 6.071C20.5859 6.4553 20.5319 6.86474 20.333 7.20924C20.134 7.55375 19.8063 7.8051 19.422 7.908L4.45 11.918L3.674 9.02L3.915 8.955L6.382 11.4L3.756 12.104C3.54067 12.1617 3.31221 12.1459 3.10693 12.0589C2.90165 11.9719 2.73132 11.8189 2.623 11.624L0 6.898L1.449 6.51L3.915 8.955L9.012 7.589V7.59ZM2.534 14.958H18.534V16.958H2.534V14.958Z" fill="#E196E8"/>
</svg>
