<svg width="22" height="22" viewBox="0 0 22 22" fill="none" xmlns="http://www.w3.org/2000/svg">
<path d="M7.58579 2.89979L10.1928 0.292786C10.3803 0.105315 10.6346 0 10.8998 0C11.165 0 11.4193 0.105315 11.6068 0.292786L14.2138 2.89979H17.8998C18.165 2.89979 18.4194 3.00514 18.6069 3.19268C18.7944 3.38022 18.8998 3.63457 18.8998 3.89979V7.58579L21.5068 10.1928C21.6943 10.3803 21.7996 10.6346 21.7996 10.8998C21.7996 11.165 21.6943 11.4193 21.5068 11.6068L18.8998 14.2138V17.8998C18.8998 18.165 18.7944 18.4194 18.6069 18.6069C18.4194 18.7944 18.165 18.8998 17.8998 18.8998H14.2138L11.6068 21.5068C11.4193 21.6943 11.165 21.7996 10.8998 21.7996C10.6346 21.7996 10.3803 21.6943 10.1928 21.5068L7.58579 18.8998H3.89979C3.63457 18.8998 3.38022 18.7944 3.19268 18.6069C3.00514 18.4194 2.89979 18.165 2.89979 17.8998V14.2138L0.292786 11.6068C0.105315 11.4193 0 11.165 0 10.8998C0 10.6346 0.105315 10.3803 0.292786 10.1928L2.89979 7.58579V3.89979C2.89979 3.63457 3.00514 3.38022 3.19268 3.19268C3.38022 3.00514 3.63457 2.89979 3.89979 2.89979H7.58579ZM4.89979 4.89979V8.41479L2.41479 10.8998L4.89979 13.3848V16.8998H8.41479L10.8998 19.3848L13.3848 16.8998H16.8998V13.3848L19.3848 10.8998L16.8998 8.41479V4.89979H13.3848L10.8998 2.41479L8.41479 4.89979H4.89979ZM10.8998 14.8998C9.83892 14.8998 8.82151 14.4784 8.07136 13.7282C7.32121 12.9781 6.89979 11.9607 6.89979 10.8998C6.89979 9.83892 7.32121 8.82151 8.07136 8.07136C8.82151 7.32121 9.83892 6.89979 10.8998 6.89979C11.9607 6.89979 12.9781 7.32121 13.7282 8.07136C14.4784 8.82151 14.8998 9.83892 14.8998 10.8998C14.8998 11.9607 14.4784 12.9781 13.7282 13.7282C12.9781 14.4784 11.9607 14.8998 10.8998 14.8998ZM10.8998 12.8998C11.4302 12.8998 11.9389 12.6891 12.314 12.314C12.6891 11.9389 12.8998 11.4302 12.8998 10.8998C12.8998 10.3694 12.6891 9.86065 12.314 9.48557C11.9389 9.1105 11.4302 8.89979 10.8998 8.89979C10.3694 8.89979 9.86065 9.1105 9.48557 9.48557C9.1105 9.86065 8.89979 10.3694 8.89979 10.8998C8.89979 11.4302 9.1105 11.9389 9.48557 12.314C9.86065 12.6891 10.3694 12.8998 10.8998 12.8998Z" fill="#BCBCBC"/>
</svg>
