<svg width="24" height="25" viewBox="0 0 24 25" fill="none" xmlns="http://www.w3.org/2000/svg">
<path d="M11 16.434C9.11596 16.1786 7.39918 15.2172 6.19688 13.7443C4.99457 12.2714 4.39646 10.3969 4.52349 8.49985C4.65052 6.60279 5.49321 4.82475 6.88116 3.5253C8.2691 2.22585 10.0987 1.50195 12 1.5C13.9037 1.49817 15.7368 2.22028 17.1277 3.51993C18.5186 4.81959 19.3633 6.59953 19.4905 8.49891C19.6177 10.3983 19.0179 12.275 17.8126 13.7485C16.6074 15.222 14.8869 16.182 13 16.434V18.5H18V20.5H13V24.5H11V20.5H6.00003V18.5H11V16.434ZM12 14.5C13.4587 14.5 14.8577 13.9205 15.8891 12.8891C16.9206 11.8576 17.5 10.4587 17.5 9C17.5 7.54131 16.9206 6.14237 15.8891 5.11092C14.8577 4.07947 13.4587 3.5 12 3.5C10.5413 3.5 9.14239 4.07947 8.11094 5.11092C7.07949 6.14237 6.50003 7.54131 6.50003 9C6.50003 10.4587 7.07949 11.8576 8.11094 12.8891C9.14239 13.9205 10.5413 14.5 12 14.5Z" fill="#73B6DA"/>
</svg>
