<svg width="21" height="22" viewBox="0 0 21 22" fill="none" xmlns="http://www.w3.org/2000/svg">
<path d="M3.34395 5.39914L0.100952 2.15714L1.51595 0.742142L4.75795 3.98514H20C20.1558 3.98513 20.3095 4.02156 20.4488 4.09151C20.5881 4.16146 20.7091 4.26301 20.8022 4.38804C20.8953 4.51307 20.9578 4.65813 20.9849 4.81163C21.0119 4.96513 21.0027 5.12283 20.958 5.27214L18.558 13.2721C18.4962 13.4782 18.3696 13.6589 18.1971 13.7873C18.0245 13.9158 17.8151 13.9852 17.6 13.9851H5.34395V15.9851H16.344V17.9851H4.34395C4.07874 17.9851 3.82438 17.8798 3.63685 17.6922C3.44931 17.5047 3.34395 17.2504 3.34395 16.9851V5.39914ZM5.34395 5.98514V11.9851H16.856L18.656 5.98514H5.34395ZM4.84395 21.9851C4.44613 21.9851 4.0646 21.8271 3.78329 21.5458C3.50199 21.2645 3.34395 20.883 3.34395 20.4851C3.34395 20.0873 3.50199 19.7058 3.78329 19.4245C4.0646 19.1432 4.44613 18.9851 4.84395 18.9851C5.24178 18.9851 5.62331 19.1432 5.90461 19.4245C6.18592 19.7058 6.34395 20.0873 6.34395 20.4851C6.34395 20.883 6.18592 21.2645 5.90461 21.5458C5.62331 21.8271 5.24178 21.9851 4.84395 21.9851ZM16.844 21.9851C16.4461 21.9851 16.0646 21.8271 15.7833 21.5458C15.502 21.2645 15.344 20.883 15.344 20.4851C15.344 20.0873 15.502 19.7058 15.7833 19.4245C16.0646 19.1432 16.4461 18.9851 16.844 18.9851C17.2418 18.9851 17.6233 19.1432 17.9046 19.4245C18.1859 19.7058 18.344 20.0873 18.344 20.4851C18.344 20.883 18.1859 21.2645 17.9046 21.5458C17.6233 21.8271 17.2418 21.9851 16.844 21.9851Z" fill="#73B6DA"/>
</svg>
