<svg width="24" height="25" viewBox="0 0 24 25" fill="none" xmlns="http://www.w3.org/2000/svg">
<path d="M15.05 9.037L18.585 5.5H14V3.5H22V11.5H20V6.914L16.463 10.451C17.6169 11.9635 18.1528 13.858 17.9624 15.7508C17.7719 17.6437 16.8693 19.3934 15.4372 20.6457C14.0052 21.898 12.1507 22.5594 10.2494 22.4958C8.34808 22.4322 6.54196 21.6485 5.19676 20.3033C3.85157 18.9581 3.06784 17.152 3.00425 15.2506C2.94067 13.3493 3.602 11.4949 4.85432 10.0628C6.10664 8.63075 7.85637 7.7281 9.7492 7.53764C11.642 7.34719 13.5365 7.88315 15.049 9.037H15.05ZM10.5 20.5C11.9587 20.5 13.3577 19.9205 14.3891 18.8891C15.4206 17.8576 16 16.4587 16 15C16 13.5413 15.4206 12.1424 14.3891 11.1109C13.3577 10.0795 11.9587 9.5 10.5 9.5C9.04134 9.5 7.64239 10.0795 6.61094 11.1109C5.57949 12.1424 5.00003 13.5413 5.00003 15C5.00003 16.4587 5.57949 17.8576 6.61094 18.8891C7.64239 19.9205 9.04134 20.5 10.5 20.5V20.5Z" fill="#73B6DA"/>
</svg>
