<svg width="48" height="48" viewBox="0 0 48 48" fill="none" xmlns="http://www.w3.org/2000/svg">
<circle cx="24" cy="24" r="24" fill="#70ADE3"/>
<path d="M24 32C26.1217 32 28.1566 31.1571 29.6569 29.6569C31.1571 28.1566 32 26.1217 32 24C32 21.8783 31.1571 19.8434 29.6569 18.3431C28.1566 16.8429 26.1217 16 24 16C21.8783 16 19.8434 16.8429 18.3431 18.3431C16.8429 19.8434 16 21.8783 16 24C16 26.1217 16.8429 28.1566 18.3431 29.6569C19.8434 31.1571 21.8783 32 24 32ZM24 34C18.477 34 14 29.523 14 24C14 18.477 18.477 14 24 14C29.523 14 34 18.477 34 24C34 29.523 29.523 34 24 34ZM20.89 25.17L18.392 24.391C17.852 24.226 17.849 23.854 18.513 23.587L28.246 19.827C28.811 19.597 29.131 19.888 28.948 20.617L27.291 28.437C27.175 28.994 26.84 29.127 26.375 28.87L23.824 26.982L22.635 28.13C22.513 28.248 22.414 28.349 22.226 28.374C22.039 28.4 21.885 28.344 21.772 28.034L20.902 25.163L20.89 25.171V25.17Z" fill="white"/>
</svg>
