<svg width="21" height="21" viewBox="0 0 21 21" fill="none" xmlns="http://www.w3.org/2000/svg">
<path fill-rule="evenodd" clip-rule="evenodd" d="M7.37785 2.13171C8.9294 2.06129 14.0336 2.04369 15.4618 2.18452C16.837 2.31656 17.604 2.76547 18.2387 3.51367C18.891 4.28827 19.0409 5.45897 19.0938 6.75291C19.1555 8.31091 19.182 13.381 19.0409 14.7982C18.8999 16.1802 18.4326 16.9548 17.6921 17.5621C16.8811 18.2311 15.7791 18.3719 14.4832 18.4247C12.9493 18.4864 7.801 18.504 6.41695 18.3631C5.00645 18.2223 4.26594 17.7822 3.64003 17.034C2.95241 16.2154 2.83781 15.0975 2.7761 13.7947C2.70558 12.3424 2.69676 7.1138 2.82899 5.75825C2.96123 4.44671 3.41964 3.59289 4.16015 2.99433C4.98882 2.31656 6.07314 2.19333 7.37785 2.13171ZM0.951268 13.7419C1.03061 15.3879 1.15403 16.541 1.91217 17.747C2.56453 18.768 3.59595 19.5074 4.78606 19.8771C6.12603 20.2908 7.92442 20.2556 9.40544 20.2556C11.0451 20.2556 12.7377 20.2908 14.3686 20.2292C16.07 20.1588 17.1896 20.0356 18.415 19.261C19.3318 18.6712 20.134 17.7294 20.5484 16.4002C20.9892 14.9918 20.901 13.293 20.901 11.7526C20.901 10.0978 20.901 8.44295 20.901 6.78812C20.8922 5.26532 20.6542 3.84815 19.9225 2.76547C19.5698 2.23734 19.1996 1.85004 18.7147 1.48034C18.2563 1.12825 17.6921 0.855378 17.0486 0.644123C15.7703 0.24802 13.8397 0.274427 12.4116 0.274427C10.7719 0.274427 9.07927 0.239218 7.44838 0.309636C5.81749 0.371252 4.60975 0.520891 3.41964 1.28669C0.819034 2.95032 0.933637 5.9431 0.924822 8.78624C0.916006 10.4059 0.880744 12.1223 0.951268 13.7419Z" fill="white"/>
<path fill-rule="evenodd" clip-rule="evenodd" d="M8.51367 9.08326V10.8279H10.112V15.2656H11.5618V10.8194L13.1388 10.8279C13.1813 10.252 13.2661 9.66762 13.3157 9.08326H11.5618C11.5618 8.95622 11.5618 8.9901 11.5618 8.7699C11.5618 7.90607 11.583 7.45721 11.8022 7.1608C12.0497 6.82204 12.4387 6.8305 13.2025 6.83897H13.4995L13.5137 5.32302C12.962 5.26374 12.4316 5.23833 11.9507 5.30608C11.4415 5.39077 11.0031 5.58556 10.6919 5.99207C10.1332 6.72888 10.0908 7.57578 10.0978 8.65134C10.1049 8.88 10.112 8.91388 10.112 9.08326H8.51367Z" fill="white"/>
</svg>
