<svg width="23" height="21" viewBox="0 0 23 21" fill="none" xmlns="http://www.w3.org/2000/svg">
<path d="M11.684 20.5238L2.49202 11.3318C0.312024 8.76383 0.426024 4.91183 2.84502 2.49183C4.00504 1.33184 5.56077 0.653375 7.20013 0.592541C8.83949 0.531707 10.4412 1.093 11.684 2.16383C12.9256 1.093 14.5259 0.530912 16.1644 0.590191C17.8028 0.649471 19.3584 1.32574 20.5193 2.48348C21.6802 3.64123 22.3607 5.19492 22.4244 6.83321C22.4882 8.47151 21.9305 10.0734 20.863 11.3178L11.684 20.5238ZM19.346 10.0148C20.0849 9.15323 20.4708 8.04426 20.4266 6.91013C20.3824 5.77599 19.9112 4.70046 19.1075 3.89903C18.3038 3.0976 17.2269 2.62948 16.0926 2.58846C14.9584 2.54744 13.8505 2.93655 12.991 3.67783L11.684 4.80583L10.377 3.67783C9.51753 2.93655 8.40966 2.54744 7.2754 2.58846C6.14114 2.62948 5.06428 3.0976 4.26057 3.89903C3.45687 4.70046 2.98569 5.77599 2.94146 6.91013C2.89722 8.04426 3.28319 9.15323 4.02202 10.0148L4.13602 10.1468L11.684 17.6958L19.232 10.1468L19.346 10.0148Z" fill="#5C5C5C"/>
</svg>
