<svg width="41" height="34" viewBox="0 0 41 34" fill="none" xmlns="http://www.w3.org/2000/svg">
<path d="M0.75 21.9782C0.75 17.8082 1.7601 13.8466 3.7803 10.0936C5.88131 6.34052 8.62879 3.21298 12.0227 0.710938L17.8409 5.4648C15.8207 6.71582 13.9217 8.46725 12.1439 10.7191C10.447 12.9709 9.43687 15.1393 9.11364 17.2244C9.43687 17.0576 10.1237 16.9742 11.1742 16.9742C13.1944 16.9742 14.8914 17.7248 16.2652 19.226C17.6389 20.7272 18.3258 22.6037 18.3258 24.8556C18.3258 27.1908 17.5177 29.1924 15.9015 30.8605C14.2854 32.5285 12.346 33.3625 10.0833 33.3625C7.49748 33.3625 5.27525 32.3617 3.41667 30.3601C1.63889 28.275 0.75 25.4811 0.75 21.9782ZM23.1742 21.9782C23.1742 17.8082 24.1843 13.8466 26.2045 10.0936C28.3056 6.34052 31.053 3.21298 34.447 0.710938L40.2652 5.4648C38.245 6.71582 36.346 8.46725 34.5682 10.7191C32.8712 12.9709 31.8611 15.1393 31.5379 17.2244C31.8611 17.0576 32.548 16.9742 33.5985 16.9742C35.6187 16.9742 37.3157 17.7248 38.6894 19.226C40.0631 20.7272 40.75 22.6037 40.75 24.8556C40.75 27.1908 39.9419 29.1924 38.3258 30.8605C36.7096 32.5285 34.7702 33.3625 32.5076 33.3625C29.9217 33.3625 27.6995 32.3617 25.8409 30.3601C24.0631 28.275 23.1742 25.4811 23.1742 21.9782Z" fill="#DDDDDD"/>
</svg>
