<svg width="21" height="15" viewBox="0 0 21 15" fill="none" xmlns="http://www.w3.org/2000/svg">
<path fill-rule="evenodd" clip-rule="evenodd" d="M18.6563 14.5033C19.5092 14.2737 20.1818 13.6014 20.4113 12.7485C20.8379 11.1907 20.8215 7.94359 20.8215 7.94359C20.8215 7.94359 20.8215 4.713 20.4115 3.15505C20.1818 2.30233 19.5093 1.62991 18.6563 1.4004C17.098 0.990294 10.8649 0.990294 10.8649 0.990294C10.8649 0.990294 4.64803 0.990294 3.07346 1.41665C2.22039 1.64631 1.54797 2.31874 1.31825 3.17146C0.908203 4.713 0.908203 7.95999 0.908203 7.95999C0.908203 7.95999 0.908203 11.1907 1.31825 12.7485C1.54781 13.6012 2.2368 14.2901 3.07331 14.5196C4.63162 14.9297 10.8647 14.9297 10.8647 14.9297C10.8647 14.9297 17.098 14.9297 18.6563 14.5033ZM14.1139 7.96001L8.87355 4.97299V10.947L14.1139 7.96001Z" fill="white"/>
</svg>
