<svg width="18" height="15" viewBox="0 0 18 15" fill="none" xmlns="http://www.w3.org/2000/svg">
<path fill-rule="evenodd" clip-rule="evenodd" d="M14.116 2.68598C14.1395 2.93736 13.5756 3.36829 13.3171 3.59572L10.3215 6.39676C10.204 6.49252 10.11 6.56434 10.0043 6.67207L6.98517 9.48508C6.71498 9.71251 6.78546 9.74842 6.73847 10.3948C6.67973 11.125 6.48002 13.2796 6.50352 13.7345C6.85595 13.7106 7.1144 13.5071 7.31411 13.3275C7.94848 12.7649 8.46537 12.1664 9.17023 11.532C9.3582 11.6278 12.5888 14.1056 12.9295 14.357C13.4816 14.7759 14.0573 14.7999 14.3509 14.1654C14.5272 13.7465 15.7959 7.40226 15.9251 6.80374C16.1718 5.58278 16.4303 4.36182 16.6887 3.12888C16.8062 2.53037 16.9707 1.89595 17.0646 1.28547C17.1939 0.567251 16.8414 -0.0671711 16.0661 0.160263C15.4435 0.339817 10.5917 2.31491 9.72237 2.65007C7.59605 3.45208 5.50497 4.30197 3.3904 5.13988C2.75602 5.39126 0.629702 6.12144 0.312516 6.46858C-0.310109 7.12694 0.747178 7.3065 1.19359 7.46211L4.56516 8.50352C4.72963 8.51549 10.7327 4.61319 11.3083 4.23014L13.3289 2.93736C13.5521 2.79372 13.7988 2.54234 14.116 2.68598Z" fill="white"/>
</svg>
